<svg xmlns="http://www.w3.org/2000/svg" version="1.1" viewBox="0 0 100 100">
	<path fill="#006a42" d="M23.6,36.4c1.1,4.8,2.4,9.7,4.5,14.2c0.5,1.1,1.6,2.4,2.9,2.6c1.3,0.2,1.2-1.2,0.8-2c-2-4.3-3.1-8.8-4.1-13.4  c-1-4-1.9-8.1-2.9-12.1c7.5,4.2,15.8,7,24.4,8.1c1.3,0.2,1.2-1.2,0.8-2c-0.5-1.1-1.6-2.5-2.9-2.6c-8.9-1.1-17.4-4-25-8.8  c-1-0.7-2.4-0.6-2.1,1C21.2,26.4,22.4,31.4,23.6,36.4z"/>
	<path fill="#006a42" d="M38.8,40.6c-3.3-3.8-6.5-7.7-9.5-11.6c-0.5-0.7-2-1.9-2.9-1.2c-0.9,0.7,0.3,2.5,0.7,3.1  c11.1,14.6,24,27.8,38.3,39.4c4.1,3.3,8.3,6.4,12.5,9.4c0.7,0.5,2.1,0.8,2.1-0.5c0-1.3-1.1-2.6-2.1-3.3  C63.5,65.7,50.4,53.9,38.8,40.6z"/>
</svg>