<?xml version="1.0" encoding="utf-8"?>
<svg viewBox="1032.7087 97.4059 540.114 211.762" xmlns="http://www.w3.org/2000/svg" xmlns:bx="https://boxy-svg.com">
  <defs>
    <style bx:fonts="Nunito">@import url(https://fonts.googleapis.com/css2?family=Nunito%3Aital%2Cwght%400%2C200%3B0%2C300%3B0%2C400%3B0%2C500%3B0%2C600%3B0%2C700%3B0%2C800%3B0%2C900%3B1%2C200%3B1%2C300%3B1%2C400%3B1%2C500%3B1%2C600%3B1%2C700%3B1%2C800%3B1%2C900&amp;display=swap);</style>
  </defs>
  <g transform="matrix(1, 0, 0, 1, -463.84326171875, -87.89112854003906)">
    <path d="M 1496.552 285.849 C 1496.552 313.63 1508.441 338.758 1527.667 356.95 C 1546.881 375.156 1573.417 386.413 1602.758 386.413 L 1896.629 386.538 C 1920.098 386.538 1941.806 379.325 1959.404 367.123 C 1996.817 391.458 2036.666 397.059 2036.666 397.059 C 2036.666 397.059 2002.908 365.997 2002.908 285.917 C 2002.908 230.341 1955.339 185.297 1896.643 185.297 L 1602.758 185.297 C 1544.107 185.297 1496.552 230.313 1496.552 285.849" style="fill-opacity: 1; fill-rule: nonzero; stroke: none; fill: rgb(1, 135, 255);" id="path40"/>
    <text style="fill: rgb(255, 255, 255); font-family: Nunito; font-size: 31.1608px; line-height: 52.79px; white-space: pre;" transform="matrix(0.952672, 0, 0, 1.091116, 270.659851, -24.692869)"><tspan x="1365.59" y="247.551">Привет! Мне очень нужна </tspan><tspan x="1365.59" dy="1em">​</tspan><tspan>помощь! Я хочу высыпаться</tspan><tspan x="1365.59" dy="1em">​</tspan><tspan>по ночам и чувствовать </tspan><tspan x="1365.59" dy="1em">​</tspan><tspan>себя бодрее!</tspan></text>
  </g>
</svg>