<?xml version="1.0" encoding="utf-8"?>
<svg viewBox="350.7139 41.422 551.98 211.763" xmlns="http://www.w3.org/2000/svg" xmlns:bx="https://boxy-svg.com">
  <defs>
    <style bx:fonts="Nunito">@import url(https://fonts.googleapis.com/css2?family=Nunito%3Aital%2Cwght%400%2C200%3B0%2C300%3B0%2C400%3B0%2C500%3B0%2C600%3B0%2C700%3B0%2C800%3B0%2C900%3B1%2C200%3B1%2C300%3B1%2C400%3B1%2C500%3B1%2C600%3B1%2C700%3B1%2C800%3B1%2C900&amp;display=swap);</style>
  </defs>
  <g transform="matrix(1, 0, 0, 1, -517.8361206054688, -139.57301330566406)">
    <g>
      <path d="M 1420.53 281.547 C 1420.53 309.329 1409.73 334.456 1392.271 352.648 C 1374.814 370.855 1350.702 382.111 1324.058 382.111 L 995.767 382.235 C 974.437 382.235 954.721 375.023 938.741 362.821 C 904.748 387.156 868.55 392.758 868.55 392.758 C 868.55 392.758 899.216 361.696 899.216 281.616 C 899.216 226.039 942.431 180.995 995.745 180.995 L 1324.058 180.995 C 1377.337 180.995 1420.53 226.011 1420.53 281.547" style="fill: rgb(228, 227, 232); fill-opacity: 1; fill-rule: nonzero; stroke: none;" id="path24"/>
      <text style="fill: rgb(51, 51, 51); font-family: Nunito; font-size: 31.1608px; line-height: 52.79px; white-space: pre;" transform="matrix(0.952672, 0, 0, 1.091116, -328.585754, -31.993755)" x="1365.5899658203125" y="247.55099487304688">Привет! Как хорошо, что ты<tspan x="1365.5899658203125" dy="1em">​</tspan>мне написала! Давай <tspan x="1365.5899658203125" dy="1em">​</tspan>обсудим, как мы решим твою <tspan x="1365.5899658203125" dy="1em">​</tspan>проблему. <tspan x="1365.5899658203125" dy="1em">​</tspan></text>
      <g transform="matrix(0.794945, 0, 0, 0.794945, 99.526932, -135.376663)" style="">
        <path class="cls-1" d="M 1304.753 566.847 C 1321.101 562.466 1336.061 577.426 1331.68 593.775 C 1327.299 610.123 1306.863 615.598 1294.895 603.631 C 1292.167 600.902 1290.205 597.504 1289.206 593.777 C 1286.062 582.047 1293.022 569.99 1304.753 566.847 Z" style="fill: rgb(251, 212, 51); fill-rule: evenodd;"/>
        <path class="cls-2" d="M 1304.838 577.643 C 1306.378 577.643 1307.627 579.433 1307.627 581.677 C 1307.627 583.922 1306.378 585.712 1304.838 585.712 C 1303.299 585.712 1302.053 583.907 1302.053 581.677 C 1302.053 579.447 1303.299 577.643 1304.838 577.643 Z" style="fill: rgb(20, 21, 24); fill-rule: evenodd;"/>
        <path class="cls-2" d="M 1316.05 577.643 C 1317.589 577.643 1318.835 579.433 1318.835 581.677 C 1318.835 583.922 1317.589 585.712 1316.05 585.712 C 1314.511 585.712 1313.261 583.922 1313.261 581.677 C 1313.261 579.433 1314.511 577.643 1316.05 577.643 Z" style="fill: rgb(20, 21, 24); fill-rule: evenodd;"/>
        <path d="M 1298.76 591.443 C 1299.652 592.603 1300.718 593.619 1301.921 594.453 C 1304.55 596.263 1307.679 597.206 1310.87 597.149 C 1313.986 597.134 1317.014 596.115 1319.504 594.242 C 1320.536 593.445 1321.441 592.495 1322.186 591.425 C 1322.216 591.394 1322.266 591.394 1322.297 591.425 L 1323.174 592.273 C 1323.201 592.302 1323.201 592.348 1323.174 592.377 C 1321.925 594.546 1320.197 596.401 1318.123 597.8 C 1315.996 599.234 1313.505 600.031 1310.942 600.098 C 1308.337 600.14 1305.773 599.452 1303.539 598.112 C 1301.194 596.683 1299.204 594.739 1297.722 592.427 C 1297.699 592.397 1297.699 592.356 1297.722 592.327 L 1298.624 591.432 C 1298.655 591.399 1298.708 591.399 1298.739 591.432 L 1298.76 591.443 Z" style=""/>
      </g>
    </g>
  </g>
</svg>