<svg xmlns="http://www.w3.org/2000/svg" viewBox="0 0 810 810">
    <path d="M805.663 756.529c0 27.052-179.399 48.977-400.698 48.977S4.27 783.581 4.27 756.529c0-27.023 179.4-48.948 400.695-48.948s400.698 21.925 400.698 48.948" fill="#d7fec9"/>
    <path fill="#f79556" d="M121.388 536.856c.996-.839 1.988-1.235 1.988-1.235 3.466-1.559 6.003-.005 10.17-.429 16.725-1.726 31.033-14.832 31.033-14.832 12.873-8.487 15.452-23.309 50.619-32.568 36.602-9.64 51.077-4.405 56.302-2.193 9.988 4.239 16.396 11.252 17.746 20.344.253 1.669 1.201 8.067-2.155 10.684-2.002 1.559-10.584 6.212-29.565 10.246-40.459 8.591-94.172 18.618-137.139 54.142.029-.024-10.67-34.375 1.001-44.159"/>
    <path d="M129.05 541.333c-5.564 11.867-1.23 24.373 1.855 28.139 1.716 2.093 2.56 4.83 1.607 6.832-.739 1.55-2.474 2.122-3.018 2.322-4.062 1.502-7.256 7.166-13.483 18.427-7.133 12.906-10.699 19.362-10.375 23.719.138 1.878.696 5.473-1.435 7.628-2.093 2.112-5.616 1.664-6.069 1.597-3.733-.534-6.088-3.471-6.904-4.486-5.998-7.476-3.681-28.263-2.103-48.693 1.011-13.021 4.558-25.822 4.873-38.876.062-2.579.234-12.296 4.401-13.755 1.397-.491 4.234.143 9.917 1.406 1.449.319 2.551.596 3.051.72 6.341 1.607 10.336 2.651 14.523 5.159 2.861 1.707 4.939 2.999 5.392 5.268.42 2.103-1.016 2.002-2.231 4.591" fill="#004e2f"/>
    <path fill="#fff" d="M100.377 626.923c-1.421-1.611-2.35-3.619-3.023-5.669s-1.101-4.181-1.421-6.312c-.596-4.277-.758-8.596-.71-12.887.024-4.3.324-8.587.672-12.859.372-4.272.887-8.529 1.43-12.773l1.769-12.687 1.821-12.668.887-6.336.839-6.327 1.106-12.758c.119 4.277.143 8.544.048 12.835-.243 4.31-.62 8.544-1.049 12.811-.4 4.258-.934 8.496-1.435 12.739l-1.645 12.701a394.54 394.54 0 0 0-1.55 12.677 231.66 231.66 0 0 0-1.058 12.696c-.205 4.239-.296 8.491.019 12.706.148 2.112.439 4.21.906 6.27.243 1.025.524 2.045.925 3.028.381.977.853 1.94 1.468 2.813"/>
    <path d="M342.482 308.925c-12.201-10.203-32.831-13.149-48.764-3.995-18.747 10.775-21.798 31.062-22.399 36.807-.687 6.57-1.325 16.759 4.873 25.822 1.082 1.583 2.632 2.732 3.871 5.283 3.256 6.732-3.18 62.615-11.924 86.158-.582 1.559-4.138 9.145-7.376 19.877 0 .01-.005.019-.01.024-.353 1.178-1.516 1.907-2.727 1.726-2.684-.405-5.769-.648-9.307-.601-1.12.005-2.279.052-3.433.124l-.606.038-.153.901c-.033.176-.062.348-.091.524-3.032 19.653 4.434 35.83 11.233 45.942l.286.429 1.726-.367c17.946-3.809 27.219-8.324 29.875-10.389.315-.248 5.154-4.115 9.335-8.329 24.172-24.349 53.627-98.025 57.766-136.181 2.403-22.156 5.33-49.16-12.177-63.792" fill="#003d24"/>
    <path d="M115.805 577.119c1.058.076 2.098.324 3.137.629l1.526.572 1.464.753 1.459.83a3.98 3.98 0 0 1 1.206 1.159c.615.949 1.039 2.06.882 3.385l-.253.162c-1.254-.4-2.079-.925-2.861-1.473-.796-.515-1.201-1.43-1.898-2.112-.682-.677-1.426-1.316-2.217-1.921-.782-.629-1.645-1.159-2.536-1.693l.091-.291m-3.333 6.718c1.058.072 2.098.319 3.142.629a14.75 14.75 0 0 1 2.985 1.325l1.459.83c.486.291.882.696 1.206 1.159.615.944 1.025 2.064.887 3.385l-.257.157c-1.268-.386-2.079-.92-2.861-1.468-.396-.272-.701-.615-.992-.992-.272-.391-.567-.777-.906-1.12l-1.073-.987-1.144-.934c-.782-.634-1.645-1.163-2.536-1.697l.091-.286m-3.333 6.712c1.058.072 2.098.324 3.142.629a14.72 14.72 0 0 1 2.985 1.33l1.459.83c.486.286.882.691 1.206 1.154.615.949 1.025 2.069.887 3.385l-.257.162c-1.268-.391-2.079-.925-2.861-1.473-.396-.272-.701-.615-.992-.992-.272-.391-.567-.772-.906-1.116l-1.068-.987-1.149-.939c-.782-.629-1.64-1.163-2.536-1.693l.091-.291m-3.334 6.719c1.058.072 2.098.324 3.142.625a14.99 14.99 0 0 1 2.985 1.33l1.459.83a3.94 3.94 0 0 1 1.206 1.159c.615.949 1.025 2.069.887 3.385l-.257.157c-1.268-.391-2.079-.92-2.861-1.473-.391-.267-.701-.61-.987-.987-.277-.391-.572-.777-.911-1.125l-1.068-.982-1.149-.934c-.782-.634-1.64-1.163-2.536-1.697l.091-.286" fill="#f2c72d"/>
    <path fill="#f79556" d="M393.554 563.827c3.919 10.184 16.644 26.671 23.333 41.103 7.652 16.52 9.979 19.328 12.177 27.395 3.495 12.844 2.908 19.376 2.284 24.363-.763 6.088 10.341 7.895 13.698 6.846 10.151-3.175 19.681-9.965 22.075-18.265 1.602-5.559-.696-8.129-2.284-9.898-13.698-15.219-15.848-36.273-18.265-47.191-2.703-12.196-7.819-35.281-10.656-62.414l-4.567-44.144c-.763-4.567-4.806-16.515-13.702-17.507-13.702-1.521-22.113 16.692-23.114 18.58-16.477 31.071-6.069 67.912-.977 81.133"/>
    <path d="M434.528 504.125l-2.432-22.632c-3.018-17.026-36.044-83.526-58.595-115.57-3.361-4.768-4.095-10.193-5.33-16.744-2.589-13.75.234-16.334-.763-21.312-1.139-5.707-3.747-17.593-13.698-23.596-10.704-6.456-23.977-7.991-37.298-4.563-7.833 2.012-16.139 5.931-23.596 14.456-7.328 8.382-9.54 17.321-10.656 22.075-1.278 5.426-3.295 14.513 0 25.121 2.422 7.8 6.665 13.011 9.135 15.981 5.092 6.136 10.007 9.302 12.94 11.419 8.425 6.088 45.398 68.121 75.354 94.382 2.737 2.403 4.62 5.516 7.056 7.929 1.449 1.44 2.064 3.538 1.507 5.502-1.507 5.326-2.436 10.88-2.775 16.625l-.033.639.62.143c5.054 1.187 10.365 1.793 15.791 1.793 6.088 0 11.981-.749 17.517-2.227a58.98 58.98 0 0 0 15.109-6.37l.42-.248-.272-2.803m-4.22 136.038c1.678-.024-.61 4.215 3.523 7.852 3.275 2.884 7.304 3.18 8.534 3.252 4.448.262 7.714-1.535 9.011-2.274 4.038-2.293 6.503-5.807 9.583-10.198 3.028-4.315 4.048-6.856 5.821-6.737 1.492.091 2.269 1.969 3.457 3.757 2.064 3.094 5.192 4.873 11.452 8.425 2.265 1.292 19.634 11.433 36.478 9.006 7.757-1.12 7.628 7.571 7.624 7.786-.033 1.645-.567 4.663-4.939 8.706-6.265 5.788-13.984 7.733-19.643 8.811-4.825.925-8.749 1.33-31.634 1.807l-22.899.238c-.954.133-6.813-.091-18.527-.534-.882-.033-2.999-.138-4.267-1.621-.667-.782-.934-1.755-1.049-3.662-.219-3.5.339-5.607.572-7.924.315-3.123-.334-3.018-.41-7.485-.019-1.173.095-5.273 2.198-12.196.949-3.118 3.824-6.994 5.116-7.009" fill="#004e2f"/>
    <path fill="#fff" d="M521.382 658.724c-2.78 2.923-6.265 5.168-9.993 6.799-3.743 1.611-7.709 2.632-11.69 3.38-2.012.372-4.038.62-6.055.782s-4.029.296-6.036.405l-12.048.439-12.043.191c-4.014.005-8.029.048-12.053-.048l-3.023-.086-1.521-.067a5.38 5.38 0 0 0-.324-.019c-.033 0-.081.005-.119.005l-.172.014c-.324.029-.586.024-.844.019-2.055-.057-4.038-.195-6.05-.329l-12.005-1.02c4.014-.114 8.034-.114 12.043-.138l5.988-.057c.238-.01.482-.029.653-.052l.2-.033c.086-.01.167-.019.257-.024.181-.005.3 0 .429 0h1.488l2.994-.057 24.044-.658 12.01-.31c4-.114 7.991-.257 11.891-.768 3.919-.577 7.838-1.325 11.571-2.646 3.733-1.292 7.276-3.19 10.408-5.721"/>
    <path d="M472.36 650.867c.057-1.063.291-2.107.577-3.156l.544-1.53.729-1.473.801-1.478c.291-.491.677-.896 1.139-1.225.934-.629 2.036-1.078 3.366-.944l.167.253c-.377 1.259-.887 2.093-1.421 2.884-.501.801-1.411 1.23-2.079 1.931a23.33 23.33 0 0 0-1.878 2.255c-.62.791-1.13 1.664-1.65 2.57l-.296-.086m6.776 3.212c.057-1.058.291-2.107.572-3.151a14.89 14.89 0 0 1 1.278-3.013l.801-1.473c.281-.491.682-.896 1.139-1.225.934-.634 2.05-1.063 3.366-.944l.167.253c-.367 1.273-.887 2.093-1.421 2.889-.267.396-.601.706-.973 1.001a8.47 8.47 0 0 0-1.106.93l-.963 1.082-.92 1.168c-.615.796-1.13 1.664-1.645 2.565l-.296-.081m6.776 3.208c.057-1.058.291-2.103.572-3.151a15.19 15.19 0 0 1 1.273-3.004l.806-1.478c.281-.496.682-.896 1.139-1.221.934-.639 2.045-1.068 3.361-.954l.172.257c-.367 1.273-.887 2.088-1.426 2.884-.262.396-.601.71-.968 1.006-.391.281-.772.582-1.106.925l-.968 1.092-.915 1.163c-.615.791-1.135 1.659-1.65 2.565l-.291-.086m6.776 3.215c.052-1.063.286-2.107.572-3.151a14.53 14.53 0 0 1 1.273-3.008l.806-1.473c.281-.496.677-.896 1.135-1.225.934-.634 2.05-1.063 3.366-.949l.167.253c-.367 1.278-.887 2.093-1.421 2.894-.262.391-.601.706-.968 1.001a8.63 8.63 0 0 0-1.111.93l-.963 1.087-.915 1.163c-.62.791-1.135 1.659-1.65 2.565l-.291-.086" fill="#f2c72d"/>
    <g fill="#ec7d40">
        <path d="M363.827 168.544c3.07-1.974 6.823-2.064 8.434-1.635 7.462 1.955 16.949 7.085 21.693 14.232 22.318 33.574 29.741 73.914 31.887 83.869 2.541 11.8-.443 22.551-5.111 30.618-1.659 2.865-2.679 3.342-3.328 3.509-4.034 1.035-14.656-6.003-27.1-24.52-24.811-36.936-32.993-86.244-30.513-98.921.329-1.678 1.082-5.249 4.038-7.152"/>
        <path d="M416.468 270.025c1.845-1.807 7.724-10.093 15.014-12.792 12.039-4.448 21.03-4.544 31.734-6.475 24.711-4.453 18.985-6.16 23.529-9.249.434-.296 1.464-1.864 3.461-2.641 3.166-1.23 6.627-.42 8.854 2.289.682.825 2.884 4.448-3.538 14.408-10.551 16.368-64.932 44.092-77.695 43.453-1.287-.062-2.637-.768-4.978-2.808-6.317-5.507-4.262-18.485 3.619-26.184"/>
        <path d="M473.824 250.034c.157-1.907 9.083-1.569 19.381-16.058 3.356-4.72 5.402-7.233 5.402-7.233 3.404-5.14 4.377-7.924 7.943-10.098 1.073-.653 1.23-.548 3.814-1.983 3.48-1.94 5.24-2.937 6.112-4.296 1.139-1.774 1.273-2.837 2.227-3.657 1.426-1.23 2.751.215 2.894.324 1.473 1.101.682 3.495.606 3.809-1.43 5.64-9.268 10.565-7.471 8.978 0 0 11.257 8.997 12.72 13.345.482 1.421-.133 2.751-.949 4.534-2.112 4.596-6.689 6.703-9.292 7.867-4.606 2.045-6.093 1.192-10.494 3.738-.763.443-1.201.753-4.286 3.104l-12.31 9.54c-6.265 5.345-16.945-4.076-16.296-11.915"/>
    </g>
    <path fill="#f79556" d="M513.177 232.941a2.96 2.96 0 0 1-1.354-1.054 2.98 2.98 0 0 1 .706-4.172c.067-.057.138-.105.21-.153-.482-.229-.906-.586-1.221-1.073a2.99 2.99 0 0 1 .892-4.138c1.688-1.087 3.542-1.921 5.535-2.47l.148-.038c.033-.052.062-.11.1-.157l-2.57.682c-1.578.467-3.252-.434-3.724-2.022s.439-3.213 2.012-3.724c5.578-1.797 8.038-1.769 10.689-1.259 2.851.548 3.724 2.088 3.948 3.29s-.133 2.231-.82 3.132c1.402.491 2.25 1.96 1.926 3.452-.148.691-.524 1.268-1.03 1.678.877.653 1.364 1.759 1.173 2.908a2.99 2.99 0 0 1-1.378 2.041c.648.62 1.016 1.521.906 2.484-.119 1.139-.868 2.06-1.864 2.46a2.98 2.98 0 0 1-1.43.195c-1.383-.148-4.911-.234-8.539 2.017l-.143.1c-1.345.958-3.213.644-4.177-.706-.758-1.063-.72-2.46.005-3.476"/>
    <path fill="#ec7d40" d="M332.675 147.432c1.416-3.895 4.062-5.817 6.603-11.09.934-1.945 2.279-4.644 2.374-11.886.21-15.409-5.616-19.519-3.166-24.821 3.709-8.034 23.171-11.8 34.061-3.433 9.998 7.676 10.861 22.394 9.626 35.648-1.054 11.357-7.428 25.612-14.561 30.895-7.4 5.478-19.853 8.606-28.335 1.845-5.488-4.372-8.816-11.071-6.603-17.159"/>
    <path fill="#f79556" d="M356.971 56.592c13.779-3.533 25.054 3.175 29.045 5.545 2.25 1.335 9.941 6.127 15.581 15.581 3.404 5.712 7.009 14.704 5.807 19.014-.133.486-.758 2.441-.529 5.02.1 1.068.334 1.96.796 3.428 1.449 4.625 2.508 6.732 4.224 10.828.4.954 1.254 2.207.791 3.433-.372.982-1.364 1.74-1.588 1.845-1.764.83-4.229.362-5.278 1.058-2.379 1.588-1.85 10.551-5.283 16.892-2.403 4.434-3.228 8.372-8.448 6.599-13.202-4.491-19.805-11.881-23.238-18.222-1.292-2.389-1.011-7.428-.791-9.24 3.166-26.141-14.875-60.812-11.09-61.78"/>
    <g fill="#003d24">
        <path d="M405.14 95.588a7.33 7.33 0 0 1-2.441-.277c-.796-.238-1.478-.682-2.107-1.101l-.944-.596-.887-.467c-1.211-.491-2.617-.706-3.981-.51-.687.086-1.359.296-2.007.591a8.11 8.11 0 0 0-1.807 1.201l-.195-.172a8.14 8.14 0 0 1 .734-.887 7.23 7.23 0 0 1 .877-.782 7.38 7.38 0 0 1 2.117-1.106c.768-.257 1.578-.391 2.398-.42a8.31 8.31 0 0 1 2.46.267c.405.1.839.281 1.178.396l1.078.377 1.993.687 1.888.863c.658.319.458 1.883-.353 1.936m-9.432 5.597c.815-.296 1.569-.482 2.303-.691l2.131-.606 2.083-.706 2.241-.815c-.334.801-.896 1.459-1.564 1.993a6.75 6.75 0 0 1-2.255 1.173 7.24 7.24 0 0 1-2.508.31c-.839-.057-1.669-.238-2.432-.658m-50.623-41.827c.405-1.559 1.583-2.35 7.075-3.929 2.155-.625 7.338-1.578 11.533-1.578 8.916 0 20.439 4.458 20.439 4.458 12.282 4.963 15.762 10.079 16.511 11.266.696 1.097 2.269 4 1.311 5.24-.343.453-.849.768-1.311.529-.548-.291.076-1.297 0-1.836-.324-2.432-5.902-4.796-12.577-5.245-3.933-.257-7.38-.014-11.795 0-14.489.052-26.466-3.109-28.301-4.191-1.616-.954-3.323-3.037-2.884-4.715"/>
        <path d="M357.234 58.972c3.109-.229 8.525-.572 14.785 1.85 3.561 1.368 9.555 3.395 11.619 8.973 3.566 9.64-5.688 17.297-5.545 22.184.024.749.076 1.316.133 1.764.291 2.126-.911 2.536-1.235 2.67-.982.396-2.284.524-3.123.319-1.292-.319-1.244-1.554-1.85-2.646-1.907-3.457-2.06-6.665-5.545-6.599-5.902.119-5.411 3.566-6.861 7.133-.815 1.988.129 5.941-4.753 17.164-4.267 9.798-13.083 12.706-14.527 11.619-.806-.615-.529-1.917-.524-3.695.005-2.899-.968-5.368-2.908-10.303-2.46-6.255-3.933-6.198-5.807-10.828-2.703-6.675-2.093-12.844-1.85-15.052.362-3.285 1.187-10.67 6.866-16.63 6.527-6.851 15.357-7.504 21.126-7.924m45.964 42.357c0 1.035-.696 1.869-1.554 1.869s-1.559-.834-1.559-1.869c0-1.025.696-1.864 1.559-1.864s1.554.839 1.554 1.864"/>
    </g>
    <path fill="#f79556" d="M371.494 90.92c-.315-1.058-.858-2.684-2.379-3.695-1.64-1.097-3.49-.868-3.957-.796-1.931.305-3.099 1.502-3.7 2.117-1.697 1.731-2.155 3.738-2.374 4.749-.887 4.091.725 7.471 1.321 8.715 1.345 2.827 3.147 4.391 4.486 5.55 2.174 1.874 3.404 2.112 4.224 2.107.872 0 1.645-.262 2.112-.524 4.763-2.646.567-17.197.267-18.222"/>
    <path fill="#d65b5b" d="M403.695 128.366c-.782.162-1.731.272-2.913.186-2.67-.205-4.858-1.287-5.326-.534-.1.167-.162.405.005.701 1.683 2.961 4.572 4.73 6.999 5.492.544-2.012.901-4.038 1.235-5.845"/>
    <path d="M368.333 328.105c4.024-9.75 7.857-19.629 16.549-38.294 8.291-17.817 27.362-52.931 16.439-91.97-7.147-25.56-24.396-40.855-42.285-48.845-2.589-1.159-16.759-6.47-30.838 0-16.105 7.4-23.915 27.205-26.885 41.103-3.552 16.601 4.057 37.226 5.206 50.996 2.284 27.4-4.973 43.534-10.661 54.047-10.356 19.157-12.601 19.305-12.177 22.833.296 2.436 8.768 3.433 19.324 4.41 22.16 2.06 35.1-6.312 54.967 1.592 8.043 3.204 9.817 5.445 10.36 4.129" fill="#f2c72d"/>
    <g fill="#f79556">
        <path d="M237.687 229.637c.911-9.311 7.204-11.443 18.494-22.16 2.494-2.374 10.656-12.811 25.536-26.933 16.754-15.891 22.094-16.849 27.224-20.034 9.96-6.179 15.471-7.743 21.812-8.835 4.892-.844 11.876-.61 17.493 3.533 4.258 3.137 5.693 7.795 6.603 10.732.496 1.607 3.69 18.728-15.676 30.156-13.769 8.124-16.02 12.506-26.361 18.203-14.661 8.086-16.62 6.632-29.074 12.711-12.329 6.017-27.51 13.898-41.646 10.932-.343-.072-4.868-3.552-4.405-8.305"/>
        <path d="M241.192 223.492c5.097-4.949 14.489-4.725 23.615-.4 3.809 1.802 8.515 7.452 11.414 14.651 11.595 28.783 5.349 43.959 12.692 60.693 3.914 8.296 6.098 10.246 8.201 11.314 1.006.51 2.246.944 2.532 2.007.653 2.436-3.523 6.374-7.533 7.762-5.693 1.974-8.229 1.716-14.136-2.966-8.539-6.77-44.931-72.994-39.372-88.937.811-2.322 2.15-3.7 2.589-4.124m79.285 90.51c3.619-1.492 11.767-6.122 10.689-9.769-.286-.977-1.702-1.416-2.722-1.297-1.716.195-2.994 1.573-3.924 2.074-7.075 3.747-16.139-.892-19.262-1.778-5.421-1.545-8.01 1.02-7.304 3.395 3.352 11.295 18.589 9.001 22.523 7.376"/>
        <path d="M292.249 304.219c5.254-.992 8.448-1.569 12.782-.882 2.732.434 4.725 1.249 8.711 2.88 7.633 3.113 11.724 6.355 12.658 7.118.882.71.238.253 3.132 2.803.915.811 7.614 6.723 9.698 10.818.248.486.61 1.297.296 2.026-.372.872-1.488 1.144-1.793 1.216-1.159.281-2.15-.129-2.813-.405-1.383-.586-2.236-1.459-2.412-1.64-2.269-2.312-5.078-5.178-7.166-6.951-2.87-2.436-4.796-3.509-7.695-4.787-.567-.248-1.454-.405-1.507-.291-.329.763 3.533 2.746 7.371 5.55 6.088 4.448 12.84 10.961 12.592 12.706-.138.934-.82 2.088-1.931 2.145-1.039.057-3.233-.648-3.376-.558-.253.157.996 1.249.858 2.184s-.944 2.188-2.298 2.174c-.687-.01-1.459.01-6.308-3.194l-7.914-5.33c-2.513-1.826-4.362-3.314-7.485-4.243-.834-.248-2.041-.601-2.246-.248-.362.625 2.308 2.47 5.631 4.343 2.946 1.654 3.767 2.022 6.723 3.91.796.505 4.434 2.918 4.339 4.596-.038.691-1.263 1.864-2.513 1.626-6.017-1.159-11.381-6.212-15.276-7.352-2.465-.72-12.224-2.494-19.486-12.887-2.002-2.865-3.533-2.308-4.711-4.577-1.016-1.964-1.745-5.216-.424-7.79 1.478-2.861 5.173-3.561 12.563-4.958"/>
    </g>
    <path d="M736.178 735.499H466.219c-.925 0-1.75.572-2.074 1.435l-4.992 13.307a2.22 2.22 0 0 0 2.079 2.994h280.343a2.53 2.53 0 0 0 2.322-3.509l-5.397-12.687c-.396-.934-1.311-1.54-2.322-1.54" fill="#006a42"/>
    <path d="M111.662 753.058l-40.02.176a1.26 1.26 0 0 1-1.24-1.54l6.77-30.018c1.082-4.792 2.794-9.431 5.23-13.693 3.428-5.988 8.072-11.199 13.755-15.385 8.725-6.422 19.352-9.74 30.185-9.74h613.417a1.27 1.27 0 0 1 1.225 1.588l-10.87 41.813c-.143.558-.648.949-1.23.949H125.817c-2.498 0-4.744 1.673-5.454 4.067l-7.514 20.945a1.27 1.27 0 0 1-1.187.839" fill="#219d6c"/>
    <path d="M561.14 753.054l-42.871.181 122.092-461.769 42.867 11.347L561.14 753.054" fill="#006a42"/>
    <path d="M568.716 368.531H417.021a3.36 3.36 0 0 1-3.252-4.21l7.552-28.759c.386-1.473 1.721-2.503 3.247-2.503h144.148a45.61 45.61 0 0 0 27.424-9.235l126.588-96.189c1.483-1.12 3.585-.834 4.711.644l17.393 22.899c1.125 1.478.834 3.581-.644 4.706L617.6 352.068c-13.974 10.618-31.334 16.463-48.884 16.463" fill="#219d6c"/>
</svg>