<?xml version="1.0" encoding="utf-8"?>
<svg viewBox="0 0 810 810" xmlns="http://www.w3.org/2000/svg">
  <g transform="matrix(1.2205400466918945, 0, 0, 1.2205400466918945, -38.11664962768555, -118.51508331298828)" style="">
    <path fill="#1e1735" d="M 691.317 728.419 C 691.317 744.238 544.333 757.059 363.021 757.059 C 181.712 757.059 34.728 744.238 34.728 728.419 C 34.728 712.616 181.712 699.794 363.021 699.794 C 544.333 699.794 691.317 712.616 691.317 728.419" fill-opacity="1" fill-rule="nonzero" style=""/>
    <path fill="#f79556" d="M 116.550781 539.601562 C 117.367188 538.914062 118.179688 538.589844 118.179688 538.589844 C 121.019531 537.3125 123.097656 538.585938 126.511719 538.238281 C 140.214844 536.824219 151.9375 526.085938 151.9375 526.085938 C 162.484375 519.132812 164.597656 506.988281 193.410156 499.402344 C 223.398438 491.503906 235.257812 495.792969 239.539062 497.605469 C 247.722656 501.078125 252.972656 506.824219 254.078125 514.273438 C 254.285156 515.640625 255.0625 520.882812 252.3125 523.027344 C 250.671875 524.304688 243.640625 528.117188 228.089844 531.421875 C 194.941406 538.460938 150.933594 546.675781 115.730469 575.78125 C 115.753906 575.761719 106.988281 547.617188 116.550781 539.601562 " fill-opacity="1" fill-rule="nonzero"/>
    <path fill="#1e1735" d="M 122.828125 543.269531 C 118.269531 552.992188 121.820312 563.238281 124.347656 566.324219 C 125.753906 568.039062 126.445312 570.28125 125.664062 571.921875 C 125.058594 573.191406 123.636719 573.660156 123.191406 573.824219 C 119.863281 575.054688 117.246094 579.695312 112.144531 588.921875 C 106.300781 599.496094 103.378906 604.785156 103.644531 608.355469 C 103.757812 609.894531 104.214844 612.839844 102.46875 614.605469 C 100.753906 616.335938 97.867188 615.96875 97.496094 615.914062 C 94.4375 615.476562 92.507812 613.070312 91.839844 612.238281 C 86.925781 606.113281 88.824219 589.082031 90.117188 572.34375 C 90.945312 561.675781 93.851562 551.1875 94.109375 540.492188 C 94.160156 538.378906 94.300781 530.417969 97.714844 529.222656 C 98.859375 528.820312 101.183594 529.339844 105.839844 530.375 C 107.027344 530.636719 107.929688 530.863281 108.339844 530.964844 C 113.535156 532.28125 116.808594 533.136719 120.238281 535.191406 C 122.582031 536.589844 124.285156 537.648438 124.65625 539.507812 C 125 541.230469 123.824219 541.148438 122.828125 543.269531 " fill-opacity="1" fill-rule="nonzero"/>
    <path fill="#ffffff" d="M 99.335938 613.394531 C 98.171875 612.074219 97.410156 610.429688 96.859375 608.75 C 96.3125 607.066406 95.957031 605.324219 95.695312 603.578125 C 95.207031 600.074219 95.074219 596.535156 95.113281 593.019531 C 95.132812 589.496094 95.378906 585.984375 95.664062 582.484375 C 95.96875 578.984375 96.390625 575.496094 96.835938 572.019531 L 98.285156 561.625 L 99.777344 551.246094 L 100.503906 546.054688 C 100.742188 544.328125 100.996094 542.578125 101.191406 540.871094 C 101.53125 537.40625 101.765625 533.90625 102.097656 530.417969 C 102.195312 533.921875 102.214844 537.417969 102.136719 540.933594 C 101.9375 544.464844 101.628906 547.933594 101.277344 551.429688 C 100.949219 554.917969 100.511719 558.390625 100.101562 561.867188 L 98.753906 572.273438 C 98.273438 575.734375 97.851562 579.195312 97.484375 582.660156 C 97.097656 586.121094 96.8125 589.59375 96.617188 593.0625 C 96.449219 596.535156 96.375 600.019531 96.632812 603.472656 C 96.753906 605.203125 96.992188 606.921875 97.375 608.609375 C 97.574219 609.449219 97.804688 610.285156 98.132812 611.089844 C 98.445312 611.890625 98.832031 612.679688 99.335938 613.394531 " fill-opacity="1" fill-rule="nonzero"/>
    <path fill="#120e23" d="M 297.695312 352.855469 C 287.699219 344.496094 270.796875 342.082031 257.742188 349.582031 C 242.382812 358.410156 239.882812 375.03125 239.390625 379.738281 C 238.828125 385.121094 238.304688 393.46875 243.382812 400.894531 C 244.269531 402.191406 245.539062 403.132812 246.554688 405.222656 C 249.222656 410.738281 243.949219 456.523438 236.785156 475.8125 C 236.308594 477.089844 233.394531 483.304688 230.742188 492.097656 C 230.742188 492.105469 230.738281 492.113281 230.734375 492.117188 C 230.445312 493.082031 229.492188 493.679688 228.5 493.53125 C 226.300781 493.199219 223.773438 493 220.875 493.039062 C 219.957031 493.042969 219.007812 493.082031 218.0625 493.140625 L 217.566406 493.171875 L 217.441406 493.910156 C 217.414062 494.054688 217.390625 494.195312 217.367188 494.339844 C 214.882812 510.441406 221 523.695312 226.570312 531.980469 L 226.804688 532.332031 L 228.21875 532.03125 C 242.921875 528.910156 250.519531 525.210938 252.695312 523.519531 C 252.953125 523.316406 256.917969 520.148438 260.34375 516.695312 C 280.148438 496.746094 304.28125 436.382812 307.671875 405.121094 C 309.640625 386.96875 312.039062 364.84375 297.695312 352.855469 " fill-opacity="1" fill-rule="nonzero"/>
    <path fill="#fccc44" d="M 111.976562 572.589844 C 112.84375 572.652344 113.695312 572.855469 114.546875 573.105469 C 114.96875 573.242188 115.382812 573.40625 115.796875 573.574219 C 116.203125 573.765625 116.601562 573.96875 116.996094 574.191406 C 117.382812 574.421875 117.796875 574.628906 118.191406 574.871094 C 118.585938 575.113281 118.917969 575.4375 119.179688 575.820312 C 119.683594 576.597656 120.03125 577.507812 119.902344 578.59375 L 119.695312 578.726562 C 118.667969 578.398438 117.992188 577.96875 117.351562 577.519531 C 116.699219 577.097656 116.367188 576.347656 115.796875 575.789062 C 115.238281 575.234375 114.628906 574.710938 113.980469 574.214844 C 113.339844 573.699219 112.632812 573.265625 111.902344 572.828125 L 111.976562 572.589844 " fill-opacity="1" fill-rule="nonzero"/>
    <path fill="#fccc44" d="M 109.246094 578.09375 C 110.113281 578.152344 110.964844 578.355469 111.820312 578.609375 C 112.660156 578.878906 113.484375 579.234375 114.265625 579.695312 C 114.648438 579.929688 115.066406 580.128906 115.460938 580.375 C 115.859375 580.613281 116.183594 580.945312 116.449219 581.324219 C 116.953125 582.097656 117.289062 583.015625 117.175781 584.097656 L 116.964844 584.226562 C 115.925781 583.910156 115.261719 583.472656 114.621094 583.023438 C 114.296875 582.800781 114.046875 582.519531 113.808594 582.210938 C 113.585938 581.890625 113.34375 581.574219 113.066406 581.292969 C 112.785156 581.015625 112.496094 580.742188 112.1875 580.484375 C 111.886719 580.21875 111.574219 579.964844 111.25 579.71875 C 110.609375 579.199219 109.902344 578.765625 109.171875 578.328125 L 109.246094 578.09375 " fill-opacity="1" fill-rule="nonzero"/>
    <path fill="#fccc44" d="M 106.515625 583.59375 C 107.382812 583.652344 108.234375 583.859375 109.089844 584.109375 C 109.929688 584.378906 110.753906 584.738281 111.535156 585.199219 C 111.921875 585.429688 112.335938 585.628906 112.730469 585.878906 C 113.128906 586.113281 113.453125 586.445312 113.71875 586.824219 C 114.222656 587.601562 114.558594 588.519531 114.445312 589.597656 L 114.234375 589.730469 C 113.195312 589.410156 112.53125 588.972656 111.890625 588.523438 C 111.566406 588.300781 111.316406 588.019531 111.078125 587.710938 C 110.855469 587.390625 110.613281 587.078125 110.335938 586.796875 C 110.058594 586.515625 109.765625 586.246094 109.460938 585.988281 C 109.15625 585.722656 108.84375 585.464844 108.519531 585.21875 C 107.878906 584.703125 107.175781 584.265625 106.441406 583.832031 L 106.515625 583.59375 " fill-opacity="1" fill-rule="nonzero"/>
    <path fill="#fccc44" d="M 103.785156 589.097656 C 104.652344 589.15625 105.503906 589.363281 106.359375 589.609375 C 107.199219 589.878906 108.023438 590.242188 108.804688 590.699219 C 109.191406 590.933594 109.609375 591.128906 110 591.378906 C 110.398438 591.617188 110.726562 591.949219 110.988281 592.328125 C 111.492188 593.105469 111.828125 594.023438 111.714844 595.101562 L 111.503906 595.230469 C 110.464844 594.910156 109.800781 594.476562 109.160156 594.023438 C 108.839844 593.804688 108.585938 593.523438 108.351562 593.214844 C 108.125 592.894531 107.882812 592.578125 107.605469 592.292969 C 107.328125 592.015625 107.035156 591.746094 106.730469 591.488281 C 106.425781 591.226562 106.117188 590.96875 105.789062 590.722656 C 105.148438 590.203125 104.445312 589.769531 103.710938 589.332031 L 103.785156 589.097656 " fill-opacity="1" fill-rule="nonzero"/>
    <path fill="#f79556" d="M 339.539062 561.699219 C 342.75 570.042969 353.175781 583.550781 358.65625 595.375 C 364.925781 608.910156 366.832031 611.210938 368.632812 617.820312 C 371.496094 628.34375 371.015625 633.695312 370.503906 637.78125 C 369.878906 642.769531 378.976562 644.25 381.726562 643.390625 C 390.042969 640.789062 397.851562 635.226562 399.8125 628.425781 C 401.125 623.871094 399.242188 621.765625 397.941406 620.316406 C 386.71875 607.847656 384.957031 590.597656 382.976562 581.652344 C 380.761719 571.660156 376.570312 552.746094 374.246094 530.515625 C 372.585938 514.679688 371.257812 498.882812 370.503906 494.347656 C 369.878906 490.605469 366.566406 480.816406 359.277344 480.003906 C 348.050781 478.757812 341.160156 493.679688 340.339844 495.226562 C 326.839844 520.683594 335.367188 550.867188 339.539062 561.699219 " fill-opacity="1" fill-rule="nonzero"/>
    <path fill="#1e1735" d="M 373.109375 512.785156 C 372.257812 503.992188 371.613281 497.042969 371.117188 494.242188 C 368.644531 480.292969 341.585938 425.808594 323.109375 399.554688 C 320.355469 395.648438 319.753906 391.203125 318.742188 385.835938 C 316.621094 374.570312 318.933594 372.453125 318.117188 368.375 C 317.183594 363.699219 315.046875 353.960938 306.894531 349.042969 C 298.125 343.753906 287.25 342.496094 276.335938 345.304688 C 269.917969 346.953125 263.113281 350.164062 257.003906 357.148438 C 251 364.015625 249.1875 371.339844 248.273438 375.234375 C 247.226562 379.679688 245.574219 387.125 248.273438 395.816406 C 250.257812 402.207031 253.734375 406.476562 255.757812 408.910156 C 259.929688 413.9375 263.957031 416.53125 266.359375 418.265625 C 273.261719 423.253906 303.554688 474.078125 328.097656 495.59375 C 330.339844 497.5625 331.882812 500.113281 333.878906 502.089844 C 335.066406 503.269531 335.570312 504.988281 335.113281 506.597656 C 333.878906 510.960938 333.117188 515.511719 332.839844 520.21875 L 332.8125 520.742188 L 333.320312 520.859375 C 337.460938 521.832031 341.8125 522.328125 346.257812 522.328125 C 351.246094 522.328125 356.074219 521.714844 360.609375 520.503906 C 364.964844 519.347656 369.128906 517.589844 372.988281 515.285156 L 373.332031 515.082031 L 373.109375 512.785156 " fill-opacity="1" fill-rule="nonzero"/>
    <path fill="#1e1735" d="M 369.652344 624.242188 C 371.027344 624.222656 369.152344 627.695312 372.539062 630.675781 C 375.222656 633.039062 378.523438 633.28125 379.53125 633.339844 C 383.175781 633.554688 385.851562 632.082031 386.914062 631.476562 C 390.222656 629.597656 392.242188 626.71875 394.765625 623.121094 C 397.246094 619.585938 398.082031 617.503906 399.535156 617.601562 C 400.757812 617.675781 401.394531 619.214844 402.367188 620.679688 C 404.058594 623.214844 406.621094 624.671875 411.75 627.582031 C 413.605469 628.640625 427.835938 636.949219 441.636719 634.960938 C 447.992188 634.042969 447.886719 641.164062 447.882812 641.339844 C 447.855469 642.6875 447.417969 645.160156 443.835938 648.472656 C 438.703125 653.214844 432.378906 654.808594 427.742188 655.691406 C 423.789062 656.449219 420.574219 656.78125 401.824219 657.171875 C 381.59375 657.59375 384.070312 657.234375 383.0625 657.367188 C 382.28125 657.476562 377.480469 657.292969 367.882812 656.929688 C 367.160156 656.902344 365.425781 656.816406 364.386719 655.601562 C 363.839844 654.960938 363.621094 654.164062 363.527344 652.601562 C 363.347656 649.734375 363.804688 648.007812 363.996094 646.109375 C 364.253906 643.550781 363.722656 643.636719 363.660156 639.976562 C 363.644531 639.015625 363.738281 635.65625 365.460938 629.984375 C 366.238281 627.429688 368.59375 624.253906 369.652344 624.242188 " fill-opacity="1" fill-rule="nonzero"/>
    <path fill="#ffffff" d="M 444.269531 639.449219 C 441.992188 641.84375 439.136719 643.683594 436.082031 645.019531 C 433.015625 646.339844 429.765625 647.175781 426.503906 647.789062 C 424.855469 648.09375 423.195312 648.296875 421.542969 648.429688 C 419.890625 648.566406 418.242188 648.671875 416.597656 648.761719 C 413.304688 648.925781 410.015625 649.023438 406.726562 649.121094 C 403.4375 649.183594 400.148438 649.246094 396.859375 649.277344 C 393.570312 649.28125 390.28125 649.316406 386.984375 649.238281 L 384.507812 649.167969 L 383.261719 649.113281 C 383.160156 649.105469 383.054688 649.097656 382.996094 649.097656 C 382.96875 649.097656 382.929688 649.101562 382.898438 649.101562 L 382.757812 649.113281 C 382.492188 649.136719 382.277344 649.132812 382.066406 649.128906 C 380.382812 649.082031 378.757812 648.96875 377.109375 648.859375 C 373.828125 648.617188 370.546875 648.363281 367.273438 648.023438 C 370.5625 647.929688 373.855469 647.929688 377.140625 647.910156 C 378.78125 647.90625 380.4375 647.917969 382.046875 647.863281 C 382.242188 647.855469 382.441406 647.839844 382.582031 647.820312 L 382.746094 647.792969 C 382.816406 647.785156 382.882812 647.777344 382.957031 647.773438 C 383.105469 647.769531 383.203125 647.773438 383.308594 647.773438 L 384.527344 647.773438 L 386.980469 647.726562 L 406.679688 647.1875 C 409.964844 647.125 413.246094 647.039062 416.519531 646.933594 C 419.796875 646.839844 423.066406 646.722656 426.261719 646.304688 C 429.472656 645.832031 432.683594 645.21875 435.742188 644.136719 C 438.800781 643.078125 441.703125 641.523438 444.269531 639.449219 " fill-opacity="1" fill-rule="nonzero"/>
    <path fill="#fccc44" d="M 404.105469 633.011719 C 404.152344 632.140625 404.34375 631.285156 404.578125 630.425781 C 404.707031 630.003906 404.863281 629.589844 405.023438 629.171875 C 405.207031 628.761719 405.402344 628.359375 405.621094 627.964844 C 405.839844 627.566406 406.042969 627.152344 406.277344 626.753906 C 406.515625 626.351562 406.832031 626.019531 407.210938 625.75 C 407.976562 625.234375 408.878906 624.867188 409.96875 624.976562 L 410.105469 625.183594 C 409.796875 626.214844 409.378906 626.898438 408.941406 627.546875 C 408.53125 628.203125 407.785156 628.554688 407.238281 629.128906 C 406.695312 629.703125 406.183594 630.320312 405.699219 630.976562 C 405.191406 631.625 404.773438 632.339844 404.347656 633.082031 L 404.105469 633.011719 " fill-opacity="1" fill-rule="nonzero"/>
    <path fill="#fccc44" d="M 409.65625 635.644531 C 409.703125 634.777344 409.894531 633.917969 410.125 633.0625 C 410.382812 632.210938 410.726562 631.382812 411.171875 630.59375 C 411.394531 630.207031 411.589844 629.785156 411.828125 629.386719 C 412.058594 628.984375 412.386719 628.652344 412.761719 628.382812 C 413.527344 627.863281 414.441406 627.511719 415.519531 627.609375 L 415.65625 627.816406 C 415.355469 628.859375 414.929688 629.53125 414.492188 630.183594 C 414.273438 630.507812 414 630.761719 413.695312 631.003906 C 413.375 631.234375 413.066406 631.484375 412.789062 631.765625 C 412.515625 632.050781 412.25 632.347656 412 632.652344 C 411.738281 632.964844 411.488281 633.28125 411.246094 633.609375 C 410.742188 634.261719 410.320312 634.972656 409.898438 635.710938 L 409.65625 635.644531 " fill-opacity="1" fill-rule="nonzero"/>
    <path fill="#fccc44" d="M 415.207031 638.273438 C 415.253906 637.40625 415.445312 636.550781 415.675781 635.691406 C 415.933594 634.847656 416.277344 634.015625 416.71875 633.230469 C 416.945312 632.835938 417.140625 632.414062 417.378906 632.019531 C 417.609375 631.613281 417.9375 631.285156 418.3125 631.019531 C 419.078125 630.496094 419.988281 630.144531 421.066406 630.238281 L 421.207031 630.449219 C 420.90625 631.492188 420.480469 632.160156 420.039062 632.8125 C 419.824219 633.136719 419.546875 633.394531 419.246094 633.636719 C 418.925781 633.867188 418.613281 634.113281 418.339844 634.394531 C 418.0625 634.679688 417.800781 634.976562 417.546875 635.289062 C 417.289062 635.59375 417.035156 635.910156 416.796875 636.242188 C 416.292969 636.890625 415.867188 637.601562 415.445312 638.34375 L 415.207031 638.273438 " fill-opacity="1" fill-rule="nonzero"/>
    <path fill="#fccc44" d="M 420.757812 640.90625 C 420.800781 640.035156 420.992188 639.179688 421.226562 638.324219 C 421.480469 637.476562 421.824219 636.644531 422.269531 635.859375 C 422.496094 635.472656 422.6875 635.046875 422.929688 634.652344 C 423.160156 634.246094 423.484375 633.917969 423.859375 633.648438 C 424.625 633.128906 425.539062 632.777344 426.617188 632.871094 L 426.753906 633.078125 C 426.453125 634.125 426.027344 634.792969 425.589844 635.449219 C 425.375 635.769531 425.097656 636.027344 424.796875 636.269531 C 424.476562 636.5 424.164062 636.75 423.886719 637.03125 C 423.613281 637.3125 423.351562 637.609375 423.097656 637.921875 C 422.835938 638.222656 422.585938 638.542969 422.347656 638.875 C 421.839844 639.523438 421.417969 640.234375 420.996094 640.976562 L 420.757812 640.90625 " fill-opacity="1" fill-rule="nonzero"/>
    <path fill="#ec7d40" d="M 315.183594 237.839844 C 317.699219 236.222656 320.773438 236.148438 322.09375 236.5 C 328.207031 238.101562 335.980469 242.304688 339.867188 248.160156 C 358.152344 275.667969 364.234375 308.71875 365.992188 316.875 C 368.074219 326.542969 365.628906 335.351562 361.804688 341.960938 C 360.445312 344.308594 359.609375 344.699219 359.078125 344.835938 C 355.773438 345.683594 347.070312 339.917969 336.875 324.746094 C 316.546875 294.484375 309.84375 254.085938 311.875 243.699219 C 312.144531 242.324219 312.761719 239.398438 315.183594 237.839844 " fill-opacity="1" fill-rule="nonzero"/>
    <path fill="#ec7d40" d="M 358.3125 320.984375 C 359.824219 319.503906 364.640625 312.714844 370.613281 310.503906 C 380.476562 306.859375 387.84375 306.78125 396.613281 305.199219 C 416.859375 301.550781 412.167969 300.152344 415.890625 297.621094 C 416.246094 297.378906 417.089844 296.09375 418.726562 295.457031 C 421.320312 294.449219 424.15625 295.113281 425.980469 297.332031 C 426.539062 298.007812 428.34375 300.976562 423.082031 309.136719 C 414.4375 322.546875 369.882812 345.261719 359.425781 344.738281 C 358.371094 344.6875 357.265625 344.109375 355.347656 342.4375 C 350.171875 337.925781 351.855469 327.292969 358.3125 320.984375 " fill-opacity="1" fill-rule="nonzero"/>
    <path fill="#ec7d40" d="M 405.304688 304.605469 C 405.433594 303.042969 412.746094 303.320312 421.183594 291.449219 C 423.933594 287.582031 425.609375 285.523438 425.609375 285.523438 C 428.398438 281.3125 429.195312 279.03125 432.117188 277.25 C 432.996094 276.714844 433.125 276.800781 435.242188 275.625 C 438.09375 274.035156 439.535156 273.21875 440.25 272.105469 C 441.183594 270.652344 441.292969 269.78125 442.074219 269.109375 C 443.242188 268.101562 444.328125 269.285156 444.445312 269.375 C 445.652344 270.277344 445.003906 272.238281 444.941406 272.496094 C 443.769531 277.117188 437.347656 281.152344 438.820312 279.851562 C 438.820312 279.851562 448.042969 287.222656 449.242188 290.785156 C 449.636719 291.949219 449.132812 293.039062 448.464844 294.5 C 446.734375 298.265625 442.984375 299.992188 440.851562 300.945312 C 437.078125 302.621094 435.859375 301.921875 432.253906 304.007812 C 431.628906 304.371094 431.269531 304.625 428.742188 306.550781 C 422.949219 310.960938 420.054688 313.171875 418.65625 314.367188 C 413.523438 318.746094 404.773438 311.027344 405.304688 304.605469 " fill-opacity="1" fill-rule="nonzero"/>
    <path fill="#f79556" d="M 437.546875 290.601562 C 437.117188 290.4375 436.726562 290.144531 436.4375 289.738281 C 435.648438 288.636719 435.90625 287.101562 437.015625 286.320312 C 437.070312 286.273438 437.128906 286.234375 437.1875 286.195312 C 436.792969 286.007812 436.445312 285.714844 436.1875 285.316406 C 435.453125 284.179688 435.777344 282.660156 436.917969 281.925781 C 438.300781 281.035156 439.820312 280.351562 441.453125 279.902344 C 441.492188 279.890625 441.535156 279.882812 441.574219 279.871094 C 441.601562 279.828125 441.625 279.78125 441.65625 279.742188 C 441.027344 279.882812 440.332031 280.066406 439.550781 280.300781 C 438.257812 280.683594 436.886719 279.945312 436.5 278.644531 C 436.113281 277.347656 436.859375 276.011719 438.148438 275.59375 C 442.71875 274.121094 444.734375 274.144531 446.90625 274.5625 C 449.242188 275.011719 449.957031 276.273438 450.140625 277.257812 C 450.328125 278.246094 450.03125 279.085938 449.46875 279.824219 C 450.617188 280.226562 451.3125 281.429688 451.046875 282.652344 C 450.925781 283.21875 450.617188 283.691406 450.203125 284.027344 C 450.921875 284.5625 451.320312 285.46875 451.164062 286.410156 C 451.039062 287.132812 450.613281 287.722656 450.035156 288.082031 C 450.566406 288.589844 450.867188 289.328125 450.777344 290.117188 C 450.679688 291.050781 450.066406 291.804688 449.25 292.132812 C 448.894531 292.273438 448.492188 292.339844 448.078125 292.292969 C 446.945312 292.171875 444.054688 292.101562 441.082031 293.945312 L 440.964844 294.027344 C 439.863281 294.8125 438.332031 294.554688 437.542969 293.449219 C 436.921875 292.578125 436.953125 291.433594 437.546875 290.601562 " fill-opacity="1" fill-rule="nonzero"/>
    <path fill="#ec7d40" d="M 289.660156 220.542969 C 290.820312 217.351562 292.988281 215.777344 295.070312 211.457031 C 295.835938 209.863281 296.9375 207.652344 297.015625 201.71875 C 297.1875 189.09375 292.414062 185.726562 294.421875 181.382812 C 297.460938 174.800781 313.40625 171.714844 322.328125 178.570312 C 330.519531 184.859375 331.226562 196.917969 330.214844 207.777344 C 329.351562 217.082031 324.128906 228.761719 318.285156 233.089844 C 312.222656 237.578125 302.019531 240.140625 295.070312 234.601562 C 290.574219 231.019531 287.847656 225.53125 289.660156 220.542969 " fill-opacity="1" fill-rule="nonzero"/>
    <path fill="#f79556" d="M 309.566406 146.117188 C 320.855469 143.222656 330.09375 148.71875 333.363281 150.660156 C 335.207031 151.753906 341.507812 155.679688 346.128906 163.425781 C 348.917969 168.105469 351.871094 175.472656 350.886719 179.003906 C 350.777344 179.402344 350.265625 181.003906 350.453125 183.117188 C 350.535156 183.992188 350.726562 184.722656 351.105469 185.925781 C 352.292969 189.714844 353.160156 191.441406 354.566406 194.796875 C 354.894531 195.578125 355.59375 196.605469 355.214844 197.609375 C 354.910156 198.414062 354.097656 199.035156 353.914062 199.121094 C 352.46875 199.800781 350.449219 199.417969 349.589844 199.988281 C 347.640625 201.289062 348.074219 208.632812 345.261719 213.828125 C 343.292969 217.460938 342.617188 220.6875 338.339844 219.234375 C 327.523438 215.554688 322.113281 209.5 319.300781 204.304688 C 318.242188 202.347656 318.472656 198.21875 318.652344 196.734375 C 321.246094 175.316406 306.464844 146.910156 309.566406 146.117188 " fill-opacity="1" fill-rule="nonzero"/>
    <path fill="#1e1735" d="M 349.03125 178.066406 C 348.367188 178.101562 347.683594 178.03125 347.03125 177.839844 C 346.378906 177.644531 345.820312 177.28125 345.304688 176.9375 C 345.046875 176.765625 344.789062 176.601562 344.53125 176.449219 C 344.253906 176.285156 344.054688 176.171875 343.804688 176.066406 C 342.8125 175.664062 341.660156 175.488281 340.542969 175.648438 C 339.980469 175.71875 339.429688 175.890625 338.898438 176.132812 C 338.375 176.386719 337.871094 176.71875 337.417969 177.117188 L 337.257812 176.976562 C 337.441406 176.722656 337.640625 176.476562 337.859375 176.25 C 338.078125 176.019531 338.320312 175.804688 338.578125 175.609375 C 339.09375 175.21875 339.683594 174.914062 340.3125 174.703125 C 340.941406 174.488281 341.605469 174.382812 342.277344 174.359375 C 342.949219 174.328125 343.625 174.40625 344.292969 174.578125 C 344.625 174.660156 344.980469 174.808594 345.257812 174.902344 C 345.550781 175.015625 345.84375 175.113281 346.140625 175.210938 C 346.726562 175.394531 347.277344 175.550781 347.773438 175.773438 C 348.277344 175.996094 348.777344 176.234375 349.320312 176.480469 C 349.859375 176.742188 349.695312 178.023438 349.03125 178.066406 " fill-opacity="1" fill-rule="nonzero"/>
    <path fill="#1e1735" d="M 341.304688 182.652344 C 341.972656 182.410156 342.589844 182.257812 343.191406 182.085938 C 343.789062 181.925781 344.367188 181.761719 344.9375 181.589844 C 345.507812 181.414062 346.070312 181.222656 346.644531 181.011719 C 347.226562 180.804688 347.804688 180.566406 348.480469 180.34375 C 348.207031 181 347.746094 181.539062 347.199219 181.976562 C 346.652344 182.410156 346.019531 182.738281 345.351562 182.9375 C 344.683594 183.144531 343.984375 183.226562 343.296875 183.191406 C 342.609375 183.144531 341.929688 182.996094 341.304688 182.652344 " fill-opacity="1" fill-rule="nonzero"/>
    <path fill="#1e1735" d="M 299.828125 148.382812 C 300.160156 147.105469 301.125 146.457031 305.625 145.164062 C 307.390625 144.652344 311.636719 143.871094 315.074219 143.871094 C 322.378906 143.871094 331.820312 147.523438 331.820312 147.523438 C 341.882812 151.589844 344.734375 155.78125 345.347656 156.753906 C 345.917969 157.652344 347.207031 160.03125 346.421875 161.046875 C 346.140625 161.417969 345.726562 161.675781 345.347656 161.480469 C 344.898438 161.242188 345.410156 160.417969 345.347656 159.976562 C 345.082031 157.984375 340.511719 156.046875 335.042969 155.679688 C 331.820312 155.46875 328.996094 155.667969 325.378906 155.679688 C 313.507812 155.722656 303.695312 153.132812 302.191406 152.246094 C 300.867188 151.464844 299.46875 149.757812 299.828125 148.382812 " fill-opacity="1" fill-rule="nonzero"/>
    <path fill="#1e1735" d="M 309.78125 148.066406 C 312.328125 147.878906 316.765625 147.597656 321.894531 149.582031 C 324.8125 150.703125 329.722656 152.363281 331.414062 156.933594 C 334.335938 164.832031 326.753906 171.105469 326.871094 175.109375 C 326.890625 175.722656 326.933594 176.1875 326.980469 176.554688 C 327.21875 178.296875 326.234375 178.632812 325.96875 178.742188 C 325.164062 179.066406 324.097656 179.171875 323.410156 179.003906 C 322.351562 178.742188 322.390625 177.730469 321.894531 176.835938 C 320.332031 174.003906 320.207031 171.375 317.351562 171.429688 C 312.515625 171.527344 312.917969 174.351562 311.730469 177.273438 C 311.0625 178.902344 311.835938 182.140625 307.835938 191.335938 C 304.339844 199.363281 297.117188 201.746094 295.933594 200.855469 C 295.273438 200.351562 295.5 199.285156 295.503906 197.828125 C 295.507812 195.453125 294.710938 193.429688 293.121094 189.386719 C 291.105469 184.261719 289.898438 184.308594 288.363281 180.515625 C 286.148438 175.046875 286.648438 169.992188 286.847656 168.183594 C 287.144531 165.492188 287.820312 159.441406 292.472656 154.558594 C 297.820312 148.945312 305.054688 148.410156 309.78125 148.066406 " fill-opacity="1" fill-rule="nonzero"/>
    <path fill="#1e1735" d="M 347.441406 182.769531 C 347.441406 183.617188 346.871094 184.300781 346.167969 184.300781 C 345.460938 184.300781 344.890625 183.617188 344.890625 182.769531 C 344.890625 181.929688 345.460938 181.242188 346.167969 181.242188 C 346.871094 181.242188 347.441406 181.929688 347.441406 182.769531 " fill-opacity="1" fill-rule="nonzero"/>
    <path fill="#f79556" d="M 321.464844 174.242188 C 321.207031 173.375 320.761719 172.042969 319.515625 171.214844 C 318.171875 170.316406 316.65625 170.503906 316.273438 170.5625 C 314.691406 170.8125 313.734375 171.792969 313.242188 172.296875 C 311.851562 173.714844 311.476562 175.359375 311.296875 176.1875 C 310.570312 179.539062 311.890625 182.308594 312.378906 183.328125 C 313.480469 185.644531 314.957031 186.925781 316.054688 187.875 C 317.835938 189.410156 318.84375 189.605469 319.515625 189.601562 C 320.230469 189.601562 320.863281 189.386719 321.246094 189.171875 C 325.148438 187.003906 321.710938 175.082031 321.464844 174.242188 " fill-opacity="1" fill-rule="nonzero"/>
    <path fill="#d65b5b" d="M 347.847656 204.921875 C 347.207031 205.054688 346.429688 205.144531 345.460938 205.074219 C 343.273438 204.90625 341.480469 204.019531 341.097656 204.636719 C 341.015625 204.773438 340.964844 204.96875 341.101562 205.210938 C 342.480469 207.636719 344.847656 209.085938 346.835938 209.710938 C 347.28125 208.0625 347.574219 206.402344 347.847656 204.921875 " fill-opacity="1" fill-rule="nonzero"/>
    <path fill="#ffffff" d="M 318.875 368.570312 C 322.171875 360.582031 325.3125 352.488281 332.433594 337.195312 C 339.226562 322.597656 354.851562 293.828125 345.902344 261.84375 C 340.046875 240.902344 325.914062 228.371094 311.257812 221.824219 C 309.136719 220.875 297.527344 216.523438 285.992188 221.824219 C 272.796875 227.886719 266.398438 244.113281 263.964844 255.5 C 261.054688 269.101562 267.289062 286 268.230469 297.28125 C 270.101562 319.730469 264.15625 332.949219 259.496094 341.5625 C 251.011719 357.257812 249.171875 357.378906 249.519531 360.269531 C 249.761719 362.265625 256.703125 363.082031 265.351562 363.882812 C 283.507812 365.570312 294.109375 358.710938 310.386719 365.1875 C 316.976562 367.8125 318.429688 369.648438 318.875 368.570312 " fill-opacity="1" fill-rule="nonzero"/>
    <path fill="#f79556" d="M 211.835938 287.894531 C 212.582031 280.265625 217.738281 278.519531 226.988281 269.738281 C 229.03125 267.792969 235.71875 259.242188 247.910156 247.671875 C 261.636719 234.652344 266.011719 233.867188 270.214844 231.257812 C 278.375 226.195312 282.890625 224.914062 288.085938 224.019531 C 292.09375 223.328125 297.816406 223.519531 302.417969 226.914062 C 305.90625 229.484375 307.082031 233.300781 307.828125 235.707031 C 308.234375 237.023438 310.851562 251.050781 294.984375 260.414062 C 283.703125 267.070312 281.859375 270.660156 273.386719 275.328125 C 261.375 281.953125 259.769531 280.761719 249.566406 285.742188 C 239.464844 290.671875 227.027344 297.128906 215.445312 294.699219 C 215.164062 294.640625 211.457031 291.789062 211.835938 287.894531 " fill-opacity="1" fill-rule="nonzero"/>
    <path fill="#f79556" d="M 214.707031 282.859375 C 218.882812 278.804688 226.578125 278.988281 234.054688 282.53125 C 237.175781 284.007812 241.03125 288.636719 243.40625 294.535156 C 252.90625 318.117188 247.789062 330.550781 253.804688 344.261719 C 257.011719 351.058594 258.800781 352.65625 260.523438 353.53125 C 261.347656 353.949219 262.363281 354.304688 262.597656 355.175781 C 263.132812 357.171875 259.710938 360.398438 256.425781 361.535156 C 251.761719 363.152344 249.683594 362.941406 244.84375 359.105469 C 237.847656 353.558594 208.03125 299.300781 212.585938 286.238281 C 213.25 284.335938 214.347656 283.207031 214.707031 282.859375 " fill-opacity="1" fill-rule="nonzero"/>
    <path fill="#f79556" d="M 279.667969 357.015625 C 282.632812 355.792969 289.308594 352 288.425781 349.011719 C 288.191406 348.210938 287.03125 347.851562 286.195312 347.949219 C 284.789062 348.109375 283.742188 349.238281 282.980469 349.648438 C 277.183594 352.71875 269.757812 348.917969 267.199219 348.191406 C 262.757812 346.925781 260.636719 349.027344 261.214844 350.972656 C 263.960938 360.226562 276.445312 358.347656 279.667969 357.015625 " fill-opacity="1" fill-rule="nonzero"/>
    <path fill="#f79556" d="M 256.539062 349 C 260.84375 348.1875 263.460938 347.714844 267.011719 348.277344 C 269.25 348.632812 270.882812 349.300781 274.148438 350.636719 C 280.402344 353.1875 283.753906 355.84375 284.519531 356.46875 C 285.242188 357.050781 284.714844 356.675781 287.085938 358.765625 C 287.835938 359.429688 293.324219 364.273438 295.03125 367.628906 C 295.234375 368.027344 295.53125 368.691406 295.273438 369.289062 C 294.96875 370.003906 294.054688 370.226562 293.804688 370.285156 C 292.855469 370.515625 292.042969 370.179688 291.5 369.953125 C 290.367188 369.472656 289.667969 368.757812 289.523438 368.609375 C 287.664062 366.714844 285.363281 364.367188 283.652344 362.914062 C 281.300781 360.917969 279.722656 360.039062 277.347656 358.992188 C 276.882812 358.789062 276.15625 358.660156 276.113281 358.753906 C 275.84375 359.378906 279.007812 361.003906 282.152344 363.300781 C 287.140625 366.945312 292.671875 372.28125 292.46875 373.710938 C 292.355469 374.476562 291.796875 375.421875 290.886719 375.46875 C 290.035156 375.515625 288.238281 374.9375 288.121094 375.011719 C 287.914062 375.140625 288.9375 376.035156 288.824219 376.800781 C 288.714844 377.570312 288.050781 378.59375 286.941406 378.582031 C 286.378906 378.574219 285.746094 378.589844 281.773438 375.964844 C 278.347656 373.703125 276.632812 372.574219 275.289062 371.597656 C 273.230469 370.101562 271.714844 368.882812 269.15625 368.121094 C 268.472656 367.917969 267.484375 367.628906 267.316406 367.917969 C 267.019531 368.429688 269.207031 369.941406 271.929688 371.476562 C 274.34375 372.832031 275.015625 373.132812 277.4375 374.679688 C 278.089844 375.09375 281.070312 377.070312 280.992188 378.445312 C 280.960938 379.011719 279.957031 379.972656 278.933594 379.777344 C 274.003906 378.828125 269.609375 374.6875 266.417969 373.753906 C 264.398438 373.164062 256.402344 371.710938 250.453125 363.195312 C 248.8125 360.847656 247.558594 361.304688 246.59375 359.445312 C 245.761719 357.835938 245.164062 355.171875 246.246094 353.0625 C 247.457031 350.71875 250.484375 350.144531 256.539062 349 " fill-opacity="1" fill-rule="nonzero"/>
    <path fill="#635e73" d="M 620.253906 702.351562 L 399.074219 702.351562 C 398.316406 702.351562 397.640625 702.820312 397.375 703.527344 L 393.285156 714.429688 C 392.839844 715.617188 393.71875 716.882812 394.988281 716.882812 L 624.675781 716.882812 C 626.152344 716.882812 627.15625 715.371094 626.578125 714.007812 L 622.15625 703.613281 C 621.832031 702.847656 621.082031 702.351562 620.253906 702.351562 " fill-opacity="1" fill-rule="nonzero"/>
    <path fill="#635e73" d="M 108.582031 716.738281 L 75.792969 716.882812 C 75.125 716.886719 74.628906 716.269531 74.777344 715.621094 L 80.324219 691.027344 C 81.210938 687.101562 82.613281 683.300781 84.609375 679.808594 C 87.417969 674.902344 91.222656 670.632812 95.878906 667.203125 C 103.027344 661.941406 111.734375 659.222656 120.609375 659.222656 L 623.1875 659.222656 C 623.867188 659.222656 624.363281 659.867188 624.191406 660.523438 L 615.285156 694.78125 C 615.167969 695.238281 614.753906 695.558594 614.277344 695.558594 L 120.179688 695.558594 C 118.132812 695.558594 116.292969 696.929688 115.710938 698.890625 L 109.554688 716.050781 C 109.40625 716.460938 109.019531 716.734375 108.582031 716.738281 " fill-opacity="1" fill-rule="nonzero"/>
    <path fill="#4d475f" d="M 476.84375 716.734375 L 441.71875 716.882812 L 541.75 338.550781 L 576.871094 347.847656 L 476.84375 716.734375 " fill-opacity="1" fill-rule="nonzero"/>
    <path fill="#635e73" d="M 483.050781 401.691406 L 358.765625 401.691406 C 356.960938 401.691406 355.644531 399.988281 356.101562 398.242188 L 362.289062 374.679688 C 362.605469 373.472656 363.699219 372.628906 364.949219 372.628906 L 483.050781 372.628906 C 491.117188 372.628906 499.09375 369.941406 505.519531 365.0625 L 609.234375 286.253906 C 610.449219 285.335938 612.171875 285.570312 613.09375 286.78125 L 627.34375 305.542969 C 628.265625 306.753906 628.027344 308.476562 626.816406 309.398438 L 523.101562 388.203125 C 511.652344 396.902344 497.429688 401.691406 483.050781 401.691406 " fill-opacity="1" fill-rule="nonzero"/>
  </g>
</svg>