<svg xmlns="http://www.w3.org/2000/svg" viewBox="0 0 810 810">
    <defs>
        <clipPath id="A">
            <path d="M106 746h529v63.773H106zm0 0" clip-rule="nonzero"/>
        </clipPath>
    </defs>
    <g transform="matrix(1.192728 0 0 1.192728 -24.817225 -163.534302)">
        <g clip-path="url(#A)">
            <path fill="#d7fec9" d="M634.691 778.035c0 17.535-118.18 31.754-263.965 31.754s-263.965-14.219-263.965-31.754 118.18-31.754 263.965-31.754 263.965 14.219 263.965 31.754"/>
        </g>
        <path d="M634.629 441.863c-.039.227-.242.457-1.215.82-.812.305-5.922 2.113-9.73-.816-.656-.508-1.352-1.043-1.266-1.629.172-1.184 3.453-1.941 6.203-1.613 3.098.367 6.199 2.184 6.008 3.238zm24.324 15.23c-2.703 1.16-8.32-3.418-9.574-4.711-4.176-4.27-7.5-10.766-10.785-18.215-6.43-.617-10.082 1.547-15.492 2.078-10.687 1.043-9.715-3.246-9.598-3.578 1.836-5.23 15.199-7.102 21.973-5.785l-5.5-12.656c-.461-.996-1.008-1.973-1.621-2.93a15.95 15.95 0 0 0-1.539-.207c-15.141-1.203-19.555 4.438-28.582 7.336-13.93 4.477-13.871-1.516-13.812-1.992.953-7.699 19.141-14.195 28.344-14.055 1.57.027 4.676.082 8.195.871-20.398-16.613-62.512-20.937-63.246 10.551-.168 7.227-7.32 2.594-14.715 10.113-6.277 6.387-4.215 16.934-3.699 20.305 2.602 17.016 17.441 33.371 35.797 39.246 17.516 5.609 37.254 1.355 49.59-7.27 4.285-3 16.156-15.77 21.801-15.395 6.832.453 10.754-.672 12.953-1.699 1.824-.852 1.418-2.828-.488-2.008m-495.986 89.967c.832-4.035.195-4.879-1.219-8.23-3.008-7.102-18.324-8.203-27.977-21.555-6.141-8.488-21.953-3.094-32.891-10.543-7.781-5.293.133-9.656-18.469-17.355-28.281-11.699-26.875-28.762-25.859-29.344 1.613-.922 2.059 4.07 4.41 6.293 11.023 10.414 69.273-19.926 126.305 7.109 24.816 11.762 43.578 30.305 51.598 55.82 5.871 18.695.992 29.305-6.074 28.523-8.352-.926-1.645 3.574-5.621 11.492-16.535 32.914-67.312-7.141-64.203-22.211" fill="#d7fec9"/>
        <path fill="#219d6c" d="M277.699 263.023c-18.891 19.785-42.699 20.387-42.973 19.602-.336-.961 21.945-4.812 37.668-25.211-8.582-8.219-19.309-14.652-32.539-18.324-25.262-7-14.719-11.141-34.5-22.312-25.945-14.652-37.145-17.523-43.59-16.746-10.418 1.25-9.145-7.18-11.023-5.941-1.219.809-13.387 19.113-2.664 35.398 5.66 8.594 14.754 7.18 22.305 19.656 4.027 6.66 2.859 10.363 5.16 18.375 4.969 17.305 24.465 18.48 24.465 32.777.004 84.762 28.176 95.434 54.395 100.863 14.445 2.988 14.551-9.949 23.277-6.473 22.852 9.098 40.938-83.84.02-131.664"/>
        <path fill="#d7fec9" d="M265.613 206.641c22.855-24.176 31.41-45.746 47.648-50.207 8.93-2.457 8.543 1.555 16.313-6.402 3.574-3.66 6.086-8.93 7.387-8.395 1.215.496-1.137 5.078.145 9.93 2.004 7.582 10.957 8.574 17.449 14.664 4.836 4.543 6.508 10.23 7.406 16.266-14.906 9.367-42.984 10.906-38.926 12.012 4.172 1.133 26.281 2.324 40.316-.305 3.457 24.41 14.879 29.707 25.746 57.172 8.305 20.973 7.238 32.043 11.207 62.051 12.086 91.367 37.766 108.176 23.285 147.867-1.613 4.422-23.555 40.422-47.594 44.23-14.434 2.285-20.402-8.535-39.504-6.75-18.645 1.742-22.687 12.961-41.234 17.402 0 0-12.43 3.773-39.43-8.754-68.164-31.621-49.312-238.25 9.785-300.781"/>
        <path fill="#006a42" d="M114.219 382.426c.199-10.332 4.691-15.109 1.57-24.07-1.117-3.195-2.988-6.312-2-7.176 1.324-1.16 6.516 2.855 8.066 3.941 13.098 9.227 38.59 1.418 43.945.023 32.359-8.418 80.879 21.895 104.473 42.449 10.934 9.523 54.453 47.438 50.684 95.766-.141 1.789 2.047 35.941-21.219 42.867-14.75 4.391-23.801-11.98-39.687-5.207-10.422 4.441-13.844 12.668-23.824 15.102-13.281 3.238-27.488-11.469-30.754-15.066-11.777-12.977-7.602-20.699-20.258-45.129-5.926-11.441-10.902-21.051-20.965-31.008-9.238-9.145-16.332-12.219-21.121-16.973 8.176 1.34 17.879-.609 28.145-5.773 7.02-3.527 12.629-9.621 11.742-10.375-.742-.633-8.258 5.914-19.152 6.742-14.742 1.117-22.484-2.398-27.207-5.398-.957-9.109 1.578-17.141-1.848-18.535-2.785-1.133-5.191 3.891-9.332 3.254-6.211-.949-11.48-13.867-11.258-25.434"/>
        <path fill="#219d6c" d="M173.574 608.086c.121.195.391.34 1.426.32.871-.016 6.289-.211 8.754-4.332.426-.711.875-1.469.582-1.977-.598-1.043-3.926-.539-6.367.773-2.742 1.48-4.965 4.309-4.395 5.215zm-17.027 23.102c2.934.086 6.473-6.238 7.172-7.898 2.316-5.504 3.02-12.77 3.336-20.906 5.754-2.93 9.949-2.258 15.18-3.75 10.32-2.949 7.84-6.586 7.609-6.855-3.625-4.187-16.746-1.027-22.562 2.688l.469-13.789a24.55 24.55 0 0 1 .434-3.32c.418-.262.859-.516 1.355-.762 13.637-6.676 19.816-3.051 29.277-3.664 14.598-.945 12.348-6.504 12.117-6.922-3.715-6.812-23.02-6.18-31.523-2.668-1.453.598-4.32 1.789-7.309 3.816 12.875-22.941 50.457-42.422 62.707-13.398 2.813 6.66 7.762-.277 17.406 4.004 8.18 3.633 10.137 14.203 10.895 17.531 3.828 16.781-3.973 37.441-18.883 49.641-14.234 11.648-34.156 14.934-48.797 11.441-5.094-1.215-20.82-8.738-25.93-6.32-6.195 2.934-10.254 3.324-12.68 3.176-2.008-.121-2.355-2.109-.273-2.043"/>
        <path fill="#d7fec9" d="M422.684 181.277c2.582 2.863-.754 11.766-1.82 13.863-3.551 6.984-10.219 13.844-18.09 21.059 1.945 8.242 6.176 11.863 9.113 18.355 5.793 12.824.055 13.422-.41 13.418-7.27-.07-15.219-15.875-16.43-24.84l-13.406 12.156c-1.047.992-2.027 2.086-2.957 3.254a20.35 20.35 0 0 0 .391 1.996c4.879 19.297 13.742 22.406 21.145 32.387 11.426 15.398 3.961 17.859 3.344 17.984-9.965 2.055-25.691-17.785-29.391-29.262-.629-1.965-1.867-5.844-2.371-10.547-12.043 32.32.316 86.41 39.738 74.063 9.047-2.832 6.305 7.992 18.758 14.012 10.574 5.105 22.809-1.902 26.777-3.961 20.031-10.395 34.102-35.703 33.668-60.957-.406-24.102-14.004-46.816-29.91-58.492-5.531-4.062-26.383-13.418-28.293-20.574-2.324-8.68-5.367-13.074-7.57-15.371-1.82-1.906-4.113-.57-2.285 1.457"/>
        <path fill="#219d6c" d="M449.996 382.512c-5.797-4.523-14.082 4.996-25.945.059-11.457-4.77-22.273-20.367-18.496-31.449 6.441-18.906 3.523-36.445 8.641-47.793 8.238-18.293 29.137-31.539 81.004-47.707l15.41-4.727c-2.555 3.656-4.996 7.789-7.055 12.359-1.152 2.559-5.75 13.188-4.711 26.648.359 4.66 1.059 13.816 6.73 16.379.441.195 2.488.672 4.738-.363 4.254-1.961 4.383-9.449 4.406-22.535.027-21.32 1.047-29.742 2.41-34.367 13.004-3.594 21.578-4.898 28.969-3.141 10.887 2.59 25.844 9.172 33.789 3.027 4.59-3.551 2.48-8.723 4.512-8.695 4.168.047 4.285 23.734 10.871 50.051 10.133 40.496 9.121 37.359 8.66 48.219-.082 1.887-.234 3.734-.449 5.551-42.316 20.832-70.703 10.484-80.789 12.797-1.82.414-8.523 1.953-8.734 4.629-.297 3.84 12.953 7.766 15.789 8.613 17.168 5.086 48.465 8.098 67.977-4.656-6.949 16.414-18.594 30.027-29.297 42.535-17.973 21.004-34.422 40.227-60.957 43.156-16.109 1.773-37.777-4.262-48.437-16.328-15.559-17.617 4.961-41.348-9.035-52.262"/>
        <path fill="#d7fec9" d="M578.266 256.414c-2.602 4.91-5.914 9.387-9.348 13.73-3.457 4.34-7.117 8.5-10.863 12.582-7.527 8.148-15.402 15.957-23.434 23.602-16.074 15.281-32.734 29.938-49.578 44.367l-25.414 21.488-12.77 10.699-6.363 5.438c-1.059.918-2.109 1.93-3.156 2.902-1.008 1.031-2.035 2.035-2.988 3.129-1.934 2.145-3.727 4.438-5.32 6.852a63.86 63.86 0 0 0-4.328 7.488c-2.594 5.145-4.512 10.508-6.25 15.879-.844 2.695-1.641 5.355-2.387 8.109-.746 2.82-1.289 5.621-1.77 8.41-.941 5.578-1.629 11.121-2.273 16.66l-3.711 33.07c-1.32 10.977-2.824 21.918-4.664 32.777-3.703 21.715-8.703 43.188-16.023 63.793-7.297 20.582-16.918 40.328-29.559 57.871-12.602 17.547-28.328 32.699-46.422 44.223l6.426 9.836c4.75-3.219 9.391-6.605 13.832-10.234 4.418-3.66 8.699-7.477 12.762-11.523 4.043-4.055 7.918-8.27 11.582-12.656 3.637-4.41 7.082-8.957 10.34-13.637 12.965-18.777 22.547-39.559 29.648-60.922 7.125-21.398 11.773-43.43 15.09-65.527 1.648-11.051 2.953-22.141 4.059-33.223l3.059-33.172c.527-5.496 1.094-10.98 1.895-16.363.41-2.687.879-5.352 1.5-7.91.648-2.617 1.371-5.293 2.129-7.91 1.551-5.219 3.27-10.379 5.563-15.207 1.125-2.434 2.41-4.77 3.832-7.008 1.41-2.254 2.996-4.383 4.734-6.398.848-1.027 1.781-1.984 2.688-2.957l2.906-2.801 6.16-5.531 12.484-11.012 24.902-22.137c16.508-14.871 32.824-29.961 48.547-45.676 7.852-7.859 15.555-15.883 22.887-24.234 3.652-4.187 7.223-8.449 10.582-12.879 3.332-4.437 6.535-9.016 9.016-13.988"/>
        <path fill="#006a42" d="M455.863 583.191c4.473-32.02 18.977-54.828 19.805-60.148.063-.402.605-4.164-1.246-5.336-1.848-1.16-5.203.652-6.316 1.746-25.836 25.418-12.773 66.656-19.328 89.426l-1.34-1.812c-9.352-12.336-41.883-48.391-37.602-95.199.586-6.391 4-24.824 17.305-31.715 17.602-9.121 27.574-7.871 48.535.855 8.648 3.605.332-15.598 7.406-31.652.672-1.535 9.113-19.953 28.035-26.973 30.059-11.148 59.328 16.586 60.543 17.77 7.574 7.395 11.629 15.148 17.168 25.758 4.66 8.922 10.184 19.711 12.223 34.371 1.992 14.367-2.051 13.094.422 26.344 2.566 13.727 7.992 20.883 4.609 31.395-.406 1.262-.836 2.25-1.195 3.16-5.816-5.187-13.535-10.637-22.051-14.27-3.68-1.578-13.797-5.891-17.125-2.234-1.09 1.203-1.277 3.066-.945 4.488 1.223 5.27 10.16 7.211 15.168 8.578 11.355 3.098 19.734 7.941 25.527 11.813 2.82 4.273 9.168 5.684 12.207 11.555 6.91 13.336-10.371 35.934-12.34 38.457-4.676 5.988-6.094 5.531-8.895 10.613-4.918 8.906-4.012 16.555-10.738 21.004-1.527 1.016-4.789 3.129-4.164 1.715.797-1.793.895-12.84-6.797-18.988-6.93-5.531-49.773 10.078-89.16-1.559-1.867-11.371-4.84-30.645-.187-54.973 1.629-8.508 5.281-23.324-1.715-29.02-1.887-1.539-4.82-2.629-7.418-1.875-7.922 2.293-8.879 20.613-9.23 27.285-1.086 20.715 3.801 41.68 9.059 55.188-8.062-3.422-15.832-8.199-22.953-14.785-.715-.656-1.359-1.383-1.992-2.156 1.297-6.07 2.824-15.191 4.727-28.824"/>
        <path fill="#d7fec9" d="M244.57 296.277c2.984 1.75 5.984 3.355 8.824 5.211 1.449.883 2.801 1.898 4.187 2.871a123.58 123.58 0 0 1 3.98 3.152c1.262 1.137 2.563 2.219 3.789 3.395l3.625 3.57 3.461 3.746c1.164 1.234 2.211 2.574 3.324 3.855 8.641 10.5 15.664 22.262 21.879 34.371 3.07 6.082 5.922 12.277 8.621 18.539 2.688 6.273 5.16 12.629 7.547 19.027 4.695 12.813 8.883 25.82 12.613 38.957 3.754 13.129 7.105 26.379 10.129 39.711 3.027 13.32 5.762 26.719 8.223 40.16 9.789 53.793 15.766 108.254 18.953 162.813.961 16.793 1.66 33.609 2.07 50.426h10.727c-.75-17.051-1.793-34.082-3.102-51.078-4.289-54.844-11.379-109.477-22.289-163.391-2.738-13.477-5.758-26.898-9.066-40.242-3.309-13.355-6.945-26.625-10.984-39.777-4.02-13.156-8.5-26.184-13.488-39.02-2.535-6.402-5.16-12.77-8-19.051-2.848-6.27-5.852-12.473-9.082-18.57-6.531-12.133-13.883-23.918-22.891-34.437-1.16-1.285-2.258-2.625-3.465-3.863l-3.594-3.738-3.77-3.57c-1.273-1.172-2.629-2.262-3.937-3.391-1.359-1.078-2.746-2.125-4.145-3.152-1.441-.965-2.852-1.98-4.348-2.859-2.937-1.836-6.027-3.406-8.984-5.066s-5.734-3.559-8.066-5.973c-2.332-2.395-4.34-5.145-6.012-8.098l-2.562-4.453c-.895-1.48-1.797-2.949-2.781-4.367-1.957-2.844-4.137-5.547-6.586-7.992a45.67 45.67 0 0 0-8.125-6.395c-2.937-1.816-6.059-3.277-9.176-4.699-3.105-1.434-6.23-2.879-8.973-4.926-1.371-1.016-2.641-2.168-3.777-3.445-1.121-1.297-2.102-2.707-2.977-4.184.848 1.492 1.801 2.93 2.898 4.242a24.49 24.49 0 0 0 3.734 3.547c2.723 2.121 5.844 3.637 8.922 5.129 3.09 1.484 6.164 2.996 9.023 4.848s5.508 4.02 7.875 6.453c2.355 2.449 4.449 5.145 6.32 7.984.941 1.418 1.805 2.883 2.652 4.359l2.477 4.504c1.648 3.039 3.656 5.922 6.051 8.48 2.383 2.574 5.289 4.645 8.273 6.387"/>
        <path fill="#006a42" d="M256.836 481.441l1.551 3.98 1.453 4.016c3.762 10.746 6.555 21.82 8.414 33.043 1.84 11.219 2.773 22.582 2.832 33.949.043 5.684-.145 11.371-.496 17.051l-.645 8.547-.613 8.688c-.66 11.621-.586 23.277.078 34.895.688 11.617 2.004 23.188 3.805 34.672 3.621 22.98 9.32 45.578 16.379 67.691a599.4 599.4 0 0 0 6.391 18.773h10.906c-2.836-7.227-5.543-14.496-8.09-21.832-7.445-21.547-13.551-43.578-17.625-65.984-2.031-11.199-3.582-22.488-4.523-33.828-.918-11.34-1.262-22.727-.883-34.098l.402-8.539.449-8.68c.219-5.809.273-11.637.094-17.453-.336-11.641-1.562-23.258-3.719-34.695-2.172-11.434-5.293-22.687-9.395-33.57l-1.578-4.062-1.68-4.023-3.496-7.937c-2.41-5.27-5.004-10.461-7.816-15.527-5.629-10.145-12.121-19.816-19.598-28.687-7.461-8.867-15.91-16.926-25.27-23.746a129.13 129.13 0 0 0-14.656-9.27l-3.855-1.988c-1.289-.656-2.609-1.246-3.906-1.867-2.641-1.184-5.289-2.328-7.992-3.34-10.781-4.137-22.066-6.867-33.492-8.258 11.391 1.66 22.578 4.641 33.195 9.004 2.664 1.07 5.273 2.27 7.863 3.496l3.832 1.945 3.773 2.055c4.969 2.844 9.738 6.031 14.281 9.504 9.086 6.949 17.227 15.086 24.371 23.992 7.16 8.902 13.328 18.57 18.637 28.676 2.652 5.055 5.086 10.223 7.34 15.473l3.281 7.938"/>
        <g fill="#219d6c">
            <path d="M300.895 676.418c8.797 19.613 16.523 39.695 23.453 60.051l3.414 10.277h6.598l-4.277-12.277c-7.305-20.395-15.406-40.52-24.59-60.156-9.172-19.633-19.469-38.773-31.152-57.047-11.684-18.266-24.793-35.664-39.594-51.531-14.816-15.832-31.371-30.098-49.562-41.898-18.172-11.82-37.977-21.121-58.707-27.324l-7.805-2.215-7.82-2.09c-5.203-1.414-10.383-2.91-15.484-4.656s-10.113-3.746-14.906-6.215c-4.785-2.461-9.344-5.445-13.25-9.172 3.852 3.789 8.371 6.848 13.133 9.391 4.77 2.555 9.773 4.641 14.855 6.473 5.09 1.828 10.262 3.406 15.449 4.906l7.789 2.211 7.738 2.328c20.543 6.5 40.063 16.051 57.895 28.047 17.855 11.98 34.02 26.363 48.441 42.266 14.41 15.941 27.113 33.363 38.402 51.633 11.285 18.281 21.191 37.395 29.98 57m9.761-385.369l1.906 44.063c3.016 58.723 7.172 117.379 12.016 175.98 4.891 58.602 10.539 117.148 17.465 175.59l7.695 60.063h10.961l-9.02-61.297c-7.977-58.152-14.687-116.516-20.648-174.953l-15.23-175.574-2.715-43.977-.535-10.996-.426-10.996c-.102-3.645-.078-7.285.266-10.883.332-3.609 1.16-7.086 2.258-10.602a78.18 78.18 0 0 0 1.426-5.379 61.35 61.35 0 0 0 .906-5.5c.465-3.687.543-7.391.617-11.074.07-7.355-.043-14.691.371-22.012.402-7.312 1.402-14.609 3.477-21.648 2.063-7.027 5.254-13.73 9.352-19.824-4.207 6.02-7.535 12.68-9.738 19.711-2.215 7.027-3.359 14.363-3.895 21.707-.555 7.352-.578 14.711-.781 22.047-.141 3.652-.285 7.313-.809 10.91a61.33 61.33 0 0 1-.98 5.348c-.43 1.762-.934 3.496-1.5 5.246-1.156 3.473-2.109 7.16-2.516 10.871-.426 3.711-.516 7.426-.484 11.121l.23 11.035.332 11.023"/>
            <path d="M248.094 504.543c.531.516 9.449-5.824 27.254-18.531 2.805-1.992 5.738-4.117 5.289-5.258-.641-1.629-8.035-.855-13.605 1.355-13.223 5.242-20.953 20.461-18.937 22.434zm-16.129.016c8.438-20.82 25.473-35.34 43.117-40.902 4.633-1.457 12.609-3.852 18.559.051 9.332 6.113 6.648 23.066 10.355 23.563 4.637.621 6.012-24.715 20.453-31.004 10.68-4.652 25.652.129 33.934 8.336 21.043 20.844 16.348 61.18 4.762 86.461-6.781 14.789-27.168 48.957-53.113 55.082-5.195 1.227-23.434 4.352-28.113 16.223-1.004 2.555-.879 4.223-2.277 4.973-5.984 3.203-26.414-17.863-37.93-39.02-5.211-9.582-25.043-46.016-9.746-83.762m85.917 202.577l5.93-4.648 6.406-4.906c4.285-3.352 8.508-6.887 12.551-10.637 8.094-7.504 15.477-15.926 21.652-25.187a126.61 126.61 0 0 0 14.691-29.859c3.574-10.52 5.715-21.449 6.68-32.402.23-2.734.406-5.48.492-8.219l.203-7.953c.164-5.219.445-10.43.887-15.625.855-10.379 2.324-20.687 4.688-30.738 2.375-10.039 5.68-19.844 10.469-28.797 4.77-8.93 11.063-18.062 19.16-23.902 4.031-2.926 8.523-4.223 13.219-5.961 2.348-.867 4.762-1.598 7.215-2.16a40.66 40.66 0 0 1 3.629-.687 37.47 37.47 0 0 1 3.652-.336c4.91-.211 9.938.488 14.832 1.793 4.914 1.285 9.703 3.191 14.336 5.453 9.258 4.57 17.875 10.59 25.824 17.383 7.969 6.785 15.293 14.367 22.063 22.426 13.531 16.145 24.859 34.156 34.285 53.094 9.43 18.945 16.992 38.844 22.871 59.23-5.305-20.547-12.301-40.699-21.246-60.016-8.937-19.305-19.832-37.805-33.105-54.594-6.648-8.383-13.891-16.328-21.883-23.539-7.973-7.215-16.703-13.711-26.348-18.82-4.832-2.527-9.887-4.715-15.211-6.277-5.305-1.574-10.887-2.539-16.59-2.457a43.84 43.84 0 0 0-4.285.266c-1.43.161-2.867.402-4.211.676a64.33 64.33 0 0 0-8.09 2.176 61.84 61.84 0 0 0-15.055 7.496c-9.355 6.355-16.703 15.219-22.18 24.813-5.504 9.629-9.309 20.012-12.117 30.531-2.797 10.539-4.625 21.246-5.824 31.98a294.04 294.04 0 0 0-1.371 16.125l-.414 7.949a156.08 156.08 0 0 1-.617 7.652c-1.113 10.16-3.297 20.152-6.754 29.672-3.441 9.512-8.109 18.547-13.898 26.813-5.773 8.281-12.633 15.793-20.242 22.563-3.805 3.383-7.793 6.586-11.934 9.688l-6.328 4.641c-2.16 1.574-4.332 3.109-6.695 5.043-2.871 2.348-3.293 6.578-.945 9.449a6.72 6.72 0 0 0 9.453.945c.031-.023.063-.051.094-.074l.063-.059"/>
        </g>
        <g fill="#003d24">
            <path d="M367.273 200.559c25.039-4.59 50.453 1.148 63.164 62.848 4.75 23.059 29.695 57.746 35.906 70.563 11.547 23.805 7.848 46.797-3.59 67.984-16.199 29.996-46.543 47.105-79.113 42.133-55.887-8.539-84.273-94.93-87.441-113.703-6.031-35.793 1.086-86.996 38.707-118.328 11.188-9.309 27.832-10.664 32.367-11.496"/>
            <path d="M368.027 201.922c5.066-1.398 10.313-2.398 15.68-2.395 5.355-.035 10.828.984 15.84 3.238 1.273.523 2.461 1.219 3.668 1.879 1.156.738 2.34 1.453 3.422 2.297 1.133.785 2.148 1.703 3.203 2.582.512.461 1 .945 1.496 1.414s.992.949 1.445 1.457c3.773 3.973 6.852 8.5 9.52 13.199s4.879 9.617 6.766 14.621c1.887 5.012 3.566 10.09 4.98 15.223.383 1.277.711 2.566 1.035 3.855l.488 1.934c.164.648.324 1.301.5 1.875l1.031 3.574 1.301 3.547c1.859 4.707 4.004 9.367 6.449 13.922a260.71 260.71 0 0 0 7.641 13.547c2.641 4.484 5.422 8.906 8.188 13.355l8.32 13.422c1.359 2.273 2.699 4.602 3.957 7.066l1.672 3.715a22.51 22.51 0 0 1 .766 1.891l.715 1.91c1.832 5.121 3.152 10.434 3.723 15.836.582 5.398.438 10.844-.312 16.164-1.57 10.648-5.508 20.715-10.879 29.75 4.074-9.687 7.059-19.812 7.676-30.082.766-10.254-1.098-20.484-4.98-29.816l-.75-1.742a17.65 17.65 0 0 0-.801-1.723l-1.719-3.383a122.54 122.54 0 0 0-3.98-6.539l-8.641-13.121c-5.766-8.805-11.426-17.758-16.398-27.211l-1.832-3.562-1.719-3.641-.848-1.832-.785-1.867-.777-1.871a23.74 23.74 0 0 1-.734-1.906l-1.344-3.867-1.102-4.012c-.191-.684-.332-1.305-.484-1.934l-.449-1.891-.906-3.773c-2.512-10.027-5.75-19.879-10.262-29.039-2.281-4.559-5.012-8.859-8.211-12.746-.391-.5-.809-.973-1.238-1.426l-1.277-1.383c-.91-.859-1.781-1.77-2.762-2.551-.937-.836-1.969-1.551-2.973-2.301-1.051-.668-2.102-1.363-3.207-1.945-2.203-1.203-4.539-2.203-6.977-2.895-2.445-.703-4.969-1.145-7.535-1.41s-5.164-.289-7.773-.152c-2.605.105-5.219.395-7.824.742"/>
        </g>
        <path fill="#ec7d40" d="M439.504 489.766c2.32-8.449 4.754-17.336 9.84-28.68 6.715-15 9.547-15.309 11.477-23.77 2.621-11.52 1.121-32.316-8.199-43.43-7.762-9.262-31.562-9.426-50.008-20.492-3.48-2.09-7.207-4.969-10.656-9.836-7.922-11.191-6.078-24.582-5.738-27.859.793-7.59 2.965-8.883 1.641-12.293-2.648-6.828-15.008-11.16-24.648-9.379-9.641-1.781-22 2.551-24.648 9.379-1.32 3.41.844 4.703 1.641 12.293.34 3.277 2.18 16.668-5.738 27.859-3.445 4.867-7.176 7.746-10.66 9.836-18.441 11.066-42.242 11.23-50.004 20.492-9.32 11.113-10.824 31.91-8.199 43.43 1.93 8.461 4.762 8.77 11.477 23.77 5.082 11.344 7.52 20.23 9.84 28.68 3.488 12.723 8.289 29.148 9.836 50.809.82 11.477 1.641 21.313-5.738 45.078-11.211 36.113-17.918 60.574-15.164 74.164 2.25 11.113 10.766 18.055 14.754 21.309 19.105 15.574 50.395 19.754 72.605 8.289 22.215 11.465 53.496 7.285 72.605-8.289 3.988-3.254 12.504-10.195 14.754-21.309 2.754-13.59-3.953-38.051-15.164-74.164-7.379-23.766-6.559-33.602-5.738-45.078 1.547-21.66 6.344-38.086 9.836-50.809"/>
        <path fill="#003d24" d="M315.77 391.961c-5.191-8.176-9.613-16.863-13.398-25.82-3.734-8.984-6.91-18.23-9.109-27.793l-.766-3.602-.66-3.629c-.406-2.414-.738-4.844-1.027-7.273-.582-4.867-.918-9.762-1.043-14.664a152.94 152.94 0 0 1 .348-14.719c.363-4.906.973-9.793 1.824-14.641a133.79 133.79 0 0 1 3.41-14.371c1.422-4.723 3.121-9.367 5.121-13.883 4-9.023 9.223-17.531 15.594-25.066 1.582-1.891 3.258-3.699 4.98-5.461s3.5-3.461 5.363-5.062c.457-.41.93-.809 1.398-1.203l1.422-1.176 1.438-1.148c.5-.379.992-.766 1.508-1.121 2.027-1.457 4.176-2.734 6.395-3.844 4.457-2.172 9.191-3.73 14.055-4.488 2.43-.359 4.887-.547 7.336-.453 2.441.117 4.895.469 7.164 1.344-2.355-.586-4.773-.707-7.16-.566-2.387.125-4.75.52-7.062 1.082-4.625 1.133-9.07 2.93-13.137 5.313-2.035 1.184-3.992 2.496-5.805 3.969-.461.359-.898.746-1.344 1.121L331.289 216c-.445.395-.875.805-1.309 1.219-.434.402-.863.809-1.285 1.234-3.41 3.316-6.574 6.863-9.492 10.594-5.82 7.484-10.598 15.734-14.258 24.457-1.832 4.363-3.426 8.824-4.727 13.379-1.324 4.547-2.398 9.172-3.227 13.84-.844 4.672-1.437 9.387-1.824 14.121-.41 4.742-.559 9.5-.543 14.262s.258 9.523.672 14.273c.207 2.375.477 4.742.781 7.109.145 1.188.34 2.352.512 3.527.18 1.176.406 2.344.605 3.512 1.785 9.367 4.363 18.645 7.516 27.715 3.09 9.113 6.855 17.996 11.059 26.719"/>
        <path fill="#f79556" d="M406.824 239.969s4.535 19.438 3.777 42.441c-.086 2.594-2.082 17.68-3.43 22.664-3.129 11.559-11.859 34.336-28.5 42.926-.988.512-12.32 7.227-26.836.469-5.43-2.527-15.613-11.117-23.551-24.762-8.559-14.703-10.605-32.746-10.367-42.75.301-12.605-.301-20.613 2.145-29.289 3.891-13.809 5.836-20.715 11.641-28 3.188-4 17.082-14.848 34.102-15.945 1.164-.074 18.113-.906 29.707 11.434 4.625 4.922 7.945 10.215 11.313 20.813"/>
        <path fill="#d65b5b" d="M378.875 327.902a.78.78 0 0 0-.516-1.227c-2.484-.387-5.828-1.191-12.793-1.234-6.449-.051-12.02.961-13.906 1.344-.5.105-.762.641-.551 1.102 1.094 2.387 6.293 8.68 13.289 8.512 7.648-.187 12.715-6.062 14.477-8.496"/>
        <g fill="#003d24">
            <path d="M355.477 287.313a.32.32 0 0 1-.141.586l-2.117.09-2.828.336-5.793.902c-1.035.09-2.09.188-3.336.004l-1.57-.344a13.95 13.95 0 0 1-1.527-.5c-1.004-.391-1.984-.895-2.852-1.57-.605-.477-1.164-1.043-1.57-1.687-.16-.258.113-.574.391-.453.648.285 1.289.484 1.938.645.914.219 1.832.363 2.758.461l2.781.227a10.02 10.02 0 0 0 1.238-.055l1.391-.133c1.906-.203 3.996-.406 6.109-.18 1.043.113 2.117.313 3.133.695.715.266 1.367.602 1.996.977m2.241-11.459c.273.199.074.629-.254.559l-7.074-1.758-8.133-1.961-1-.172-.992-.145-.973-.125h-.023l-.945-.051c-.641-.043-1.281.004-1.941.047l-.98.105-.453.063-.484.102c-2.172.449-4.273 1.426-6.34 2.738-.285.18-.617-.152-.434-.434 1.391-2.113 3.473-3.859 5.957-4.875l.551-.211.59-.187 1.137-.289a14.13 14.13 0 0 1 2.348-.305c1.613-.094 3.125.125 4.621.379 2.957.586 5.754 1.563 8.41 2.797 2.238 1.055 4.41 2.246 6.414 3.723m20.099 11.422c-.293-.062-.348-.461-.082-.59a10.68 10.68 0 0 1 1.895-.738c.949-.258 1.941-.348 2.891-.359 1.93-.016 3.789.367 5.465.742l1.223.258c.387.09.766.141 1.074.176l1.238.07 1.25.035 2.508-.086a11.36 11.36 0 0 0 1.809-.332c.285-.078.52.246.34.484-.418.559-.977 1.035-1.566 1.418-.84.539-1.773.914-2.715 1.18a14 14 0 0 1-2.871.469c-1.164.051-2.102-.145-3.023-.328-1.82-.41-3.434-.965-5.07-1.422l-2.473-.629-1.891-.348"/>
            <path d="M376.656 276.633c-.328.027-.48-.402-.207-.578 1.82-1.18 3.773-2.082 5.777-2.844 2.371-.891 4.855-1.531 7.461-1.812 1.32-.098 2.648-.168 4.051.047.695.094 1.375.258 2.02.465l.965.344.496.223.461.234c2.078 1.105 3.727 2.82 4.703 4.793.148.297-.191.59-.457.398-1.727-1.242-3.465-2.195-5.285-2.711l-.402-.109-.379-.082-.828-.156-1.633-.168c-.273 0-.535-.016-.801-.023h-.023l-.832.035c-.277 0-.562.02-.855.047l-.863.07-7.113 1-6.254.828m-19.736-49.747a255.28 255.28 0 0 0-7.863 8.379c-2.543 2.844-5.031 5.723-7.406 8.68-4.754 5.898-9.133 12.074-12.703 18.637-3.547 6.559-6.316 13.555-7.184 20.891-.066.91-.187 1.832-.234 2.754l-.035 2.762.172 2.773.332 2.82c.246 1.875.551 3.746.977 5.59a29.42 29.42 0 0 0 .762 2.746c.273.91.652 1.805.887 2.742-.449-.852-.973-1.652-1.445-2.504a30.8 30.8 0 0 1-1.254-2.641c-.766-1.801-1.34-3.668-1.852-5.547-.25-.945-.469-1.887-.687-2.836l-.504-2.937c-.109-.984-.168-1.977-.246-2.973-.039-.992-.008-1.992-.004-2.992.156-3.98.941-7.926 2.133-11.699.266-.957.629-1.879.973-2.801l.527-1.391.582-1.355.598-1.355.648-1.328c.434-.883.863-1.77 1.348-2.621 3.762-6.902 8.543-13.141 13.855-18.789a112.12 112.12 0 0 1 8.398-8.016c1.465-1.262 2.961-2.484 4.5-3.648s3.098-2.309 4.727-3.34"/>
            <path d="M427.379 297.512c-9.402-7.437-19.305-14.086-28.074-18.687-36.848-19.348-45.23-47.266-45.23-47.266s-48.656 29.152-35.738 80.191c-1.207-.281-24.391-20.348-24.391-20.348-1.719-14.266 3.383-52.758 33.367-80.465 13.82-12.77 31.75-13.293 37.238-9.27.332-.027.668 0 1.004-.055 25.285-3.953 46.902 12.223 53.109 42.906 4.578 22.668 21.434 39.062 25.688 54.785 5.188 19.184 2.391 30.605 1.531 32.301-.449.887 1.609-18.18-18.504-34.094"/>
        </g>
        <path d="M298.449 387.328c-5.309-5.121-19.965 1.48-22.133 2.457-2.176.984-7.457 3.57-14.758 10.652-4.445 4.316-13.906 14.43-21.313 31.965-5.285 12.504-2.77 12.801-8.195 25.406-4.305 9.984-6.434 11.074-15.578 27.043-8.977 15.672-14.359 27.594-15.574 30.32-1.211 2.711-6.676 15.059-11.477 31.965-3.312 11.648-4.617 19.52-1.641 27.859 1.504 4.215 2.496 6.992 4.918 8.195 10.652 5.285 38.375-23.969 53.285-45.074 20.703-29.305 30.297-56.738 34.43-68.836 8.105-23.711 2.867-22.883 12.297-50.812 5.508-16.309 10.262-26.777 5.738-31.141m129.634.001c5.313-5.121 19.969 1.48 22.137 2.457 2.176.984 7.457 3.57 14.754 10.652 4.445 4.316 13.91 14.43 21.313 31.965 5.285 12.504 2.77 12.801 8.199 25.406 4.301 9.984 6.43 11.074 15.578 27.043 8.973 15.672 14.355 27.594 15.574 30.32 1.211 2.711 6.672 15.059 11.477 31.965 3.309 11.648 4.617 19.52 1.641 27.859-1.508 4.215-2.496 6.992-4.922 8.195-10.652 5.285-38.375-23.969-53.285-45.074-20.703-29.305-30.293-56.738-34.426-68.836-8.102-23.711-2.871-22.883-12.301-50.812-5.504-16.309-10.262-26.777-5.738-31.141" fill="#f79556"/>
        <g fill="#f0f9f0">
            <path d="M372.879 723.664c-3.191 0-6.215-.605-9.012-1.805-.422-.18-.891-.18-1.312 0-2.797 1.199-5.82 1.805-9.016 1.805-17.301 0-37.055-17.574-52.922-31.691l-11.047-9.578c-4.207-3.434-12.961-10.566-15.328-22.25-2.691-13.297 3.008-35.687 15.207-74.98 7.195-23.172 6.504-32.844 5.699-44.039l-.027-.43c-1.449-20.246-5.727-35.762-9.164-48.234l-.621-2.262c-2.32-8.461-4.723-17.215-9.75-28.445-3.043-6.793-5.234-10.453-6.992-13.398-2.098-3.516-3.488-5.84-4.59-10.676-2.504-10.992-1.52-32.848 8.539-44.848 4.387-5.227 13.047-7.648 23.078-10.449 8.043-2.25 17.16-4.793 25.258-9.207a1.64 1.64 0 0 1 2.391 1.102c5.117 24.57 21.543 41.734 39.941 41.734s34.824-17.164 39.941-41.734a1.64 1.64 0 0 1 2.391-1.102c8.098 4.414 17.211 6.957 25.258 9.207 10.031 2.801 18.691 5.223 23.078 10.449 10.059 12 11.043 33.855 8.535 44.848-1.098 4.836-2.488 7.16-4.586 10.676-1.758 2.945-3.949 6.605-6.992 13.398-5.027 11.23-7.43 19.984-9.746 28.445l-.625 2.262c-3.437 12.473-7.719 27.988-9.164 48.234l-.027.43c-.801 11.195-1.496 20.867 5.699 44.039 12.199 39.293 17.898 61.684 15.207 74.98-2.371 11.684-11.121 18.816-15.324 22.25-3.34 2.719-7.086 6.051-11.047 9.578-15.871 14.125-35.621 31.691-52.926 31.691"/>
            <path d="M439.504 489.766c2.32-8.449 4.754-17.336 9.84-28.68 6.715-15 9.547-15.309 11.477-23.77 2.621-11.52 1.121-32.316-8.199-43.43-7.465-8.906-29.762-9.41-47.863-19.273-5.176 24.848-21.809 43.035-41.547 43.035s-36.371-18.187-41.547-43.035c-18.105 9.863-40.398 10.367-47.863 19.273-9.32 11.113-10.824 31.91-8.199 43.43 1.93 8.461 4.762 8.77 11.477 23.77 5.082 11.344 7.52 20.23 9.84 28.68 3.488 12.723 8.289 29.148 9.836 50.809.82 11.477 1.641 21.313-5.738 45.078-11.211 36.113-17.918 60.574-15.164 74.164 2.25 11.113 10.766 18.055 14.754 21.309 19.105 15.574 50.395 50.078 72.605 38.609 22.215 11.469 53.496-23.035 72.605-38.609 3.988-3.254 12.504-10.195 14.754-21.309 2.754-13.59-3.953-38.051-15.164-74.164-7.379-23.766-6.559-33.602-5.738-45.078 1.547-21.66 6.344-38.086 9.836-50.809"/>
            <path d="M270.918 494.613c-16.855-4.078-32.09-12.652-45.285-25.469l-.945-.922.691-1.121c1.836-2.961 3.266-5.539 5.164-9.945 2.684-6.23 3.363-9.305 4.082-12.559.711-3.203 1.441-6.516 4.109-12.836 5.371-12.711 12.867-23.945 21.684-32.496 5.254-5.098 10.375-8.789 15.223-10.973 3.754-1.691 10.93-4.531 16.793-4.531 3.105 0 5.512.801 7.152 2.387 4.59 4.426 1.617 12.922-2.883 25.781l-2.437 7.066c-4.836 14.316-5.77 20.945-6.672 27.359-.859 6.105-1.672 11.875-5.629 23.453-1.578 4.621-4.52 13.227-9.16 23.867l-.551 1.258-1.336-.32"/>
            <path d="M298.449 387.328c-5.309-5.121-19.965 1.48-22.133 2.457-2.176.984-7.457 3.57-14.758 10.652-4.445 4.316-13.906 14.43-21.313 31.965-5.285 12.504-2.77 12.801-8.195 25.406-1.918 4.449-3.406 7.133-5.277 10.16 10.016 9.73 24.746 20.266 44.527 25.051 4.414-10.117 7.297-18.418 9.113-23.738 8.105-23.711 2.867-22.883 12.297-50.812 5.508-16.309 10.262-26.777 5.738-31.141M453.43 493.676c-4.641-10.641-7.582-19.246-9.16-23.867-3.961-11.578-4.77-17.348-5.629-23.453-.902-6.414-1.836-13.043-6.672-27.359l-2.441-7.066c-4.5-12.859-7.469-21.355-2.883-25.781 1.645-1.586 4.051-2.387 7.16-2.387 5.859 0 13.031 2.84 16.785 4.531 4.852 2.184 9.973 5.875 15.223 10.973 8.816 8.547 16.316 19.785 21.688 32.496 2.668 6.32 3.398 9.633 4.109 12.84.715 3.25 1.398 6.324 4.082 12.555 1.895 4.402 3.328 6.984 5.16 9.945l.695 1.121-.945.922c-13.195 12.816-28.434 21.391-45.281 25.469l-1.344.32-.547-1.258"/>
            <path d="M427.785 387.328c5.305-5.121 19.961 1.48 22.133 2.457 2.176.984 7.453 3.57 14.754 10.652 4.445 4.316 13.91 14.43 21.313 31.965 5.285 12.504 2.77 12.801 8.199 25.406 1.918 4.449 3.406 7.133 5.273 10.16-10.016 9.73-24.746 20.266-44.523 25.051-4.418-10.117-7.293-18.418-9.113-23.738-8.102-23.711-2.867-22.883-12.297-50.812-5.508-16.309-10.262-26.777-5.738-31.141"/>
        </g>
        <g fill="#f79556">
            <path d="M363.211 556.965c-1.023 5.625-8.027 8.66-14.754 11.473-9.465 3.965-34.102 9.492-63.945 13.117-22.715 2.754-39.582 3.723-52.461 4.098-31.207.895-36.699-1.668-40.172-5.738-6.793-7.961-6.25-22.152 0-31.141 8.629-12.406 25.934-11.762 33.613-11.477 8.234.313 10.199 2.25 24.59 5.738 2.453.598 17.121 4.094 35.254 5.738 13.672 1.238 33.609.82 45.906-3.281 3.984-1.328 5.422-2.793 9.016-4.098 18.035-6.555 23.473 12.715 22.953 15.57m.109.001c1.023 5.625 8.031 8.66 14.758 11.473 9.461 3.965 34.102 9.492 63.941 13.117 22.719 2.754 39.582 3.723 52.465 4.098 31.203.895 36.699-1.668 40.168-5.738 6.797-7.961 6.258-22.152 0-31.141-8.625-12.406-25.934-11.762-33.609-11.477-8.234.313-10.203 2.25-24.594 5.738-2.445.598-17.117 4.094-35.25 5.738-13.676 1.238-33.609.82-45.906-3.281-3.984-1.328-5.422-2.793-9.016-4.098-18.039-6.555-23.477 12.715-22.957 15.57"/>
            <path d="M342.32 553.168c-.336-1.461-.848-4.266.711-15.652 1.117-8.172 1.922-13.84 4.27-21.348 1.707-5.457 2.031-4.84 3.559-9.961 1.738-5.816 3.508-11.734 3.559-19.211.039-5.488-.828-14.609.711-18.492.258-.656.785-1.66 1.426-3.562.699-2.078.695-2.73 1.422-3.555.23-.27 1.785-1.973 3.559-1.422 1.344.41 1.91 2.137 2.137 2.844 6.246 19.859 4.27 35.578 4.27 35.578-4.684 37.187 5.133 50.715-6.406 61.895-1.324 1.285-6.508 6.305-11.387 4.984-5.402-1.469-7.316-9.855-7.828-12.098"/>
            <path d="M384.215 553.168c.332-1.461.848-4.266-.711-15.652-1.121-8.172-1.922-13.84-4.27-21.348-1.711-5.457-2.031-4.84-3.559-9.961-1.742-5.816-3.508-11.734-3.562-19.211-.039-5.488.832-14.609-.711-18.492-.258-.656-.781-1.66-1.422-3.562-.699-2.078-.699-2.73-1.422-3.555-.234-.27-1.785-1.973-3.559-1.422-1.344.41-1.914 2.137-2.137 2.844-6.246 19.859-4.27 35.578-4.27 35.578 4.684 37.187-5.133 50.715 6.406 61.895 1.324 1.285 6.504 6.305 11.387 4.984 5.398-1.469 7.316-9.855 7.828-12.098"/>
        </g>
        <g fill="#f8ab9a">
            <path d="M363.211 758.094c5.984 11.527 14.387 17.789 27.699 21.672 20.43 5.953 35.453 2.379 42.148 1.203 20.34-3.578 36.355-13.531 62.617-32.504 74.77-54.02 86.707-71.367 92.723-89.086 7.223-21.262 1.805-30.934 0-33.711-6.328-9.73-13.723-13.258-20.473-14.441-19.984-3.516-42.59 3.668-67.434 14.441-37.141 16.117-42.059 17.758-87.906 35.379-24.5 9.414-34.395 18.547-44.559 33.707-3.125 4.664-14.348 44.98-4.816 63.34"/>
            <path d="M378.238 758.094c-5.984 11.527-14.383 17.789-27.695 21.672-20.434 5.953-35.453 2.379-42.148 1.203-20.34-3.578-36.355-13.531-62.617-32.504-74.773-54.02-86.707-71.367-92.727-89.086-7.223-21.262-1.801-30.934 0-33.711 6.328-9.73 13.727-13.258 20.473-14.441 19.988-3.516 42.789 3.227 67.438 14.441l87.906 39.477c23.867 10.926 34.391 18.547 44.555 33.707 3.129 4.668 14.348 40.883 4.816 59.242"/>
            <path d="M314.156 655.719c-17.289-4.848-29.383-9.535-37.277-13.664-2.973 13.016-2.457 23-1.027 30.055 2.25 11.113 10.766 18.055 14.754 21.305 19.105 15.578 50.395 50.078 72.605 38.617 22.215 11.461 53.496-23.039 72.605-38.617 3.988-3.25 12.504-10.191 14.754-21.305 1.25-6.164 2.188-14.574.004-25.277-6.871 2.707-15.055 4.559-21.652 6.43-62.93 17.816-114.766 2.457-114.766 2.457"/>
        </g>
        <path fill="#ec7d40" d="M595.023 656.367c1.777-4.785 7.105-19.129 0-31.297-6.086-10.422-17.918-13.477-21.676-14.445-21.328-5.512-41.836 5.852-65.027 20.469-28.441 17.914-46.687 31.758-82.492 58.383-11.957 8.898-41.695 30.813-78.27 48.152-6.984 3.313-16.762 6.461-30.105 8.43-10.469 1.543-28.902 3.609-49.375-3.613-2.625-.926-11.633-5.82-30.105-1.203-9.633 2.406-9.207.621-14.449 1.203-8.98.996-11.422 5.789-12.617 9.055-.246.672-.68 5.352-1.832 9-1.047 3.313-2.41 4.816-1.207 12.043.523 3.125 1.957 5.684 3.613 8.426.918 1.512 4.762 8.645 13.246 10.832 4.73 1.223 10.48 1.996 20.473 0 3.988-.793 41.199-6.176 60.211-4.816 8.559.617 14.594 1.613 24.082 0 6.281-1.062 10.871-2.734 13.25-3.609l44.555-16.855c22.305-10.098 27.695-8.891 63.824-21.668 4.262-1.508 51.727-18.559 105.969-50.559 14.887-8.785 30.934-19.078 37.934-37.926"/>
        <path d="M239.18 760.887c-2.598.219-5.102.492-7.508 1.043-1.199.289-2.379.625-3.516 1.043l-3.504 1.418c-1.234.477-2.57.863-3.93 1.043s-2.711.223-4.082.027c-1.359-.168-2.758-.609-3.902-1.434-1.125-.82-1.988-1.918-2.461-3.141.926.918 1.941 1.664 3.055 2.09 1.086.453 2.254.574 3.438.57 1.184-.035 2.402-.168 3.563-.414 1.168-.238 2.293-.59 3.441-1.039l3.66-1.336a19.51 19.51 0 0 1 3.949-.719c2.652-.223 5.309.055 7.797.848m-4.891 10.825c-1.703 1.027-3.551 1.73-5.437 2.262a29.81 29.81 0 0 1-5.797 1c-1.957.141-3.93.098-5.879-.148-1.945-.258-3.875-.684-5.707-1.449l5.77-.48 5.637-.375 5.633-.441 5.781-.367m1.276 6.846c-1.504.996-3.141 1.684-4.82 2.23-1.68.539-3.414.906-5.164 1.117a27.46 27.46 0 0 1-5.285.121c-1.758-.148-3.512-.437-5.203-1.059 1.754-.406 3.457-.633 5.152-.875l5.047-.633 5.059-.555 5.215-.348m1.203 6.025c-1.16.977-2.48 1.668-3.852 2.219a19.46 19.46 0 0 1-4.273 1.121 18.95 18.95 0 0 1-4.414.129c-1.469-.145-2.93-.445-4.32-1.066 1.465-.398 2.867-.637 4.258-.867l4.129-.625 4.141-.559 4.332-.352" fill="#d35c20"/>
        <path fill="#f79556" d="M146.43 656.367c-1.777-4.785-7.105-19.129 0-31.297 6.082-10.422 17.914-13.477 21.676-14.445 21.328-5.512 41.832 5.852 65.027 20.469 28.438 17.914 46.688 31.758 82.488 58.383 11.961 8.898 41.699 30.813 78.273 48.152 6.98 3.313 16.762 6.461 30.105 8.43 10.469 1.543 28.902 3.609 49.371-3.613 2.625-.926 11.637-5.82 30.105-1.203 9.637 2.406 9.211.621 14.453 1.203 8.977.996 11.422 5.789 12.621 9.055.242.672.676 5.352 1.824 9 1.047 3.313 2.414 4.816 1.211 12.043-.52 3.125-1.953 5.684-3.613 8.426-.918 1.512-4.762 8.645-13.25 10.832-4.727 1.223-10.48 1.996-20.473 0-3.984-.793-41.199-6.176-60.207-4.816-8.562.617-14.598 1.613-24.086 0-6.277-1.062-10.871-2.734-13.242-3.609l-44.559-16.855c-22.309-10.098-27.699-8.891-63.824-21.668-4.262-1.508-51.73-18.559-105.973-50.559-14.887-8.785-30.934-19.078-37.93-37.926"/>
        <path d="M507.164 771.711l5.777.367 5.633.441 5.637.375 5.773.48c-1.832.766-3.762 1.191-5.711 1.449a29.83 29.83 0 0 1-5.875.148 29.76 29.76 0 0 1-5.797-1c-1.887-.531-3.734-1.234-5.437-2.262m-1.277 6.85c1.801.012 3.512.188 5.215.348l5.059.555 5.047.633 5.148.875c-1.687.621-3.441.91-5.203 1.059a27.47 27.47 0 0 1-5.285-.121 27.82 27.82 0 0 1-5.16-1.117c-1.68-.547-3.32-1.234-4.82-2.23m-3.615-17.674c2.484-.793 5.145-1.07 7.797-.848 1.328.098 2.656.348 3.945.719 1.309.379 2.516.902 3.66 1.336 1.152.449 2.273.801 3.445 1.039a20.28 20.28 0 0 0 3.566.414c1.176.004 2.348-.117 3.434-.57 1.109-.426 2.125-1.172 3.051-2.09-.473 1.223-1.336 2.32-2.457 3.141-1.145.824-2.543 1.266-3.906 1.434-1.367.195-2.723.148-4.082-.027s-2.691-.566-3.93-1.043l-3.504-1.418c-1.137-.418-2.316-.754-3.512-1.043-2.406-.551-4.91-.824-7.508-1.043m2.408 23.694c1.52.02 2.934.188 4.332.352l4.145.559 4.129.625 4.254.867c-1.387.621-2.852.922-4.32 1.066a18.91 18.91 0 0 1-4.41-.129 19.41 19.41 0 0 1-4.273-1.121c-1.371-.551-2.691-1.242-3.855-2.219" fill="#ec7d40"/>
    </g>
</svg>