<?xml version="1.0" encoding="utf-8"?>
<svg viewBox="0 0 810 810" xmlns="http://www.w3.org/2000/svg">
  <defs>
    <clipPath id="bf210e69e6">
      <path d="M 106 746 L 635 746 L 635 809.773438 L 106 809.773438 Z M 106 746 " clip-rule="nonzero"/>
    </clipPath>
  </defs>
  <g transform="matrix(1.192728042602539, 0, 0, 1.192728042602539, -24.81722450256348, -163.5343017578125)" style="">
    <g clip-path="url(#bf210e69e6)">
      <path fill="#d7ea86" d="M 634.691406 778.035156 C 634.691406 795.570312 516.511719 809.789062 370.726562 809.789062 C 224.941406 809.789062 106.761719 795.570312 106.761719 778.035156 C 106.761719 760.5 224.941406 746.28125 370.726562 746.28125 C 516.511719 746.28125 634.691406 760.5 634.691406 778.035156 " fill-opacity="1" fill-rule="nonzero"/>
    </g>
    <g>
      <path fill="#7ca417" d="M 634.628906 441.863281 C 634.589844 442.089844 634.386719 442.320312 633.414062 442.683594 C 632.601562 442.988281 627.492188 444.796875 623.683594 441.867188 C 623.027344 441.359375 622.332031 440.824219 622.417969 440.238281 C 622.589844 439.054688 625.871094 438.296875 628.621094 438.625 C 631.71875 438.992188 634.820312 440.808594 634.628906 441.863281 Z M 658.953125 457.09375 C 656.25 458.253906 650.632812 453.675781 649.378906 452.382812 C 645.203125 448.113281 641.878906 441.617188 638.59375 434.167969 C 632.164062 433.550781 628.511719 435.714844 623.101562 436.246094 C 612.414062 437.289062 613.386719 433 613.503906 432.667969 C 615.339844 427.4375 628.703125 425.566406 635.476562 426.882812 C 633.742188 422.761719 631.949219 418.484375 629.976562 414.226562 C 629.515625 413.230469 628.96875 412.253906 628.355469 411.296875 C 627.867188 411.210938 627.363281 411.132812 626.816406 411.089844 C 611.675781 409.886719 607.261719 415.527344 598.234375 418.425781 C 584.304688 422.902344 584.363281 416.910156 584.421875 416.433594 C 585.375 408.734375 603.5625 402.238281 612.765625 402.378906 C 614.335938 402.40625 617.441406 402.460938 620.960938 403.25 C 600.5625 386.636719 558.449219 382.3125 557.714844 413.800781 C 557.546875 421.027344 550.394531 416.394531 543 423.914062 C 536.722656 430.300781 538.785156 440.847656 539.300781 444.21875 C 541.902344 461.234375 556.742188 477.589844 575.097656 483.464844 C 592.613281 489.074219 612.351562 484.820312 624.6875 476.195312 C 628.972656 473.195312 640.84375 460.425781 646.488281 460.800781 C 653.320312 461.253906 657.242188 460.128906 659.441406 459.101562 C 661.265625 458.25 660.859375 456.273438 658.953125 457.09375 " fill-opacity="1" fill-rule="nonzero"/>
      <path fill="#7ca417" d="M 162.96875 547.058594 C 163.800781 543.023438 163.164062 542.179688 161.75 538.828125 C 158.742188 531.726562 143.425781 530.625 133.773438 517.273438 C 127.632812 508.785156 111.820312 514.179688 100.882812 506.730469 C 93.101562 501.4375 101.015625 497.074219 82.414062 489.375 C 54.132812 477.675781 55.539062 460.613281 56.554688 460.03125 C 58.167969 459.109375 58.613281 464.101562 60.964844 466.324219 C 71.988281 476.738281 130.238281 446.398438 187.269531 473.433594 C 212.085938 485.195312 230.847656 503.738281 238.867188 529.253906 C 244.738281 547.949219 239.859375 558.558594 232.792969 557.777344 C 224.441406 556.851562 231.148438 561.351562 227.171875 569.269531 C 210.636719 602.183594 159.859375 562.128906 162.96875 547.058594 " fill-opacity="1" fill-rule="nonzero"/>
      <path fill="#346e00" d="M 277.699219 263.023438 C 258.808594 282.808594 235 283.410156 234.726562 282.625 C 234.390625 281.664062 256.671875 277.8125 272.394531 257.414062 C 263.8125 249.195312 253.085938 242.761719 239.855469 239.089844 C 214.59375 232.089844 225.136719 227.949219 205.355469 216.777344 C 179.410156 202.125 168.210938 199.253906 161.765625 200.03125 C 151.347656 201.28125 152.621094 192.851562 150.742188 194.089844 C 149.523438 194.898438 137.355469 213.203125 148.078125 229.488281 C 153.738281 238.082031 162.832031 236.667969 170.382812 249.144531 C 174.410156 255.804688 173.242188 259.507812 175.542969 267.519531 C 180.511719 284.824219 200.007812 286 200.007812 300.296875 C 200.011719 385.058594 228.183594 395.730469 254.402344 401.160156 C 268.847656 404.148438 268.953125 391.210938 277.679688 394.6875 C 300.53125 403.785156 318.617188 310.847656 277.699219 263.023438 " fill-opacity="1" fill-rule="nonzero"/>
      <path fill="#7ca417" d="M 265.613281 206.640625 C 288.46875 182.464844 297.023438 160.894531 313.261719 156.433594 C 322.191406 153.976562 321.804688 157.988281 329.574219 150.03125 C 333.148438 146.371094 335.660156 141.101562 336.960938 141.636719 C 338.175781 142.132812 335.824219 146.714844 337.105469 151.566406 C 339.109375 159.148438 348.0625 160.140625 354.554688 166.230469 C 359.390625 170.773438 361.0625 176.460938 361.960938 182.496094 C 347.054688 191.863281 318.976562 193.402344 323.035156 194.507812 C 327.207031 195.640625 349.316406 196.832031 363.351562 194.203125 C 366.808594 218.613281 378.230469 223.910156 389.097656 251.375 C 397.402344 272.347656 396.335938 283.417969 400.304688 313.425781 C 412.390625 404.792969 438.070312 421.601562 423.589844 461.292969 C 421.976562 465.714844 400.035156 501.714844 375.996094 505.523438 C 361.5625 507.808594 355.59375 496.988281 336.492188 498.773438 C 317.847656 500.515625 313.804688 511.734375 295.257812 516.175781 C 295.257812 516.175781 282.828125 519.949219 255.828125 507.421875 C 187.664062 475.800781 206.515625 269.171875 265.613281 206.640625 " fill-opacity="1" fill-rule="nonzero"/>
      <path fill="#234401" d="M 114.21875 382.425781 C 114.417969 372.09375 118.910156 367.316406 115.789062 358.355469 C 114.671875 355.160156 112.800781 352.042969 113.789062 351.179688 C 115.113281 350.019531 120.304688 354.035156 121.855469 355.121094 C 134.953125 364.347656 160.445312 356.539062 165.800781 355.144531 C 198.160156 346.726562 246.679688 377.039062 270.273438 397.59375 C 281.207031 407.117188 324.726562 445.03125 320.957031 493.359375 C 320.816406 495.148438 323.003906 529.300781 299.738281 536.226562 C 284.988281 540.617188 275.9375 524.246094 260.050781 531.019531 C 249.628906 535.460938 246.207031 543.6875 236.226562 546.121094 C 222.945312 549.359375 208.738281 534.652344 205.472656 531.054688 C 193.695312 518.078125 197.871094 510.355469 185.214844 485.925781 C 179.289062 474.484375 174.3125 464.875 164.25 454.917969 C 155.011719 445.773438 147.917969 442.699219 143.128906 437.945312 C 151.304688 439.285156 161.007812 437.335938 171.273438 432.171875 C 178.292969 428.644531 183.902344 422.550781 183.015625 421.796875 C 182.273438 421.164062 174.757812 427.710938 163.863281 428.539062 C 149.121094 429.65625 141.378906 426.140625 136.65625 423.140625 C 135.699219 414.03125 138.234375 406 134.808594 404.605469 C 132.023438 403.472656 129.617188 408.496094 125.476562 407.859375 C 119.265625 406.910156 113.996094 393.992188 114.21875 382.425781 " fill-opacity="1" fill-rule="nonzero"/>
      <path fill="#346e00" d="M 173.574219 608.085938 C 173.695312 608.28125 173.964844 608.425781 175 608.40625 C 175.871094 608.390625 181.289062 608.195312 183.753906 604.074219 C 184.179688 603.363281 184.628906 602.605469 184.335938 602.097656 C 183.738281 601.054688 180.410156 601.558594 177.96875 602.871094 C 175.226562 604.351562 173.003906 607.179688 173.574219 608.085938 Z M 156.546875 631.1875 C 159.480469 631.273438 163.019531 624.949219 163.71875 623.289062 C 166.035156 617.785156 166.738281 610.519531 167.054688 602.382812 C 172.808594 599.453125 177.003906 600.125 182.234375 598.632812 C 192.554688 595.683594 190.074219 592.046875 189.84375 591.777344 C 186.21875 587.589844 173.097656 590.75 167.28125 594.464844 C 167.378906 589.992188 167.480469 585.359375 167.75 580.675781 C 167.8125 579.578125 167.964844 578.472656 168.183594 577.355469 C 168.601562 577.09375 169.042969 576.839844 169.539062 576.59375 C 183.175781 569.917969 189.355469 573.542969 198.816406 572.929688 C 213.414062 571.984375 211.164062 566.425781 210.933594 566.007812 C 207.21875 559.195312 187.914062 559.828125 179.410156 563.339844 C 177.957031 563.9375 175.089844 565.128906 172.101562 567.15625 C 184.976562 544.214844 222.558594 524.734375 234.808594 553.757812 C 237.621094 560.417969 242.570312 553.480469 252.214844 557.761719 C 260.394531 561.394531 262.351562 571.964844 263.109375 575.292969 C 266.9375 592.074219 259.136719 612.734375 244.226562 624.933594 C 229.992188 636.582031 210.070312 639.867188 195.429688 636.375 C 190.335938 635.160156 174.609375 627.636719 169.5 630.054688 C 163.304688 632.988281 159.246094 633.378906 156.820312 633.230469 C 154.8125 633.109375 154.464844 631.121094 156.546875 631.1875 " fill-opacity="1" fill-rule="nonzero"/>
      <path fill="#7ca417" d="M 422.683594 181.277344 C 425.265625 184.140625 421.929688 193.042969 420.863281 195.140625 C 417.3125 202.125 410.644531 208.984375 402.773438 216.199219 C 404.71875 224.441406 408.949219 228.0625 411.886719 234.554688 C 417.679688 247.378906 411.941406 247.976562 411.476562 247.972656 C 404.207031 247.902344 396.257812 232.097656 395.046875 223.132812 C 390.648438 227.023438 386.097656 231.050781 381.640625 235.289062 C 380.59375 236.28125 379.613281 237.375 378.683594 238.542969 C 378.777344 239.175781 378.898438 239.839844 379.074219 240.539062 C 383.953125 259.835938 392.816406 262.945312 400.21875 272.925781 C 411.644531 288.324219 404.179688 290.785156 403.5625 290.910156 C 393.597656 292.964844 377.871094 273.125 374.171875 261.648438 C 373.542969 259.683594 372.304688 255.804688 371.800781 251.101562 C 359.757812 283.421875 372.117188 337.511719 411.539062 325.164062 C 420.585938 322.332031 417.84375 333.15625 430.296875 339.175781 C 440.871094 344.28125 453.105469 337.273438 457.074219 335.214844 C 477.105469 324.820312 491.175781 299.511719 490.742188 274.257812 C 490.335938 250.15625 476.738281 227.441406 460.832031 215.765625 C 455.300781 211.703125 434.449219 202.347656 432.539062 195.191406 C 430.214844 186.511719 427.171875 182.117188 424.96875 179.820312 C 423.148438 177.914062 420.855469 179.25 422.683594 181.277344 " fill-opacity="1" fill-rule="nonzero"/>
      <path fill="#346e00" d="M 449.996094 382.511719 C 444.199219 377.988281 435.914062 387.507812 424.050781 382.570312 C 412.59375 377.800781 401.777344 362.203125 405.554688 351.121094 C 411.996094 332.214844 409.078125 314.675781 414.195312 303.328125 C 422.433594 285.035156 443.332031 271.789062 495.199219 255.621094 C 500.902344 253.84375 506.003906 252.257812 510.609375 250.894531 C 508.054688 254.550781 505.613281 258.683594 503.554688 263.253906 C 502.402344 265.8125 497.804688 276.441406 498.84375 289.902344 C 499.203125 294.5625 499.902344 303.71875 505.574219 306.28125 C 506.015625 306.476562 508.0625 306.953125 510.3125 305.917969 C 514.566406 303.957031 514.695312 296.46875 514.71875 283.382812 C 514.746094 262.0625 515.765625 253.640625 517.128906 249.015625 C 530.132812 245.421875 538.707031 244.117188 546.097656 245.875 C 556.984375 248.464844 571.941406 255.046875 579.886719 248.902344 C 584.476562 245.351562 582.367188 240.179688 584.398438 240.207031 C 588.566406 240.253906 588.683594 263.941406 595.269531 290.257812 C 605.402344 330.753906 604.390625 327.617188 603.929688 338.476562 C 603.847656 340.363281 603.695312 342.210938 603.480469 344.027344 C 561.164062 364.859375 532.777344 354.511719 522.691406 356.824219 C 520.871094 357.238281 514.167969 358.777344 513.957031 361.453125 C 513.660156 365.292969 526.910156 369.21875 529.746094 370.066406 C 546.914062 375.152344 578.210938 378.164062 597.722656 365.410156 C 590.773438 381.824219 579.128906 395.4375 568.425781 407.945312 C 550.453125 428.949219 534.003906 448.171875 507.46875 451.101562 C 491.359375 452.875 469.691406 446.839844 459.03125 434.773438 C 443.472656 417.15625 463.992188 393.425781 449.996094 382.511719 " fill-opacity="1" fill-rule="nonzero"/>
      <path fill="#7ca417" d="M 578.265625 256.414062 C 575.664062 261.324219 572.351562 265.800781 568.917969 270.144531 C 565.460938 274.484375 561.800781 278.644531 558.054688 282.726562 C 550.527344 290.875 542.652344 298.683594 534.621094 306.328125 C 518.546875 321.609375 501.886719 336.265625 485.042969 350.695312 C 476.617188 357.914062 468.136719 365.058594 459.628906 372.183594 L 446.859375 382.882812 C 444.734375 384.679688 442.613281 386.472656 440.496094 388.320312 C 439.4375 389.238281 438.386719 390.25 437.339844 391.222656 C 436.332031 392.253906 435.304688 393.257812 434.351562 394.351562 C 432.417969 396.496094 430.625 398.789062 429.03125 401.203125 C 427.417969 403.601562 425.96875 406.113281 424.703125 408.691406 C 422.109375 413.835938 420.191406 419.199219 418.453125 424.570312 C 417.609375 427.265625 416.8125 429.925781 416.066406 432.679688 C 415.320312 435.5 414.777344 438.300781 414.296875 441.089844 C 413.355469 446.667969 412.667969 452.210938 412.023438 457.75 C 410.746094 468.820312 409.640625 479.839844 408.3125 490.820312 C 406.992188 501.796875 405.488281 512.738281 403.648438 523.597656 C 399.945312 545.3125 394.945312 566.785156 387.625 587.390625 C 380.328125 607.972656 370.707031 627.71875 358.066406 645.261719 C 345.464844 662.808594 329.738281 677.960938 311.644531 689.484375 L 318.070312 699.320312 C 322.820312 696.101562 327.460938 692.714844 331.902344 689.085938 C 336.320312 685.425781 340.601562 681.609375 344.664062 677.5625 C 348.707031 673.507812 352.582031 669.292969 356.246094 664.90625 C 359.882812 660.496094 363.328125 655.949219 366.585938 651.269531 C 379.550781 632.492188 389.132812 611.710938 396.234375 590.347656 C 403.359375 568.949219 408.007812 546.917969 411.324219 524.820312 C 412.972656 513.769531 414.277344 502.679688 415.382812 491.597656 C 416.5 480.519531 417.394531 469.433594 418.441406 458.425781 C 418.96875 452.929688 419.535156 447.445312 420.335938 442.0625 C 420.746094 439.375 421.214844 436.710938 421.835938 434.152344 C 422.484375 431.535156 423.207031 428.859375 423.964844 426.242188 C 425.515625 421.023438 427.234375 415.863281 429.527344 411.035156 C 430.652344 408.601562 431.9375 406.265625 433.359375 404.027344 C 434.769531 401.773438 436.355469 399.644531 438.09375 397.628906 C 438.941406 396.601562 439.875 395.644531 440.78125 394.671875 C 441.75 393.734375 442.671875 392.796875 443.6875 391.871094 C 445.707031 390.015625 447.777344 388.171875 449.847656 386.339844 L 462.332031 375.328125 C 470.664062 367.992188 478.980469 360.625 487.234375 353.191406 C 503.742188 338.320312 520.058594 323.230469 535.78125 307.515625 C 543.632812 299.65625 551.335938 291.632812 558.667969 283.28125 C 562.320312 279.09375 565.890625 274.832031 569.25 270.402344 C 572.582031 265.964844 575.785156 261.386719 578.265625 256.414062 " fill-opacity="1" fill-rule="nonzero"/>
      <path fill="#234401" d="M 455.863281 583.191406 C 460.335938 551.171875 474.839844 528.363281 475.667969 523.042969 C 475.730469 522.640625 476.273438 518.878906 474.421875 517.707031 C 472.574219 516.546875 469.21875 518.359375 468.105469 519.453125 C 442.269531 544.871094 455.332031 586.109375 448.777344 608.878906 C 448.355469 608.296875 447.914062 607.695312 447.4375 607.066406 C 438.085938 594.730469 405.554688 558.675781 409.835938 511.867188 C 410.421875 505.476562 413.835938 487.042969 427.140625 480.152344 C 444.742188 471.03125 454.714844 472.28125 475.675781 481.007812 C 484.324219 484.613281 476.007812 465.410156 483.082031 449.355469 C 483.753906 447.820312 492.195312 429.402344 511.117188 422.382812 C 541.175781 411.234375 570.445312 438.96875 571.660156 440.152344 C 579.234375 447.546875 583.289062 455.300781 588.828125 465.910156 C 593.488281 474.832031 599.011719 485.621094 601.050781 500.28125 C 603.042969 514.648438 599 513.375 601.472656 526.625 C 604.039062 540.351562 609.464844 547.507812 606.082031 558.019531 C 605.675781 559.28125 605.246094 560.269531 604.886719 561.179688 C 599.070312 555.992188 591.351562 550.542969 582.835938 546.910156 C 579.15625 545.332031 569.039062 541.019531 565.710938 544.675781 C 564.621094 545.878906 564.433594 547.742188 564.765625 549.164062 C 565.988281 554.433594 574.925781 556.375 579.933594 557.742188 C 591.289062 560.839844 599.667969 565.683594 605.460938 569.554688 C 608.28125 573.828125 614.628906 575.238281 617.667969 581.109375 C 624.578125 594.445312 607.296875 617.042969 605.328125 619.566406 C 600.652344 625.554688 599.234375 625.097656 596.433594 630.179688 C 591.515625 639.085938 592.421875 646.734375 585.695312 651.183594 C 584.167969 652.199219 580.90625 654.3125 581.53125 652.898438 C 582.328125 651.105469 582.425781 640.058594 574.734375 633.910156 C 567.804688 628.378906 524.960938 643.988281 485.574219 632.351562 C 483.707031 620.980469 480.734375 601.707031 485.386719 577.378906 C 487.015625 568.871094 490.667969 554.054688 483.671875 548.359375 C 481.785156 546.820312 478.851562 545.730469 476.253906 546.484375 C 468.332031 548.777344 467.375 567.097656 467.023438 573.769531 C 465.9375 594.484375 470.824219 615.449219 476.082031 628.957031 C 468.019531 625.535156 460.25 620.757812 453.128906 614.171875 C 452.414062 613.515625 451.769531 612.789062 451.136719 612.015625 C 452.433594 605.945312 453.960938 596.824219 455.863281 583.191406 " fill-opacity="1" fill-rule="nonzero"/>
      <path fill="#7ca417" d="M 244.570312 296.277344 C 247.554688 298.027344 250.554688 299.632812 253.394531 301.488281 C 254.84375 302.371094 256.195312 303.386719 257.582031 304.359375 C 258.929688 305.382812 260.257812 306.433594 261.5625 307.511719 C 262.824219 308.648438 264.125 309.730469 265.351562 310.90625 L 268.976562 314.476562 L 272.4375 318.222656 C 273.601562 319.457031 274.648438 320.796875 275.761719 322.078125 C 284.402344 332.578125 291.425781 344.339844 297.640625 356.449219 C 300.710938 362.53125 303.5625 368.726562 306.261719 374.988281 C 308.949219 381.261719 311.421875 387.617188 313.808594 394.015625 C 318.503906 406.828125 322.691406 419.835938 326.421875 432.972656 C 330.175781 446.101562 333.527344 459.351562 336.550781 472.683594 C 339.578125 486.003906 342.3125 499.402344 344.773438 512.84375 C 354.5625 566.636719 360.539062 621.097656 363.726562 675.65625 C 364.6875 692.449219 365.386719 709.265625 365.796875 726.082031 L 376.523438 726.082031 C 375.773438 709.03125 374.730469 692 373.421875 675.003906 C 369.132812 620.160156 362.042969 565.527344 351.132812 511.613281 C 348.394531 498.136719 345.375 484.714844 342.066406 471.371094 C 338.757812 458.015625 335.121094 444.746094 331.082031 431.59375 C 327.0625 418.4375 322.582031 405.410156 317.59375 392.574219 C 315.058594 386.171875 312.433594 379.804688 309.59375 373.523438 C 306.746094 367.253906 303.742188 361.050781 300.511719 354.953125 C 293.980469 342.820312 286.628906 331.035156 277.621094 320.515625 C 276.460938 319.230469 275.363281 317.890625 274.15625 316.652344 L 270.5625 312.914062 L 266.792969 309.34375 C 265.519531 308.171875 264.164062 307.082031 262.855469 305.953125 C 261.496094 304.875 260.109375 303.828125 258.710938 302.800781 C 257.269531 301.835938 255.859375 300.820312 254.363281 299.941406 C 251.425781 298.105469 248.335938 296.535156 245.378906 294.875 C 242.421875 293.21875 239.644531 291.316406 237.3125 288.902344 C 234.980469 286.507812 232.972656 283.757812 231.300781 280.804688 C 230.441406 279.351562 229.585938 277.855469 228.738281 276.351562 C 227.84375 274.871094 226.941406 273.402344 225.957031 271.984375 C 224 269.140625 221.820312 266.4375 219.371094 263.992188 C 216.914062 261.5625 214.179688 259.40625 211.246094 257.597656 C 208.308594 255.78125 205.1875 254.320312 202.070312 252.898438 C 198.964844 251.464844 195.839844 250.019531 193.097656 247.972656 C 191.726562 246.957031 190.457031 245.804688 189.320312 244.527344 C 188.199219 243.230469 187.21875 241.820312 186.34375 240.34375 C 187.191406 241.835938 188.144531 243.273438 189.242188 244.585938 C 190.359375 245.898438 191.613281 247.085938 192.976562 248.132812 C 195.699219 250.253906 198.820312 251.769531 201.898438 253.261719 C 204.988281 254.746094 208.0625 256.257812 210.921875 258.109375 C 213.785156 259.957031 216.429688 262.128906 218.796875 264.5625 C 221.152344 267.011719 223.246094 269.707031 225.117188 272.546875 C 226.058594 273.964844 226.921875 275.429688 227.769531 276.90625 C 228.578125 278.402344 229.390625 279.898438 230.246094 281.410156 C 231.894531 284.449219 233.902344 287.332031 236.296875 289.890625 C 238.679688 292.464844 241.585938 294.535156 244.570312 296.277344 " fill-opacity="1" fill-rule="nonzero"/>
      <path fill="#234401" d="M 256.835938 481.441406 L 258.386719 485.421875 L 259.839844 489.4375 C 263.601562 500.183594 266.394531 511.257812 268.253906 522.480469 C 270.09375 533.699219 271.027344 545.0625 271.085938 556.429688 C 271.128906 562.113281 270.941406 567.800781 270.589844 573.480469 C 270.410156 576.324219 270.183594 579.160156 269.945312 582.027344 C 269.703125 584.890625 269.507812 587.816406 269.332031 590.714844 C 268.671875 602.335938 268.746094 613.992188 269.410156 625.609375 C 270.097656 637.226562 271.414062 648.796875 273.214844 660.28125 C 276.835938 683.261719 282.535156 705.859375 289.59375 727.972656 C 291.617188 734.273438 293.757812 740.527344 295.984375 746.746094 L 306.890625 746.746094 C 304.054688 739.519531 301.347656 732.25 298.800781 724.914062 C 291.355469 703.367188 285.25 681.335938 281.175781 658.929688 C 279.144531 647.730469 277.59375 636.441406 276.652344 625.101562 C 275.734375 613.761719 275.390625 602.375 275.769531 591.003906 C 275.875 588.15625 275.996094 585.335938 276.171875 582.464844 C 276.34375 579.59375 276.507812 576.691406 276.621094 573.785156 C 276.839844 567.976562 276.894531 562.148438 276.714844 556.332031 C 276.378906 544.691406 275.152344 533.074219 272.996094 521.636719 C 270.824219 510.203125 267.703125 498.949219 263.601562 488.066406 L 262.023438 484.003906 L 260.34375 479.980469 C 259.210938 477.332031 258.050781 474.679688 256.847656 472.042969 C 254.4375 466.773438 251.84375 461.582031 249.03125 456.515625 C 243.402344 446.371094 236.910156 436.699219 229.433594 427.828125 C 221.972656 418.960938 213.523438 410.902344 204.164062 404.082031 C 199.488281 400.671875 194.59375 397.5625 189.507812 394.8125 L 185.652344 392.824219 C 184.363281 392.167969 183.042969 391.578125 181.746094 390.957031 C 179.105469 389.773438 176.457031 388.628906 173.753906 387.617188 C 162.972656 383.480469 151.6875 380.75 140.261719 379.359375 C 151.652344 381.019531 162.839844 384 173.457031 388.363281 C 176.121094 389.433594 178.730469 390.632812 181.320312 391.859375 C 182.59375 392.511719 183.890625 393.121094 185.152344 393.804688 L 188.925781 395.859375 C 193.894531 398.703125 198.664062 401.890625 203.207031 405.363281 C 212.292969 412.3125 220.433594 420.449219 227.578125 429.355469 C 234.738281 438.257812 240.90625 447.925781 246.214844 458.03125 C 248.867188 463.085938 251.300781 468.253906 253.554688 473.503906 C 254.679688 476.128906 255.765625 478.773438 256.835938 481.441406 " fill-opacity="1" fill-rule="nonzero"/>
      <path fill="#346e00" d="M 300.894531 676.417969 C 309.691406 696.03125 317.417969 716.113281 324.347656 736.46875 C 325.511719 739.882812 326.644531 743.316406 327.761719 746.746094 L 334.359375 746.746094 C 332.960938 742.640625 331.542969 738.550781 330.082031 734.46875 C 322.777344 714.074219 314.675781 693.949219 305.492188 674.3125 C 296.320312 654.679688 286.023438 635.539062 274.339844 617.265625 C 262.65625 599 249.546875 581.601562 234.746094 565.734375 C 219.929688 549.902344 203.375 535.636719 185.183594 523.835938 C 167.011719 512.015625 147.207031 502.714844 126.476562 496.511719 C 123.871094 495.773438 121.277344 495.003906 118.671875 494.296875 L 110.851562 492.207031 C 105.648438 490.792969 100.46875 489.296875 95.367188 487.550781 C 90.269531 485.804688 85.253906 483.804688 80.460938 481.335938 C 75.675781 478.875 71.117188 475.890625 67.210938 472.164062 C 71.0625 475.953125 75.582031 479.011719 80.34375 481.554688 C 85.113281 484.109375 90.117188 486.195312 95.199219 488.027344 C 100.289062 489.855469 105.460938 491.433594 110.648438 492.933594 L 118.4375 495.144531 C 121.027344 495.898438 123.597656 496.695312 126.175781 497.472656 C 146.71875 503.972656 166.238281 513.523438 184.070312 525.519531 C 201.925781 537.5 218.089844 551.882812 232.511719 567.785156 C 246.921875 583.726562 259.625 601.148438 270.914062 619.417969 C 282.199219 637.699219 292.105469 656.8125 300.894531 676.417969 " fill-opacity="1" fill-rule="nonzero"/>
      <path fill="#346e00" d="M 310.65625 291.050781 C 311.152344 305.75 311.832031 320.429688 312.5625 335.113281 C 315.578125 393.835938 319.734375 452.492188 324.578125 511.09375 C 329.46875 569.695312 335.117188 628.242188 342.042969 686.683594 C 344.425781 706.722656 346.96875 726.742188 349.738281 746.746094 L 360.699219 746.746094 C 357.480469 726.355469 354.5 705.914062 351.679688 685.449219 C 343.703125 627.296875 336.992188 568.933594 331.03125 510.496094 C 325.117188 452.054688 319.890625 393.523438 315.800781 334.921875 C 314.796875 320.265625 313.851562 305.613281 313.085938 290.945312 L 312.550781 279.949219 L 312.125 268.953125 C 312.023438 265.308594 312.046875 261.667969 312.390625 258.070312 C 312.722656 254.460938 313.550781 250.984375 314.648438 247.46875 C 315.179688 245.710938 315.664062 243.90625 316.074219 242.089844 C 316.460938 240.269531 316.761719 238.429688 316.980469 236.589844 C 317.445312 232.902344 317.523438 229.199219 317.597656 225.515625 C 317.667969 218.160156 317.554688 210.824219 317.96875 203.503906 C 318.371094 196.191406 319.371094 188.894531 321.445312 181.855469 C 323.507812 174.828125 326.699219 168.125 330.796875 162.03125 C 326.589844 168.050781 323.261719 174.710938 321.058594 181.742188 C 318.84375 188.769531 317.699219 196.105469 317.164062 203.449219 C 316.609375 210.800781 316.585938 218.160156 316.382812 225.496094 C 316.242188 229.148438 316.097656 232.808594 315.574219 236.40625 C 315.324219 238.207031 315 239.992188 314.59375 241.753906 C 314.164062 243.515625 313.660156 245.25 313.09375 247 C 311.9375 250.472656 310.984375 254.160156 310.578125 257.871094 C 310.152344 261.582031 310.0625 265.296875 310.09375 268.992188 L 310.324219 280.027344 L 310.65625 291.050781 " fill-opacity="1" fill-rule="nonzero"/>
      <path fill="#346e00" d="M 248.09375 504.542969 C 248.625 505.058594 257.542969 498.71875 275.347656 486.011719 C 278.152344 484.019531 281.085938 481.894531 280.636719 480.753906 C 279.996094 479.125 272.601562 479.898438 267.03125 482.109375 C 253.808594 487.351562 246.078125 502.570312 248.09375 504.542969 Z M 231.964844 504.558594 C 240.402344 483.738281 257.4375 469.21875 275.082031 463.65625 C 279.714844 462.199219 287.691406 459.804688 293.640625 463.707031 C 302.972656 469.820312 300.289062 486.773438 303.996094 487.269531 C 308.632812 487.890625 310.007812 462.554688 324.449219 456.265625 C 335.128906 451.613281 350.101562 456.394531 358.382812 464.601562 C 379.425781 485.445312 374.730469 525.78125 363.144531 551.0625 C 356.363281 565.851562 335.976562 600.019531 310.03125 606.144531 C 304.835938 607.371094 286.597656 610.496094 281.917969 622.367188 C 280.914062 624.921875 281.039062 626.589844 279.640625 627.339844 C 273.65625 630.542969 253.226562 609.476562 241.710938 588.320312 C 236.5 578.738281 216.667969 542.304688 231.964844 504.558594 " fill-opacity="1" fill-rule="nonzero"/>
      <path fill="#346e00" d="M 317.882812 707.136719 C 319.59375 705.671875 321.714844 704.082031 323.8125 702.488281 C 325.925781 700.894531 328.082031 699.261719 330.21875 697.582031 C 334.503906 694.230469 338.726562 690.695312 342.769531 686.945312 C 350.863281 679.441406 358.246094 671.019531 364.421875 661.757812 C 370.613281 652.507812 375.5625 642.414062 379.113281 631.898438 C 382.6875 621.378906 384.828125 610.449219 385.792969 599.496094 C 386.023438 596.761719 386.199219 594.015625 386.285156 591.277344 L 386.488281 583.324219 C 386.652344 578.105469 386.933594 572.894531 387.375 567.699219 C 388.230469 557.320312 389.699219 547.011719 392.0625 536.960938 C 394.4375 526.921875 397.742188 517.117188 402.53125 508.164062 C 407.300781 499.234375 413.59375 490.101562 421.691406 484.261719 C 425.722656 481.335938 430.214844 480.039062 434.910156 478.300781 C 437.257812 477.433594 439.671875 476.703125 442.125 476.140625 C 443.375 475.851562 444.546875 475.621094 445.753906 475.453125 C 446.953125 475.28125 448.171875 475.171875 449.40625 475.117188 C 454.316406 474.90625 459.34375 475.605469 464.238281 476.910156 C 469.152344 478.195312 473.941406 480.101562 478.574219 482.363281 C 487.832031 486.933594 496.449219 492.953125 504.398438 499.746094 C 512.367188 506.53125 519.691406 514.113281 526.460938 522.171875 C 539.992188 538.316406 551.320312 556.328125 560.746094 575.265625 C 570.175781 594.210938 577.738281 614.109375 583.617188 634.496094 C 578.3125 613.949219 571.316406 593.796875 562.371094 574.480469 C 553.433594 555.175781 542.539062 536.675781 529.265625 519.886719 C 522.617188 511.503906 515.375 503.558594 507.382812 496.347656 C 499.410156 489.132812 490.679688 482.636719 481.035156 477.527344 C 476.203125 475 471.148438 472.8125 465.824219 471.25 C 460.519531 469.675781 454.9375 468.710938 449.234375 468.792969 C 447.8125 468.8125 446.378906 468.898438 444.949219 469.058594 C 443.523438 469.214844 442.082031 469.460938 440.738281 469.734375 C 438.003906 470.277344 435.304688 471.011719 432.648438 471.910156 C 427.335938 473.699219 422.246094 476.234375 417.59375 479.40625 C 408.238281 485.761719 400.890625 494.625 395.414062 504.21875 C 389.910156 513.847656 386.105469 524.230469 383.296875 534.75 C 380.5 545.289062 378.671875 555.996094 377.472656 566.730469 C 376.863281 572.101562 376.414062 577.472656 376.101562 582.855469 C 375.929688 585.511719 375.832031 588.304688 375.6875 590.804688 C 375.550781 593.363281 375.332031 595.914062 375.070312 598.457031 C 373.957031 608.617188 371.773438 618.609375 368.316406 628.128906 C 364.875 637.640625 360.207031 646.675781 354.417969 654.941406 C 348.644531 663.222656 341.785156 670.734375 334.175781 677.503906 C 330.371094 680.886719 326.382812 684.089844 322.242188 687.191406 C 320.171875 688.746094 318.066406 690.273438 315.914062 691.832031 C 313.753906 693.40625 311.582031 694.941406 309.21875 696.875 C 306.347656 699.222656 305.925781 703.453125 308.273438 706.324219 C 310.621094 709.191406 314.855469 709.617188 317.726562 707.269531 C 317.757812 707.246094 317.789062 707.21875 317.820312 707.195312 L 317.882812 707.136719 " fill-opacity="1" fill-rule="nonzero"/>
      <path fill="#290708" d="M 367.273438 200.558594 C 392.3125 195.96875 417.726562 201.707031 430.4375 263.40625 C 435.1875 286.464844 460.132812 321.152344 466.34375 333.96875 C 477.890625 357.773438 474.191406 380.765625 462.753906 401.953125 C 446.554688 431.949219 416.210938 449.058594 383.640625 444.085938 C 327.753906 435.546875 299.367188 349.15625 296.199219 330.382812 C 290.167969 294.589844 297.285156 243.386719 334.90625 212.054688 C 346.09375 202.746094 362.738281 201.390625 367.273438 200.558594 " fill-opacity="1" fill-rule="nonzero"/>
      <path fill="#290708" d="M 368.027344 201.921875 C 373.09375 200.523438 378.339844 199.523438 383.707031 199.527344 C 389.0625 199.492188 394.535156 200.511719 399.546875 202.765625 C 400.820312 203.289062 402.007812 203.984375 403.214844 204.644531 C 404.371094 205.382812 405.554688 206.097656 406.636719 206.941406 C 407.769531 207.726562 408.785156 208.644531 409.839844 209.523438 C 410.351562 209.984375 410.839844 210.46875 411.335938 210.9375 C 411.835938 211.402344 412.328125 211.886719 412.78125 212.394531 C 416.554688 216.367188 419.632812 220.894531 422.300781 225.59375 C 424.964844 230.292969 427.179688 235.210938 429.066406 240.214844 C 430.953125 245.226562 432.632812 250.304688 434.046875 255.4375 C 434.429688 256.714844 434.757812 258.003906 435.082031 259.292969 L 435.570312 261.226562 C 435.734375 261.875 435.894531 262.527344 436.070312 263.101562 L 437.101562 266.675781 L 438.402344 270.222656 C 440.261719 274.929688 442.40625 279.589844 444.851562 284.144531 C 447.25 288.71875 449.804688 293.234375 452.492188 297.691406 C 455.132812 302.175781 457.914062 306.597656 460.679688 311.046875 C 463.445312 315.492188 466.28125 319.90625 469 324.46875 C 470.359375 326.742188 471.699219 329.070312 472.957031 331.535156 L 474.628906 335.25 C 474.917969 335.867188 475.164062 336.503906 475.394531 337.140625 L 476.109375 339.050781 C 477.941406 344.171875 479.261719 349.484375 479.832031 354.886719 C 480.414062 360.285156 480.269531 365.730469 479.519531 371.050781 C 477.949219 381.699219 474.011719 391.765625 468.640625 400.800781 C 472.714844 391.113281 475.699219 380.988281 476.316406 370.71875 C 477.082031 360.464844 475.21875 350.234375 471.335938 340.902344 L 470.585938 339.160156 C 470.34375 338.574219 470.089844 337.996094 469.785156 337.4375 L 468.066406 334.054688 C 466.839844 331.882812 465.503906 329.695312 464.085938 327.515625 L 455.445312 314.394531 C 449.679688 305.589844 444.019531 296.636719 439.046875 287.183594 L 437.214844 283.621094 C 436.628906 282.417969 436.070312 281.191406 435.496094 279.980469 C 435.214844 279.367188 434.921875 278.765625 434.648438 278.148438 L 433.863281 276.28125 L 433.085938 274.410156 C 432.820312 273.789062 432.566406 273.15625 432.351562 272.503906 L 431.007812 268.636719 L 429.90625 264.625 C 429.714844 263.941406 429.574219 263.320312 429.421875 262.691406 L 428.972656 260.800781 C 428.664062 259.546875 428.398438 258.273438 428.066406 257.027344 C 425.554688 247 422.316406 237.148438 417.804688 227.988281 C 415.523438 223.429688 412.792969 219.128906 409.59375 215.242188 C 409.203125 214.742188 408.785156 214.269531 408.355469 213.816406 C 407.929688 213.355469 407.511719 212.882812 407.078125 212.433594 C 406.167969 211.574219 405.296875 210.664062 404.316406 209.882812 C 403.378906 209.046875 402.347656 208.332031 401.34375 207.582031 C 400.292969 206.914062 399.242188 206.21875 398.136719 205.636719 C 395.933594 204.433594 393.597656 203.433594 391.160156 202.742188 C 388.714844 202.039062 386.191406 201.597656 383.625 201.332031 C 381.0625 201.066406 378.460938 201.042969 375.851562 201.179688 C 373.246094 201.285156 370.632812 201.574219 368.027344 201.921875 " fill-opacity="1" fill-rule="nonzero"/>
      <path fill="#ec7d40" d="M 439.503906 489.765625 C 441.824219 481.316406 444.257812 472.429688 449.34375 461.085938 C 456.058594 446.085938 458.890625 445.777344 460.820312 437.316406 C 463.441406 425.796875 461.941406 405 452.621094 393.886719 C 444.859375 384.625 421.058594 384.460938 402.613281 373.394531 C 399.132812 371.304688 395.40625 368.425781 391.957031 363.558594 C 384.035156 352.367188 385.878906 338.976562 386.21875 335.699219 C 387.011719 328.109375 389.183594 326.816406 387.859375 323.40625 C 385.210938 316.578125 372.851562 312.246094 363.210938 314.027344 C 353.570312 312.246094 341.210938 316.578125 338.5625 323.40625 C 337.242188 326.816406 339.40625 328.109375 340.203125 335.699219 C 340.542969 338.976562 342.382812 352.367188 334.464844 363.558594 C 331.019531 368.425781 327.289062 371.304688 323.804688 373.394531 C 305.363281 384.460938 281.5625 384.625 273.800781 393.886719 C 264.480469 405 262.976562 425.796875 265.601562 437.316406 C 267.53125 445.777344 270.363281 446.085938 277.078125 461.085938 C 282.160156 472.429688 284.597656 481.316406 286.917969 489.765625 C 290.40625 502.488281 295.207031 518.914062 296.753906 540.574219 C 297.574219 552.050781 298.394531 561.886719 291.015625 585.652344 C 279.804688 621.765625 273.097656 646.226562 275.851562 659.816406 C 278.101562 670.929688 286.617188 677.871094 290.605469 681.125 C 309.710938 696.699219 341 700.878906 363.210938 689.414062 C 385.425781 700.878906 416.707031 696.699219 435.816406 681.125 C 439.804688 677.871094 448.320312 670.929688 450.570312 659.816406 C 453.324219 646.226562 446.617188 621.765625 435.40625 585.652344 C 428.027344 561.886719 428.847656 552.050781 429.667969 540.574219 C 431.214844 518.914062 436.011719 502.488281 439.503906 489.765625 " fill-opacity="1" fill-rule="nonzero"/>
      <path fill="#290708" d="M 315.769531 391.960938 C 310.578125 383.785156 306.15625 375.097656 302.371094 366.140625 C 298.636719 357.15625 295.460938 347.910156 293.261719 338.347656 C 293.007812 337.144531 292.730469 335.953125 292.496094 334.746094 C 292.273438 333.539062 292.027344 332.328125 291.835938 331.117188 C 291.429688 328.703125 291.097656 326.273438 290.808594 323.84375 C 290.226562 318.976562 289.890625 314.082031 289.765625 309.179688 C 289.640625 304.273438 289.765625 299.359375 290.113281 294.460938 C 290.476562 289.554688 291.085938 284.667969 291.9375 279.820312 C 292.808594 274.976562 293.945312 270.175781 295.347656 265.449219 C 296.769531 260.726562 298.46875 256.082031 300.46875 251.566406 C 304.46875 242.542969 309.691406 234.035156 316.0625 226.5 C 317.644531 224.609375 319.320312 222.800781 321.042969 221.039062 C 322.765625 219.28125 324.542969 217.578125 326.40625 215.976562 C 326.863281 215.566406 327.335938 215.167969 327.804688 214.773438 C 328.277344 214.382812 328.742188 213.980469 329.226562 213.597656 L 330.664062 212.449219 C 331.164062 212.070312 331.65625 211.683594 332.171875 211.328125 C 334.199219 209.871094 336.347656 208.59375 338.566406 207.484375 C 343.023438 205.3125 347.757812 203.753906 352.621094 202.996094 C 355.050781 202.636719 357.507812 202.449219 359.957031 202.542969 C 362.398438 202.660156 364.851562 203.011719 367.121094 203.886719 C 364.765625 203.300781 362.347656 203.179688 359.960938 203.320312 C 357.574219 203.445312 355.210938 203.839844 352.898438 204.402344 C 348.273438 205.535156 343.828125 207.332031 339.761719 209.714844 C 337.726562 210.898438 335.769531 212.210938 333.957031 213.683594 C 333.496094 214.042969 333.058594 214.429688 332.613281 214.804688 L 331.289062 216 C 330.84375 216.394531 330.414062 216.804688 329.980469 217.21875 C 329.546875 217.621094 329.117188 218.027344 328.695312 218.453125 C 325.285156 221.769531 322.121094 225.316406 319.203125 229.046875 C 313.382812 236.53125 308.605469 244.78125 304.945312 253.503906 C 303.113281 257.867188 301.519531 262.328125 300.21875 266.882812 C 298.894531 271.429688 297.820312 276.054688 296.992188 280.722656 C 296.148438 285.394531 295.554688 290.109375 295.167969 294.84375 C 294.757812 299.585938 294.609375 304.34375 294.625 309.105469 C 294.644531 313.867188 294.882812 318.628906 295.296875 323.378906 C 295.503906 325.753906 295.773438 328.121094 296.078125 330.488281 C 296.222656 331.675781 296.417969 332.839844 296.589844 334.015625 C 296.769531 335.191406 296.996094 336.359375 297.195312 337.527344 C 298.980469 346.894531 301.558594 356.171875 304.710938 365.242188 C 307.800781 374.355469 311.566406 383.238281 315.769531 391.960938 " fill-opacity="1" fill-rule="nonzero"/>
      <path fill="#f79556" d="M 406.824219 239.96875 C 406.824219 239.96875 411.359375 259.40625 410.601562 282.410156 C 410.515625 285.003906 408.519531 300.089844 407.171875 305.074219 C 404.042969 316.632812 395.3125 339.410156 378.671875 348 C 377.683594 348.511719 366.351562 355.226562 351.835938 348.46875 C 346.40625 345.941406 336.222656 337.351562 328.285156 323.707031 C 319.726562 309.003906 317.679688 290.960938 317.917969 280.957031 C 318.21875 268.351562 317.617188 260.34375 320.0625 251.667969 C 323.953125 237.859375 325.898438 230.953125 331.703125 223.667969 C 334.890625 219.667969 348.785156 208.820312 365.804688 207.722656 C 366.96875 207.648438 383.917969 206.816406 395.511719 219.15625 C 400.136719 224.078125 403.457031 229.371094 406.824219 239.96875 " fill-opacity="1" fill-rule="nonzero"/>
      <path fill="#d65b5b" d="M 378.875 327.902344 C 379.21875 327.429688 378.9375 326.765625 378.359375 326.675781 C 375.875 326.289062 372.53125 325.484375 365.566406 325.441406 C 359.117188 325.390625 353.546875 326.402344 351.660156 326.785156 C 351.160156 326.890625 350.898438 327.425781 351.109375 327.886719 C 352.203125 330.273438 357.402344 336.566406 364.398438 336.398438 C 372.046875 336.210938 377.113281 330.335938 378.875 327.902344 " fill-opacity="1" fill-rule="nonzero"/>
      <path fill="#290708" d="M 355.476562 287.3125 C 355.738281 287.472656 355.640625 287.875 355.335938 287.898438 C 354.601562 287.941406 353.890625 287.933594 353.21875 287.988281 C 352.261719 288.054688 351.335938 288.179688 350.390625 288.324219 C 348.511719 288.597656 346.648438 289.003906 344.597656 289.226562 C 343.5625 289.316406 342.507812 289.414062 341.261719 289.230469 C 340.699219 289.136719 340.210938 289.03125 339.691406 288.886719 C 339.171875 288.75 338.664062 288.582031 338.164062 288.386719 C 337.160156 287.996094 336.179688 287.492188 335.3125 286.816406 C 334.707031 286.339844 334.148438 285.773438 333.742188 285.128906 C 333.582031 284.871094 333.855469 284.554688 334.132812 284.675781 C 334.78125 284.960938 335.421875 285.160156 336.070312 285.320312 C 336.984375 285.539062 337.902344 285.683594 338.828125 285.78125 C 339.746094 285.882812 340.707031 285.96875 341.609375 286.007812 C 341.972656 286.015625 342.402344 286 342.847656 285.953125 C 343.292969 285.925781 343.757812 285.878906 344.238281 285.820312 C 346.144531 285.617188 348.234375 285.414062 350.347656 285.640625 C 351.390625 285.753906 352.464844 285.953125 353.480469 286.335938 C 354.195312 286.601562 354.847656 286.9375 355.476562 287.3125 " fill-opacity="1" fill-rule="nonzero"/>
      <path fill="#290708" d="M 357.71875 275.855469 C 357.992188 276.054688 357.792969 276.484375 357.464844 276.414062 C 355.046875 275.886719 352.714844 275.257812 350.390625 274.65625 C 347.652344 273.925781 344.9375 273.222656 342.257812 272.695312 C 341.921875 272.628906 341.59375 272.582031 341.257812 272.523438 C 340.925781 272.460938 340.59375 272.40625 340.265625 272.378906 L 339.292969 272.253906 C 339.285156 272.253906 339.277344 272.253906 339.269531 272.253906 C 338.953125 272.242188 338.640625 272.234375 338.324219 272.203125 C 337.683594 272.160156 337.042969 272.207031 336.382812 272.25 C 336.054688 272.277344 335.726562 272.3125 335.402344 272.355469 L 334.949219 272.417969 C 334.945312 272.421875 334.9375 272.421875 334.933594 272.421875 L 334.464844 272.519531 C 332.292969 272.96875 330.191406 273.945312 328.125 275.257812 C 327.839844 275.4375 327.507812 275.105469 327.691406 274.824219 C 329.082031 272.710938 331.164062 270.964844 333.648438 269.949219 L 334.199219 269.738281 C 334.421875 269.664062 334.59375 269.609375 334.789062 269.550781 C 335.164062 269.441406 335.542969 269.347656 335.925781 269.261719 C 336.683594 269.101562 337.472656 268.988281 338.273438 268.957031 C 339.886719 268.863281 341.398438 269.082031 342.894531 269.335938 C 345.851562 269.921875 348.648438 270.898438 351.304688 272.132812 C 353.542969 273.1875 355.714844 274.378906 357.71875 275.855469 " fill-opacity="1" fill-rule="nonzero"/>
      <path fill="#290708" d="M 377.820312 287.277344 C 377.527344 287.214844 377.472656 286.816406 377.738281 286.6875 C 378.339844 286.390625 378.957031 286.136719 379.632812 285.949219 C 380.582031 285.691406 381.574219 285.601562 382.523438 285.589844 C 384.453125 285.574219 386.3125 285.957031 387.988281 286.332031 C 388.410156 286.429688 388.820312 286.515625 389.210938 286.589844 C 389.597656 286.679688 389.976562 286.730469 390.285156 286.765625 C 390.667969 286.800781 391.117188 286.808594 391.523438 286.835938 C 391.941406 286.84375 392.355469 286.867188 392.773438 286.871094 C 393.609375 286.882812 394.433594 286.859375 395.28125 286.785156 C 395.875 286.722656 396.46875 286.621094 397.089844 286.453125 C 397.375 286.375 397.609375 286.699219 397.429688 286.9375 C 397.011719 287.496094 396.453125 287.972656 395.863281 288.355469 C 395.023438 288.894531 394.089844 289.269531 393.148438 289.535156 C 392.195312 289.792969 391.265625 289.945312 390.277344 290.003906 C 389.113281 290.054688 388.175781 289.859375 387.253906 289.675781 C 385.433594 289.265625 383.820312 288.710938 382.183594 288.253906 C 381.359375 288.019531 380.550781 287.800781 379.710938 287.625 C 379.117188 287.496094 378.476562 287.410156 377.820312 287.277344 " fill-opacity="1" fill-rule="nonzero"/>
      <path fill="#290708" d="M 376.65625 276.632812 C 376.328125 276.660156 376.175781 276.230469 376.449219 276.054688 C 378.269531 274.875 380.222656 273.972656 382.226562 273.210938 C 384.597656 272.320312 387.082031 271.679688 389.6875 271.398438 C 391.007812 271.300781 392.335938 271.230469 393.738281 271.445312 C 394.433594 271.539062 395.113281 271.703125 395.757812 271.910156 C 396.082031 272.015625 396.402344 272.125 396.722656 272.253906 C 396.882812 272.328125 397.027344 272.390625 397.21875 272.476562 L 397.679688 272.710938 C 399.757812 273.816406 401.40625 275.53125 402.382812 277.503906 C 402.53125 277.800781 402.191406 278.09375 401.925781 277.902344 C 400.199219 276.660156 398.460938 275.707031 396.640625 275.191406 L 396.238281 275.082031 L 395.859375 275 C 395.585938 274.945312 395.308594 274.886719 395.03125 274.84375 C 394.476562 274.765625 393.9375 274.679688 393.398438 274.675781 C 393.125 274.675781 392.863281 274.660156 392.597656 274.652344 C 392.585938 274.652344 392.578125 274.652344 392.574219 274.652344 L 391.742188 274.6875 C 391.464844 274.6875 391.179688 274.707031 390.886719 274.734375 C 390.601562 274.757812 390.316406 274.773438 390.023438 274.804688 C 387.703125 275.054688 385.320312 275.425781 382.910156 275.804688 C 380.863281 276.113281 378.800781 276.4375 376.65625 276.632812 " fill-opacity="1" fill-rule="nonzero"/>
      <path fill="#290708" d="M 356.921875 226.886719 C 354.226562 229.640625 351.601562 232.421875 349.058594 235.265625 C 346.511719 238.105469 344.027344 240.988281 341.652344 243.945312 C 336.898438 249.84375 332.519531 256.019531 328.949219 262.582031 C 325.402344 269.140625 322.632812 276.136719 321.765625 283.472656 C 321.699219 284.382812 321.578125 285.304688 321.53125 286.226562 L 321.496094 288.988281 L 321.667969 291.761719 C 321.765625 292.703125 321.875 293.648438 322 294.582031 C 322.246094 296.457031 322.550781 298.328125 322.976562 300.171875 C 323.1875 301.097656 323.4375 302.011719 323.738281 302.917969 C 324.011719 303.828125 324.390625 304.722656 324.625 305.660156 C 324.175781 304.808594 323.652344 304.007812 323.179688 303.15625 C 322.71875 302.300781 322.304688 301.414062 321.925781 300.515625 C 321.160156 298.714844 320.585938 296.847656 320.074219 294.96875 C 319.824219 294.023438 319.605469 293.082031 319.386719 292.132812 L 318.882812 289.195312 C 318.773438 288.210938 318.714844 287.21875 318.636719 286.222656 C 318.597656 285.230469 318.628906 284.230469 318.632812 283.230469 C 318.789062 279.25 319.574219 275.304688 320.765625 271.53125 C 321.03125 270.574219 321.394531 269.652344 321.738281 268.730469 C 321.914062 268.265625 322.078125 267.796875 322.265625 267.339844 L 322.847656 265.984375 L 323.445312 264.628906 L 324.09375 263.300781 C 324.527344 262.417969 324.957031 261.53125 325.441406 260.679688 C 329.203125 253.777344 333.984375 247.539062 339.296875 241.890625 C 341.960938 239.070312 344.765625 236.394531 347.695312 233.875 C 349.160156 232.613281 350.65625 231.390625 352.195312 230.226562 C 353.734375 229.058594 355.292969 227.917969 356.921875 226.886719 " fill-opacity="1" fill-rule="nonzero"/>
      <path fill="#290708" d="M 427.378906 297.511719 C 417.976562 290.074219 408.074219 283.425781 399.304688 278.824219 C 362.457031 259.476562 354.074219 231.558594 354.074219 231.558594 C 354.074219 231.558594 305.417969 260.710938 318.335938 311.75 C 317.128906 311.46875 293.945312 291.402344 293.945312 291.402344 C 292.226562 277.136719 297.328125 238.644531 327.3125 210.9375 C 341.132812 198.167969 359.0625 197.644531 364.550781 201.667969 C 364.882812 201.640625 365.21875 201.667969 365.554688 201.613281 C 390.839844 197.660156 412.457031 213.835938 418.664062 244.519531 C 423.242188 267.1875 440.097656 283.582031 444.351562 299.304688 C 449.539062 318.488281 446.742188 329.910156 445.882812 331.605469 C 445.433594 332.492188 447.492188 313.425781 427.378906 297.511719 " fill-opacity="1" fill-rule="nonzero"/>
      <path fill="#f79556" d="M 298.449219 387.328125 C 293.140625 382.207031 278.484375 388.808594 276.316406 389.785156 C 274.140625 390.769531 268.859375 393.355469 261.558594 400.4375 C 257.113281 404.753906 247.652344 414.867188 240.246094 432.402344 C 234.960938 444.90625 237.476562 445.203125 232.050781 457.808594 C 227.746094 467.792969 225.617188 468.882812 216.472656 484.851562 C 207.496094 500.523438 202.113281 512.445312 200.898438 515.171875 C 199.6875 517.882812 194.222656 530.230469 189.421875 547.136719 C 186.109375 558.785156 184.804688 566.65625 187.78125 574.996094 C 189.285156 579.210938 190.277344 581.988281 192.699219 583.191406 C 203.351562 588.476562 231.074219 559.222656 245.984375 538.117188 C 266.6875 508.8125 276.28125 481.378906 280.414062 469.28125 C 288.519531 445.570312 283.28125 446.398438 292.710938 418.46875 C 298.21875 402.160156 302.972656 391.691406 298.449219 387.328125 " fill-opacity="1" fill-rule="nonzero"/>
      <path fill="#f79556" d="M 428.082031 387.328125 C 433.394531 382.207031 448.050781 388.808594 450.21875 389.785156 C 452.394531 390.769531 457.675781 393.355469 464.972656 400.4375 C 469.417969 404.753906 478.882812 414.867188 486.285156 432.402344 C 491.570312 444.90625 489.054688 445.203125 494.484375 457.808594 C 498.785156 467.792969 500.914062 468.882812 510.0625 484.851562 C 519.035156 500.523438 524.417969 512.445312 525.636719 515.171875 C 526.847656 517.882812 532.308594 530.230469 537.113281 547.136719 C 540.421875 558.785156 541.730469 566.65625 538.753906 574.996094 C 537.246094 579.210938 536.257812 581.988281 533.832031 583.191406 C 523.179688 588.476562 495.457031 559.222656 480.546875 538.117188 C 459.84375 508.8125 450.253906 481.378906 446.121094 469.28125 C 438.019531 445.570312 443.25 446.398438 433.820312 418.46875 C 428.316406 402.160156 423.558594 391.691406 428.082031 387.328125 " fill-opacity="1" fill-rule="nonzero"/>
      <path fill="#ffffff" d="M 372.878906 723.664062 C 369.6875 723.664062 366.664062 723.058594 363.867188 721.859375 C 363.445312 721.679688 362.976562 721.679688 362.554688 721.859375 C 359.757812 723.058594 356.734375 723.664062 353.539062 723.664062 C 336.238281 723.664062 316.484375 706.089844 300.617188 691.972656 C 296.648438 688.445312 292.902344 685.109375 289.570312 682.394531 C 285.363281 678.960938 276.609375 671.828125 274.242188 660.144531 C 271.550781 646.847656 277.25 624.457031 289.449219 585.164062 C 296.644531 561.992188 295.953125 552.320312 295.148438 541.125 L 295.121094 540.695312 C 293.671875 520.449219 289.394531 504.933594 285.957031 492.460938 L 285.335938 490.199219 C 283.015625 481.738281 280.613281 472.984375 275.585938 461.753906 C 272.542969 454.960938 270.351562 451.300781 268.59375 448.355469 C 266.496094 444.839844 265.105469 442.515625 264.003906 437.679688 C 261.5 426.6875 262.484375 404.832031 272.542969 392.832031 C 276.929688 387.605469 285.589844 385.183594 295.621094 382.382812 C 303.664062 380.132812 312.78125 377.589844 320.878906 373.175781 C 321.84375 372.648438 323.046875 373.203125 323.269531 374.277344 C 328.386719 398.847656 344.8125 416.011719 363.210938 416.011719 C 381.613281 416.011719 398.035156 398.847656 403.152344 374.277344 C 403.378906 373.203125 404.574219 372.648438 405.542969 373.175781 C 413.640625 377.589844 422.753906 380.132812 430.800781 382.382812 C 440.832031 385.183594 449.492188 387.605469 453.878906 392.832031 C 463.9375 404.832031 464.921875 426.6875 462.414062 437.679688 C 461.316406 442.515625 459.925781 444.839844 457.828125 448.355469 C 456.070312 451.300781 453.878906 454.960938 450.835938 461.753906 C 445.808594 472.984375 443.40625 481.738281 441.089844 490.199219 L 440.464844 492.460938 C 437.027344 504.933594 432.746094 520.449219 431.300781 540.695312 L 431.273438 541.125 C 430.472656 552.320312 429.777344 561.992188 436.972656 585.164062 C 449.171875 624.457031 454.871094 646.847656 452.179688 660.144531 C 449.808594 671.828125 441.058594 678.960938 436.855469 682.394531 C 433.515625 685.113281 429.769531 688.445312 425.808594 691.972656 C 409.9375 706.097656 390.1875 723.664062 372.882812 723.664062 C 372.882812 723.664062 372.882812 723.664062 372.878906 723.664062 " fill-opacity="1" fill-rule="nonzero"/>
      <path fill="#ffffff" d="M 439.503906 489.765625 C 441.824219 481.316406 444.257812 472.429688 449.34375 461.085938 C 456.058594 446.085938 458.890625 445.777344 460.820312 437.316406 C 463.441406 425.796875 461.941406 405 452.621094 393.886719 C 445.15625 384.980469 422.859375 384.476562 404.757812 374.613281 C 399.582031 399.460938 382.949219 417.648438 363.210938 417.648438 C 343.472656 417.648438 326.839844 399.460938 321.664062 374.613281 C 303.558594 384.476562 281.265625 384.980469 273.800781 393.886719 C 264.480469 405 262.976562 425.796875 265.601562 437.316406 C 267.53125 445.777344 270.363281 446.085938 277.078125 461.085938 C 282.160156 472.429688 284.597656 481.316406 286.917969 489.765625 C 290.40625 502.488281 295.207031 518.914062 296.753906 540.574219 C 297.574219 552.050781 298.394531 561.886719 291.015625 585.652344 C 279.804688 621.765625 273.097656 646.226562 275.851562 659.816406 C 278.101562 670.929688 286.617188 677.871094 290.605469 681.125 C 309.710938 696.699219 341 731.203125 363.210938 719.734375 C 385.425781 731.203125 416.707031 696.699219 435.816406 681.125 C 439.804688 677.871094 448.320312 670.929688 450.570312 659.816406 C 453.324219 646.226562 446.617188 621.765625 435.40625 585.652344 C 428.027344 561.886719 428.847656 552.050781 429.667969 540.574219 C 431.214844 518.914062 436.011719 502.488281 439.503906 489.765625 " fill-opacity="1" fill-rule="nonzero"/>
      <path fill="#ffffff" d="M 270.917969 494.613281 C 254.0625 490.535156 238.828125 481.960938 225.632812 469.144531 L 224.6875 468.222656 L 225.378906 467.101562 C 227.214844 464.140625 228.644531 461.5625 230.542969 457.15625 C 233.226562 450.925781 233.90625 447.851562 234.625 444.597656 C 235.335938 441.394531 236.066406 438.082031 238.734375 431.761719 C 244.105469 419.050781 251.601562 407.816406 260.417969 399.265625 C 265.671875 394.167969 270.792969 390.476562 275.640625 388.292969 C 279.394531 386.601562 286.570312 383.761719 292.433594 383.761719 C 295.539062 383.761719 297.945312 384.5625 299.585938 386.148438 C 304.175781 390.574219 301.203125 399.070312 296.703125 411.929688 C 295.929688 414.144531 295.105469 416.503906 294.265625 418.996094 C 289.429688 433.3125 288.496094 439.941406 287.59375 446.355469 C 286.734375 452.460938 285.921875 458.230469 281.964844 469.808594 C 280.386719 474.429688 277.445312 483.035156 272.804688 493.675781 L 272.253906 494.933594 L 270.917969 494.613281 " fill-opacity="1" fill-rule="nonzero"/>
      <path fill="#ffffff" d="M 298.449219 387.328125 C 293.140625 382.207031 278.484375 388.808594 276.316406 389.785156 C 274.140625 390.769531 268.859375 393.355469 261.558594 400.4375 C 257.113281 404.753906 247.652344 414.867188 240.246094 432.402344 C 234.960938 444.90625 237.476562 445.203125 232.050781 457.808594 C 230.132812 462.257812 228.644531 464.941406 226.773438 467.96875 C 236.789062 477.699219 251.519531 488.234375 271.300781 493.019531 C 275.714844 482.902344 278.597656 474.601562 280.414062 469.28125 C 288.519531 445.570312 283.28125 446.398438 292.710938 418.46875 C 298.21875 402.160156 302.972656 391.691406 298.449219 387.328125 " fill-opacity="1" fill-rule="nonzero"/>
      <path fill="#ffffff" d="M 453.429688 493.675781 C 448.789062 483.035156 445.847656 474.429688 444.269531 469.808594 C 440.308594 458.230469 439.5 452.460938 438.640625 446.355469 C 437.738281 439.941406 436.804688 433.3125 431.96875 418.996094 C 431.128906 416.503906 430.304688 414.144531 429.527344 411.929688 C 425.027344 399.070312 422.058594 390.574219 426.644531 386.148438 C 428.289062 384.5625 430.695312 383.761719 433.804688 383.761719 C 439.664062 383.761719 446.835938 386.601562 450.589844 388.292969 C 455.441406 390.476562 460.5625 394.167969 465.8125 399.265625 C 474.628906 407.8125 482.128906 419.050781 487.5 431.761719 C 490.167969 438.082031 490.898438 441.394531 491.609375 444.601562 C 492.324219 447.851562 493.007812 450.925781 495.691406 457.15625 C 497.585938 461.558594 499.019531 464.140625 500.851562 467.101562 L 501.546875 468.222656 L 500.601562 469.144531 C 487.40625 481.960938 472.167969 490.535156 455.320312 494.613281 L 453.976562 494.933594 L 453.429688 493.675781 " fill-opacity="1" fill-rule="nonzero"/>
      <path fill="#ffffff" d="M 427.785156 387.328125 C 433.089844 382.207031 447.746094 388.808594 449.917969 389.785156 C 452.09375 390.769531 457.371094 393.355469 464.671875 400.4375 C 469.117188 404.753906 478.582031 414.867188 485.984375 432.402344 C 491.269531 444.90625 488.753906 445.203125 494.183594 457.808594 C 496.101562 462.257812 497.589844 464.941406 499.457031 467.96875 C 489.441406 477.699219 474.710938 488.234375 454.933594 493.019531 C 450.515625 482.902344 447.640625 474.601562 445.820312 469.28125 C 437.71875 445.570312 442.953125 446.398438 433.523438 418.46875 C 428.015625 402.160156 423.261719 391.691406 427.785156 387.328125 " fill-opacity="1" fill-rule="nonzero"/>
      <path fill="#f79556" d="M 363.210938 556.964844 C 362.1875 562.589844 355.183594 565.625 348.457031 568.4375 C 338.992188 572.402344 314.355469 577.929688 284.511719 581.554688 C 261.796875 584.308594 244.929688 585.277344 232.050781 585.652344 C 200.84375 586.546875 195.351562 583.984375 191.878906 579.914062 C 185.085938 571.953125 185.628906 557.761719 191.878906 548.773438 C 200.507812 536.367188 217.8125 537.011719 225.492188 537.296875 C 233.726562 537.609375 235.691406 539.546875 250.082031 543.035156 C 252.535156 543.632812 267.203125 547.128906 285.335938 548.773438 C 299.007812 550.011719 318.945312 549.59375 331.242188 545.492188 C 335.226562 544.164062 336.664062 542.699219 340.257812 541.394531 C 358.292969 534.839844 363.730469 554.109375 363.210938 556.964844 " fill-opacity="1" fill-rule="nonzero"/>
      <path fill="#f79556" d="M 363.320312 556.964844 C 364.34375 562.589844 371.351562 565.625 378.078125 568.4375 C 387.539062 572.402344 412.179688 577.929688 442.019531 581.554688 C 464.738281 584.308594 481.601562 585.277344 494.484375 585.652344 C 525.6875 586.546875 531.183594 583.984375 534.652344 579.914062 C 541.449219 571.953125 540.910156 557.761719 534.652344 548.773438 C 526.027344 536.367188 508.71875 537.011719 501.042969 537.296875 C 492.808594 537.609375 490.839844 539.546875 476.449219 543.035156 C 474.003906 543.632812 459.332031 547.128906 441.199219 548.773438 C 427.523438 550.011719 407.589844 549.59375 395.292969 545.492188 C 391.308594 544.164062 389.871094 542.699219 386.277344 541.394531 C 368.238281 534.839844 362.800781 554.109375 363.320312 556.964844 " fill-opacity="1" fill-rule="nonzero"/>
      <path fill="#f79556" d="M 342.320312 553.167969 C 341.984375 551.707031 341.472656 548.902344 343.03125 537.515625 C 344.148438 529.34375 344.953125 523.675781 347.300781 516.167969 C 349.007812 510.710938 349.332031 511.328125 350.859375 506.207031 C 352.597656 500.390625 354.367188 494.472656 354.417969 486.996094 C 354.457031 481.507812 353.589844 472.386719 355.128906 468.503906 C 355.386719 467.847656 355.914062 466.84375 356.554688 464.941406 C 357.253906 462.863281 357.25 462.210938 357.976562 461.386719 C 358.207031 461.117188 359.761719 459.414062 361.535156 459.964844 C 362.878906 460.375 363.445312 462.101562 363.671875 462.808594 C 369.917969 482.667969 367.941406 498.386719 367.941406 498.386719 C 363.257812 535.574219 373.074219 549.101562 361.535156 560.28125 C 360.210938 561.566406 355.027344 566.585938 350.148438 565.265625 C 344.746094 563.796875 342.832031 555.410156 342.320312 553.167969 " fill-opacity="1" fill-rule="nonzero"/>
      <path fill="#f79556" d="M 384.214844 553.167969 C 384.546875 551.707031 385.0625 548.902344 383.503906 537.515625 C 382.382812 529.34375 381.582031 523.675781 379.234375 516.167969 C 377.523438 510.710938 377.203125 511.328125 375.675781 506.207031 C 373.933594 500.390625 372.167969 494.472656 372.113281 486.996094 C 372.074219 481.507812 372.945312 472.386719 371.402344 468.503906 C 371.144531 467.847656 370.621094 466.84375 369.980469 464.941406 C 369.28125 462.863281 369.28125 462.210938 368.558594 461.386719 C 368.324219 461.117188 366.773438 459.414062 365 459.964844 C 363.65625 460.375 363.085938 462.101562 362.863281 462.808594 C 356.617188 482.667969 358.59375 498.386719 358.59375 498.386719 C 363.277344 535.574219 353.460938 549.101562 365 560.28125 C 366.324219 561.566406 371.503906 566.585938 376.386719 565.265625 C 381.785156 563.796875 383.703125 555.410156 384.214844 553.167969 " fill-opacity="1" fill-rule="nonzero"/>
      <path fill="#290708" d="M 363.210938 758.09375 C 369.195312 769.621094 377.597656 775.882812 390.910156 779.765625 C 411.339844 785.71875 426.363281 782.144531 433.058594 780.96875 C 453.398438 777.390625 469.414062 767.4375 495.675781 748.464844 C 570.445312 694.445312 582.382812 677.097656 588.398438 659.378906 C 595.621094 638.117188 590.203125 628.445312 588.398438 625.667969 C 582.070312 615.9375 574.675781 612.410156 567.925781 611.226562 C 547.941406 607.710938 525.335938 614.894531 500.492188 625.667969 C 463.351562 641.785156 458.433594 643.425781 412.585938 661.046875 C 388.085938 670.460938 378.191406 679.59375 368.027344 694.753906 C 364.902344 699.417969 353.679688 739.734375 363.210938 758.09375 " fill-opacity="1" fill-rule="nonzero"/>
      <path fill="#290708" d="M 378.238281 758.09375 C 372.253906 769.621094 363.855469 775.882812 350.542969 779.765625 C 330.109375 785.71875 315.089844 782.144531 308.394531 780.96875 C 288.054688 777.390625 272.039062 767.4375 245.777344 748.464844 C 171.003906 694.445312 159.070312 677.097656 153.050781 659.378906 C 145.828125 638.117188 151.25 628.445312 153.050781 625.667969 C 159.378906 615.9375 166.777344 612.410156 173.523438 611.226562 C 193.511719 607.710938 216.3125 614.453125 240.960938 625.667969 C 277.015625 642.082031 290.378906 647.523438 328.867188 665.144531 C 352.734375 676.070312 363.257812 683.691406 373.421875 698.851562 C 376.550781 703.519531 387.769531 739.734375 378.238281 758.09375 " fill-opacity="1" fill-rule="nonzero"/>
      <path fill="#290708" d="M 314.15625 655.71875 C 296.867188 650.871094 284.773438 646.183594 276.878906 642.054688 C 273.90625 655.070312 274.421875 665.054688 275.851562 672.109375 C 278.101562 683.222656 286.617188 690.164062 290.605469 693.414062 C 309.710938 708.992188 341 743.492188 363.210938 732.03125 C 385.425781 743.492188 416.707031 708.992188 435.816406 693.414062 C 439.804688 690.164062 448.320312 683.222656 450.570312 672.109375 C 451.820312 665.945312 452.757812 657.535156 450.574219 646.832031 C 443.703125 649.539062 435.519531 651.390625 428.921875 653.261719 C 365.992188 671.078125 314.15625 655.71875 314.15625 655.71875 " fill-opacity="1" fill-rule="nonzero"/>
      <path fill="#ec7d40" d="M 595.023438 656.367188 C 596.800781 651.582031 602.128906 637.238281 595.023438 625.070312 C 588.9375 614.648438 577.105469 611.59375 573.347656 610.625 C 552.019531 605.113281 531.511719 616.476562 508.320312 631.09375 C 479.878906 649.007812 461.632812 662.851562 425.828125 689.476562 C 413.871094 698.375 384.132812 720.289062 347.558594 737.628906 C 340.574219 740.941406 330.796875 744.089844 317.453125 746.058594 C 306.984375 747.601562 288.550781 749.667969 268.078125 742.445312 C 265.453125 741.519531 256.445312 736.625 237.972656 741.242188 C 228.339844 743.648438 228.765625 741.863281 223.523438 742.445312 C 214.542969 743.441406 212.101562 748.234375 210.90625 751.5 C 210.660156 752.171875 210.226562 756.851562 209.074219 760.5 C 208.027344 763.8125 206.664062 765.316406 207.867188 772.542969 C 208.390625 775.667969 209.824219 778.226562 211.480469 780.96875 C 212.398438 782.480469 216.242188 789.613281 224.726562 791.800781 C 229.457031 793.023438 235.207031 793.796875 245.199219 791.800781 C 249.1875 791.007812 286.398438 785.625 305.410156 786.984375 C 313.96875 787.601562 320.003906 788.597656 329.492188 786.984375 C 335.773438 785.921875 340.363281 784.25 342.742188 783.375 C 369.109375 773.648438 382.292969 768.789062 387.296875 766.519531 C 409.601562 756.421875 414.992188 757.628906 451.121094 744.851562 C 455.382812 743.34375 502.847656 726.292969 557.089844 694.292969 C 571.976562 685.507812 588.023438 675.214844 595.023438 656.367188 " fill-opacity="1" fill-rule="nonzero"/>
      <path fill="#d35c20" d="M 239.179688 760.886719 C 236.582031 761.105469 234.078125 761.378906 231.671875 761.929688 C 230.472656 762.21875 229.292969 762.554688 228.15625 762.972656 C 227.023438 763.382812 225.894531 763.910156 224.652344 764.390625 C 223.417969 764.867188 222.082031 765.253906 220.722656 765.433594 C 219.363281 765.609375 218.011719 765.65625 216.640625 765.460938 C 215.28125 765.292969 213.882812 764.851562 212.738281 764.027344 C 211.613281 763.207031 210.75 762.109375 210.277344 760.886719 C 211.203125 761.804688 212.21875 762.550781 213.332031 762.976562 C 214.417969 763.429688 215.585938 763.550781 216.769531 763.546875 C 217.953125 763.511719 219.171875 763.378906 220.332031 763.132812 C 221.5 762.894531 222.625 762.542969 223.773438 762.09375 C 224.921875 761.660156 226.128906 761.136719 227.433594 760.757812 C 228.726562 760.386719 230.050781 760.136719 231.382812 760.039062 C 234.035156 759.816406 236.691406 760.09375 239.179688 760.886719 " fill-opacity="1" fill-rule="nonzero"/>
      <path fill="#d35c20" d="M 234.289062 771.710938 C 232.585938 772.738281 230.738281 773.441406 228.851562 773.972656 C 226.957031 774.5 225.011719 774.828125 223.054688 774.972656 C 221.097656 775.113281 219.125 775.070312 217.175781 774.824219 C 215.230469 774.566406 213.300781 774.140625 211.46875 773.375 C 213.4375 773.121094 215.34375 773.023438 217.238281 772.894531 L 222.875 772.519531 L 228.507812 772.078125 C 230.402344 771.941406 232.300781 771.753906 234.289062 771.710938 " fill-opacity="1" fill-rule="nonzero"/>
      <path fill="#d35c20" d="M 235.566406 778.558594 C 234.0625 779.554688 232.425781 780.242188 230.746094 780.789062 C 229.066406 781.328125 227.332031 781.695312 225.582031 781.90625 C 223.832031 782.117188 222.058594 782.15625 220.296875 782.027344 C 218.539062 781.878906 216.785156 781.589844 215.09375 780.96875 C 216.847656 780.5625 218.550781 780.335938 220.246094 780.09375 C 221.9375 779.863281 223.617188 779.660156 225.292969 779.460938 L 230.351562 778.90625 C 232.054688 778.746094 233.765625 778.570312 235.566406 778.558594 " fill-opacity="1" fill-rule="nonzero"/>
      <path fill="#d35c20" d="M 236.769531 784.582031 C 235.609375 785.558594 234.289062 786.25 232.917969 786.800781 C 231.542969 787.335938 230.105469 787.710938 228.644531 787.921875 C 227.1875 788.136719 225.699219 788.179688 224.230469 788.050781 C 222.761719 787.90625 221.300781 787.605469 219.910156 786.984375 C 221.375 786.585938 222.777344 786.347656 224.167969 786.117188 C 225.554688 785.886719 226.925781 785.683594 228.296875 785.492188 C 229.667969 785.296875 231.042969 785.105469 232.4375 784.933594 C 233.839844 784.769531 235.253906 784.601562 236.769531 784.582031 " fill-opacity="1" fill-rule="nonzero"/>
      <path fill="#f79556" d="M 146.429688 656.367188 C 144.652344 651.582031 139.324219 637.238281 146.429688 625.070312 C 152.511719 614.648438 164.34375 611.59375 168.105469 610.625 C 189.433594 605.113281 209.9375 616.476562 233.132812 631.09375 C 261.570312 649.007812 279.820312 662.851562 315.621094 689.476562 C 327.582031 698.375 357.320312 720.289062 393.894531 737.628906 C 400.875 740.941406 410.65625 744.089844 424 746.058594 C 434.46875 747.601562 452.902344 749.667969 473.371094 742.445312 C 475.996094 741.519531 485.007812 736.625 503.476562 741.242188 C 513.113281 743.648438 512.6875 741.863281 517.929688 742.445312 C 526.90625 743.441406 529.351562 748.234375 530.550781 751.5 C 530.792969 752.171875 531.226562 756.851562 532.375 760.5 C 533.421875 763.8125 534.789062 765.316406 533.585938 772.542969 C 533.066406 775.667969 531.632812 778.226562 529.972656 780.96875 C 529.054688 782.480469 525.210938 789.613281 516.722656 791.800781 C 511.996094 793.023438 506.242188 793.796875 496.25 791.800781 C 492.265625 791.007812 455.050781 785.625 436.042969 786.984375 C 427.480469 787.601562 421.445312 788.597656 411.957031 786.984375 C 405.679688 785.921875 401.085938 784.25 398.714844 783.375 C 372.339844 773.648438 359.15625 768.789062 354.15625 766.519531 C 331.847656 756.421875 326.457031 757.628906 290.332031 744.851562 C 286.070312 743.34375 238.601562 726.292969 184.359375 694.292969 C 169.472656 685.507812 153.425781 675.214844 146.429688 656.367188 " fill-opacity="1" fill-rule="nonzero"/>
      <path fill="#ec7d40" d="M 507.164062 771.710938 C 509.152344 771.753906 511.050781 771.941406 512.941406 772.078125 L 518.574219 772.519531 L 524.210938 772.894531 C 526.109375 773.023438 528.011719 773.121094 529.984375 773.375 C 528.152344 774.140625 526.222656 774.566406 524.273438 774.824219 C 522.328125 775.070312 520.355469 775.113281 518.398438 774.972656 C 516.441406 774.828125 514.492188 774.5 512.601562 773.972656 C 510.714844 773.441406 508.867188 772.738281 507.164062 771.710938 " fill-opacity="1" fill-rule="nonzero"/>
      <path fill="#ec7d40" d="M 505.886719 778.558594 C 507.6875 778.570312 509.398438 778.746094 511.101562 778.90625 L 516.160156 779.460938 C 517.832031 779.660156 519.515625 779.863281 521.207031 780.09375 C 522.898438 780.335938 524.601562 780.5625 526.355469 780.96875 C 524.667969 781.589844 522.914062 781.878906 521.152344 782.027344 C 519.390625 782.15625 517.621094 782.117188 515.867188 781.90625 C 514.121094 781.695312 512.386719 781.328125 510.707031 780.789062 C 509.027344 780.242188 507.386719 779.554688 505.886719 778.558594 " fill-opacity="1" fill-rule="nonzero"/>
      <path fill="#ec7d40" d="M 502.273438 760.886719 C 504.757812 760.09375 507.417969 759.816406 510.070312 760.039062 C 511.398438 760.136719 512.726562 760.386719 514.015625 760.757812 C 515.324219 761.136719 516.53125 761.660156 517.675781 762.09375 C 518.828125 762.542969 519.949219 762.894531 521.121094 763.132812 C 522.285156 763.378906 523.5 763.511719 524.6875 763.546875 C 525.863281 763.550781 527.035156 763.429688 528.121094 762.976562 C 529.230469 762.550781 530.246094 761.804688 531.171875 760.886719 C 530.699219 762.109375 529.835938 763.207031 528.714844 764.027344 C 527.570312 764.851562 526.171875 765.292969 524.808594 765.460938 C 523.441406 765.65625 522.085938 765.609375 520.726562 765.433594 C 519.371094 765.253906 518.035156 764.867188 516.796875 764.390625 C 515.558594 763.910156 514.429688 763.382812 513.292969 762.972656 C 512.15625 762.554688 510.976562 762.21875 509.78125 761.929688 C 507.375 761.378906 504.871094 761.105469 502.273438 760.886719 " fill-opacity="1" fill-rule="nonzero"/>
      <path fill="#ec7d40" d="M 504.679688 784.582031 C 506.199219 784.601562 507.613281 784.769531 509.011719 784.933594 C 510.410156 785.105469 511.78125 785.296875 513.15625 785.492188 C 514.527344 785.683594 515.894531 785.886719 517.285156 786.117188 C 518.675781 786.347656 520.078125 786.585938 521.539062 786.984375 C 520.152344 787.605469 518.6875 787.90625 517.21875 788.050781 C 515.75 788.179688 514.261719 788.136719 512.808594 787.921875 C 511.34375 787.710938 509.910156 787.335938 508.535156 786.800781 C 507.164062 786.25 505.84375 785.558594 504.679688 784.582031 " fill-opacity="1" fill-rule="nonzero"/>
    </g>
  </g>
</svg>