<svg xmlns="http://www.w3.org/2000/svg" viewBox="0 50 760 600">
    <style>.B{fill:#003d24}.C{fill:#f79556}.D{fill:#ec7d40}.E{fill:#c46c3f}.F{fill:#fff}.G{fill:#fccc44}.H{fill:#f2c72d}.I{fill:#f0af31}.J{fill:#219d6c}.K{fill:#94954c}.L{fill:#006a42}.M{fill:#004e2f}.N{fill:#e6e6e6}.O{fill:#d65b5b}</style>
    <path d="M405.637 622.504c-24.605-9.145-20.937-17.582-82.25-43.52-54.449-23.047-174.609 24.77-236.352-139.227C-.012 208.543 249.633.305 524.336 94.32c56.684 19.402 227.098 123.238 204.258 313.703-11.805 98.371-81.117 183.387-175.398 211.602-42.859 12.82-95.953 22.047-147.559 2.879" fill="#f8f6f5" />
    <path d="M83.023 325.766c.188-9.699 4.402-14.191 1.473-22.594-1.047-3.004-2.805-5.93-1.875-6.742 1.242-1.09 6.113 2.68 7.563 3.703 12.289 8.66 36.199 1.328 41.223.02 30.352-7.898 75.855 20.555 97.988 39.852 10.258 8.941 51.074 44.523 47.539 89.895-.129 1.68 1.914 33.746-19.902 40.246-13.832 4.121-22.324-11.246-37.227-4.891-9.773 4.168-12.984 11.891-22.344 14.176-12.457 3.039-25.785-10.77-28.844-14.141-11.047-12.18-7.129-19.434-19-42.371-5.562-10.738-10.23-19.758-19.664-29.102-8.668-8.586-15.324-11.469-19.812-15.934 7.664 1.258 16.77-.574 26.398-5.418 6.582-3.312 11.844-9.031 11.012-9.738-.699-.598-7.746 5.551-17.965 6.328-13.828 1.051-21.086-2.258-25.516-5.066-.902-8.555 1.48-16.094-1.734-17.402-2.609-1.062-4.871 3.648-8.754 3.055-5.824-.891-10.766-13.02-10.559-23.875" fill="#d7fec9" />
    <path d="M227.5 457.234c1.727 10.535 2.602 21.203 2.656 31.875.039 5.336-.137 10.672-.469 16.004l-.598 8.023-.578 8.152c-.621 10.914-.551 21.852.074 32.758a317.49 317.49 0 0 0 .871 11.211h7.121a300.48 300.48 0 0 1-1.199-11.687c-.859-10.645-1.18-21.332-.828-32.004l.375-8.016.422-8.148c.207-5.453.258-10.926.09-16.387a209.07 209.07 0 0 0-3.488-32.57c-2.035-10.734-4.965-21.297-8.812-31.512l-1.48-3.816-1.574-3.773-3.281-7.449c-2.262-4.945-4.695-9.824-7.332-14.582-5.277-9.52-11.367-18.602-18.379-26.926-7-8.324-14.922-15.887-23.703-22.293a121.08 121.08 0 0 0-13.746-8.703l-3.617-1.863c-1.207-.617-2.445-1.172-3.664-1.758-2.473-1.102-4.961-2.18-7.496-3.129-10.109-3.883-20.695-6.449-31.41-7.754 10.68 1.555 21.176 4.359 31.133 8.449 2.5 1.004 4.945 2.133 7.375 3.285l3.594 1.828 3.539 1.926c4.664 2.668 9.137 5.66 13.395 8.918 8.523 6.527 16.16 14.168 22.863 22.523 6.715 8.359 12.5 17.438 17.477 26.922 2.488 4.746 4.77 9.598 6.887 14.523l3.074 7.449 1.457 3.734 1.363 3.773c3.527 10.086 6.148 20.484 7.891 31.016M283.23 292.52c-12.473 17.008-30.609 19.828-30.891 19.258-.352-.703 16.289-5.859 26.281-23.023-7.375-5.437-16.207-9.293-26.684-10.785-20-2.848-12.355-7.062-28.582-13.645-21.281-8.625-30.125-9.715-34.977-8.484-7.836 1.992-7.699-4.578-9.012-3.445-.852.742-8.336 15.949 1.477 27.34 5.18 6.016 11.988 4.031 18.996 12.82 3.738 4.695 3.215 7.645 5.77 13.543 5.512 12.742 20.527 11.707 21.949 22.641 8.414 64.836 31.004 70.199 51.578 71.75 11.336.852 10.133-9.051 17.148-7.262 18.367 4.691 22.969-68.187-13.055-100.707" class="J" />
    <path fill="#006a42" d="M224.688 282.195c1.742 2.012 3.875 3.625 5.98 5.219l6.094 5.02a34.35 34.35 0 0 1 4.984 6.063c1.414 2.203 2.594 4.559 3.582 6.988l1.352 3.695 1.199 3.781c.789 2.543 1.875 5.023 3.301 7.32 1.418 2.305 3.301 4.305 5.293 6.07l5.895 5.27c.965.883 1.832 1.859 2.734 2.797l2.539 2.984 2.355 3.133 2.203 3.246 2.055 3.352 1.934 3.418c4.957 9.238 8.508 19.188 11.387 29.281 1.414 5.066 2.641 10.18 3.742 15.324 1.09 5.141 2.008 10.328 2.855 15.52a426.79 426.79 0 0 1 3.691 31.371c.871 10.5 1.418 21.027 1.707 31.559s.352 21.078.195 31.617c-.312 20.039-1.309 40.059-2.879 60.035h6.188c1.168-19.98 1.766-39.992 1.684-60.008-.051-10.609-.32-21.215-.824-31.809-.496-10.594-1.254-21.184-2.34-31.738-1.066-10.562-2.5-21.086-4.348-31.543-.957-5.227-1.984-10.437-3.191-15.613s-2.559-10.316-4.082-15.414c-3.121-10.16-6.91-20.176-12.145-29.488-.684-1.148-1.312-2.324-2.039-3.441l-2.156-3.367-2.312-3.27c-.789-1.074-1.652-2.102-2.469-3.152-.867-1.016-1.758-2.02-2.664-3.004-.945-.949-1.855-1.93-2.855-2.812-1.949-1.832-4.043-3.484-6.035-5.184s-3.801-3.551-5.203-5.727c-1.402-2.164-2.508-4.547-3.332-7.031l-1.27-3.754c-.449-1.25-.914-2.5-1.445-3.719-1.051-2.449-2.297-4.82-3.781-7.031a34.92 34.92 0 0 0-5.184-6.059c-1.945-1.816-4.086-3.391-6.23-4.934-2.133-1.547-4.277-3.109-6.047-5.07a19.16 19.16 0 0 1-2.336-3.176c-.656-1.145-1.184-2.363-1.625-3.605.418 1.254.922 2.48 1.555 3.645.648 1.156 1.418 2.242 2.289 3.242" />
    <path d="M128.75 480.309c.781-3.785.184-4.578-1.148-7.727-2.816-6.664-17.184-7.699-26.238-20.234-5.758-7.965-20.59-2.906-30.844-9.895-7.301-4.973.121-9.07-17.328-16.293-26.523-10.98-25.207-27-24.254-27.543 1.512-.867 1.934 3.82 4.141 5.906 10.34 9.777 64.969-18.707 118.461 6.672 23.281 11.047 40.875 28.453 48.398 52.402 5.508 17.551.93 27.512-5.699 26.773-7.832-.867-1.539 3.355-5.27 10.789-15.512 30.898-63.137-6.699-60.219-20.852" class="J" />
    <path d="M239.941 565.258h4.727c-3.656-6.445-7.469-12.797-11.461-19.043-10.957-17.145-23.254-33.477-37.137-48.371-13.898-14.863-29.422-28.258-46.484-39.336-17.043-11.094-35.621-19.824-55.066-25.652l-7.32-2.074-7.332-1.961c-4.883-1.332-9.742-2.73-14.523-4.367-4.781-1.645-9.488-3.52-13.98-5.84-4.492-2.309-8.766-5.109-12.434-8.609 3.613 3.559 7.855 6.434 12.324 8.82 4.469 2.395 9.164 4.352 13.934 6.07s9.621 3.199 14.488 4.605l7.305 2.074 7.258 2.184c19.27 6.105 37.578 15.07 54.305 26.332 16.742 11.25 31.906 24.75 45.434 39.68 13.516 14.961 25.43 31.316 36.02 48.465 3.449 5.594 6.762 11.273 9.945 17.023" fill="#006a42" />
    <path d="M373.434 518.586c-.102.168-.34.293-1.242.277-.754-.016-5.461-.184-7.605-3.77-.371-.621-.762-1.273-.504-1.719.516-.906 3.41-.473 5.531.672 2.383 1.289 4.316 3.75 3.82 4.539zm14.797 20.094c-2.547.074-5.629-5.426-6.234-6.871-2.012-4.789-2.625-11.105-2.898-18.184-5.004-2.551-8.645-1.965-13.191-3.262-8.969-2.566-6.812-5.73-6.617-5.961 3.152-3.648 14.559-.895 19.613 2.336l-.406-12c-.055-.953-.187-1.918-.379-2.887-.363-.227-.75-.449-1.176-.66-11.852-5.809-17.227-2.652-25.449-3.187-12.687-.824-10.73-5.656-10.527-6.027 3.227-5.922 20.004-5.371 27.398-2.316 1.258.52 3.754 1.555 6.348 3.32-11.191-19.957-43.855-36.902-54.5-11.652-2.441 5.793-6.746-.238-15.125 3.484-7.113 3.16-8.812 12.352-9.473 15.246-3.324 14.594 3.453 32.566 16.414 43.18 12.371 10.133 29.688 12.992 42.41 9.949 4.426-1.055 18.094-7.594 22.539-5.492 5.383 2.551 8.91 2.891 11.016 2.762 1.746-.105 2.047-1.832.238-1.777" class="J" />
    <path d="M581.348 393.406c-4.973-3.875-12.074 4.289-22.25.051-9.812-4.09-19.094-17.477-15.852-26.98 5.52-16.223 3.02-31.273 7.406-41.012 7.066-15.691 24.977-27.062 69.449-40.93l13.207-4.059c-2.187 3.137-4.281 6.68-6.047 10.609-.984 2.191-4.926 11.313-4.039 22.859.309 4.004.91 11.855 5.773 14.055.375.168 2.129.578 4.059-.312 3.645-1.68 3.758-8.105 3.773-19.336.023-18.293.902-25.516 2.07-29.484 11.152-3.082 18.5-4.203 24.832-2.695 9.336 2.219 22.156 7.871 28.969 2.594 3.941-3.043 2.129-7.48 3.867-7.461 3.574.047 3.68 20.367 9.324 42.949 8.688 34.746 7.82 32.059 7.422 41.375a69.68 69.68 0 0 1-.383 4.762c-36.277 17.871-60.617 8.992-69.266 10.977-1.559.359-7.309 1.676-7.484 3.973-.25 3.297 11.109 6.664 13.535 7.387 14.715 4.367 41.555 6.949 58.277-3.992-5.953 14.086-15.941 25.766-25.113 36.496-15.41 18.023-29.516 34.516-52.258 37.031-13.816 1.523-32.395-3.66-41.531-14.012-13.34-15.117 4.258-35.477-7.742-44.844" fill="#d7fec9" />
    <path d="M586.375 565.598c3.832-27.473 16.27-47.043 16.984-51.609.055-.348.516-3.574-1.074-4.578-1.582-1-4.461.559-5.414 1.496-22.148 21.813-10.949 57.195-16.566 76.73l-1.152-1.551c-8.02-10.59-35.91-41.527-32.234-81.688.496-5.484 3.43-21.297 14.836-27.211 15.086-7.824 23.637-6.75 41.605.734 7.418 3.09.289-13.387 6.352-27.16.578-1.312 7.813-17.117 24.039-23.141 25.762-9.57 50.855 14.23 51.895 15.246 6.504 6.344 9.973 12.996 14.723 22.102 3.996 7.652 8.73 16.914 10.477 29.488 1.711 12.328-1.754 11.238.367 22.605 2.199 11.781 6.848 17.918 3.949 26.938-.352 1.078-.719 1.926-1.023 2.711-4.984-4.449-11.609-9.129-18.906-12.246-3.16-1.348-11.832-5.051-14.684-1.914-.934 1.031-1.09 2.625-.809 3.848 1.047 4.52 8.711 6.188 13.004 7.363 9.738 2.66 16.922 6.816 21.887 10.137 2.414 3.664 7.859 4.871 10.465 9.914 5.922 11.438-8.891 30.828-10.578 32.992-4.012 5.141-5.223 4.75-7.629 9.113-4.211 7.637-3.437 14.195-9.207 18.023-1.309.867-4.102 2.676-3.566 1.465.684-1.543.762-11.016-5.832-16.285-5.937-4.75-42.668 8.641-76.434-1.344-1.598-9.754-4.152-26.297-.16-47.168 1.398-7.301 4.527-20.012-1.469-24.898-1.617-1.32-4.137-2.258-6.359-1.609-6.793 1.965-7.621 17.684-7.91 23.41-.934 17.773 3.25 35.77 7.762 47.355-6.914-2.937-13.582-7.031-19.684-12.687-.605-.566-1.164-1.187-1.703-1.852 1.109-5.211 2.418-13.035 4.051-24.73" class="J" />
    <path d="M677.691 558.121c-7.66-16.566-17-32.437-28.387-46.844-5.691-7.187-11.906-14.012-18.758-20.199-6.836-6.184-14.32-11.758-22.586-16.148-4.141-2.164-8.48-4.043-13.039-5.379-4.551-1.352-9.34-2.18-14.23-2.109a35.08 35.08 0 0 0-3.668.227 41.52 41.52 0 0 0-3.613.578 55.73 55.73 0 0 0-6.934 1.867c-4.555 1.539-8.918 3.707-12.906 6.438-8.02 5.445-14.324 13.051-19.02 21.285-4.715 8.262-7.98 17.172-10.391 26.195-2.395 9.043-3.961 18.234-4.992 27.445-.445 3.957-.785 7.918-1.047 11.887h8.867c.145-3.695.363-7.387.672-11.059.738-8.906 1.996-17.754 4.023-26.375 2.035-8.613 4.871-17.027 8.969-24.711 4.09-7.66 9.488-15.496 16.43-20.504 3.457-2.516 7.305-3.625 11.336-5.121 2.012-.742 4.074-1.367 6.184-1.852 1.07-.246 2.078-.449 3.109-.59 1.031-.148 2.078-.242 3.129-.285 4.211-.184 8.52.418 12.723 1.535 4.207 1.105 8.313 2.738 12.285 4.68 7.938 3.922 15.328 9.086 22.145 14.914 6.828 5.824 13.105 12.332 18.91 19.242 11.598 13.852 21.309 29.309 29.391 45.555 8.09 16.262 14.566 33.328 19.613 50.82-4.547-17.625-10.551-34.918-18.215-51.492" class="L" />
    <path d="M683.297 296.996c-2.961 3.723-6.102 7.293-9.316 10.797-6.449 6.988-13.207 13.688-20.086 20.25-13.773 13.113-28.062 25.684-42.504 38.066l-21.789 18.434-10.945 9.184-5.453 4.668c-.91.781-1.809 1.652-2.707 2.488-.863.883-1.75 1.746-2.562 2.688-1.656 1.836-3.195 3.801-4.559 5.875a54.38 54.38 0 0 0-3.715 6.426c-2.223 4.414-3.867 9.02-5.355 13.625-.727 2.313-1.41 4.598-2.047 6.957-.637 2.422-1.105 4.824-1.523 7.219-.801 4.785-1.391 9.543-1.945 14.293l-3.184 28.375c-1.133 9.422-2.414 18.805-3.992 28.125-2.832 16.59-6.543 33.016-11.75 48.898h8.023c4.656-15.711 7.895-31.758 10.305-47.848 1.418-9.488 2.527-19 3.48-28.508l2.617-28.457c.457-4.723.945-9.426 1.629-14.047.352-2.309.75-4.59 1.285-6.785.555-2.246 1.176-4.543 1.824-6.781 1.328-4.488 2.801-8.914 4.773-13.059.957-2.086 2.059-4.09 3.285-6.012 1.203-1.93 2.566-3.758 4.055-5.488.727-.883 1.531-1.699 2.309-2.535.82-.805 1.617-1.613 2.492-2.406l5.277-4.746 10.699-9.445 21.352-18.996c14.148-12.762 28.145-25.707 41.621-39.191 6.73-6.742 13.332-13.625 19.621-20.793 3.133-3.59 6.191-7.246 9.07-11.051 2.852-3.809 5.605-7.73 7.727-12-2.227 4.215-5.066 8.055-8.012 11.781" class="J" />
    <path d="M669.52 575.027H136.797a8.48 8.48 0 1 1 0-16.961H669.52a8.48 8.48 0 1 1 0 16.961" class="B" />
    <path d="M589.422 358.84c0 110.719-89.711 200.477-200.367 200.477-110.668 0-200.375-89.758-200.375-200.477s89.707-200.48 200.375-200.48c110.656 0 200.367 89.758 200.367 200.48" class="E" />
    <path d="M547.473 358.84c0 87.539-70.93 158.504-158.422 158.504S230.625 446.379 230.625 358.84s70.93-158.508 158.426-158.508 158.422 70.965 158.422 158.508" fill="#f8f6f5" />
    <path d="M501.418 358.84c0 62.09-50.309 112.426-112.367 112.426S276.684 420.93 276.684 358.84c0-62.098 50.309-112.43 112.367-112.43s112.367 50.332 112.367 112.43" class="E" />
    <path d="M465.066 358.836c0 42-34.031 76.051-76.016 76.051-41.977 0-76.008-34.051-76.008-76.051s34.031-76.055 76.008-76.055c41.984 0 76.016 34.051 76.016 76.055" class="F" />
    <path d="M429.387 358.84c0 22.289-18.059 40.355-40.336 40.355s-40.336-18.066-40.336-40.355 18.059-40.359 40.336-40.359 40.336 18.07 40.336 40.359" class="E" />
    <g class="M">
        <path d="M602.852 340.016c-.602-.18-.797-.527-1.234-.664-3.273-1.047-7.984 1.059-9.891 2.305-4.48 2.945-5.77 8.215-6.637 11.785-1.461 5.988-.578 10.824-.387 11.836.656 3.387 2.004 10.352 8.215 14.441 5.148 3.395 10.699 2.859 12.398 2.691 2.051-.199 5.02-.527 7.988-2.691.969-.711 3.695-2.895 4.934-6.727 1.332-4.098.742-7.691-.137-10.473-.953-3.027-3.172-4.773-5.016-9.316-1.266-3.109-.242-7.609-6.141-11.75-2.359-1.656-3.078-1.137-4.094-1.437" />
        <path d="M614.672 379.891a13.29 13.29 0 0 0 2.316-1.984c.707-.746 1.316-1.59 1.836-2.488a13.21 13.21 0 0 0 1.215-2.875 16.64 16.64 0 0 0 .582-3.07 16.54 16.54 0 0 0-.031-3.141c-.105-1.043-.32-2.07-.598-3.082l-.227-.746-.117-.371-.145-.375c-.184-.508-.426-.992-.676-1.465-.52-.93-1.125-1.777-1.695-2.598l-1.633-2.488-.367-.641-.184-.32-.164-.328-.336-.66-.16-.332-.078-.164c-.027-.055-.039-.109-.062-.164-.367-.836-.574-1.809-.816-2.797l-.402-1.496-.246-.746c-.078-.25-.187-.492-.285-.738a11.56 11.56 0 0 0-1.633-2.715c-.355-.387-.687-.797-1.086-1.137l-.289-.266a2.36 2.36 0 0 0-.297-.254l-.613-.473c-.203-.164-.422-.297-.641-.437l-.648-.418c-.445-.258-.898-.508-1.387-.703a5.14 5.14 0 0 0-1.508-.383c-.52-.043-1.016.039-1.52-.051.238.086.496.129.75.156l.742.109a4.96 4.96 0 0 1 1.371.527c.43.238.844.516 1.242.809l.59.461.566.477.551.5c.09.078.172.168.254.258l.25.27c.344.348.629.75.926 1.125a11.09 11.09 0 0 1 1.328 2.563c.34.906.551 1.855.75 2.84.207.984.391 2.012.797 3.043l.074.191.082.176.16.355.34.703.168.352.188.344.375.68 1.684 2.586 1.633 2.473c.234.414.445.836.617 1.273l.125.336.125.344.223.703a18.38 18.38 0 0 1 .656 2.848 16.91 16.91 0 0 1 .16 2.914 16.35 16.35 0 0 1-.375 2.914 13.31 13.31 0 0 1-.922 2.785c-.41.898-.926 1.754-1.52 2.555a12.85 12.85 0 0 1-.953 1.16c-.332.379-.691.734-1.062 1.078m-23.465-37.561c-.773.441-1.535.953-2.191 1.582-.66.621-1.273 1.316-1.789 2.07-1.055 1.5-1.797 3.199-2.383 4.922l-.773 2.602-.332 1.32-.145.672-.137.672a28.82 28.82 0 0 0-.418 5.469l.191 2.746.211 1.363.066.34.066.328.145.664c.383 1.77.887 3.539 1.625 5.219.727 1.684 1.676 3.277 2.863 4.668 1.188 1.383 2.602 2.574 4.188 3.422-1.402-1.117-2.641-2.402-3.629-3.852-1.004-1.445-1.781-3.016-2.379-4.652-.305-.824-.551-1.66-.773-2.508l-.566-2.57-.125-.652-.059-.328-.055-.32-.176-1.289-.164-2.605-.004-1.309.023-.652c0-.223.02-.437.039-.656.039-.875.152-1.742.266-2.602l.109-.648.117-.648.273-1.289.625-2.578c.461-1.691 1.047-3.352 1.898-4.875.406-.777.93-1.484 1.484-2.168l.434-.5.473-.469.234-.238.254-.215.512-.434" />
    </g>
    <path d="M604.941 539.281s.031 3.949-.695 5.965c-.727 2.008-2.215 3.844-2.215 3.844s7.414 3.883 7.969 3.641l2.98-1.25s-.07-.066.137-.344-.035-7.277.07-9.43-8.246-2.426-8.246-2.426" class="D" />
    <g class="H">
        <path d="M596.82 435.082c.641-.184 5.738.625 16.406-2.531 4.863-1.437 4.207-1.191 4.664-.094s4.023 12.984 4.844 20.578-1.098 25.063-1.098 25.063-1.734 18.387-1.645 21.766c.094 3.387-.73 24.516-1.004 28.355l-1.191 15.367s-7.223 1.004-10.055.363-3.746-1.277-3.746-1.277l.09-15.918-1.098-21.496c-.184-2.187-1.984-12.16-1.375-17.465.781-6.738-1.336-19.605-2.035-25.242l-2.441-21.77c0-.641-.316-5.699-.316-5.699" />
        <path d="M579.766 435.387s-1.461 7.133-1.187 12.801-.551 11.344-.914 13.719c-.367 2.383-1.461 17.563-1.645 23.328-.184 5.758-.094 16.371 1 18.383 1.102 2.012 9.148 10.52 10.883 12.07 1.734 1.559 13.531 17.105 14.078 17.563s4.023-.914 6.668-2.562c2.66-1.645 4.301-5.031 4.301-5.031s-9.051-14.539-12.613-18.473-7.023-9.027-7.496-9.695c-1.187-1.676 1.766-11.352 3.566-17.285 1.75-5.789 4.383-17.473 6.668-19.758s-2.191-25.52-2.191-25.52l-21.117.461" />
    </g>
    <path d="M612.684 525.391l-5.199-6.937-4.992-7.059-2.484-3.512-2.559-3.496-4.879-7.172 5.719 6.535 1.371 1.668 1.359 1.691.664.867.652.875 1.258 1.77 4.758 7.25 4.332 7.52" class="I" />
    <path d="M603.336 531.004s6.117 6.23 7.082 7.824l2.258 4.023c.063-.043 7.5-3.848 7.5-3.848l-1.949-6.09s-1.504-1.336-2.887-2.879c-1.391-1.547-3.582-5.195-3.582-5.195l-8.422 6.164" class="C" />
    <path d="M612.926 548.754c.09-.191.367-.172.426.031l.555 2.023c.527 2.027.926 6.348.895 7.176s-9.344 4.895-12.773 5.512c-5.828 1.043-11.023-.125-12.187-.586s-1.191-2.77-.664-3.898 4.883-3.223 5.781-3.52 7.164-6.574 7.898-8.07c.727-1.492 2.219-.629 2.484-.43s4.309 2.918 5.414 3.152c.961.207 1.566-.129 2.172-1.391" class="E" />
    <path d="M605.293 552.625a8.87 8.87 0 0 0-1-.918l-.543-.395-.277-.184-.285-.168c-.379-.223-.812-.316-1.172-.547-.367-.234-.746-.434-1.148-.777l.02-.094a2.42 2.42 0 0 1 .379-.082l.188-.02c.063-.004.125 0 .188 0l.375.031.359.094a1.65 1.65 0 0 1 .348.137c.105.055.211.117.313.191l.293.227.281.234.273.238.258.25a6.86 6.86 0 0 1 .473.539c.293.379.563.762.758 1.199l-.078.043m-1.749 1.049a7.86 7.86 0 0 0-.883-.777l-.477-.332c-.074-.059-.156-.105-.242-.156-.078-.051-.16-.098-.246-.141-.16-.094-.34-.156-.512-.219-.09-.043-.18-.066-.258-.105l-.238-.133c-.316-.211-.633-.391-.969-.723l.02-.09a1.2 1.2 0 0 1 .332-.094l.164-.031c.051-.004.113-.004.168-.004.109 0 .215.012.324.023s.215.043.32.07a1.43 1.43 0 0 1 .305.117 2.39 2.39 0 0 1 .27.168l.254.207.242.211c.086.063.156.137.234.207l.223.223c.148.148.281.313.41.477a5.2 5.2 0 0 1 .641 1.059l-.082.043m-1.453 1.449a6.72 6.72 0 0 0-.887-.777 4.91 4.91 0 0 0-.469-.332l-.238-.156-.25-.141c-.164-.094-.34-.156-.516-.223-.086-.035-.176-.059-.254-.102l-.242-.133c-.309-.211-.625-.391-.965-.727l.016-.09c.109-.047.215-.07.328-.09l.172-.027c.055-.008.109-.008.164-.008l.332.023c.109.016.211.043.316.07s.203.07.305.121c.094.047.184.098.27.164l.254.207.246.211c.078.063.156.137.23.207l.227.223a5.77 5.77 0 0 1 .402.477 4.94 4.94 0 0 1 .641 1.055l-.082.047m-1.449 1.446c-.266-.281-.574-.543-.883-.777l-.473-.328-.238-.152-.25-.145c-.16-.09-.34-.156-.516-.223l-.254-.102-.238-.137c-.312-.203-.629-.387-.969-.723l.016-.09c.113-.047.219-.066.332-.094l.168-.023c.055-.008.109-.004.164-.004a3.08 3.08 0 0 1 .332.02 2.35 2.35 0 0 1 .32.07 1.31 1.31 0 0 1 .301.121 1.75 1.75 0 0 1 .277.168l.246.203.238.207.242.215.223.215.406.477c.246.336.477.672.637 1.063l-.082.039m13.391-1.222l-5.625 2.898-2.902 1.273-1.492.566c-.5.18-1.027.336-1.57.453-1.07.219-2.137.297-3.203.336a33.53 33.53 0 0 1-3.187-.039l-3.16-.316-.785-.133-.781-.16a9.74 9.74 0 0 1-1.52-.461c1.039.195 2.082.262 3.129.305l.781.031.785.012.789.008.781-.004 3.121-.113 3.066-.363c.484-.105.973-.246 1.465-.414l1.469-.52 8.84-3.359" class="F" />
    <path d="M617.555 532.348c-.133-.273.086-.59.391-.551l3.813.605c1.41.332 3.641 1 4.043 2.07.66 1.742.426 5.355.516 7.523.098 2.164 1.125 6.227 1.359 8.77s-.359 6.344-1.957 9.777-2.16 3.629-3.008 3.77-2.414-.238-3.305-1.035c-.895-.805-1.223-5.98-1.223-7.578s-6.535-13.223-6.629-13.555 4.371-1.879 5.594-3.668c1.086-1.594 1.355-4.266.406-6.129" class="E" />
    <path d="M613.297 545.473c-.035-.266.027-.512.109-.734a2.59 2.59 0 0 1 .164-.324l.199-.293.25-.25a2.41 2.41 0 0 1 .277-.203l.609-.32a6.87 6.87 0 0 1 .613-.289c.203-.086.414-.152.621-.227l.637-.18.641-.129.031.086-.566.316-.547.328-.527.348-.5.371c-.16.121-.305.273-.445.418a2.06 2.06 0 0 1-.211.207l-.23.188-1.035.715-.09-.027m.984 1.924c-.035-.262.027-.508.113-.73a1.94 1.94 0 0 1 .164-.324c.059-.098.129-.195.199-.289.078-.094.156-.18.242-.254s.188-.137.285-.203l.605-.32a6.87 6.87 0 0 1 .613-.289c.199-.086.414-.152.621-.227l.637-.176.641-.133.031.086-.566.316-.551.328-.523.352-.5.367c-.16.121-.301.277-.441.418-.066.074-.137.145-.215.211a2.11 2.11 0 0 1-.227.184l-1.039.715-.09-.031m.993 1.929c-.039-.262.02-.508.109-.73.043-.117.102-.219.156-.328l.207-.285c.078-.094.156-.18.242-.254s.188-.137.281-.203l.609-.32a7.11 7.11 0 0 1 .609-.285l.621-.234.633-.176.652-.129.027.09-.566.313-.551.324-.523.352-.504.371c-.16.121-.293.277-.441.418a2.15 2.15 0 0 1-.211.211l-.227.184-1.043.719-.082-.035m.995 1.927c-.039-.266.023-.504.109-.734.039-.113.098-.215.156-.32a3.9 3.9 0 0 1 .203-.293c.078-.09.16-.172.246-.254a3.07 3.07 0 0 1 .281-.199l.609-.32c.195-.105.402-.195.609-.289l.625-.23.633-.176.645-.129.027.09-.562.309-.547.328-.531.352-.496.367c-.168.125-.305.281-.445.422l-.215.207a1.56 1.56 0 0 1-.23.184l-1.035.719-.082-.031m7.23-16.925l.145 3.609.371 3.574.605 3.555.473 3.621c.09 1.219.121 2.449.02 3.684a16.71 16.71 0 0 1-.73 3.621 20.34 20.34 0 0 1-1.391 3.391 15.24 15.24 0 0 1-.945 1.566c-.347.5-.723.984-1.16 1.402a7.92 7.92 0 0 0 .504-.75l.438-.781.754-1.633.32-.828.289-.848.492-1.719c.621-2.289.695-4.66.484-7.031l-.867-7.168-.109-1.824v-1.82c.039-1.211.113-2.426.309-3.621" class="F" />
    <g class="B">
        <path d="M583.066 374.465c-.723-.062-3.723.438-6.148 5.691-2.434 5.25-8.004 23.242-8.711 27.398s-.492 7.566 2.191 10.008c1.242 1.121 6.352 3.066 8.938-3.211 2.586-6.27 7.895-39.504 3.73-39.887m35.215 4.438s3.949.508 5.371 4.035c1.43 3.523 3.82 13.008 4.91 17.289s3.855 8.563 2.848 13.434-1.34 6.461-4.527 7.301-6.215-6.871-9.152-15.109c-2.559-7.191-1.125-24.18.551-26.949" />
        <path d="M602.363 438.652c7.805-1.012 15.672-3.766 16.02-5.395s-2.672-3.383-2.43-7.215c1.281-20.227 5.82-46.102 4.164-46.582-6.273-1.82-12.141-6.355-18.551-6.957-5.848-.543-8.195 1.246-12.141 1.48-3.953.23-6.676.074-7.375.73-1.867 1.75-3.246 13.93-2.344 25.758.438 5.695 2.793 16.227 2.121 25.652-.367 5.078-2.766 9.25-2.691 10.801.109 2.223 10.664 3.348 23.227 1.727" />
    </g>
    <path d="M608.336 351.5c-1.051 6.637-1.312 8.012-1.48 12.48-.234 6.238.105 7.773-.152 10.02-.258 2.332-2.941 3.816-6.422 3.492-2.426-.23-4.602-1.555-4.656-3.633-.086-3.41-.426-7.348-1.238-11.336-.902-4.43-1.223-7.324.145-9.484 2.598-4.086 14.258-4.441 13.805-1.539" class="D" />
    <path d="M590 347.746c-1.066 2.664-.805 4.23-.562 5.336.113.512.355 1.285.289 2.402-.043.648-.164 1.09-.238 1.398-.363 1.559-.277 2.977-.074 3.934.406 1.898 2.891 7.699 4.809 8.813.789.461 1.547.57 2.16.609 1.418.086 2.578-.273 3.289-.555 4.461-1.762 6.398-6.594 6.629-7.191.406-1.07.574-1.91.723-2.672.664-3.449 3.137-7.375.465-12.289-.773-1.43-5.16-6.926-13.215-4.059-1.895.676-3.441 2.199-4.273 4.273" class="C" />
    <g class="M">
        <path d="M602.195 341.941s-.125.027-.246.078c-.766.316-1.559 1.656-1.867 3.375-.152.844-.172 1.473-.094 2.281.355 3.836 5.008 4.293 6.191 8.039 1 3.16 2.227 1.563 2.668.34 1.891-5.254 2.672-9.418-4.613-13.762-.461-.273-1.496-.48-2.039-.352" />
        <path d="M600.664 341.391c-.77-.336-5.574-2.027-10.48 3.184-2.746 2.91-2.402 7.074-2.293 8.656.078 1.23.902 2.004 1.043 2.016.262.016-1.508-4.52 7.75-7.184 2.633-.758 3.566-2.527 3.777-2.738.723-.734 1.742-2.219 1.223-3.187-.211-.398-.605-.57-1.02-.746" />
    </g>
    <path d="M606.215 355.313c.223-.176 1.258-.98 2.094-.609.809.355 1.25 1.305 1.328 2.051.168 1.559-.539 3.926-1.961 4.988-.281.211-.844.621-1.5.504-.613-.117-.98-.641-1.117-.832-1.09-1.551-.652-4.687 1.156-6.102" class="C" />
    <path d="M598.352 365.227c.066-.098.012-.227-.102-.238-.48-.078-1.656-.227-3.008-.207a11.91 11.91 0 0 0-2.172.25c-.094.02-.145.121-.105.211.215.461.934 1.68 2.582 1.645 1.484-.035 2.465-1.187 2.805-1.66" class="O" />
    <path d="M592.855 354.547a1.93 1.93 0 0 0-.437-.73 2.84 2.84 0 0 0-.648-.535c-.492-.301-1.098-.344-1.66-.32l-.418.035-.207.027c-.07.012-.145.035-.223.051-.293.09-.543.238-.762.402-.437.34-.75.77-1.062 1.156l.059.078c.223-.141.418-.309.625-.453a4.37 4.37 0 0 1 .629-.367c.215-.098.438-.168.645-.184l.156-.008.176.008c.117 0 .234.016.344.031.117.008.23.047.336.07l.324.121.629.23.676.223.75.234.07-.07m10.772-.98c-.496-.418-1.078-.734-1.703-.969s-1.316-.34-2.012-.309l-.527.039-.531.082a2.49 2.49 0 0 0-.965.426c-.582.418-1.039 1-1.18 1.715l.094.082 1.703-.703.742-.344.383-.172.41-.129c.277-.055.563-.102.852-.105a4.82 4.82 0 0 1 .887.027c.598.059 1.199.227 1.777.465l.07-.105" class="B" />
    <path d="M601.207 356.66c-.012.164-.559.605-2.047.445-.66-.066-1.305-.305-1.273-.633.035-.32.523-.855 1.102-.887 1.008-.062 2.258.742 2.219 1.074" class="N" />
    <g class="B">
        <path d="M600.098 356.164c-.285-.898-1.867-.703-1.633.504.227 1.207 2.09.938 1.633-.504" />
        <path d="M597.711 356.707c.191-.164.367-.289.543-.359a1.44 1.44 0 0 1 .535-.09c.363.008.758.109 1.168.211l1.328.266c.234.023.484.035.742-.012a1.29 1.29 0 0 0 .371-.137.61.61 0 0 0 .258-.289.66.66 0 0 1-.328.047c-.098-.016-.191-.035-.289-.07-.195-.062-.383-.145-.586-.227-.402-.172-.816-.344-1.277-.457s-.973-.184-1.504-.031c-.262.078-.523.23-.687.445a1.15 1.15 0 0 0-.273.703" />
    </g>
    <path d="M592.445 356.855c-.016.148-.441.551-1.578.434-.504-.055-.723-.332-.687-.629.027-.281.133-.699.578-.738.773-.062 1.719.637 1.688.934" class="N" />
    <path fill="#1e1735" d="M591.527 356.477c-.238-.758-1.57-.594-1.375.422s1.758.789 1.375-.422" />
    <path d="M589.414 356.727l.477-.223c.152-.055.285-.082.41-.082.25-.004.492.074.785.191.285.113.602.254.973.34.191.039.395.063.609.023s.41-.164.496-.336c-.195.027-.344-.004-.477-.062s-.258-.137-.395-.219c-.273-.168-.559-.359-.914-.5a2.26 2.26 0 0 0-.586-.145c-.211-.016-.441.004-.648.09s-.379.23-.496.387c-.121.164-.199.344-.234.535" class="B" />
    <g class="D">
        <path d="M593.645 397.73s1.938-.602 2.379-.062.473.973-.52 2.117-1.613 1.223-1.613 1.223l-.246-3.277m-6.887 9.683s.254.887.254 1.441c0 .563.375 1.188-1.168 1.414s-3.117-3.746-3.141-3.922-1.547-3.141-.176-3.98c1.367-.832 3.922 3.781 4.23 5.047" />
        <path d="M585.535 409.879c-.051.148-4.289 4.305-5.387 5.23-1.488 1.254-4.336 1.992-6.984 2.145-2.637.148-4.223-2.254-4.324-4.094-.113-1.945 1.527-4.766 5.078-5.234 2.289-.301 3.238.297 6.133-1.449 1.93-1.168 2.242-1.746 2.242-1.746l3.242 5.148" />
    </g>
    <path d="M577.539 406.984c-.133-.297-.996-1.016-2.469-1.043-1.75-.031-4.152.039-6.008 2.316-1.316 1.625-1.406 4.207-1.195 5.371.352 1.898 1.465 4.539 4.223 5.109 2.473.512 4.422-.109 5.469-1.258.387-.422.648-.977.324-.754s-.656 1.008-1.523.672c-.898-.348-2.043-2.082-1.375-6.68.355-2.414 1.555-4.512 2.004-3.59.309.637.762.336.551-.145" class="B" />
    <path d="M607.012 424.465l14.852-34.348 8.41 3.281-13.855 31.688-9.406-.621" class="F" />
    <path d="M595.207 408.07l-7.887 1.996c-.199.047-.402-.062-.473-.254l-4.832-13.91 11.129-2.816 2.355 14.535a.4.4 0 0 1-.293.449" fill="#fbad9c" />
    <g class="F">
        <path d="M593.918 393.328l-12.465 3.156-.129-1.328c-.004-.086.051-.164.133-.184l11.738-2.969c.082-.023.164.016.199.098l.523 1.227" />
        <path d="M592.648 392.223l-10.609 2.684-.117-1.305c-.008-.102.055-.191.152-.215l9.82-2.484c.098-.027.199.023.238.113l.516 1.207" />
    </g>
    <g class="C">
        <path d="M582.078 403.43s-.746-1.492 1.52-1.953l5.488-1.363c1.109-.098 1.492.465 1.594.801.207.664-.23 1.074-.613 1.281-.391.207.539-.031.895.488.363.523.336 1.055-.535 1.621s-.027.281.406.742.391 1.184-.406 1.75l-4.008 1.375c-.793.207-.922.23-1.566.055s-.844-.699-.949-1.234c-.141-.73-.668-.668-1.055-1.258s-.359-1.305-.332-1.535-.184-.102-.437-.77" />
        <path d="M583.66 400.402l.906 2.762c-.047 0-.727.57-1.352-.035-.625-.598-1.914-2.008-2.043-2.668s.012-1.344.555-1.691c.578-.363 2.738-1.469 3.734-1.633.691-.113.965.027 1.129.184.035.039.129.148.168.246.102.23.207.762-.504 1.273-1.047.746-2.594 1.563-2.594 1.563" />
    </g>
    <path d="M589.527 402.391c-.387.32-.82.555-1.27.766a9.91 9.91 0 0 1-1.367.512 10.15 10.15 0 0 1-1.441.297c-.488.063-.98.094-1.473.059.453-.207.914-.355 1.371-.508l1.375-.418 2.805-.707m.172 2.346c-.328.281-.707.484-1.094.656a7.44 7.44 0 0 1-1.195.41c-.406.102-.824.172-1.242.211s-.84.043-1.27-.016c.391-.187.789-.316 1.184-.441l1.188-.328 1.195-.277 1.234-.215" class="D" />
    <path d="M601.848 482.109l-1.328-7.039-1.102-7.062-.387-3.562-.301-3.566-.277-7.168 1.352 7.039.523 3.539.461 3.539.801 7.105.258 7.176" class="I" />
    <path d="M607.32 425.148l15.352-35.426 8.406 3.281-14.355 32.766-9.402-.621" class="K" />
    <g class="C">
        <path d="M619.137 416.465c-.113-.039-1.195-.289-2.383.266s-2.039 1.141-2.852 1.281-1.465 0-2.199-.477-2.398-1.227-2.477-1.801.098-.676.238-.812-.273-.199-.414-.695-.02-.871.219-1.023c.266-.176.148-.285 0-.496-.359-.508-.281-1.312.238-1.492.457-.156.195-.316.133-.586-.062-.305.156-1.078 1.246-1.059.602.008 2.461.434 2.914.531.461.102 2.125-.59 2.953-.828.836-.238 1.508-.445 3.121 1.395 1.328 1.52 3.754 2.605 3.395 3.875s-2.477 2.555-4.133 1.922" />
        <path d="M619.996 410.965s-1.187-2.312-2.41-2.477c-1.105-.152-1.223-.066-2.047-.047s-1.914.059-2.676.258c-.617.152-1.43.453-1.062 1.121s.762.715 1.941.961 2.148-.211 2.758-.309c2.188-.336 3.496.492 3.496.492" />
    </g>
    <path d="M609.648 414.938c.324.074.629.18.93.301l.852.402.82.473.805.531c-.34.016-.668-.066-.977-.164a5.73 5.73 0 0 1-.887-.383 7.27 7.27 0 0 1-.816-.508 4.39 4.39 0 0 1-.727-.652m-.019-1.883c.387.086.746.215 1.105.352l1.043.457 1.008.531.98.605c-.395-.016-.777-.117-1.145-.234-.367-.125-.723-.27-1.066-.437l-1.004-.562c-.324-.211-.637-.437-.922-.711m.27-1.783c.41.059.797.164 1.18.281l1.125.395 1.086.469 1.078.535c-.414.016-.82-.062-1.211-.156s-.77-.227-1.145-.367a11.29 11.29 0 0 1-1.09-.504c-.348-.191-.695-.395-1.023-.652" class="D" />
    <path d="M621.113 412.652c.332-.203.598-.227.957-.078.352.148 1.145.309 2.324.461 1.797.23 3.98 1.063 4.527 2.18.926 1.887 1.109 3.34.395 4.48s-2.445 2.016-4.133 2.309-3.289.141-3.996-.391c-1.594-1.203-1.094-3.953-3.516-5.012-1.613-.699 1.891-3.008 3.441-3.949" class="C" />
    <path d="M432.223 150.273c-.852-3.453-6.605-8.066-11.43-8.871-4.734-.793-7.191-.109-11.254.324-14.309 1.535-28.156 15.02-43.227 15.465-.254.008-.672-.055-1.148.137-1.703.691-2.52 4.984-1.73 5.684a.71.71 0 0 0 .488.172c20.402-2.352 40 1.57 57.852-.816 5.133-.687 6.578-2.043 8.039-3.246 2.453-2.023 3.148-5.836 2.41-8.848" class="D" />
    <path d="M405.836 150.234c.957-.68 2.004-1.227 3.078-1.684s2.203-.812 3.344-1.086a21.28 21.28 0 0 1 3.473-.512c1.172-.066 2.348-.039 3.508.145l-3.414.602-3.352.695-3.309.859-3.328.98" />
    <path fill="#312553" d="M424.961 189.914c-5.184-11.348-10.855-36.289-12.887-40.68-1.969-4.266-3.164-5.625-4.016-6.437-2.594-2.469-5.543-3.27-8.844-4.02-8.398-1.91-13.113-1.668-23.664-3.219-1.469-.219-6.773-1.004-13.668-.805-3.711.109-4.93 1.07-6.027 1.859-4.695 3.359-2.922 11.473-2.414 13.02.402 1.238 2.039 5.27 6.43 7.066 1.742.711 4.379 1.125 9.645.648l9.199-.801c3.004-.223 15.164-1.191 18.035 2.082 1.465 1.672 1.461 4.277 1.613 6.289.805 10.793 9.277 19.25 15.75 27.73 3.859-.273 7.688-1.012 10.848-2.734" />
    <path d="M407.891 163.449c-4.559 0-9.113-.184-13.937-.375l-14.863-.395h-.672l-.031-.125c-.555-2.484-.707-5.148-.453-7.91l.008-.102.098-.035c3.813-1.477 7.629-3.414 11.324-5.293 6.578-3.344 13.383-6.809 20.156-7.535.828-.086 1.59-.187 2.324-.281 1.68-.219 3.133-.406 4.828-.406 1.316 0 2.676.117 4.148.363 4.734.789 10.68 5.414 11.563 8.996.684 2.793.211 6.805-2.465 9.012l-.184.148c-1.395 1.156-2.969 2.469-7.941 3.133-4.109.547-8.531.805-13.902.805" class="B" />
    <path d="M434.828 204.051c-.773-1.98-4.902-3.887-9.734-13.828-.012-.031-.02-.059-.035-.09-5.211-11.246-10.941-36.48-12.984-40.898-1.969-4.266-3.164-5.625-4.016-6.437-2.594-2.469-5.543-3.27-8.844-4.02-8.398-1.91-13.113-1.668-23.664-3.219-1.469-.219-6.773-1.004-13.668-.805-3.711.109-4.93 1.07-6.027 1.859-4.695 3.359-2.922 11.473-2.414 13.02.402 1.238 2.039 5.27 6.43 7.066 1.742.711 4.379 1.125 9.645.648l9.199-.801c3.004-.223 15.164-1.191 18.035 2.082 1.465 1.672 1.461 4.277 1.613 6.289 1.148 15.359 17.809 25.98 22.168 38.68 1.285 3.742 2.922 4.684 4.313 5.836 3.316 2.742 9.027 3.676 10.754 1.539 1.309-1.621.098-4.707-.77-6.922" class="C" />
    <path d="M420.23 203.145c-.719.129-2.305 6.895-.77 9.199.539.809 7.488 5.625 10.758 7.688a26.61 26.61 0 0 0 4.609 2.305c1.074.414 4.016 1.816 9.047 1.539 1.793-.102 4.586-1.027 6.316-2.164 1.094-.711 1.402-1.289 1.539-1.535.727-1.328-.508-3.566-.77-3.984-1.152-1.855-2.559-2.238-5.375-3.848-4.594-2.621-7.18-5.684-9.988-9.223-.781-.984-.395-1.609-1.078-1.996-1.141-.633-4.199 1.586-6.914 4.301-.77.77-1.859 1.598-3.531 1.082-2.586-.797-2.992-3.512-3.844-3.363" class="K" />
    <path d="M419.465 209.27l3.785 2.277 3.813 2.219 3.816 2.215 3.809 2.207.949.531a3.87 3.87 0 0 0 .461.227c.156.074.32.133.484.199.668.25 1.359.441 2.051.602a16.53 16.53 0 0 0 4.266.434c1.43-.051 2.859-.309 4.207-.824.172-.059.332-.133.504-.203l.488-.223.949-.535.914-.605c.301-.211.605-.426.855-.687-.449.582-1.031 1.059-1.613 1.52l-.918.645-.484.285-.504.254c-1.355.652-2.844 1.035-4.352 1.16-1.508.133-3.027.004-4.512-.289-.742-.152-1.469-.355-2.191-.613l-.535-.211a5.53 5.53 0 0 1-.531-.25l-.98-.543-3.805-2.266-3.738-2.359-3.672-2.473-3.516-2.691m12.39-.668c.461-.332.918-.594 1.367-.852l1.332-.758 1.309-.762c.438-.266.863-.52 1.297-.883-.023.289-.145.559-.285.813a3.9 3.9 0 0 1-.508.68c-.387.41-.832.754-1.316 1.023a5.96 5.96 0 0 1-1.539.617c-.539.129-1.094.188-1.656.121m1.64 1.642c.461-.332.914-.594 1.367-.855l1.332-.754 1.309-.762c.438-.266.863-.52 1.297-.879-.027.285-.148.555-.285.809a3.73 3.73 0 0 1-.508.676 5.39 5.39 0 0 1-1.32 1.027 5.98 5.98 0 0 1-1.535.613c-.539.133-1.094.195-1.656.125m1.636 1.641c.461-.336.918-.594 1.367-.855l1.332-.754 1.313-.762c.438-.266.863-.52 1.293-.887-.023.289-.145.563-.281.813a3.97 3.97 0 0 1-.512.68 5.37 5.37 0 0 1-1.316 1.027 5.95 5.95 0 0 1-1.539.613c-.539.129-1.094.191-1.656.125m1.639 1.636c.461-.332.914-.59 1.367-.852l1.332-.754 1.309-.762c.438-.27.863-.52 1.297-.887-.027.289-.148.559-.285.813a3.9 3.9 0 0 1-.508.68c-.387.414-.836.754-1.316 1.027a6.16 6.16 0 0 1-1.539.617c-.539.125-1.094.188-1.656.117" class="G" />
    <path d="M413.984 192.746l-3.512-4.441c-5.703-7.082-11.602-14.41-12.277-23.379l-.047-.703c-.121-1.898-.258-4.047-1.52-5.484-1.34-1.527-5.117-2.336-10.918-2.336-2.895 0-5.555.199-6.832.297l-.152.012-6.371.543-2.824.258c-1.496.137-2.855.203-4.039.203-2.426 0-4.23-.277-5.684-.867-4.48-1.828-6.125-5.945-6.523-7.164-.238-.723-.832-3.191-.75-5.887.102-3.348 1.215-5.879 3.219-7.312l.117-.086c1.113-.797 2.371-1.703 6.008-1.809.738-.023 1.496-.031 2.242-.031 5.734 0 10.004.625 11.406.832l.043.004c4.25.625 7.582.961 10.527 1.258 4.363.441 8.125.824 13.152 1.965 3.344.758 6.324 1.59 8.918 4.063.938.891 2.148 2.359 4.055 6.484.793 1.711 2.102 6.414 3.762 12.371 2.652 9.516 5.949 21.363 9.125 28.313l.063.141-.133.07c-2.801 1.527-6.371 2.43-10.914 2.75l-.086.008-.055-.07" class="M" />
    <path d="M360.676 151.883c-1.102.004-1.336.594-3.215.809-.656.07-.414.066-.953 0-.848-.113-1.566-1.121-3.461-1.258-4.574-.324-9.215 6.883-9.254 8.492-.059 2.621 2.117 3.645 4.02 4.02 2.57.512 4.656.152 5.629 0 7.309-1.129 11.168.332 12.059-1.605.391-.852-.066-1.754.805-3.219.438-.734.879-1.055.801-1.605-.082-.641-.738-.758-1.605-1.613-1.035-1.016-.719-1.461-1.605-2.41-.211-.223-1.516-1.621-3.219-1.609" class="K" />
    <path d="M357.461 154.297l-1.594.422a6.79 6.79 0 0 0-1.445.645 17.36 17.36 0 0 0-2.57 1.914c-.797.715-1.523 1.508-2.199 2.352l-.965 1.313-.875 1.398c.113-.547.313-1.078.531-1.59l.371-.758.426-.727a12.38 12.38 0 0 1 2.172-2.586c.844-.754 1.793-1.395 2.82-1.871.527-.25 1.09-.391 1.652-.473a8.6 8.6 0 0 1 1.676-.039m.973 4.652c.039.477-.043.938-.18 1.379s-.348.867-.609 1.25a4.71 4.71 0 0 1-.937 1.031c-.359.289-.762.535-1.215.672l.758-1.105.734-1.043.699-1.07.75-1.113m1.8-.001c.035.477-.047.938-.184 1.379a4.88 4.88 0 0 1-.609 1.25 4.81 4.81 0 0 1-.937 1.031c-.359.289-.762.535-1.219.672l.762-1.105.73-1.043.703-1.07.754-1.113m1.793-.001c.039.477-.039.938-.18 1.379a4.86 4.86 0 0 1-.609 1.25 4.71 4.71 0 0 1-.937 1.031c-.359.289-.762.535-1.215.672.246-.402.508-.754.758-1.105l.73-1.043.703-1.07.75-1.113m1.797-.001c.035.477-.043.938-.18 1.379a4.88 4.88 0 0 1-.609 1.25 4.71 4.71 0 0 1-.937 1.031c-.359.289-.762.535-1.215.672l.758-1.105.734-1.043.699-1.07.75-1.113" class="G" />
    <path d="M390.688 103.793c-.527-4.621.082-10.039 2.617-9.879.57.035 4.676 2.082 6.906 13.465 2.066 10.566 2.656 14.645-.488 17.484-2.57 2.328-6.766 2.98-9.246.98-3.832-3.098 1.563-10.297.211-22.051" class="I" />
    <path d="M358.641 111.629c-1.195-5.258-4.883-13.391-1.281-20.043 1.461-2.695 4.664-3.449 9.617-3.047 2.961.242 5.043-1.363 8.652-1.605 3.445-.23 5.941.629 12.34 3.531 11.617 5.27 1.844 5.578 6.887 16.836 4.086 9.098-11.613 14.027-5.766 26.453 2.215 4.707-4.98 3.961-13.984 4.645-13.18 1.004-17.984 5.379-22.152 1.848-1.969-1.664.273-7.285 2.559-12.371 2.133-4.75 4.797-8.93 3.129-16.246" class="G" />
    <path d="M384.102 83.684c-.758 2.309-1.598 5.008-.477 7.609.094.203 1.012 1.723 2.855 4.758 1.125 1.852 1.621 2.66 1.547 3.809-.102 1.469-1.031 1.703-1.07 2.973-.074 2.34 2.992 4.598 3.684 4.164.48-.301-.605-1.605 0-3.215.633-1.672 2.348-1.684 3.805-3.328.176-.199 1.711-2.121 1.664-4.641-.008-.383-.059-1.266-1.543-4.281-1.824-3.703-2.598-4.098-2.977-5.828-.48-2.23.277-4.008.711-5.352.594-1.797 2.32-2.797 2.125-4.684-.5-5.02-1.891-10.906-3.074-11.137-.918-.18-3.027 6.266-7.25 19.152" class="L" />
    <path d="M384.992 82.242c-.328 2.258-.879 5.117-2.668 7.902-.516.801-.906 1.238-1.496 1.492-1.863.801-4.633-.734-5.863-2.777-.832-1.371-.824-2.754-.746-4.48.336-7.449 2.355-11.172 4.086-12.168 2.609-1.496 5.48.125 7.008 3.094.539 1.043.25 3.008-.32 6.938" class="D" />
    <path d="M373.152 69.582c-.863-1.957-3.035-7.137 2.223-10.758 3.172-2.184 7.27-2.422 10.516-1.051 3.965 1.676 5.574 5.172 5.957 6.078 1.148 2.738 1.27 6.137.469 7.949-.117.266-.504.824-.469 1.637.234 5.492-3.711 11.477-4.203 12.039-.648.73-1.68.793-2.102.82-2.504.148-7.25-2.348-8.77-5.961-.918-2.203.145-2.574-.812-5.379-.922-2.687-1.348-2.07-2.809-5.375" class="C" />
    <g class="L">
        <path d="M380.18 71.309c-1.141 3.746-2.523 3.449-3.832 5.828-1.496 2.727-.27 5.102-1.277 8.09-.672 1.992-2.5 4.398-5.711 4.637-3.641.273-7.113-3.258-8.918-1.785-.43.355-.781 1.035-.949.953-.187-.094-.051-1.105.355-1.785 1.43-2.375 2.379-1.781 3.926-3.09 2.047-1.734 2.59-3.562 2.734-4.281.496-2.43-.594-3.215.117-5.711.66-2.301 2.637-2.711 2.734-6.066.238-7.973 5.828-13.562 14.863-12.133 2.992.473 4.305 1.574 5.828 2.855 2.598 2.188 3.359 7.133 3.445 9.039.238 5.234 1.781 4.875 1.543 7.848-.246 3.078-3.145 5.242-3.207 8.328-.121 5.473 5.473 5.234 5.703 10.945.289 6.898-5.703 6.898-5.824 10.824-.055 1.77 1.25 3.129.832 3.449-.336.258-3.211-1.785-3.328-3.809-.207-3.52 5.902-4.793 5.824-9.273-.117-6.902-7.605-8.602-1.875-18.918 2.113-3.805-.816-4.059-.52-6.789.496-4.512-2.477-4.629-3.191-7.957-.215-.996-.73-2.453-.672-.84.195 5.359-6.344 2.262-8.602 9.641" />
        <path d="M362.566 84.238l.836-.918a7.83 7.83 0 0 0 .707-.996c.422-.691.75-1.434.902-2.195.047-.187.066-.387.098-.582l.031-.578a7.01 7.01 0 0 0-.094-1.164l-.184-1.254a6.01 6.01 0 0 1 .031-1.375l.051-.336.07-.332.09-.328c.023-.113.07-.227.102-.332.156-.445.383-.879.641-1.25.25-.383.52-.723.77-1.039a6.63 6.63 0 0 0 .637-.937c.355-.621.535-1.316.594-2.066l.027-.285.023-.328.059-.645.195-1.289a14.95 14.95 0 0 1 .734-2.516c.324-.816.723-1.605 1.207-2.34.969-1.477 2.281-2.738 3.809-3.598 1.523-.875 3.242-1.352 4.949-1.457.848-.051 1.699-.027 2.535.066l1.246.207 1.215.305-1.242-.07c-.414-.027-.824-.016-1.238-.012-.82.027-1.629.102-2.422.254-1.59.289-3.109.863-4.41 1.738a10.61 10.61 0 0 0-3.203 3.348c-.406.664-.754 1.371-1.023 2.105-.277.734-.492 1.488-.645 2.266l-.184 1.168c-.031.199-.039.395-.059.594l-.031.297-.062.672-.066.344-.07.344-.098.336c-.027.113-.07.227-.113.336l-.133.332-.156.324c-.051.105-.117.203-.176.305-.242.402-.52.77-.801 1.094l-.758.922a4.38 4.38 0 0 0-.547.938l-.102.25-.082.273c-.031.09-.059.18-.078.27l-.066.273a4.77 4.77 0 0 0-.102 1.109l.07 1.219a7.21 7.21 0 0 1-.023 1.328l-.113.656-.172.637c-.586 1.68-1.781 3.012-3.176 3.914" />
    </g>
    <path d="M355.34 130.406c-.695-2.125 6.973-5.039 8.711-4.383 1.223.457 3.91 3.379 6.16 4.656 8.129 4.609 10.051 2.27 10.824 5.914.723 3.402-2.379 4.016-13.684 1.098-1.566-.402-11.109-4.543-12.012-7.285" class="C" />
    <path d="M365.047 104.254c-1.016-5.281-2.891-16.465-6.969-13.711-2.965 2.008-10.258 15.875-8.574 24.773.098 1.785.535 3.703-.48 5.934-.398.883-1.312 2.176-1.437 3.688-.16 1.875.719 3.344 1.602 4.813 1.195 1.992 2.449 4.09 4.805 4.648 2.43.574 4.863-.117 4.809-.48-.043-.297-1.75-.582-2.082-1.285-.32-.672 1.016-1.496 2.563-3.848 1.461-2.227 1.918-2.559 2.723-3.367 1.527-1.523 3.688-.16 4.168-.16.594 0 .082-1.531 0-1.762-.504-1.43-2.059-1.316-2.723-2.566-.176-.332-.371-.902.16-3.047.605-2.445.727-5.051 1.121-6.094.75-1.973 1.031-3.828.316-7.535" class="G" />
    <path d="M351.75 132.473l.297-2.062.188-1.023.051-.25.063-.266.086-.277.094-.266c.289-.699.699-1.305 1.145-1.867s.938-1.078 1.449-1.562a19.04 19.04 0 0 1 1.617-1.355l.867-.609.934-.547.137-.066a1.09 1.09 0 0 1 .152-.059l.273-.086.547-.117a9.91 9.91 0 0 1 1.063-.09c.707-.012 1.398.008 2.094.086l-2.012.492-.965.273-.445.172c-.07.027-.141.066-.207.098-.039.02-.059.035-.082.051l-.094.059c-.52.359-1.055.793-1.566 1.223l-1.508 1.336-1.41 1.418c-.434.488-.855 1-1.164 1.547-.078.133-.152.27-.207.41-.035.066-.062.145-.094.227l-.094.238-.375.965-.832 1.91m14.853-7.206c0-.352-.109-.68-.223-1.008s-.246-.637-.453-.887c-.406-.523-1.008-.82-1.605-1.23-.301-.207-.598-.453-.84-.766l-.164-.25-.074-.117-.074-.145c-.098-.227-.125-.457-.133-.652-.016-.402.039-.762.098-1.117l.195-1.051.434-2.031.391-2.035.563-4.078.094-2.027a11.88 11.88 0 0 0-.16-1.98l-.758-4.09-.918-4.047c-.355-1.336-.758-2.664-1.348-3.93.82 1.145 1.391 2.445 1.898 3.754a41.7 41.7 0 0 1 1.262 4.016l.957 4.086c.297 1.453.262 2.91.148 4.32a38.21 38.21 0 0 1-.648 4.188l-1.02 4.082-.258.988a6.86 6.86 0 0 0-.156.953c-.008.148 0 .273.031.375l.039.094.051.105c.031.066.07.133.109.195.156.258.383.484.637.703l.801.672c.273.234.535.508.719.832.191.324.285.684.352 1.023.059.348.125.707.055 1.055" class="I" />
    <path d="M389.48 58.5c.445.324.867.688 1.223 1.117.371.414.68.875.977 1.348l.414.727.363.75.328.77.297.785.258.793.219.813a13.57 13.57 0 0 1 .332 1.66c.152 1.066.332 2.117.672 3.094a9.26 9.26 0 0 0 .609 1.426l.18.367.191.391.168.426.082.219.063.23c.047.152.07.305.102.457s.043.309.055.461l.023.23.008.223-.004.453-.031.465c-.012.152-.047.305-.07.453l-.039.227-.055.219-.117.438c-.18.566-.41 1.102-.652 1.613l-.734 1.48-.633 1.422c-.051.117-.078.234-.113.352s-.078.234-.098.352l-.086.355-.043.348c-.023.117-.02.23-.027.348.004.117-.012.23 0 .355l.023.363.047.359c.078.473.215.934.414 1.363s.461.832.777 1.219.68.742 1.066 1.109c.77.73 1.656 1.441 2.391 2.391.367.473.688 1 .918 1.57s.367 1.168.422 1.766l.031.445v.43a3.92 3.92 0 0 1-.012.43l-.023.434a8.66 8.66 0 0 1-.316 1.715 7.39 7.39 0 0 1-.676 1.613c-.289.504-.629.969-1.008 1.395-.754.852-1.625 1.531-2.391 2.281-.383.375-.734.781-.992 1.246s-.406.992-.437 1.543c-.059-.547.027-1.113.227-1.641.215-.527.535-1 .887-1.434s.73-.836 1.094-1.238l1.023-1.234c.629-.848 1.086-1.781 1.297-2.785.102-.496.168-1.012.176-1.523.008-.129 0-.258 0-.391l-.012-.387-.027-.387c-.008-.129-.027-.25-.043-.375-.137-.984-.551-1.859-1.191-2.621s-1.48-1.418-2.324-2.164c-.418-.375-.836-.777-1.227-1.23-.383-.453-.738-.965-1-1.523a6.53 6.53 0 0 1-.555-1.766l-.062-.453-.031-.453c-.016-.148 0-.312 0-.469l.027-.469.066-.461.105-.449c.027-.152.078-.293.125-.434l.145-.426.164-.414.172-.395.371-.766.75-1.445a12.51 12.51 0 0 0 .605-1.414l.105-.352.055-.18.035-.176c.016-.117.051-.234.066-.355l.031-.352c.02-.492.016-.988-.086-1.43-.102-.453-.312-.898-.539-1.41-.234-.512-.445-1.066-.598-1.621l-.062-.211-.047-.211-.098-.418-.141-.84-.102-.84-.07-.832a15.84 15.84 0 0 0-.199-1.578c-.035-.266-.098-.523-.145-.789l-.187-.785c-.258-1.043-.594-2.07-1.051-3.047-.23-.48-.477-.965-.789-1.41-.285-.461-.648-.859-1.035-1.254" class="L" />
    <path d="M383.207 81.516c-.055-.094.008-.207.117-.219.461-.027 1.598-.074 2.879.059.879.086 1.699.313 2.043.418.09.027.129.133.082.215-.238.422-1.027 1.516-2.594 1.34-1.414-.152-2.242-1.336-2.527-1.812" class="O" />
    <path d="M389.344 71.559c.098-.262.266-.48.457-.664a2.56 2.56 0 0 1 .656-.473c.484-.262 1.066-.262 1.598-.207l.395.059.199.039.207.063a2.29 2.29 0 0 1 .699.43c.398.352.668.781.945 1.168l-.059.07c-.211-.148-.387-.32-.57-.469a3.38 3.38 0 0 0-.586-.391 1.78 1.78 0 0 0-.598-.215l-.148-.016-.168-.004c-.109-.012-.219 0-.328.008s-.219.031-.32.051c-.109.027-.211.051-.316.094l-.617.184-.656.168-.727.176-.062-.07m-10.204-1.599c.496-.367 1.066-.633 1.676-.82a5.02 5.02 0 0 1 1.938-.168l.5.07.5.105a2.49 2.49 0 0 1 .895.469c.527.438.93 1.016 1.02 1.707l-.094.074-1.582-.777-.687-.371-.352-.187-.383-.145a3.94 3.94 0 0 0-.805-.156c-.277-.039-.562-.043-.848-.027a6.13 6.13 0 0 0-1.723.336l-.055-.109" class="B" />
    <path d="M381.254 73.059c.012.156.504.613 1.93.555.637-.027 1.262-.215 1.246-.535-.012-.301-.441-.84-.988-.91-.957-.117-2.203.57-2.187.891" class="N" />
    <g class="B">
        <path d="M382.344 72.656c.328-.84 1.82-.555 1.523.574-.293 1.137-2.051.77-1.523-.574" />
        <path d="M384.586 73.316c-.168-.164-.332-.297-.5-.375s-.332-.109-.508-.121c-.34-.016-.723.059-1.121.133l-1.277.172c-.227.008-.465 0-.707-.062a1.11 1.11 0 0 1-.352-.148.59.59 0 0 1-.223-.289.72.72 0 0 0 .305.063 1.21 1.21 0 0 0 .285-.047c.184-.047.379-.117.57-.184.391-.137.797-.277 1.246-.355.441-.078.938-.117 1.434.063.246.09.48.25.633.465a1.19 1.19 0 0 1 .215.688" />
    </g>
    <path d="M389.59 73.781c.008.145.391.559 1.477.508.484-.02.707-.27.699-.555-.012-.27-.094-.672-.508-.738-.734-.109-1.68.5-1.668.785" class="N" />
    <g class="B">
        <path d="M390.488 73.477c.277-.707 1.531-.469 1.289.488-.25.953-1.734.648-1.289-.488" />
        <path d="M392.488 73.844c-.164-.09-.297-.184-.441-.238-.137-.062-.266-.094-.383-.105-.238-.02-.477.043-.758.133s-.594.207-.953.27c-.184.02-.379.031-.574-.016-.203-.055-.383-.18-.457-.352.184.039.328.016.465-.031.125-.043.254-.113.379-.184.27-.145.555-.312.902-.422.172-.055.367-.098.566-.102.207-.004.422.035.613.129.199.094.348.238.453.398a1.23 1.23 0 0 1 .188.52" />
    </g>
    <path d="M430.215 206.965a15.8 15.8 0 0 1 1.367-.852l1.336-.754 1.309-.762c.438-.27.863-.523 1.297-.887-.027.289-.148.559-.285.813a3.92 3.92 0 0 1-.512.68 5.49 5.49 0 0 1-1.316 1.027 6.25 6.25 0 0 1-1.539.617c-.535.125-1.094.188-1.656.117" class="G" />
    <g class="C">
        <path d="M372.895 133.793c.695-.664 1.68-.613 2.281-.527 3.695.531 4.496.52 5.648.09.594-.223 2.449-1.035 3.477-.957 2.207.16 10.797 4.031 10.879 5.078 0 0 .066.836-.281.984-.133.051-.133.047-.145.055-.199.156.211.492-.102.855-.125.148-.324.188-.656.223-.68.066-1.211-.125-1.691-.035-.355.059-.402.203-.816.398 0 0-.418.332-1.332.277-.258-.016-.547.012-2.445-.992-1.941-1.031-5.199-1.621-5.187-1.453s3.637 1.066 4.531 1.672c.086.063.238.273.207.492-.043.32-.312.344-.648.398-.957.16-3.254-.477-5.648-.918-.758-.137-2.051-.262-3.738-.211-6.094.176-7.539-2.367-4.332-5.43" />
        <path d="M392.125 139.477a.24.24 0 0 0 .188-.105.25.25 0 0 0-.066-.344 17.24 17.24 0 0 0-2.332-1.355c-1.516-.746-3.699-1.484-5.262-1.973-.133-.039-.27.031-.309.164s.031.266.16.309c1.547.48 3.703 1.211 5.191 1.941a15.96 15.96 0 0 1 2.273 1.324c.051.031.105.047.156.039m1.81-.704c.066-.008.129-.035.176-.09.082-.109.07-.266-.039-.348a16.37 16.37 0 0 0-2.219-1.539c-1.453-.867-3.57-1.773-5.09-2.383-.125-.051-.27.012-.32.137s.012.27.137.32c1.504.605 3.598 1.5 5.023 2.348a16.17 16.17 0 0 1 2.16 1.5c.051.039.113.059.172.055" />
    </g>
    <path d="M364.059 140.707h41.738v-1.969h-40.801c-.289 0-1.281 1.32-1.281 1.32-.219.258-.031.641.336.648" class="E" />
    <path d="M388.691 140.48h33.059c1.398 0 2.621-.93 3-2.27l7.809-27.77a1.45 1.45 0 0 0-1.395-1.84h-33.437c-1.406 0-2.645.941-3.023 2.293l-7.695 27.367a1.75 1.75 0 0 0 1.684 2.219" class="B" />
    <path d="M388.695 140.707h33.18c1.379 0 2.59-.918 2.961-2.246l7.758-27.598a1.02 1.02 0 0 0-.98-1.297h-33.176c-1.379 0-2.59.918-2.965 2.246l-7.758 27.598a1.02 1.02 0 0 0 .98 1.297" class="E" />
    <path d="M223.445 396.551c6.551-1.727 6.926-1.625 11.383-2.551 3.414-.707 9.941-1.918 13.793-4.133 1.246-.719 4.438-2.309 7.449-2.734 4.035-.57 5.164.332 7.313-.066.227-.043 1.957-.543 1.68.965-.09.508-.609.801-.922.902-2.051.664-4 .41-5.449.48-.18.004-.562.188 1.367.289 3.934.203 7.461.086 7.781-.012 1.016-.324.805-.27 1.336-.598.215-.141.984-.836 1.793-1.039.828-.207 1.91.484 1.219 1.242-1.223 1.348-2.48 2.859-5.059 3.984-.871.379-1.102.406-1.855 1.055-.516.445-1.016.84-1.523.969-3.035.758-10.852-.012-12.699-.102-2.656-.129-3.816 1.121-9.086 4.141-2.926 1.684-5.012 2.996-9.523 5.32-7.27 3.734-10.145 3.957-11.316 3.996-1.68.063-4.805-.219-5.816-2.281-.988-2.004-1.113-5.07 1.785-7.07 1.711-1.176 3.137-1.91 6.352-2.758" class="D" />
    <g class="H">
        <path d="M224.242 397.523s-4.211-2.437-13.262-8.781-14.703-13.172-19.164-14.578.066 21.734 4.063 25.109c6.16 5.207 21.891 10.113 24.23 9.914 9.738-.82 6.844-10.68 4.133-11.664" />
        <path d="M219.453 409.023c.695.074 1.301.074 1.688.059 1.328-.047 3.656-.367 8.516-2.598l.57-.258-.461-.43c-2.875-2.699-3.664-6.992-3.469-9.848l.039-.578-.562.141-2.437.633c-3.27.859-4.746 1.625-6.48 2.816-3.121 2.156-2.988 5.445-1.926 7.605.848 1.727 2.93 2.289 4.523 2.457" />
    </g>
    <path d="M229.008 549.32c-1.242-2.98-2.484-6.848-3.496-11.016l-11.02 2.625c2.551 4.809 5.207 9.797 5.383 12.707.293 4.785-.996 6.184.047 7.793s15.711-4.582 14.324-6.371c-1.395-1.789-2.91-.129-5.238-5.738" class="D" />
    <path d="M196.945 559.156c-1.441-1.168-3.504-2.41-3.793-7.773-.109-2.047-.266-5.832-.168-10.434l-11.59 2.258c1.781 6.602 3.344 12.504 2.723 17.375-.52 4.082 7.344 4.484 10.504 3.98s4.246-3.844 2.324-5.406" class="C" />
    <path d="M219.5 552.152c.516.039-.297 1.285.887 2.512.934.969 2.168 1.16 2.543 1.215 1.363.195 2.414-.277 2.832-.477 1.297-.602 2.148-1.621 3.203-2.895 1.047-1.254 1.422-2.012 1.965-1.93.457.066.648.664.969 1.242.559 1.008 1.477 1.633 3.313 2.887.664.457 5.754 4.016 11.004 3.691 2.414-.148 2.156 2.523 2.148 2.59-.051.504-.293 1.426-1.742 2.559-2.07 1.625-4.496 2.027-6.266 2.219-1.508.16-2.727.184-9.781-.242l-7.059-.504c-.297.02-2.094-.199-5.687-.633-.27-.031-.918-.117-1.273-.605-.184-.258-.242-.562-.23-1.152.02-1.086.246-1.719.375-2.426.176-.957-.023-.941.063-2.316.023-.363.164-1.621.984-3.703.371-.934 1.352-2.055 1.754-2.031" class="H" />
    <path d="M247.063 560.168c-.926.828-2.059 1.434-3.246 1.844-1.191.402-2.437.613-3.684.742-.629.066-1.258.09-1.883.09a74.13 74.13 0 0 1-1.867-.027l-3.719-.172-3.715-.238-3.707-.324-.93-.102-.465-.055-.102-.016c-.012 0-.023 0-.035-.004l-.055.004c-.102 0-.18-.008-.262-.02l-1.852-.25-3.672-.621 3.715.262 1.844.133a1.68 1.68 0 0 0 .199 0l.066-.004c.023 0 .051-.004.078 0 .055 0 .094.008.133.012l.457.035.926.059 7.414.406 3.707.207 3.68.063c1.219-.078 2.445-.215 3.625-.523s2.324-.797 3.348-1.5m-14.897-3.54a4.94 4.94 0 0 1 .23-.961l.195-.465.246-.445.273-.441a1.2 1.2 0 0 1 .375-.355c.297-.184.645-.301 1.051-.238l.051.082c-.141.383-.309.633-.488.867-.172.238-.457.352-.672.559s-.422.426-.617.664c-.207.234-.379.496-.555.766l-.09-.031m2.036 1.103c.039-.324.129-.648.234-.965a4.25 4.25 0 0 1 .438-.906l.277-.441c.09-.148.223-.262.371-.355a1.56 1.56 0 0 1 1.055-.238l.047.082a3.08 3.08 0 0 1-.488.867 1.45 1.45 0 0 1-.32.293c-.121.078-.242.164-.355.266s-.211.211-.312.324a5.26 5.26 0 0 0-.305.34c-.203.234-.375.496-.547.766l-.094-.031m2.038 1.104a4.63 4.63 0 0 1 .227-.965 4.56 4.56 0 0 1 .445-.906l.273-.441c.094-.148.223-.266.371-.359.297-.184.648-.293 1.051-.234l.051.078a2.98 2.98 0 0 1-.488.867 1.63 1.63 0 0 1-.316.297c-.125.078-.246.164-.359.266l-.312.316-.305.348c-.199.23-.375.492-.547.762l-.09-.027m2.034 1.099c.031-.324.121-.645.227-.961.117-.312.262-.621.445-.906l.27-.445c.098-.148.227-.262.371-.355a1.57 1.57 0 0 1 1.055-.238l.047.082c-.133.387-.305.633-.484.867a1.24 1.24 0 0 1-.316.289c-.125.086-.246.172-.355.273l-.316.316-.301.344c-.203.234-.379.496-.555.766l-.086-.031" class="F" />
    <path d="M196.844 571.523l.883.031c1.574.027 2.891.012 5.477-.441l4.035-.879.258-.062c.293-.059.594-.125.84-.387 1.016-1.074-.293-3.555-.516-3.871-.297-.414-.695-.773-.711-.785-.742-.664-1.492-.922-1.777-1.02l-.039-.016c-.66-.23-1.066-.605-2.785-2.195l-1.137-1.047-3.629-3.266-2.211-1.645c-.41-.273-1.496-.676-3.402-.195-1.543.383-2.305 1.578-3.227 2.387l-1.273 1.203c-.477.473-.652.652-1.121.801a2.15 2.15 0 0 1-.832.117c-.242-.012-.477-.059-.75-.117-.281-.062-.602-.129-.992-.164 0 0-.047-.012-.109.027-.055.039-.078.09-.078.09-.133.355-.301.719-.461 1.066-.203.426-.332.621-.453.809-.102.152-.207.313-.344.59-.012.027-1.051 2.805-.039 4.508.324.547.82.738 2.141 1.25l.586.23 1.418.566c1.641.664 2.543 1.027 4.816 1.57 1.121.266 2.996.719 5.434.844" class="H" />
    <path d="M200.508 561.27c.141-.035.117-.238-.027-.242a6.1 6.1 0 0 0-.844.039c-.512.055-1.016.168-1.504.336s-.957.383-1.395.652a6.17 6.17 0 0 0-.695.488c-.109.094-.004.266.125.211l.762-.32 1.379-.52 1.41-.434.789-.211m-1.477-1.64c.141-.039.113-.242-.027-.246a7.61 7.61 0 0 0-.844.039 7.05 7.05 0 0 0-1.504.34 7.1 7.1 0 0 0-1.398.648 6.58 6.58 0 0 0-.695.492c-.109.09-.004.266.129.207l.762-.32 1.379-.516 1.406-.434.793-.211m-1.88-1.468c.137-.035.113-.238-.027-.242a6.13 6.13 0 0 0-.848.039 6.88 6.88 0 0 0-1.5.336 6.9 6.9 0 0 0-1.398.652 6.48 6.48 0 0 0-.691.488c-.113.094-.008.266.121.211l.766-.32 1.375-.52 1.41-.434.793-.211m-1.684-1.46c.137-.035.113-.238-.031-.238a6.1 6.1 0 0 0-.844.035 6.89 6.89 0 0 0-1.5.34 7 7 0 0 0-1.398.648 7.35 7.35 0 0 0-.691.492c-.113.09-.008.266.121.207l.762-.32 1.379-.516 1.41-.434.793-.215m11.053 8.81c-.992 0-1.977.156-2.949.344l-1.453.336-1.426.41c-.465.133-.93.238-1.402.313l-1.445.168-1.445.066c-.242.004-.48-.016-.723-.031l-.719-.051c-1.922-.191-3.824-.668-5.703-1.215l-5.594-1.895c1.73.965 3.547 1.762 5.418 2.43l.703.242.711.227.719.207.723.195.73.164a8 8 0 0 0 .734.145l.742.125.75.094c.246.031.5.031.754.047l.758.02 1.504-.09 1.492-.223c.496-.09.988-.238 1.461-.402l1.395-.492 1.398-.449c.941-.281 1.891-.527 2.867-.684" class="F" />
    <g class="M">
        <path d="M216.594 550.547c-2.02-4.426-4.457-13.332-5.906-17.289l-.613-1.676c-1.699-4.625-1.094-9.91-2.539-14.473-6.418-20.262-6.66-31.508-6.656-31.926l11.543-39.941.629.027 10.012 58.816c.629 3.207.57 5.625.516 8.977-.113 6.789 5.914 34.734 5.914 34.734l-.215.137c-3.867 2.414-10.16 2.75-12.383 2.801l-.211.004-.09-.191" />
        <path d="M186.668 553.547l-3.992-.203-.238-.02-.051-.23-1.465-7.34c-1.379-6.234-2.937-13.301-3.641-20.727-.719-7.574.941-14.727 2.406-19.055.625-1.852 1.215-3.602 1.617-5.473 1.348-6.328 2.086-32.984-2.09-44.496-4.23-11.648 1.797-23.059 1.855-23.168l.027-.047.039-.035c2.324-2.152 9.254-2.836 14.965-2.766 7.273.094 16.188 1.348 16.355 4.113.477 7.859.988 11.348.715 15.934-.305 5.156-6.859 32.246-10.773 45.27l-4.914 17.059-1.309 4.27c-3.113 10.848-2.035 27.707-1.629 33.957l.117 1.953.016.27-.262.063c-2.102.484-4.711.715-7.75.672" />
    </g>
    <path d="M212.465 452.121l.02 1.41-.094 1.41-.152 1.406-.18 1.406-.977 5.555-.273 1.383-.305 1.375-.617 2.746-1.344 5.465c-.93 3.633-1.945 7.242-3.004 10.836s-2.176 7.172-3.406 10.727c.594-3.711 1.379-7.383 2.219-11.035l2.672-10.922 1.422-5.43 1.449-5.422.359-1.355.355-1.359c.246-.898.469-1.805.695-2.711.449-1.816.922-3.625 1.16-5.484" class="B" />
    <path d="M204.598 450.621c.359.469 5.91 4.445 7.148 5.66 1.234 1.207 1.43 1.559 2.035 3.629s1.34 5.512.715 6.195c-.555.605-1.465.559-1.641.203s-.168.234-.586.555-1.219.551-1.758.137c-.359-.273.027.047-.617.387-.754.398-1.605.242-1.914-.137s-.238.426-1.273.613c-.535.098-1.258-.883-1.598-2.016s-1.562-2.715-2.293-3.664-1.617-2.887-2.125-4.297-1.5-4.68-.086-6.25c1.414-1.562 3.152-2.117 3.992-1.016" class="C" />
    <path d="M176.285 372.43c4.027-7.152 6.43-9.219 8.918-10.301 3.828-1.676 10.797 1.672 12.609 3.27 1.809 1.605 7.383 5.719 11.141 11.504 3.766 5.785 3.832 12.477 3.832 14.773s-.418 3.695.141 7.457.762 10.039 1.316 15.891-.879 21.605-1.016 22.652-20.113 2.629-27.883.555c-5.57-1.484-5.043-1.652-6.184-1.812-.918-.125 1.523-7.449 2.281-10.871 1.395-6.305-6.559-27.562-7.523-34.844-.441-3.332-2.027-10.461 2.367-18.273" class="H" />
    <path d="M212.785 389.719l.32 5.75.359 2.852.375 2.859.641 5.746.391 5.785.043 5.801-.27 5.785-.523 5.762-.375 2.867-.223 1.43-.125.711-.07.355-.043.176-.023.086c-.004.016-.012.031-.016.043 0 .004-.012.027-.016.012.004.035.016-.035.016-.055l.012-.09.016-.18.023-.359.035-.723.063-1.437.098-2.883.152-5.762.055-5.75-.113-5.738-.316-5.738-.426-5.742-.363-5.773c-.039-1.949.156-3.871.305-5.789" class="I" />
    <path d="M206.348 463c.281.258.492.559.684.867.184.313.34.637.461.977s.219.695.266 1.063.051.742-.059 1.113l-.465-.973-.383-.969-.316-1.004c-.09-.344-.164-.691-.187-1.074m2.628-.922c.281.316.492.668.68 1.027a7.55 7.55 0 0 1 .449 1.129c.117.387.207.785.246 1.195s.043.828-.062 1.242l-.461-1.121-.379-1.117-.301-1.148c-.082-.387-.152-.785-.172-1.207m2.421-.996c.305.324.531.688.727 1.066a6.78 6.78 0 0 1 .473 1.188 6.03 6.03 0 0 1 .23 1.262 3.74 3.74 0 0 1-.109 1.297l-.418-1.195-.363-1.168-.316-1.195a10.48 10.48 0 0 1-.223-1.254m-24.352-119.489s1.164 6.211 1.281 10.777c.129 5.031-1.781 7.992-3.406 9.852s9.996 11.102 13.969 6.688c1.254-1.391-2.707-5.59 5.113-13.488 4.086-4.133-1.961-13.055-2.582-13.52s-14.375-.309-14.375-.309" class="D" />
    <path d="M195.68 347.395c.582-.176.68 7.547 2.938 9.426 2.262 1.887 6.086 3.34 8.816 3.34 1.5 0 1.168-1.418 1.605-2.734.789-2.367 1.387-5.141 1.453-6.324a.56.56 0 0 1 .367-.5c.602-.227 1.879-.527 1.773-1.48-.125-1.113-3.449-4.766-3.449-5.523s.434-1.957.508-2.863-1.207-6.5-4.82-8.816c-2.762-1.773-6.477-2.562-10.246-2.187s-7.383 1.328-8.812 3.469c-3.766 5.633-1.734 11.934.453 13.215s6.93 1.73 9.414.98" class="C" />
    <path d="M206.246 332.633s.043-.094.063-.258c.027-.277-.016-.762-.484-1.328-.738-.902-5.66-3.645-10.203-3.168s-8.559.848-10.461 3.387-1.32 3.012-1.48 3.383-.687 0-1.27 1.004-2.641 4.176-.262 9.465 5.07 5.02 5.125 7.082 1.863 1.809 3.273.422c2.914-2.859 1.566-6.117 2.77-6.715 2.039-1.004 2.473 1.004 5.063-.895 1.566-1.152-1.523-3.473 2.094-7.055 2.547-2.516-.043-5.16-.625-6.008s6.191-.98 6.398.684" class="B" />
    <path d="M197.496 347.77s-.406-2.922-1.805-3.605c-1.273-.621-2.312-.219-3.004.766s-.852 3.172.848 5.027 2.539 2.168 3.574 1.855.387-4.043.387-4.043m-12.457 68.066c2.242-1.207 6.344-1.543 8.785 4.234s3.906 14.246 6.184 19.941 4.391 10.098 6.75 13.434-.887 6.852-3.406 5.141-10.34-10.922-14.742-19.141c-3.586-6.703-11.543-19.289-3.57-23.609" class="C" />
    <path d="M195.328 423.387l-1.207-3.277-.363-.789c-1.09-2.203-1.43-4.695-1.086-7.129.902-6.32 1.043-16.367.422-25.086-.816-11.395-4.168-13.945-9.766-13.754-6.23.211-8.75 6.336-8.867 12.371-.121 6.391 4.547 31.355 5.203 34.082.949 3.91 1.742 5.863 2.781 8.109.137.297.266.598.379.906l.352-.34c1.957-1.891 5.816-5.055 9.629-5.055.734 0 1.445.125 2.109.363l.621.223-.207-.625" class="H" />
    <path d="M194.121 420.273l-1.004-1.848a10.63 10.63 0 0 1-.687-2.012c-.324-1.387-.402-2.848-.234-4.27l.324-4.117.207-4.137.129-4.145.094-4.148.145-8.328c.461 2.75.715 5.527.859 8.313l.121 4.18-.066 4.18-.277 4.18-.543 4.16c-.242 1.328-.305 2.676-.141 4.027.07.668.215 1.34.402 1.996.09.332.199.656.324.98l.348.988m-19.661-34.389l.129 1.344.176 1.332.398 2.66.891 5.305 1.848 10.598 1.809 10.609c.578 3.516 1.418 6.996 2.734 10.348a29.98 29.98 0 0 1-2.246-4.926c-.301-.855-.566-1.719-.82-2.586-.129-.434-.238-.879-.348-1.324l-.305-1.312c-.41-1.758-.75-3.523-1.109-5.281l-.98-5.305-.855-5.324-.715-5.352-.293-2.687-.234-2.687-.074-1.352c-.023-.449-.055-.898-.055-1.352l-.016-1.352.066-1.355" class="I" />
    <g class="B">
        <path d="M208.828 341.438a2.83 2.83 0 0 1-.902-.105c-.297-.086-.547-.25-.781-.406l-.348-.223c-.125-.074-.215-.125-.328-.168a2.85 2.85 0 0 0-1.473-.195 2.7 2.7 0 0 0-.742.223 2.93 2.93 0 0 0-.668.445l-.07-.066c.082-.113.172-.227.27-.328a3.29 3.29 0 0 1 .324-.289c.234-.172.5-.312.785-.41s.582-.145.887-.152a2.91 2.91 0 0 1 .91.102c.148.035.309.098.434.141l.398.137.738.258.695.316c.242.121.172.699-.129.723m-3.488 2.067c.301-.109.582-.184.852-.258l.789-.227.773-.258.824-.305a1.85 1.85 0 0 1-.578.738 2.43 2.43 0 0 1-.832.438 2.76 2.76 0 0 1-.926.109c-.312-.016-.621-.086-.902-.238" />
        <path d="M208.113 343.559c0 .387-.258.691-.578.691s-.574-.305-.574-.691.258-.687.574-.687.578.305.578.688" />
    </g>
    <path d="M210.184 353.133c-.301.109-.695.234-1.262.23-.887 0-1.633-.305-1.77-.043-.027.055-.043.137.02.23.648.965 1.691 1.488 2.523 1.66l.488-2.078" class="O" />
    <path fill="#1e1735" d="M597.121 149.402L388.875 357.758" />
    <g class="B">
        <path d="M385.566 361.066c-1.832-1.828-1.832-4.793 0-6.621L593.813 146.09c1.824-1.828 4.789-1.828 6.613 0a4.68 4.68 0 0 1 0 6.625L392.18 361.066c-1.824 1.832-4.789 1.832-6.613 0" />
        <path d="M544.559 201.809l1.035-37.184 55.344-55.371-.75 36.898-55.629 55.656m.175.18l37.168-1.039 55.344-55.371-36.879.75-55.633 55.66" />
    </g>
</svg>