<svg xmlns="http://www.w3.org/2000/svg" viewBox="0 0 720 585.75"
    xmlns:v="https://vecta.io/nano">
    <style><![CDATA[.B{fill:#00373e}.C{fill:#fff}.D{fill:#a55b35}.E{fill:#c46c3f}.F{fill:#1f525e}.G{fill:#d66730}.H{fill:#f79556}.I{fill:#a7d8d1}.J{fill:#e6e6e6}.K{clip-rule:nonzero}]]></style>
    <defs>
        <clipPath id="A">
            <path d="M24 0h633v538.828H24zm0 0" class="K"/>
        </clipPath>
        <clipPath id="B">
            <path d="M427 45h292.844v235H427zm0 0" class="K"/>
        </clipPath>
    </defs>
    <g clip-path="url(#A)">
        <path d="M593.32 379.832H490.684V185.984H593.32zm-110.777 0H379.91V185.984h102.633zm-110.777 0H269.133V185.984h102.633zm271.176-203.02c-12.871-35.527-29.965-64.195-49.621-87.27v88.293H490.684V18.391a277.96 277.96 0 0 0-8.141-2.906v162.352H379.91V-.934a396.08 396.08 0 0 0-8.145.074v178.695H269.133V17.516C25.504 93.418-40.906 334.559 90.117 479.781c9.488 10.52 21.109 20.656 33.723 28.691 120.16 76.531 207.773-15.23 235.895-19.816 44.16-7.215 69.863-1.152 95.176-4.109 169.793-19.816 233.027-183.512 188.031-307.734" fill="#f8f6f5"/>
    </g>
    <g class="F">
        <path d="M363.348 291.176c7.387-12.254 14.066-24.859 19.203-38.035 5.109-13.172 8.715-26.887 10.082-40.855a127.06 127.06 0 0 0 .629-10.496c.086-3.504.012-7.012-.191-10.52-.184-3.504-.539-7-.965-10.504l-1.48-10.582-.34-2.641-.41-2.59-.5-2.582-.262-1.281-.297-1.281c-.785-3.418-1.809-6.781-3.051-10.078-2.437-6.617-5.836-12.887-9.805-18.848 4.805 5.313 8.832 11.387 11.949 17.941a80 80 0 0 1 3.906 10.172l.402 1.309.355 1.316c.238.879.441 1.766.652 2.656l.57 2.676.484 2.652 1.023 5.242.934 5.328c.586 3.566 1.012 7.172 1.309 10.793s.402 7.254.383 10.895c-.047 3.637-.242 7.273-.598 10.887-1.434 14.492-5.465 28.645-11.395 41.801-1.492 3.293-3.047 6.555-4.754 9.73s-3.496 6.289-5.387 9.352c-3.801 6.105-7.93 11.988-12.449 17.543"/>
        <path d="M340.66 112.23c-3.031-.937-6.273-2.676-9.535-3.039-28.359-3.152-57.164 13.617-71.324 47.66-10.5 25.23-16.098 30.168-31.867 41.164-24.359 16.992-68.895 33.109-61.492 91.484 10.574 83.371 145.93 60.359 193.293-2.953 40.723-54.441 33.844-111.773 32.75-121.215-1.195-10.277-4.672-24.355-15.172-38.609-5.586-7.586-15.543-15.094-23.691-15.234-9.836-.168-9.922 1.676-12.961.742"/>
    </g>
    <path d="M424.988 326.789a6.2 6.2 0 0 0 .602-7.312c-4.035-6.539-12.68-20.066-21.738-31.059-4.426-5.363-40.164-51.961-89.309-52.438-60.055-.578-92.617 16.066-113.879 53.855-10.867 19.844-26.461 29.293-36.859 49.137-6.945 13.262-7.922 23.285-8.5 26.453-3.937 21.508-1.309 32.09 0 40.152 1.531 9.477 8.02 41.066 34.02 66.609 52.02 51.109 162.98 27.941 180.977-14.645.977-2.309 3.574-12.238 6.613-31.652 6.145-39.207 10.398-55.742 10.398-55.742l37.676-43.359" fill="#f2c72d"/>
    <path d="M53.383 426.598c9.809 18.566 22.121 36.277 36.988 52.75 9.488 10.52 21.109 20.66 33.727 28.691 120.156 76.531 207.77-15.223 235.891-19.812 44.16-7.219 69.863-1.156 95.172-4.109 54.516-6.359 98.047-27.559 130.535-57.52H53.383" fill="#f8ab9a"/>
    <path d="M332.766 113.059c-5.008-.602-10.047-.645-14.98-.016s-9.766 1.832-14.328 3.684c-9.184 3.586-17.277 9.504-23.937 16.637-.812.914-1.66 1.793-2.43 2.746l-1.176 1.406-1.129 1.449c-.762.953-1.453 1.961-2.187 2.941-.68 1.016-1.395 2.008-2.043 3.051-.656 1.031-1.316 2.063-1.922 3.129l-.918 1.594-.883 1.609-1.801 3.324c-.59 1.121-1.215 2.23-1.844 3.348-2.512 4.445-5.238 8.836-8.496 12.984-1.672 2.043-3.461 4.027-5.441 5.828a57.06 57.06 0 0 1-6.27 4.898c-2.184 1.445-4.398 2.797-6.617 4.047-1.105.645-2.215 1.246-3.328 1.867l-3.398 1.816c-4.57 2.336-9.152 4.441-13.668 6.594-4.523 2.148-8.961 4.383-13.246 6.832l-1.598.926-1.578.957c-1.062.629-2.066 1.328-3.105 1.992-1.027.672-2.008 1.395-3.016 2.09l-2.914 2.238c-.93.789-1.898 1.535-2.785 2.371l-1.363 1.223c-.453.41-.863.859-1.301 1.285s-.875.852-1.289 1.293l-1.223 1.359c-.844.883-1.582 1.848-2.363 2.789a56.35 56.35 0 0 0-7.543 12.563c-2.008 4.496-3.398 9.285-4.355 14.172l-.199.922c-.055.309-.094.617-.145.926l-.293 1.848-.277 1.855-.191 1.867c-.332 2.496-.395 5.008-.566 7.531-.156-2.516-.336-5.039-.285-7.574l.004-1.902c.023-.633.074-1.266.105-1.898l.117-1.902.063-.953.113-.945c.512-5.07 1.609-10.113 3.324-14.973 1.746-4.855 4.168-9.492 7.145-13.75 2.984-4.254 6.547-8.102 10.445-11.52 3.891-3.437 8.148-6.398 12.523-9.09 4.375-2.703 8.906-5.082 13.43-7.355l13.449-6.73 3.25-1.762 3.25-1.848c2.168-1.23 4.242-2.52 6.262-3.859 2.008-1.34 3.879-2.797 5.641-4.367s3.348-3.348 4.891-5.176c3.023-3.727 5.664-7.895 8.199-12.156l1.875-3.23 1.867-3.277.969-1.68c.324-.559.684-1.098 1.02-1.648.676-1.102 1.402-2.172 2.133-3.246 2.906-4.281 6.266-8.262 9.926-11.93l1.41-1.34.707-.668.727-.641 1.469-1.277 1.512-1.227c2.027-1.605 4.125-3.137 6.348-4.477 1.082-.707 2.23-1.316 3.352-1.957 1.152-.594 2.289-1.203 3.469-1.738 2.344-1.094 4.742-2.055 7.207-2.82s4.961-1.402 7.492-1.828 5.082-.754 7.637-.805c2.555-.074 5.105-.008 7.633.25 2.523.293 5.027.719 7.473 1.324" class="F"/>
    <path fill="#ec7d40" d="M329.77 277.109c-3.074 9.078-6.375 9.941-8.781 10.324-10.344 1.648-27.293-.086-34.828-7.152-3.793-3.547-2.852-15.133-.992-33.449 3.688-36.34 5.715-52.707 11.609-54.539 8.848-2.742 20.813 12.195 27.266 20.27 7.672 9.574 15.574 35.441 5.727 64.547"/>
    <path d="M216.727 316.293c-25.039 4.727-20.789 20.313-46.301 41.098-11.734 9.555-22.699 22.988-24.57 26.453-1.789 3.309-5.727 10.816-5.199 20.793 1.199 22.762 19.656 35.352 20.789 35.902 8.125 3.922 20.375 3.418 26.461 3.777 5.691.332 14.172.746 24.098-2.836 10.188-3.672 33.164-25.574 36.387-34.484 5.918-16.359.703-22.59 7.086-37.32 3.938-9.07 4.027-14.293 3.777-25.039-.469-20.785-27.137-31.246-42.527-28.344m138.924 94.953c-2.629-2.031-12.121-6.012-13.23-8.5-1.789-4.02-.074-8.781 1.891-12.285 2.09-3.734 6.902-14.426 14.176-16.535 1.992-.578 14.246-3.082 15.441-3.18 4.637-.363 8.895-3.195 9.641-6.219.793-3.211 2.203-7.254 3.742-11.859 1.105-3.316 30.559-34.531 37.328-32.121 5.184 1.84 25.52 29.285 32.609 68.496 1.77 9.816 20.691 31.23-4.73 44.879-25.516 13.703-64.637 7.164-72.77 5.668-2.555-.465-8.348-1.531-12.758-6.141-6.965-7.281-3.473-16.125-11.34-22.203" fill="#f2c72d"/>
    <path d="M259.25 479.641l170.168-26.875a17.79 17.79 0 0 1 10.715 1.645l77.422 36.137c2.164 1.078.762 9.957-1.613 10.391l-176.648 33.797c-4.371.793-8.879-.082-12.637-2.441l-67.406-42.375c-1.965-1.234-2.293-9.914 0-10.277" class="B"/>
    <path d="M260.191 479.172l169.227-26.875c3.652-.586 7.398-.008 10.715 1.641l76.48 36.133c2.164 1.078 1.703 4.293-.672 4.727l-176.648 33.801c-4.371.789-8.879-.086-12.637-2.445l-67.406-42.375c-1.965-1.23-1.348-4.242.941-4.605" class="C"/>
    <path d="M329.645 276.848c9.703-26.926 2.508-55.078-4.977-65.02-10.77-14.293-24.965-20.301-26.223-18.863-12.383 14.066-4.664 43.129-.492 51.449 5.328 10.621 13.887 27.676 31.691 32.434" class="G"/>
    <path d="M375.773 202.52c-3.094 15.48-18.129 59.937-39.758 61.094-.812.039-7.324.672-11.187-.52-4.863-1.504-20.656-9.18-29.836-41.297-.781-2.73-1.852-9.531-2.187-12.684-.023-.23-.352-.266-.426-.047 0 0-1.059 3.176-2.434 3.629-1.52.512-3.437-1.195-4.133-1.832-7.051-6.512-8.941-15.449-8.723-20.109.832-17.363 10.563-8.969 11.02-9.984.395-.875-3.621-13.777-5.508-16.793-4.187-6.684 3.281-18.352 5.051-21.105 10.336-16.148 27.82-21.336 30.289-22.031 5.453-1.527 24.199-7.328 38.559 3.215 29.371 21.57 22.805 60.836 19.273 78.465" class="H"/>
    <g class="F">
        <path d="M331.852 112.836c20.18 4.215 25.684 27.855 23.27 37.57-3.484 14.008-37.113 43.477-69.164 29.594-16.758-7.254-12.883-31.59-9.32-37.645 9.027-15.352 22.656-22.18 26.719-24.148 7.852-3.801 17.262-7.723 28.496-5.371"/>
        <path d="M355.973 149.684c3.223 15.199 18.586 36.48 24.324 34.418 5.566-2.004 8.07-18.332 1.832-35.336-1.336-3.641-9.305-26.461-30.75-32.578-12.559-3.582-27.797-.887-28.91 4.125-1.453 6.512 28.602 6.281 33.504 29.371"/>
    </g>
    <path d="M264.711 261.992c-.324-3.848-1.578-26.488-3.621-28.074-.285-.223-2.945-2.484-4.527-.902-3.852 3.848-3.301 11.227-2.719 14.488.262 1.48-2.035 7.059.23 14.758.18.613-5.043-10.766-8.754-17.848-3.312-6.309-6.191-13.437-8.234-18.195l-5.891-14.035c-.844-2.801-4.125-6.941-7.699-7.242-.465-.039-1.391-.195-2.262.902-1.344 1.699.68 5.047 2.262 8.605 2.277 5.109 1.188 4.723 4.078 15.398 2.625 9.68 6.473 16.738 6.344 16.793-.18.066-7.023-12.945-11.324-25.855 0 0-1.184-6.07-5.891-14.031-.336-.566-4.301-6.566-7.699-4.531-1.246.75.359 3.969 2.266 9.961l3.625 11.324c-.18.047-2.031-4.902-5.891-9.512-3.207-3.828-5.316-3.699-5.887-3.621-.266.031-1.254.168-1.812.906-1.238 1.641.621 4.969 1.363 6.336 4.234 7.867.543 5.422 9.504 24.453l3.688 7.703c.105.227-.203.406-.344.211-1.93-2.687-6.707-10.094-9.68-15.613-1.586-2.941-4.578-3.402-5.891-2.266-.535.473-.492 1.371-.453 1.813.73 8.063 7.699 18.117 7.699 18.117 4.797 6.906 7.477 12.812 9.059 16.301 3.875 8.52 3.965 10.348 9.512 22.578.723 1.594 2.043 4.34 1.465 6.617-.77 3.004-1.723 9.094-3.5 15.402-1.902 6.75-2.402 8.332-1.812 10.871.953 4.117 3.707 6.875 4.98 7.691 12.68 8.152 21.836-2.32 24.457-11.32.215-.734.934-3.223 2.266-6.336 1.359-3.168 2.844-8.863 4-9.855 3.797-3.258 7.461-7.672 8.02-11.727.91-6.586.449-13.98-.926-30.266" class="H"/>
    <g class="G">
        <path d="M225.93 249.938c-3.734-6.539-6.641-14.168-10.828-26.262"/>
        <path d="M225.93 249.938c-1.512-1.867-2.766-3.926-3.898-6.031-1.121-2.117-2.09-4.301-2.961-6.516l-2.305-6.758-1.664-6.957c1.148 2.105 2.117 4.277 3.063 6.453l2.668 6.57 2.547 6.594 2.551 6.645"/>
    </g>
    <path d="M157.266 462.73l-.051-5.121a.78.78 0 0 0-.785-.773h-41.387c-.949 0-1.859.371-2.531 1.039l-29.891 27.777a.95.95 0 0 0-.305.68l-.023 5.32c0 .785.637 1.422 1.426 1.422h45.434a3.6 3.6 0 0 0 2.652-1.16l24.398-26.418a4 4 0 0 0 1.063-2.766" class="B"/>
    <path d="M156.797 459.059a1.33 1.33 0 0 0-.977-2.223h-40.875c-.937 0-1.84.367-2.508 1.027l-29.637 27.395c-.871.824-.281 2.285.914 2.285h45.215c.996 0 1.949-.418 2.629-1.152l25.238-27.332" class="F"/>
    <path d="M249.414 484.598c-.137 6.5-19.125 11.383-42.422 10.91s-42.082-6.129-41.945-12.633c.133-6.496 19.125-11.383 42.422-10.902 23.297.469 42.078 6.125 41.945 12.625" class="C"/>
    <path d="M206.98 495.508c-23.047-.469-41.66-6.008-41.941-12.418-.004.074-.012.141-.012.211-.133 6.5 10.926 16.219 41.855 16.844 30.238.617 42.379-8.629 42.512-15.125 0-.07-.004-.141-.004-.207-.539 6.391-19.367 11.16-42.41 10.695" class="D"/>
    <path d="M236.676 458.355c.098-4.676-12.793-8.734-28.793-9.059-15.777-.32-28.676 3.105-29.117 7.691-.012.016-.023.035-.023.051-.723 14.832 7.039 28.578 11.223 32.039 2.625 2.168 9.086 4.047 17.137 4.211 8.348.168 14.57-1.262 16.844-3.344.094-.051.18-.105.258-.168 4.273-3.273 12.523-16.527 12.449-31.234.012-.062.023-.125.023-.187" class="E"/>
    <path d="M183.387 479.305c-5.199-2.488-11.191-7.164-11.379-13.371-.02-.422-.059-3.199 1.16-5.184-.723.051-1.379.227-1.914.527-2.758 1.578-2.687 6.145-2.668 6.695.234 7.504 8.938 12.766 14.473 14.641.977.332 1.777.598 2.457.746-.723-1.219-1.445-2.574-2.129-4.055" fill="#f8f6f5"/>
    <path d="M178.703 459.012a14.51 14.51 0 0 0-1.281-.094c-3.16-.113-5.797 1.754-6.168 2.359 2.547-1.031 5.742-.121 7.582 1.172l-.133-3.437" class="D"/>
    <path d="M234.977 457.938c-.082 4.188-12.34 7.34-27.363 7.035-15.031-.309-27.141-3.953-27.055-8.148s12.34-7.344 27.363-7.035 27.141 3.953 27.055 8.148" fill="#fccc44"/>
    <path d="M183.031 460.078c4.324-2.547 13.852-4.187 24.891-3.965 10.926.227 20.301 2.215 24.582 4.895 1.559-.918 2.449-1.961 2.473-3.07.086-4.195-12.031-7.84-27.055-8.148s-27.277 2.844-27.363 7.035c-.023 1.145.871 2.25 2.473 3.254" class="C"/>
    <path d="M174.188 461.277c-.82 0-1.566.152-2.121.473-2.473 1.41-2.418 5.719-2.398 6.207.234 7.488 9.324 12.523 14.105 14.145l1.16.383c-1.953-3.551-5.289-10.773-6.074-19.758a8.64 8.64 0 0 0-4.672-1.449zm12.973 22.879l-1.219-.266c-.695-.156-1.48-.414-2.516-.766-5.02-1.699-14.59-7.051-14.84-15.137-.027-.902-.02-5.488 2.941-7.18 2.039-1.168 5.699-.637 8.172 1.18l.203.148.016.246c.816 10.008 4.891 17.809 6.602 20.699l.641 1.074" class="D"/>
    <path fill="#d65b5b" d="M324.707 240.949c-.227-.449.098-.98.605-.977a86.25 86.25 0 0 1 13.336 1.152c4.047.684 7.805 1.988 9.359 2.57a.68.68 0 0 1 .313 1.016c-1.254 1.879-5.246 6.723-12.461 5.43-6.48-1.16-9.98-6.883-11.152-9.191"/>
    <path d="M360.004 194.152c.59-1.41 1.52-2.574 2.574-3.57 1.063-1.016 2.289-1.84 3.613-2.488 2.676-1.336 5.836-1.273 8.719-.914l2.16.363 1.059.246 1.125.359c1.457.59 2.695 1.457 3.762 2.418 2.113 1.957 3.539 4.32 5.008 6.453l-.348.367c-1.117-.832-2.039-1.77-3.051-2.605-.996-.836-2.031-1.598-3.105-2.191-1.055-.613-2.16-1.055-3.238-1.234l-.812-.113-.902-.043c-.602-.059-1.199-.008-1.797.012-.594.012-1.18.141-1.758.23l-1.711.477-3.387.91-3.59.836-4 .875-.32-.387m-50.368-12.548c2.496-1.645 5.34-2.754 8.332-3.488 3-.699 6.211-.801 9.383-.262.805.109 1.582.324 2.391.465l2.371.66c1.559.531 3.012 1.391 4.223 2.5 2.395 2.238 4.18 5.16 4.434 8.512l-.488.316-7.395-4.172-3.242-1.98-1.648-1.016-1.781-.797c-1.234-.426-2.52-.805-3.848-.984-1.324-.254-2.691-.359-4.07-.367-2.785-.07-5.621.371-8.414 1.133l-.246-.52" class="B"/>
    <path d="M316.949 197.219c-.086.77 1.973 3.32 8.891 4.066 3.07.332 6.23-.105 6.391-1.641.164-1.473-1.512-4.383-4.109-5.105-4.527-1.266-11.004 1.145-11.172 2.68" class="J"/>
    <g class="B">
        <path d="M322.707 195.898c1.852-4.453 9.828-2.762 8.117 3.277-1.711 6.047-11.082 3.871-8.117-3.277"/>
        <path d="M333.73 200.176c-1.023-1.734-2.465-2.789-4.035-3.492-.766-.355-1.66-.641-2.422-.832-.762-.156-1.562-.203-2.41-.133-1.695.121-3.512.559-5.414.895-1.895.316-3.957.617-5.934.125l5.328-2.219c1.785-.719 3.68-1.41 5.832-1.559 1.074-.07 2.211.02 3.305.379 1.066.387 1.957.852 2.84 1.496.855.637 1.59 1.453 2.137 2.363.52.93.844 1.961.773 2.977"/>
    </g>
    <path d="M362.434 204.219c-.062.816 1.637 3.438 7.34 3.887 2.531.199 4.867-.461 5.258-2.059.703-2.895-1.27-4.586-3.406-5.227-3.734-1.121-9.059 1.754-9.191 3.398" class="J"/>
    <g class="B">
        <path d="M366.066 202.988c1.582-4.141 8.965-2.789 7.551 2.805-1.426 5.609-10.098 3.848-7.551-2.805"/>
        <path d="M377.078 205.973c-1.191-1.453-2.617-2.187-4.098-2.656-.723-.227-1.57-.387-2.254-.484a8.2 8.2 0 0 0-2.141.117c-1.5.258-3.113.805-4.84 1.25-1.719.434-3.625.844-5.496.477l4.605-2.699c1.559-.855 3.234-1.68 5.23-2.02.992-.164 2.074-.184 3.141.055 1.043.277 1.902.633 2.777 1.168 1.691 1.035 3.09 2.871 3.074 4.793"/>
    </g>
    <path d="M129.707 372.066c0 2.563-14.98 4.641-33.453 4.641s-33.449-2.078-33.449-4.641c0-2.57 14.98-4.648 33.449-4.648s33.453 2.078 33.453 4.648" class="D"/>
    <path d="M87.309 362.012c2.203-2.289 3.094-5.602-2.73-14.926-11.711-18.746-38.211-10.176-41.863-.051-.777 2.152 1.77-.168 3.188 1.703 7.559 9.977 35.707 19.164 41.406 13.273" class="I"/>
    <path d="M52.969 149.66c2.258-1.254.082 1.258 16.539 3.309 27.043 3.375 47.762 41.867 46.063 70.586-.367 6.109-1.473 24.809-14.348 33.094-1.605 1.031-7.609 5.262-14.617 3.859-70.949-14.168-49.617-93.539-35.305-105.172 3.848-3.125-.508-4.465 1.668-5.676" fill="#42b2a3"/>
    <path d="M106.32 338.438c-9.805-1.598-9.176-24.355-1.34-39.953 0 0 14.117-30.824 54.52-23.602 2.625.473 3.867-.285 3.543.375-1.672 3.395.844 6.813-3.875 17.293-3.324 7.375-24.211 50.559-52.848 45.887" class="I"/>
    <path d="M106.465 266.023c6.223 3.73 20.961-11.012 45.781-35.844 0 0 11.438-11.445 25.93-33.367 6.047-9.152 5.793-12.41 5.793-12.41-3.395-4.816-29.863 5.656-49.922 21.508-9.117 7.207-23.66 19.027-28.41 38.879-.937 3.926-4.336 18.133.828 21.234M83.68 279.105c-4.992 3.039-10.824-4.676-41.215-24.824-16.609-11.004-29.508-18.406-37.812-34.645-4.023-7.859-3.383-10.598-2.492-11.75 2.969-3.855 29.777-2.508 47.527 6.582 7.672 3.918 25.828 13.211 33.617 33.461 3.891 10.121 6.84 27.246.375 31.176" fill="#cafff2"/>
    <path d="M92.84 270.914c-1.941-10.473-4.176-20.898-6.766-31.238s-5.57-20.59-8.895-30.727-7.016-20.156-11.039-30.051-8.367-19.672-13.039-29.281c4.938 9.48 9.551 19.137 13.871 28.926a464.43 464.43 0 0 1 11.93 29.82c3.621 10.074 6.918 20.285 9.813 30.605 2.906 10.324 5.453 20.746 7.707 31.234l-3.582.711" class="I"/>
    <path d="M95.109 348.051c3.949-6.887 8.105-13.656 12.57-20.219l3.406-4.887 3.547-4.781c.289-.398.598-.785.906-1.176l.926-1.168 1.848-2.34c.598-.785 1.25-1.535 1.891-2.293l1.918-2.273c5.176-6.012 10.727-11.711 16.719-16.895 6-5.176 12.434-9.836 19.211-13.891-6.648 4.27-12.902 9.125-18.703 14.457-5.793 5.348-11.121 11.18-16.055 17.301l-1.836 2.316-1.801 2.332-1.754 2.379-.875 1.184a26.62 26.62 0 0 0-.863 1.199l-3.359 4.844-3.219 4.945c-4.215 6.645-8.117 13.48-11.809 20.426l-2.668-1.461m-3.336-63.523c5.781-8.516 11.273-17.293 16.996-25.922s11.668-17.145 18.133-25.254a220.48 220.48 0 0 1 4.953-6c1.676-1.977 3.398-3.914 5.152-5.824l1.32-1.426 1.352-1.406c.887-.941 1.82-1.84 2.738-2.766 1.867-1.797 3.75-3.574 5.691-5.293 3.867-3.445 7.891-6.711 12.02-9.84 4.125-3.109 8.371-6.082 12.75-8.824-4.312 2.848-8.473 5.922-12.523 9.129-4.035 3.219-7.969 6.57-11.73 10.098-7.594 6.992-14.281 14.887-20.523 23.09-6.23 8.215-11.926 16.816-17.41 25.555l-16.379 26.367-2.539-1.684m-.821 10.422c-1.434-4.777-3.453-9.43-5.828-13.91-2.359-4.492-5.023-8.836-7.895-13.047-5.742-8.414-12.277-16.32-19.367-23.684-7.098-7.355-14.773-14.191-23.027-20.254-8.254-6.051-17.09-11.383-26.516-15.465 9.527 3.848 18.52 8.973 26.957 14.848 8.449 5.883 16.332 12.566 23.668 19.801 7.324 7.242 14.117 15.055 20.156 23.449 3.012 4.199 5.836 8.551 8.371 13.086s4.75 9.273 6.398 14.293l-2.918.883m5.368 74.11c-1.25-1.703-2.742-3.309-4.348-4.809s-3.309-2.922-5.078-4.27c-3.547-2.68-7.344-5.066-11.293-7.164s-8.07-3.898-12.336-5.289-8.684-2.383-13.191-2.684c4.516.051 9.023.793 13.402 1.949 4.395 1.168 8.672 2.754 12.805 4.66s8.133 4.121 11.934 6.672c1.902 1.277 3.754 2.648 5.527 4.133s3.465 3.094 4.996 4.949l-2.418 1.852m-80.769-99.562c.066-3.383 40.242-14.867 69.457 31.219 6.961 10.973 6.176 29.609 2.332 28.059-15.254-6.164-51.5-19.07-67.664-56.187-1.879-4.32-4.168-1.301-4.125-3.09" fill="#42b2a3"/>
    <g class="I">
        <path d="M97.375 257.379l-.582 8.691-.715 8.59-.699 8.563-.887 8.543c-1.25 14.934.68 31.535 1.16 34.406a161.32 161.32 0 0 1 .664 4.305c.191 1.445.352 2.898.492 4.348l.758 8.68c.461 5.785.77 11.582.813 17.379.055 5.801-.066 11.602-.352 17.398l-.258 4.352-.344 4.348c-.117 1.445-.285 2.891-.426 4.34l-.562 4.34-.488-.008c-.363-2.898-.625-5.785-.891-8.672l-.707-8.652-1.074-17.285c-.305-5.766-.445-11.531-.566-17.293l-.25-8.637-.141-4.312-.07-4.332-.09-8.703-.293-8.707c-.121-2.898-.32-5.797-.539-8.707-.234-2.906-.48-5.828-.582-8.754-.23-5.852.453-11.691 1.457-17.449 1.043-5.746 2.484-11.434 4.699-16.875l.473.105"/>
        <path d="M93.668 342.023c-1.156-3.887-2.789-7.695-4.676-11.371-1.887-3.684-4-7.27-6.273-10.754-4.551-6.973-9.711-13.566-15.332-19.75a157.97 157.97 0 0 0-8.789-8.934 137.24 137.24 0 0 0-9.539-8.141c-6.605-5.125-13.734-9.648-21.434-13.008 7.801 3.125 15.09 7.453 21.895 12.398 3.398 2.484 6.68 5.129 9.848 7.906 3.156 2.785 6.203 5.707 9.129 8.734 5.855 6.074 11.281 12.57 16.121 19.512 2.41 3.477 4.684 7.059 6.73 10.789 2.051 3.723 3.867 7.602 5.23 11.73l-2.91.887"/>
    </g>
    <path d="M124.625 383.582H68.133l2.254 57.219c.551 2.48 11.977 4.457 25.996 4.457s25.438-1.977 25.988-4.457l2.254-57.219" class="E"/>
    <path d="M123.988 400.195l.406-10.484H68.363l.043 1.133 55.582 9.352" class="D"/>
    <path d="M129.832 372.066c-.008 2.563-14.98 4.641-33.449 4.641s-33.453-2.078-33.453-4.641v14.855.191c0 2.563 14.98 4.645 33.453 4.645s33.449-2.082 33.449-4.645v-15.047" class="E"/>
    <path d="M688.578 218.254c-6.488-6.629-14.633-13.055-24.281-17.637-18.332-8.699-35.77-8.629-50.719-6.453-10.562 1.535-25.836 6.539-34.48 14.586-16.02 7.773-25.941 26.742-33.23 40.695-2.648 5.066-4.937 9.441-7.113 12.598-3.156 4.574-6.113 8.367-9.035 11.59l-.18.195.152.227 1.684 2.371h173.387c5.941 0 10.781-4.687 11.027-10.559l-5.68-13.754c-7.367-17.523-13.691-29.352-21.531-33.859" fill="#f8ab9a"/>
    <path fill="#ec7d40" d="M599.926 143.57c6.414 1.145-1.102 13.746 29.234 44.66 12.48 12.73-6.758 47.965-23.184 45.648-15.238-2.152-8.586-20.605-16.812-27.328-7.066-5.781-11.711-4.727-15.648-10.066-6.562-8.891-3.473-31.969 8.859-43.363 5.336-4.922 10.746-10.762 17.551-9.551"/>
    <path d="M592.523 161.668c-.449-.937-3.266-6.664-7.32-11.184l-2.828 2.637c-12.332 11.395-15.422 34.473-8.859 43.363 3.938 5.34 8.859 3.961 15.648 10.066.051.043.094.09.141.129 8.473-7.676 10.723-29.414 3.219-45.012" class="G"/>
    <path d="M582.645 142.238c-.398-.449 2.914-5.125 7.281-5.664 3.551-.437 6.449 2.031 6.805 2.34 3.797 3.316 4.023 8.977 4.25 14.371.191 4.559 1.789 12.844-3.422 13.859-1.031.203-2.895-1.184-3.395-.863-.879.57.113 6.352.121 6.762.117 6.453-3.391 18.105-11.539 26.668-6.242 6.547-15.605 12.727-19.785 11.414-4.449-1.395-6.367-6.211-7.82-7.539-6.246-5.73-6.734-10.352-8.512-11.84-1.016-.852-1.953-3.02-2.547-4.871-.977-3.055-5.895-.016-7.066.117-1.66.188-3.375.367-4.34-2.074-1.117-2.812 3.684-17.578-3.539-24.723-6.625-6.547-10.254-21.867-7.941-33.16 2.141-10.5 8.293-25.566 37.168-36.316 21.688-8.066 38.992 12.684 39.152 23.281.246 16.172-13.934 29.305-14.871 28.238" class="H"/>
    <g class="B">
        <path d="M547.797 92.75c2.141-1.723 5.051-4.277 9.836-7.07 7.375-4.301 16.754-5.07 30.43-1.84 6.832 1.609 22.086 8.359 32.895 24.891 4.457 6.828 10.223 17.566 5.84 30.422-.559 1.641-2.469 7.012-7.684 11.063-14.207 11.047-37.965 4.449-53.18-7.371-6.937-5.395-7.68-7.324-13.527-10.145-17.828-8.602-29.219 3.395-33.195-2.762-3.281-5.082 2.484-19.277 10.445-25.816 5.887-4.828 8.875-3.949 18.141-11.371"/>
        <path d="M623.316 144.477l5.457-3.508 3.004-1.547c1.07-.465 2.176-.918 3.605-1.152.34-.07.766-.086 1.164-.098l.684.051c.227.023.508.098.746.156.125.023.258.086.395.137l.398.18a5.19 5.19 0 0 1 .758.496c.477.406.828.898 1.063 1.375.445.949.52 1.75.559 2.441a13.22 13.22 0 0 1-.098 1.875l-.449 3.125-.094 1.199.004.094c0 .035 0 .07.008.082.004.02.004.039.004.055-.004.023-.012-.023-.027-.035-.004-.012-.012-.004-.016-.027-.012-.023-.023-.039-.035-.055l-.043-.051-.062-.074-.152-.129c-.117-.07-.246-.133-.363-.156a.43.43 0 0 0-.156-.016c-.023-.008-.059-.008-.086.004-.066 0-.023.027.105-.027.238-.074.617-.285.988-.527.758-.492 1.57-1.133 2.422-1.766l1.352-.965c.484-.324.992-.641 1.617-.93.328-.141.656-.281 1.086-.375a3.97 3.97 0 0 1 .691-.102 2.71 2.71 0 0 1 .398 0l.203.012c.07.008.148.027.223.039a2.97 2.97 0 0 1 1.613.863 3.35 3.35 0 0 1 .781 1.32c.258.805.273 1.438.305 2.016l.008 1.586c.008.48.031.93.09 1.227.031.152.07.258.082.289s-.035-.02-.082-.031-.078-.012-.02 0c.02.008.078-.004.121-.004.066-.023.129-.023.207-.051.316-.094.715-.293 1.113-.527l2.566-1.676c.477-.297.961-.605 1.598-.863a3.69 3.69 0 0 1 1.172-.293 2.22 2.22 0 0 1 .395.008 1.95 1.95 0 0 1 .426.07c.145.039.293.098.434.168s.273.16.398.258a2.32 2.32 0 0 1 .559.691c.074.129.105.234.152.352s.066.219.094.32a4.66 4.66 0 0 1 .098 1.082c-.02.645-.113 1.188-.199 1.727l-.48 2.984c-.039.461-.043.906.016 1.262.07.363.18.57.336.699a.54.54 0 0 0 .277.141 1.76 1.76 0 0 0 .477.023c.387-.039.84-.156 1.313-.309.941-.309 1.945-.723 3.074-.957.566-.113 1.164-.191 1.797-.129.625.059 1.27.246 1.813.594.563.328 1.023.836 1.336 1.383s.465 1.117.602 1.648c.234 1.07.352 2.074.684 2.973.145.461.367.863.617 1.262l.441.539.254.246a1.63 1.63 0 0 0 .262.234c.359.316.773.527 1.207.707s.914.258 1.406.32l3.121.27a11.38 11.38 0 0 1 3.078.887c.996.496 1.738 1.328 2.336 2.184.605.859 1.125 1.77 1.641 2.676l1.52 2.727-1.672-2.641-1.766-2.555c-.629-.805-1.371-1.535-2.277-1.922-.926-.359-1.941-.582-2.941-.672-1.012-.09-2.027-.035-3.117-.09-.539-.039-1.098-.102-1.637-.285s-1.078-.434-1.527-.781c-.121-.07-.227-.168-.336-.262l-.32-.281c-.211-.191-.387-.426-.574-.641-.34-.465-.641-.957-.848-1.484-.437-1.039-.625-2.113-.895-3.062-.137-.465-.297-.906-.52-1.25-.23-.336-.5-.605-.852-.785-.695-.387-1.543-.371-2.441-.121-.902.234-1.812.664-2.824 1.059-.52.195-1.055.387-1.707.492-.324.047-.691.063-1.078 0a2.55 2.55 0 0 1-1.145-.461 2.85 2.85 0 0 1-.824-.895 3.65 3.65 0 0 1-.398-1.02c-.16-.668-.168-1.27-.148-1.848.039-1.148.219-2.203.328-3.199l.086-1.379a1.69 1.69 0 0 0-.066-.469c-.008-.02-.012-.047-.02-.047-.004-.008-.004-.023-.004-.008 0 .008.027.051.066.09.086.09.227.102.188.105a1.31 1.31 0 0 0-.328.125c-.32.152-.715.414-1.105.691l-2.555 1.875c-.484.32-.992.637-1.672.895a6.81 6.81 0 0 1-.539.168 3.95 3.95 0 0 1-.645.094c-.461.035-1.027-.035-1.535-.293a2.95 2.95 0 0 1-1.195-1.086c-.266-.422-.398-.812-.496-1.168-.187-.711-.227-1.305-.266-1.859l-.102-1.535c-.035-.457-.109-.871-.191-1.055-.039-.09-.066-.086-.008-.012a.51.51 0 0 0 .25.16c.008.008.02.008.031.008.012.012.027.004.02.012s-.031.004-.082.027c-.078.023-.227.094-.375.168-.312.164-.676.414-1.047.691l-1.141.91-2.512 2.055c-.48.34-.988.699-1.715 1.02l-.281.117-.332.102c-.062.016-.105.035-.172.047l-.199.039c-.137.02-.246.051-.414.055a3.8 3.8 0 0 1-.477.004 4.25 4.25 0 0 1-.539-.082c-.363-.098-.738-.246-1.062-.488a2.76 2.76 0 0 1-.445-.387c-.066-.066-.133-.141-.191-.215a1.58 1.58 0 0 1-.148-.211l-.141-.219c-.047-.074-.074-.137-.109-.207l-.168-.398-.109-.371-.074-.324-.047-.309-.031-.293c-.059-.734-.023-1.34.016-1.91l.277-3.078-.008-1.238c-.027-.344-.129-.598-.141-.586-.004.02.027.09.105.152.023.047.074.066.102.086.012.016.023.02.035.027s.039.004.027.012c-.051.016-.082.016-.113.016-.117.027-.219.016-.387.066-.617.137-1.457.488-2.266.91l-1.227.684-1.238.766-4.863 3.523-3.289-4.445m-66.873-11.451c.27.043.363-.043.223.129a7.23 7.23 0 0 1-.504.586l-1.312 1.328-.723.797a4.8 4.8 0 0 0-.387.523c-.125.195-.27.441-.383.836a2.25 2.25 0 0 0-.082.789 2.07 2.07 0 0 0 .402 1.055 2.16 2.16 0 0 0 .82.66l.352.129c.125.039.199.047.293.066.719.109 1.098.031 1.504-.008.773-.102 1.418-.266 2.051-.41l1.805-.398c.563-.113 1.125-.184 1.492-.168.176 0 .297.051.199.027a.94.94 0 0 1-.523-.555c-.027-.051-.039-.105-.031-.164-.012-.016-.02-.02-.02-.039.012-.02 0 .008-.004.027l-.02.074c-.047.164-.121.383-.227.652l-.727 1.973c-.117.398-.207.891-.234 1.453.023.313.012.598.094.945s.188.672.379 1c.336.656.93 1.164 1.484 1.461.582.32 1.066.418 1.516.512.852.145 1.547.156 1.957.223.219.023.313.074.234.031a.84.84 0 0 1-.32-.484c-.043-.129-.031-.27-.027-.324.008-.023.023-.051.016-.035l-.016.059c-.043.129-.184.414-.34.801s-.344.906-.387 1.535.07 1.301.352 1.875c.125.297.32.543.5.793.191.215.402.445.609.598l.613.414a4.84 4.84 0 0 0 .578.301c.738.332 1.383.523 1.871.707.496.176.785.387.719.305.012.02 0-.309.055-.316.027-.02-.031.148-.18.332-.297.398-.797.887-1.242 1.465-.461.57-.922 1.277-1.152 2.113-.238.828-.219 1.699-.027 2.453.41 1.52 1.277 2.645 2.199 3.605s1.953 1.777 3.039 2.496l-2.129-3.18c-.598-1.074-1.086-2.227-1.113-3.246-.023-.504.066-.957.27-1.332.195-.379.492-.73.902-1.102l1.461-1.266c.277-.285.617-.641.883-1.25.063-.168.125-.332.164-.516a4.44 4.44 0 0 0 .047-.594 4.93 4.93 0 0 0-.09-.578c-.039-.191-.109-.328-.176-.484-.121-.32-.32-.555-.512-.812-.184-.191-.406-.426-.594-.551l-.297-.219-.281-.172-.531-.293-1.66-.801c-.414-.242-.551-.441-.48-.426 0-.004.016.004.027.004.004-.008.031-.105.133-.301.098-.203.266-.477.449-.949l.074-.18.066-.219a3.78 3.78 0 0 0 .113-.504 3.25 3.25 0 0 0-.07-1.273c-.066-.207-.145-.418-.238-.609l-.355-.543a3.31 3.31 0 0 0-.914-.781c-.637-.363-1.172-.469-1.586-.543l-1.855-.234c-.176-.039-.328-.086-.305-.09.008-.012.086.059.141.133.027.105.051.145.027.105.012-.082.016-.223.078-.437.109-.426.344-.973.586-1.641a10.96 10.96 0 0 0 .348-1.184l.066-.398.031-.449-.016-.516a5.09 5.09 0 0 0-.141-.633c-.051-.195-.184-.426-.301-.633a2.46 2.46 0 0 0-.437-.562 3.07 3.07 0 0 0-1.078-.687c-.695-.266-1.227-.258-1.687-.254-.914.047-1.621.219-2.305.395l-1.906.582-1.684.504c-.223.066-.488.086-.402.105.016.008.004.012.055.02a.58.58 0 0 1 .125.055c.133.063.285.168.441.371a1.22 1.22 0 0 1 .23.617c.007.176-.02.273-.027.313-.035.086-.047.039 0-.039a1.83 1.83 0 0 1 .145-.273c.133-.219.301-.457.48-.703l1.172-1.602a7.84 7.84 0 0 0 .59-.988c.176-.387.422-.824.367-1.621a1.88 1.88 0 0 0-.551-1.125c-.297-.289-.582-.395-.832-.484a3.76 3.76 0 0 0-1.273-.156c-1.473.063-1.223 1.813-.133 2.004"/>
    </g>
    <path fill="#d65b5b" d="M560.98 186.5c-.996-.719-3.223 1.832-6.539 3.52-3.723 1.902-6.219 1.375-7.57 1.941.121.145.25.281.387.387 1.262 1.059 1.777 5.039 4.98 7.781 3.242-1.266 8.305-6.168 9.113-12.73.055-.473-.156-.746-.371-.898"/>
    <path d="M550.012 150.465c-1.867-.645-3.863-.898-5.902-.883a15.86 15.86 0 0 0-6.055 1.352c-.496.203-.953.465-1.453.684l-1.414.813a8.05 8.05 0 0 0-2.293 2.289c-1.172 1.824-1.84 3.98-1.457 6.168l.363.125 4.059-3.871 1.75-1.801.895-.914 1.008-.801c.723-.469 1.488-.918 2.305-1.25a15.14 15.14 0 0 1 2.551-.898c1.77-.496 3.66-.672 5.57-.637l.074-.375m72.362-5.79c8.879-4.137 31.762 9.023 38.973 15.172 6.648 5.66 19.188 16.359 23.426 33.199 2.613 10.387.465 16.727 5.656 20.449 5.922 4.246 15.152.598 15.922 2.906.527 1.598-3.488 4.484-6.625 6.246-9.719 5.465-36.684 14.563-58.961-1.109-17.297-12.168-20.379-31.254-22.687-45.48-1.102-6.84-4.672-27.203 4.297-31.383" class="B"/>
    <path fill="#eb9e94" d="M631.598 218.023c.066 3.363-.613 6.727-1.809 9.953-.594 1.613-1.422 3.137-2.336 4.629-.508.715-.977 1.457-1.566 2.113-.281.336-.555.684-.852 1.012l-.934.945c-1.254 1.242-2.613 2.414-4.105 3.414a15.44 15.44 0 0 1-4.906 2.172c-1.742.434-3.531.605-5.293.516s-3.512-.414-5.133-1.125l.035-.398c3.34-.855 6.348-1.66 9.176-2.82a98.19 98.19 0 0 0 4.16-1.801c1.387-.629 2.727-1.398 3.93-2.359 2.418-1.914 4.461-4.352 6.008-7.145 1.582-2.777 2.66-5.898 3.227-9.129l.398.023"/>
    <path d="M546.191 162.262c.113.391-.734 1.926-4.301 2.961-1.59.453-3.289.516-3.516-.277-.227-.758.391-2.445 1.688-3.066 2.266-1.082 5.898-.414 6.129.383" class="J"/>
    <g class="B">
        <path d="M543.773 161.895c-1.543-2.281-5.809-.426-4.168 2.762 1.652 3.184 6.641.902 4.168-2.762"/>
        <path d="M538.945 165.328c-.336.074-.711.004-1.047-.152-.34-.164-.664-.453-.816-.875-.082-.211-.094-.441-.09-.668l.051-.34a1.49 1.49 0 0 1 .137-.371c.105-.223.246-.398.391-.555a3.45 3.45 0 0 1 .445-.422c.617-.488 1.266-.824 1.93-1.086.66-.27 1.332-.465 2.008-.617a16.63 16.63 0 0 1 4.07-.383c.68.02 1.355.086 2.035.199s1.359.266 2.035.523c-.645.34-1.289.574-1.93.793l-1.926.555-3.797.762-3.637.668a4.21 4.21 0 0 0-.711.254c-.039.016-.164.129-.195.188-.059.09-.074.211-.07.328-.012.457.465 1.035 1.117 1.199"/>
    </g>
    <path d="M579.414 257.57l-.027-.488-.062-.488-.262-1.941c-.086-.648-.258-1.281-.383-1.922l-.207-.961-.262-.945c-.348-1.262-.781-2.484-1.234-3.695-.937-2.406-2.07-4.664-3.113-6.875s-1.957-4.414-2.5-6.75c-.18-.578-.25-1.172-.348-1.766l-.152-.902-.078-.914c-.152-1.23-.09-2.461-.137-3.734-.816 2.383-1.238 4.957-1.125 7.566.102 2.613.766 5.195 1.582 7.605l2.5 6.984a48.36 48.36 0 0 1 1.734 6.922l.25 1.766c.105.582.102 1.184.168 1.77a38.81 38.81 0 0 1 .191 3.59c.039 2.398-.082 4.813-.324 7.227l-1.004 6.809h2.051c.758-2.059 1.398-4.168 1.875-6.332a43.65 43.65 0 0 0 .98-7.664c.055-1.289.027-2.586-.051-3.887l-.062-.973m83.219 9.198l-1.566-4.074-1.422-4.031c-.832-2.703-1.508-5.469-1.977-8.277-.914-5.625-1.016-11.387.281-17.328-1.766 2.492-2.961 5.402-3.719 8.422-.75 3.023-1.043 6.176-.984 9.305a77.24 77.24 0 0 0 .117 2.344c.07.777.133 1.559.25 2.332.188 1.559.516 3.09.859 4.625.773 3.094 1.789 5.91 2.887 8.777.281.715.59 1.418.895 2.125.297.703.617 1.406.941 2.102s.672 1.379 1.02 2.063l.664 1.273h6.012c-1.531-3.184-2.969-6.387-4.258-9.656" fill="#eb9e94"/>
    <g fill="#f0af31">
        <path d="M212.004 441.48a31.25 31.25 0 0 0 3.816-2.262l3.57-2.594 6.715-5.703c4.316-3.965 8.41-8.168 12.09-12.629.922-1.121 1.816-2.246 2.652-3.402a54.58 54.58 0 0 0 2.402-3.504c.746-1.184 1.395-2.406 1.969-3.609.289-.613.508-1.195.738-1.816.227-.676.461-1.348.656-2.02.844-2.703 1.461-5.43 1.813-8.199.375-2.773.477-5.605.578-8.594.121-2.977.332-6.137.957-9.258.645-3.117 1.656-6.145 2.922-8.992 1.215-2.645 2.188-5.238 2.957-7.937.742-2.691 1.199-5.449 1.414-8.273.082-1.418.152-2.844.156-4.289l-.023-2.172-.059-2.148a26.72 26.72 0 0 0-1.723-8.152c-1.008-2.625-2.469-5.113-4.27-7.379-.891-1.141-1.891-2.207-2.949-3.227-1.051-1.027-2.187-1.977-3.367-2.895a31.72 31.72 0 0 1 3.906 2.227c1.246.848 2.445 1.781 3.566 2.813 2.254 2.059 4.18 4.539 5.652 7.289a28.56 28.56 0 0 1 1.828 4.336c.488 1.496.844 3.043 1.078 4.602a51.93 51.93 0 0 1 .273 2.289l.207 2.266a56.13 56.13 0 0 1 .188 4.602c-.012 1.555-.098 3.109-.246 4.672a47.29 47.29 0 0 1-.77 4.645c-.668 3.055-1.719 6.047-2.867 8.848-1.055 2.602-1.883 5.242-2.371 7.949-.523 2.703-.691 5.477-.797 8.418-.129 2.93-.242 6.039-.707 9.137-.477 3.098-1.211 6.168-2.254 9.09-.246.742-.527 1.457-.801 2.18-.305.758-.648 1.551-1.023 2.262a32.63 32.63 0 0 1-2.484 4.082c-1.789 2.566-3.789 4.895-5.883 7.105-4.199 4.395-8.793 8.324-13.672 11.836-2.453 1.742-4.965 3.398-7.594 4.855-2.633 1.441-5.344 2.809-8.246 3.555m4.726-125.191l-1.805.605c-.605.184-1.191.438-1.785.648l-1.75.691-.863.363-.848.398c-2.242 1.07-4.352 2.328-6.23 3.836-3.777 3.004-6.543 6.984-9.273 11.191s-5.582 8.543-8.875 12.57c-1.625 2.031-3.398 3.945-5.203 5.82-1.812 1.879-3.746 3.621-5.691 5.336l-2.957 2.457-1.418 1.184-1.398 1.215c-.945.797-1.852 1.648-2.777 2.469l-2.711 2.551c-1.82 1.703-3.551 3.488-5.312 5.254l-2.578 2.707c-.867.902-1.707 1.824-2.535 2.742-1.66 1.848-3.328 3.742-4.754 5.629-.176.238-.312.445-.469.668-.164.242-.324.527-.488.785-.32.527-.629 1.055-.93 1.586a41.42 41.42 0 0 0-1.684 3.258c-1.055 2.215-1.879 4.543-2.523 6.941-.332 1.203-.566 2.43-.773 3.668-.102.617-.176 1.246-.266 1.867l-.172 1.902-.27-1.902-.148-1.918c-.039-1.281-.027-2.578.082-3.875.188-2.59.695-5.168 1.461-7.676a43.06 43.06 0 0 1 1.336-3.699c.246-.605.512-1.207.785-1.793.141-.297.258-.578.414-.887.176-.316.344-.664.516-.949.684-1.187 1.414-2.246 2.16-3.316a80.19 80.19 0 0 1 2.281-3.129c3.125-4.094 6.496-7.969 10.074-11.676.879-.941 1.824-1.82 2.73-2.734l2.828-2.652 1.445-1.293 1.488-1.258 2.863-2.418c1.863-1.609 3.699-3.254 5.43-4.984a95.16 95.16 0 0 0 5.07-5.352c1.633-1.836 3.188-3.754 4.734-5.707l4.621-5.98c1.574-2.008 3.215-4.043 5.082-5.922 1.859-1.879 3.938-3.613 6.234-4.969a29.45 29.45 0 0 1 7.266-3.016l.941-.246c.313-.078.633-.137.945-.203.629-.129 1.258-.273 1.891-.359a45.44 45.44 0 0 1 3.809-.43m125.695 86.455c-.504-.82-.84-1.762-1.043-2.727-.191-.973-.23-1.984-.168-2.98.141-2.004.707-3.941 1.414-5.789l.566-1.367.555-1.301 1.168-2.641c.813-1.766 1.715-3.508 2.758-5.207 1.055-1.695 2.238-3.355 3.707-4.855 1.457-1.504 3.227-2.879 5.383-3.742.27-.113.547-.199.824-.289a7.08 7.08 0 0 1 .797-.219l1.492-.332 2.84-.566 5.645-1c7.523-1.262 15.07-2.305 22.637-3.184l11.379-1.16 11.438-.859c-1.812.641-3.656 1.18-5.504 1.688-1.844.527-3.699.992-5.551 1.461-3.715.918-7.434 1.754-11.168 2.539-7.457 1.563-14.949 2.926-22.449 4.176l-5.613.926-2.777.473c-.477.07-.887.16-1.301.246-.215.043-.426.082-.59.133-.18.047-.359.09-.531.156-1.414.477-2.781 1.402-4.062 2.535-1.266 1.145-2.437 2.508-3.531 3.953-1.094 1.453-2.109 3-3.09 4.586l-2.941 4.848c-.918 1.59-1.707 3.246-2.203 5.004-.242.883-.391 1.785-.414 2.711-.039.918.078 1.855.336 2.785"/>
        <path d="M380.695 370.086l4.164-7.027c1.84-3.18 3.641-6.391 5.375-9.645l2.527-4.922c.82-1.652 1.621-3.324 2.336-5.035l-6.758 8.758c-2.211 2.938-4.371 5.918-6.496 8.91l-6.871 9.98 5.723-1.02m-48.933-103.612c.969.313 1.883.813 2.742 1.406s1.66 1.324 2.309 2.227c.328.453.605.961.816 1.508a7.3 7.3 0 0 1 .395 1.75 7.26 7.26 0 0 1-.055 1.777c-.074.582-.219 1.148-.391 1.699-.73 2.191-2.043 4.121-3.625 5.73s-3.449 2.926-5.434 3.957c-3.984 2.047-8.445 2.984-12.738 3.164a63.64 63.64 0 0 1-6.344-.012c-1.059-.07-2.113-.129-3.172-.27l-1.582-.191c-.527-.07-1.055-.168-1.582-.246-8.418-1.379-16.578-5.039-23.062-10.547-6.48-5.5-11.355-12.672-13.836-20.477 2.496 3.246 5.09 6.293 7.914 9.035 2.828 2.734 5.828 5.207 9.043 7.289 6.41 4.203 13.566 6.934 21.059 8.18l1.402.242 1.418.184c.941.145 1.895.195 2.848.293 1.902.18 3.82.23 5.75.25a36.94 36.94 0 0 0 5.539-.297c1.809-.27 3.598-.637 5.289-1.254 1.707-.586 3.32-1.391 4.797-2.414 1.465-1.02 2.777-2.281 3.707-3.773.449-.742.828-1.547.969-2.359.199-.801-.012-1.664-.359-2.508-.75-1.676-2.156-3.199-3.816-4.344"/>
    </g>
    <path d="M325.969 408.73c-10.008 1.082-20.254-4.156-29.648-3.289-1.523.141-3.145.605-6.41 1.402-3.848.941-10.02 2.445-16.641 5.109-1.332.531-2.613 1.188-3.84 1.93-4.391 2.664-14.895 8.641-20.781 16.793-.184.25-.773 2.09-.543 2.977.285 1.086 1.52 2.051 2.715 2.035 1.121-.016 2.047-.809 2.664-.551.621.266-.156 1.133.543 2.672.246.547 1.133 2.254 4.699 2.387.535.016 2.172-.449 4.922-1.676 1.277-.574 1.664-.824 2.168-.633.852.324-.359 1.984 1.449 3.34.711.535 1.473.961 3.387 1.129 4.133.359 16.992-7.105 23.297-9.641 4.965-1.988 13.004-3.801 15.996-4.551.234-.062.398.219.199.367-1.441 1.102-3.801 2.07-5.727 3.012-3.625 1.785-8.805 5.777-11 9.801-.309.555-.766 1.41-.359 1.984 1.625 2.344 8.254.203 11.059-1.586 3.395-2.168 13.516-6.148 17.027-6.156 6.605-.012 9.398-.402 11.363-.5 8.359-.414 17.031-9.121 15.945-17.129-.445-3.301.543-11.73-22.484-9.227" class="H"/>
    <path d="M292.805 413.527l-5.184 1.926-5.09 2.113-5.039 2.207-2.465 1.152-2.355 1.301-4.594 2.941-4.543 3.117c-3.027 2.098-6.109 4.184-9.371 5.949l8.434-7.191c1.426-1.184 2.906-2.305 4.391-3.422a63.21 63.21 0 0 1 4.672-3.117 46.43 46.43 0 0 1 2.512-1.336 51.5 51.5 0 0 1 2.574-1.125c1.734-.684 3.469-1.352 5.234-1.926 1.754-.598 3.539-1.125 5.34-1.59 1.805-.445 3.629-.859 5.484-1m8.633 6.181c-3.008 1.336-6.152 2.27-9.203 3.324-3.062 1.043-6.023 2.227-8.875 3.676-2.848 1.434-5.586 3.086-8.238 4.926l-8.133 5.441 7.195-6.684c2.531-2.109 5.309-3.984 8.281-5.469 2.965-1.508 6.133-2.602 9.332-3.379 3.195-.785 6.402-1.297 9.641-1.836" class="G"/>
    <path d="M350.828 396.684c-12.59 6.355-15.656 5.754-19.195 6.91-2.031.66-2.805 2.516-2.855 4.184.066-.309.172-.559.32-.727 4.016-4.59 16.035 25.313 10.297 25.691-.09.012-.187-.004-.285-.027 1.047.844 2.145 1.289 3.301 1.195 2.352-.203 17.527 1.523 27.773-10.816 7.438-8.949-9.023-31.613-19.355-26.41m-91.575-81.813s-.055-.703-.469-1.41c-.324-.562-1.75-2.066-2.332-2.613.441.723.793 2.773.027 3.66-4.875 5.629-36.547-6.844-30.785-14.039.055-.074.117-.137.191-.195-.668.16-1.18.465-1.594.902-.605.637-.797 1.34-.949 1.887-1.988 7.133-5.137 18.383-11.34 25.043-1.68 1.805-2.781 2.406-3.309 4.25-1.227 4.301 2.52 8.859 3.781 10.391 7.684 9.348 24.555 14.492 30.715 8.504 2.824-2.742.102-4.617 3.305-13.227.434-1.16 5.43-14.391 10.398-18.895.539-.492 2.535-2.199 2.359-4.258" class="C"/>
    <path d="M563.977 365.953l-173.934 17.523a13.3 13.3 0 0 0-11.211 8.809l-47.238 133.949c-.855 2.43 2.191 7.707 4.723 7.223l181.031-35.277a13.3 13.3 0 0 0 10.027-8.586l42.914-118.254c.836-2.613-3.867-5.633-6.312-5.387" class="F"/>
    <path d="M567.754 369.73l-173.93 17.523a13.3 13.3 0 0 0-11.211 8.809l-47.242 133.953c-.852 2.426 1.246 4.871 3.777 4.391l180.09-34.34c4.625-.879 8.441-4.148 10.031-8.582l41.965-117.305c.828-2.312-1.035-4.695-3.48-4.449" class="B"/>
    <g clip-path="url(#B)" class="D">
        <path d="M444.613 49.336a13.41 13.41 0 0 0-13.398 13.398v200.301c0 7.391 6.004 13.402 13.398 13.402h257.832c7.387 0 13.406-6.012 13.406-13.402V62.734c0-7.391-6.02-13.398-13.406-13.398zm257.832 230.621H444.613c-9.328 0-16.922-7.59-16.922-16.922V62.734c0-9.328 7.594-16.922 16.922-16.922h257.832c9.332 0 16.922 7.594 16.922 16.922v200.301c0 9.332-7.59 16.922-16.922 16.922"/>
    </g>
    <path d="M702.445 47.574H444.613c-8.375 0-15.16 6.789-15.16 15.16v8.664h288.152v-8.664c0-8.371-6.785-15.16-15.16-15.16" class="E"/>
    <path d="M454.98 58.414a8.31 8.31 0 1 1-16.621 0c0-4.59 3.719-8.312 8.313-8.312 4.586 0 8.309 3.723 8.309 8.313" class="C"/>
    <path d="M447.91 58.414l3.125-3.117c.34-.344.34-.898 0-1.242-.348-.348-.902-.348-1.246 0l-3.117 3.117-3.125-3.117c-.344-.348-.898-.348-1.238 0s-.344.898 0 1.242l3.121 3.117-3.121 3.121c-.344.344-.344.898 0 1.238.172.168.398.258.621.258s.449-.09.617-.258l3.125-3.121 3.117 3.121c.176.168.398.258.621.258s.449-.09.625-.258a.88.88 0 0 0 0-1.238l-3.125-3.121" class="D"/>
    <path d="M523.871 244.477c0 10.238-8.301 18.535-18.543 18.535a18.54 18.54 0 0 1-18.539-18.535 18.54 18.54 0 0 1 18.539-18.535c10.242 0 18.543 8.297 18.543 18.535" class="E"/>
    <path d="M496.02 234.063c-.555 11.313 8.32 20.188 16.875 21.926a1.18 1.18 0 0 0 1.391-.926c.039-.184.375-4.227.375-4.227a1.29 1.29 0 0 0-.789-1.32l-3.746-1.562c-.5-.207-1.066-.086-1.437.309l-2.199 2.375c-.145.172-.398.203-.586.086-1.551-.977-2.969-2.18-4.105-3.645-1.09-1.391-1.902-3.027-2.469-4.812-.066-.211.027-.437.219-.543l2.758-1.559c.473-.27.727-.797.641-1.324l-.645-4.012c-.09-.562-.535-.992-1.102-1.078l-3.945-.809c-.652-.031-1.207.473-1.234 1.121" class="C"/>
    <path d="M482.664 244.477a18.54 18.54 0 0 1-18.539 18.535c-10.234 0-18.543-8.297-18.543-18.535s8.309-18.535 18.543-18.535a18.54 18.54 0 0 1 18.539 18.535" class="E"/>
    <path d="M468.16 251.355h-13.402a1.28 1.28 0 0 1-1.277-1.277v-11.203a1.28 1.28 0 0 1 1.277-1.277h13.402a1.28 1.28 0 0 1 1.281 1.277v11.203a1.28 1.28 0 0 1-1.281 1.277m2.649-4.015l3.496 1.527c.211.117.465-.039.465-.281v-8.711c0-.242-.254-.395-.465-.281l-3.496 1.531a1.38 1.38 0 0 0-.734 1.223v3.773a1.38 1.38 0 0 0 .734 1.219" class="C"/>
</svg>