<svg xmlns="http://www.w3.org/2000/svg" viewBox="0 0 810 810">
    <style>.B{fill-rule:evenodd}.C{fill:#8f0000}.D{fill:#660318}.E{fill:#fff}.F{fill:#00721d}.G{fill:#41b100}.H{fill:#f79556}.I{fill:#003d24}.J{fill:#f8ab9a}.K{fill:#ec7d40}.L{fill:#66000f}.M{fill:#ffca05}.N{fill:#9e3223}.O{fill:#1a5632}</style>
    <path d="M659.115 789.372c0 11.373-114.503 20.589-255.75 20.589s-255.75-9.216-255.75-20.589 114.503-20.581 255.75-20.581 255.75 9.212 255.75 20.581" fill="#d7fec9"/>
    <path d="M506.206 444.53c3.156-11.501 6.472-23.604 13.386-39.053 9.141-20.42 12.999-20.836 15.618-32.354 3.577-15.688 1.535-43.999-11.155-59.135-10.565-12.602-42.956-12.829-68.058-27.89-4.736-2.842-9.822-6.765-14.504-13.39-10.783-15.243-8.275-33.472-7.813-37.931 1.081-10.334 4.034-12.091 2.232-16.736-3.601-9.302-20.42-15.193-33.546-12.776-13.118-2.417-29.941 3.473-33.546 12.776-1.799 4.645 1.151 6.402 2.232 16.736.466 4.459 2.97 22.689-7.809 37.931-4.686 6.625-9.764 10.548-14.504 13.39-25.102 15.061-57.493 15.288-68.058 27.89-12.685 15.135-14.731 43.447-11.159 59.135 2.624 11.518 6.477 11.934 15.618 32.354 6.918 15.449 10.239 27.552 13.39 39.053 4.748 17.322 11.282 39.676 13.386 69.171 1.118 15.622 2.236 29.008-7.809 61.366-15.255 49.164-24.388 82.463-20.638 100.973 3.061 15.131 14.649 24.574 20.081 29.008 26.005 21.204 68.586 26.888 98.815 11.287 30.234 15.602 72.814 9.917 98.819-11.287 5.429-4.435 17.021-13.877 20.081-29.008 3.75-18.51-5.388-51.808-20.642-100.973-10.041-32.358-8.927-45.744-7.809-61.366 2.108-29.495 8.642-51.85 13.39-69.171" class="K"/>
    <path d="M415.53 762.967c-4.348 0-8.461-.825-12.268-2.459-.573-.252-1.213-.252-1.786 0-3.808 1.634-7.925 2.459-12.268 2.459-23.547 0-50.431-23.926-72.03-43.15l-15.036-13.044c-5.726-4.67-17.635-14.385-20.861-30.295-3.663-18.097 4.096-48.578 20.7-102.07 9.789-31.545 8.849-44.713 7.759-59.96l-.045-.59c-1.968-27.556-7.788-48.681-12.466-65.661l-.846-3.077c-3.164-11.526-6.431-23.439-13.275-38.727-4.138-9.245-7.116-14.236-9.513-18.238-2.859-4.793-4.748-7.958-6.246-14.537-3.412-14.966-2.075-44.725 11.621-61.061 5.969-7.116 17.759-10.412 31.409-14.232 10.948-3.053 23.353-6.518 34.375-12.528 1.316-.718 2.95.041 3.255 1.502 6.963 33.455 29.318 56.816 54.358 56.816s47.399-23.361 54.366-56.816a2.23 2.23 0 0 1 3.251-1.502c11.023 6.01 23.427 9.476 34.375 12.528 13.65 3.82 25.44 7.116 31.409 14.232 13.692 16.336 15.032 46.095 11.621 61.061-1.502 6.58-3.387 9.744-6.25 14.537-2.388 4.001-5.371 8.993-9.509 18.238-6.844 15.288-10.115 27.202-13.275 38.719l-.846 3.086c-4.678 16.979-10.499 38.104-12.462 65.661l-.05.59c-1.093 15.247-2.034 28.414 7.759 59.96 16.604 53.491 24.363 83.973 20.7 102.07-3.226 15.911-15.139 25.626-20.861 30.295-4.542 3.704-9.641 8.246-15.036 13.044-21.595 19.228-48.483 43.15-72.022 43.15" class="J"/>
    <g fill="#f2c72d">
        <path d="M402.799 748.825c7.557 14.562 18.163 22.474 34.978 27.375 25.807 7.528 44.779 3.003 53.236 1.518 25.692-4.517 45.922-17.091 79.084-41.058 94.442-68.251 109.516-90.173 117.119-112.556 9.121-26.867 2.277-39.086 0-42.584-7.991-12.297-17.338-16.752-25.861-18.25-25.242-4.443-53.793 4.633-85.169 18.25-46.908 20.354-53.12 22.433-111.03 44.697-30.947 11.893-43.438 23.431-56.276 42.58-3.948 5.899-18.122 56.833-6.081 80.029"/>
        <path d="M421.775 748.825c-7.553 14.562-18.167 22.474-34.982 27.375-25.807 7.528-44.779 3.003-53.232 1.518-25.692-4.517-45.922-17.091-79.088-41.058-94.442-68.251-109.516-90.173-117.114-112.556-9.121-26.867-2.277-39.086 0-42.584 7.991-12.297 17.334-16.752 25.857-18.25 25.242-4.443 54.044 4.076 85.173 18.25l111.026 49.874c30.147 13.799 43.442 23.427 56.276 42.584 3.952 5.895 18.126 51.652 6.085 74.848"/>
        <path d="M340.835 619.48c-21.835-6.126-37.11-12.046-47.081-17.26-3.754 16.439-3.102 29.054-1.299 37.968 2.846 14.038 13.597 22.808 18.638 26.921 24.132 19.677 63.648 63.264 91.699 48.785 28.06 14.479 67.575-29.107 91.703-48.785 5.045-4.113 15.795-12.883 18.638-26.921 1.58-7.784 2.764-18.411.004-31.941-8.675 3.428-19.013 5.767-27.346 8.131-79.484 22.511-144.955 3.102-144.955 3.102"/>
    </g>
    <path d="M695.581 620.305c2.248-6.056 8.968-24.17 0-39.548-7.685-13.159-22.631-17.025-27.379-18.25-26.942-6.963-52.836 7.396-82.133 25.857-35.918 22.639-58.97 40.126-104.186 73.767-15.106 11.241-52.662 38.93-98.86 60.838-8.82 4.179-21.171 8.16-38.026 10.647-13.221 1.951-36.5 4.562-62.357-4.567-3.317-1.167-14.694-7.355-38.022-1.518-12.169 3.044-11.633.784-18.254 1.518-11.34 1.258-14.426 7.322-15.936 11.439-.314.854-.858 6.765-2.314 11.377-1.32 4.179-3.04 6.085-1.522 15.21.66 3.948 2.467 7.186 4.562 10.643 1.159 1.914 6.015 10.928 16.732 13.696 5.973 1.535 13.238 2.516 25.857 0 5.033-1.007 52.035-7.813 76.044-6.085 10.812.776 18.44 2.034 30.419 0 7.933-1.353 13.733-3.461 16.732-4.567l56.276-21.29c28.179-12.763 34.986-11.237 80.611-27.379 5.383-1.906 65.339-23.448 133.846-63.879 18.807-11.101 39.07-24.104 47.91-47.91" class="K"/>
    <path d="M246.141 752.348c-3.284.281-6.444.623-9.484 1.316-1.518.371-3.003.788-4.443 1.324l-4.422 1.79c-1.559.602-3.251 1.089-4.963 1.316-1.72.219-3.424.281-5.156.037-1.72-.215-3.482-.78-4.93-1.811-1.419-1.044-2.512-2.426-3.106-3.973 1.172 1.159 2.45 2.104 3.857 2.644 1.37.573 2.846.722 4.34.718a25.87 25.87 0 0 0 4.501-.52c1.477-.301 2.896-.747 4.348-1.312l4.624-1.687a23.97 23.97 0 0 1 4.983-.912c3.354-.285 6.712.07 9.851 1.068m-6.18 13.682c-2.153 1.299-4.484 2.186-6.868 2.859a37.95 37.95 0 0 1-7.318 1.262 37.9 37.9 0 0 1-7.429-.186c-2.454-.33-4.892-.862-7.207-1.84l7.289-.606 7.12-.466 7.116-.561 7.297-.462m1.613 8.654c-1.898 1.254-3.968 2.12-6.085 2.813a34.63 34.63 0 0 1-6.522 1.411 34.7 34.7 0 0 1-6.675.153c-2.223-.186-4.435-.553-6.571-1.341 2.215-.512 4.369-.796 6.505-1.101l6.378-.796 6.386-.705 6.584-.433m1.523 7.602c-1.469 1.238-3.135 2.116-4.864 2.809a24.45 24.45 0 0 1-5.396 1.415 24.26 24.26 0 0 1-5.577.161c-1.856-.182-3.704-.561-5.458-1.341 1.848-.507 3.622-.804 5.375-1.106l5.218-.792 5.231-.697 5.47-.45" fill="#d35c20"/>
    <path d="M128.994 620.305c-2.248-6.056-8.976-24.17 0-39.548 7.685-13.159 22.627-17.025 27.379-18.25 26.942-6.963 52.836 7.396 82.129 25.857 35.918 22.639 58.97 40.126 104.186 73.767 15.111 11.241 52.666 38.93 98.865 60.838 8.811 4.179 21.166 8.16 38.022 10.647 13.225 1.951 36.5 4.562 62.357-4.567 3.317-1.167 14.698-7.355 38.022-1.518 12.169 3.044 11.637.784 18.258 1.518 11.34 1.258 14.422 7.322 15.932 11.439.314.854.862 6.765 2.318 11.377 1.316 4.179 3.044 6.085 1.518 15.21-.66 3.948-2.467 7.186-4.562 10.643-1.155 1.914-6.015 10.928-16.732 13.696-5.965 1.535-13.234 2.516-25.853 0-5.037-1.007-52.035-7.813-76.048-6.085-10.812.776-18.44 2.034-30.419 0-7.933-1.353-13.733-3.461-16.728-4.567l-56.28-21.29c-28.175-12.763-34.982-11.237-80.611-27.379-5.383-1.906-65.335-23.448-133.842-63.879-18.803-11.101-39.07-24.104-47.91-47.91" class="H"/>
    <path d="M584.609 766.028l7.297.462 7.116.561 7.124.466 7.285.606c-2.318.978-4.748 1.51-7.207 1.84a37.86 37.86 0 0 1-7.425.186c-2.475-.182-4.93-.602-7.318-1.262-2.388-.672-4.715-1.559-6.873-2.859m-1.607 8.654c2.269.012 4.43.239 6.584.433l6.39.705 6.373.796 6.51 1.101c-2.145.788-4.356 1.155-6.576 1.341a34.65 34.65 0 0 1-6.67-.153 34.69 34.69 0 0 1-6.53-1.411c-2.116-.693-4.183-1.559-6.081-2.813m-4.567-22.333c3.139-.998 6.497-1.353 9.851-1.068 1.675.12 3.35.437 4.979.912 1.654.474 3.176 1.139 4.628 1.687 1.448.565 2.871 1.011 4.344 1.312a26.3 26.3 0 0 0 4.501.52c1.497.004 2.966-.144 4.344-.718 1.403-.54 2.686-1.485 3.857-2.644-.598 1.547-1.691 2.929-3.106 3.973-1.452 1.031-3.214 1.596-4.934 1.811-1.733.243-3.436.182-5.152-.037-1.716-.227-3.403-.714-4.963-1.316l-4.426-1.79c-1.44-.536-2.925-.953-4.443-1.324-3.036-.693-6.196-1.035-9.48-1.316m3.044 29.935c1.914.029 3.7.243 5.466.45l5.235.697 5.214.792 5.375 1.106c-1.753.78-3.601 1.159-5.454 1.341a24.48 24.48 0 0 1-5.577-.161 24.26 24.26 0 0 1-5.392-1.415c-1.737-.693-3.399-1.572-4.868-2.809" class="K"/>
    <path d="M398.728 1.624c-36.545 4.166-40.91 66.214 6.963 66.391 47.943.182 51.705-73.086-6.963-66.391m-11.947 80.157c-85.619 9.459-96.348 145.95 15.779 145.95 112.288.004 121.706-161.151-15.779-145.95" class="I"/>
    <path d="M461.452 112.947s7 27.041 6.712 59.242c-.029 3.626-2.306 24.792-4.018 31.805-3.985 16.282-15.42 48.43-38.401 61.02-1.361.743-16.983 10.519-37.506 1.559-7.677-3.354-22.206-15.02-33.769-33.839-12.462-20.275-15.944-45.443-15.948-59.44 0-17.648-1.118-28.831 2.009-41.046 4.971-19.446 7.458-29.169 15.325-39.552 4.323-5.701 23.386-21.344 47.147-23.464 1.621-.144 25.296-1.877 41.929 14.991 6.629 6.724 11.456 14.022 16.521 28.724" class="H"/>
    <path fill="#d65b5b" d="M425.352 236.121a1.09 1.09 0 0 0-.825-1.671c-3.506-.322-8.246-1.143-17.969-.598a98.49 98.49 0 0 0-19.294 3.115c-.689.182-1.007.957-.672 1.588 1.741 3.234 9.55 11.563 19.31 10.705 10.655-.936 17.202-9.583 19.45-13.139"/>
    <g class="I">
        <path d="M399.825 90.147c-3.919 3.7-7.735 7.45-11.443 11.291s-7.339 7.731-10.816 11.736c-6.963 7.995-13.415 16.385-18.761 25.374-5.305 8.981-9.55 18.613-11.159 28.815-.14 1.279-.359 2.558-.474 3.836l-.198 3.874.095 3.878c.083 1.328.182 2.648.309 3.968.243 2.64.565 5.264 1.064 7.867a41.81 41.81 0 0 0 .916 3.869c.334 1.295.813 2.566 1.093 3.886-.586-1.209-1.271-2.36-1.881-3.581-.602-1.217-1.134-2.479-1.617-3.754-.974-2.558-1.671-5.206-2.281-7.854-.305-1.332-.561-2.665-.817-4.001l-.545-4.133c-.099-1.386-.128-2.776-.186-4.171-.004-1.394.095-2.785.161-4.179.425-5.561 1.737-11.027 3.601-16.245.425-1.328.986-2.587 1.514-3.869l.809-1.906.891-1.873.903-1.86.978-1.819c.656-1.213 1.304-2.426 2.025-3.593 5.627-9.451 12.648-17.916 20.374-25.531a157.34 157.34 0 0 1 12.169-10.754c2.116-1.683 4.27-3.317 6.489-4.859 2.207-1.551 4.443-3.061 6.786-4.41"/>
        <path d="M472.313 193.532c-1.543 1.506-4.146.743-4.641-1.357-1.774-7.533-6.279-22.074-15.346-26.554-43.434-21.492-59.477-51.21-63.627-60.558-.693-1.555-2.607-2.133-4.043-1.213-11.65 7.45-54.535 39.111-43.657 95.568.553 2.855-3.065 4.554-4.892 2.294-14.467-17.874-35.11-69.126 13.386-125.608 19.327-22.511 47.114-22.371 52.6-16.154.103.116.314-.029.45-.099 21.488-11.2 60.97-9.022 84.348 58.009 14.55 41.681-5.784 67.109-14.578 75.673"/>
    </g>
    <path fill="#e6e6e6" d="M360.702 178.137c.025.998 3.09 3.923 12.074 3.717 3.993-.099 7.962-1.192 7.916-3.185-.045-1.91-4.055-5.841-8.288-5.903-6.076-.091-11.749 3.374-11.703 5.371"/>
    <g class="I">
        <path d="M369.385 176.52c1.233-5.198 10.255-4.748 9.451 2.157-.809 6.914-11.435 6.184-9.451-2.157"/>
        <path d="M382.85 180.051l-1.592-1.394c-.528-.413-1.06-.792-1.601-1.114-1.077-.652-2.17-1.122-3.28-1.456-2.223-.656-4.36-.693-6.662-.314l-1.749.359-.895.219-.875.239c-1.167.334-2.322.747-3.482 1.221-2.327.953-4.595 2.203-7.104 3.717.173-.722.45-1.403.776-2.063s.705-1.291 1.13-1.898c.862-1.2 1.893-2.314 3.073-3.255s2.492-1.733 3.89-2.351l1.064-.429 1.064-.355a16.19 16.19 0 0 1 2.256-.532c1.547-.26 3.193-.289 4.802 0a12.12 12.12 0 0 1 4.521 1.774c1.332.895 2.5 2.034 3.308 3.362.804 1.32 1.316 2.785 1.353 4.27"/>
    </g>
    <path fill="#e6e6e6" d="M428.747 178.463c.025.998 3.086 3.923 12.074 3.713 3.993-.091 7.962-1.188 7.916-3.185-.045-1.91-4.059-5.833-8.292-5.903-6.072-.091-11.749 3.383-11.699 5.375"/>
    <g class="I">
        <path d="M450.891 180.373l-1.588-1.39a17.32 17.32 0 0 0-1.601-1.118 14.09 14.09 0 0 0-3.28-1.452c-2.223-.656-4.364-.693-6.662-.309l-1.749.355-.895.223-.879.235a33.08 33.08 0 0 0-3.478 1.217c-2.331.953-4.591 2.211-7.108 3.725.173-.722.454-1.411.776-2.067a13.48 13.48 0 0 1 1.139-1.902c.854-1.2 1.889-2.306 3.069-3.251s2.487-1.737 3.886-2.351l1.068-.425 1.06-.363a18.22 18.22 0 0 1 2.261-.528c1.543-.264 3.189-.289 4.802 0 1.613.268 3.189.903 4.517 1.778 1.337.887 2.5 2.025 3.308 3.354s1.32 2.793 1.353 4.27m-62.1-15.685c-2.273.301-4.468.177-6.629-.087-2.153-.289-4.274-.767-6.324-1.415l-2.962-1.11-2.677-1.271c-.842-.421-1.646-.788-2.479-1.077a12.5 12.5 0 0 0-2.62-.582c-1.827-.215-3.742-.173-5.557.149a17.41 17.41 0 0 0-5.334 1.844c-1.716.903-3.321 2.091-4.814 3.449a31.16 31.16 0 0 0-4.067 4.608l-.569-.314c1.596-3.94 4.133-7.607 7.656-10.453a20.78 20.78 0 0 1 6.019-3.308c2.228-.738 4.517-1.11 6.856-1.18 1.172-.017 2.376.008 3.593.144s2.409.38 3.527.672c2.244.615 4.117 1.464 5.928 2.421 1.803.957 3.585 1.972 5.363 3.09 1.774 1.126 3.552 2.298 5.276 3.795l-.186.623"/>
        <path d="M416.681 164.396c1.72-1.497 3.498-2.677 5.272-3.803l5.363-3.09c1.815-.953 3.684-1.807 5.928-2.413 1.118-.301 2.314-.545 3.535-.672 1.213-.144 2.421-.161 3.589-.144 2.339.07 4.628.441 6.848 1.176a20.71 20.71 0 0 1 6.027 3.308c3.523 2.842 6.06 6.514 7.652 10.449l-.565.314c-1.221-1.683-2.582-3.238-4.067-4.604-1.493-1.357-3.098-2.549-4.818-3.445-1.695-.924-3.506-1.543-5.33-1.844-1.815-.33-3.725-.363-5.557-.153-.912.103-1.79.297-2.624.586s-1.634.656-2.479 1.077l-2.673 1.266c-.949.408-1.939.784-2.962 1.11a37.76 37.76 0 0 1-6.328 1.415c-2.162.268-4.348.384-6.625.091l-.186-.623m20.098 12.771c1.238-5.194 10.251-4.744 9.451 2.162-.809 6.914-11.435 6.18-9.451-2.162"/>
    </g>
    <g class="B">
        <path fill="#ffe9e9" d="M211.258 326.912c57.778 0 104.9-9.504 104.9-21.15s-47.122-21.146-104.9-21.146-104.9 9.5-104.9 21.146 47.122 21.15 104.9 21.15"/>
        <path fill="#003d24" d="M316.146 306.072c.083.755.021 1.551.021 2.426 0 11.683-46.978 21.154-104.9 21.154s-104.904-9.471-104.904-21.154c0-1.011-.099-1.753.025-2.426.821 11.538 47.469 20.841 104.879 20.841s104.062-9.302 104.879-20.841"/>
    </g>
    <path d="M283.173 358.891c-.116-1.823-2.558-17.829-7.392-23.493-4.245-4.975-9.88-8.807-17.631-10.606-5.289-1.225-6.736-.041-18.827-.103-9.364-.054-16.55-.804-21.319-1.32a253.4 253.4 0 0 1-22.334-3.44c-5.998-1.221-12.07-2.063-18.039-3.42 0 0-3.036-.648-12.479-.516-.949.016-2.632.231-4.443 1.539-.994.722-1.469 1.753-1.469 1.753s-5.19-.99-9.096-1.951c-.714-.173-8.143-1.906-11.703 1.708-1.184 1.196-2.174 3.226-1.518 4.393.635 1.126 2.607 1.11 3.152 1.122 5.408.083 10.965 4.682 21.991 9.232 5.808 2.393 11.303 3.766 22.288 6.501 6.534 1.629 11.142 2.553 19.12 4.15l24.17 4.946c13.386 4.117 22.598-.276 18.11 53.735-1.295 15.569-17.788 75.372-17.091 86.068.413 6.353 1.089 16.711 7.677 26.822 1.242 1.91 24.236 24.029 29.277 26.657 6.972 3.634 11.386 3.552 13.535 3.321 0 0 3.168-.334 6.349-1.823 4.814-2.265 16.286-10.915 21.979-29.635 11.798-38.81-21.909-118.208-24.306-155.64" class="H"/>
    <path fill="#e06a2f" d="M160.741 323.192c1.943.012 3.874.157 5.804.367l5.751.879c3.812.722 7.574 1.757 11.241 3.007l2.735.961 2.706 1.011c1.803.693 3.593 1.423 5.363 2.203 3.535 1.563 7.009 3.271 10.325 5.289-1.873-.512-3.717-1.081-5.557-1.654l-5.482-1.761-5.462-1.799-2.731-.912-2.714-.924c-3.618-1.238-7.231-2.401-10.895-3.478l-11.084-3.189"/>
    <g class="B">
        <g class="D">
            <path d="M211.914 260.732c44.354 0 80.532-11.196 80.532-24.916S256.268 210.9 211.914 210.9s-80.532 11.196-80.532 24.916 36.178 24.916 80.532 24.916"/>
            <path d="M292.442 235.688h.004v.128c0 13.758-36.067 24.916-80.532 24.916s-80.532-11.159-80.532-24.916v55.777h.004c.281 13.679 36.232 24.747 80.528 24.747s80.248-11.068 80.528-24.747h.004v-55.777c0-.041-.004-.087-.004-.128zm-161.06 0h.004c0 .041-.004.087-.004.128v-.128"/>
        </g>
        <path d="M204.86 214.402c-.866.602-1.081 1.799-.474 2.673a1.92 1.92 0 0 0 2.669.474 1.92 1.92 0 0 0 .479-2.669c-.606-.87-1.803-1.081-2.673-.479" class="E"/>
        <path d="M244.276 225.948c.433-.305.945-.635 1.192-1.2.557-1.283-.899-2.063-1.708-.953-.351.483-.342 1.089-.342 1.691-.004.751.272.887.858.462"/>
    </g>
    <path d="M244.709 224.418c-.087.198-.26.363-.454.52.017-.26.062-.495.177-.66.095-.132.19-.19.26-.19.012 0 .025.004.037.012l.021.021c.029.05.025.144-.041.297zm.05 2.207l.116-.087c.495-.347 1.04-.743 1.353-1.464.305-.697.227-1.332-.062-1.811-.157-.256-.371-.462-.623-.602s-.536-.219-.837-.223c-.565-.008-1.167.252-1.617.87-.495.689-.495 1.411-.499 2.133v.045c0 .705.21 1.167.652 1.398.446.243.949.144 1.518-.26" class="D"/>
    <path d="M239.363 235.18c.429-.314.945-.635 1.192-1.205.553-1.279-.908-2.067-1.708-.953-.351.483-.347 1.089-.347 1.691 0 .755.276.887.862.466" class="B"/>
    <path d="M239.792 233.642c-.087.198-.26.371-.454.528.021-.26.062-.499.177-.66.099-.132.19-.19.26-.19.012 0 .025.004.037.012.008 0 .012.012.021.017.029.05.025.149-.041.293zm.05 2.211l.12-.083c.491-.355 1.035-.743 1.353-1.464.301-.697.223-1.332-.066-1.811-.157-.256-.371-.462-.623-.606a1.7 1.7 0 0 0-.833-.223c-.569-.004-1.172.256-1.621.875-.491.681-.495 1.411-.495 2.133v.041c-.004.705.21 1.172.648 1.403.45.239.949.144 1.518-.264" class="D"/>
    <path d="M234.446 244.413c.429-.314.945-.644 1.188-1.209.561-1.275-.899-2.063-1.704-.949-.351.479-.347 1.085-.347 1.687 0 .751.276.891.862.47" class="B"/>
    <path d="M234.875 242.874c-.083.198-.256.371-.45.528.017-.268.062-.503.177-.66.095-.136.186-.194.256-.194.017 0 .025 0 .037.008s.012.012.021.025c.029.05.025.149-.041.293zm.05 2.207l.12-.078c.491-.355 1.035-.743 1.353-1.469.301-.693.227-1.337-.062-1.815a1.74 1.74 0 0 0-.627-.598 1.75 1.75 0 0 0-.833-.227c-.565-.008-1.172.26-1.617.879-.495.681-.495 1.411-.499 2.133v.037c0 .705.215 1.172.652 1.407.45.235.945.144 1.514-.268" class="D"/>
    <path d="M248.327 234.727c.429-.309.945-.639 1.192-1.205.557-1.279-.903-2.063-1.712-.949-.347.483-.338 1.089-.338 1.687-.004.751.272.891.858.466" class="B"/>
    <path d="M248.756 233.192c-.083.198-.256.371-.45.524.017-.264.058-.499.173-.656.099-.14.19-.198.26-.19a.14.14 0 0 1 .041.004c.004.004.012.012.017.025.033.045.025.144-.041.293zm.05 2.207l.12-.083c.491-.351 1.04-.738 1.353-1.464.305-.693.223-1.337-.066-1.815a1.71 1.71 0 0 0-.623-.602 1.78 1.78 0 0 0-.833-.223c-.565-.004-1.167.252-1.617.87-.495.689-.499 1.415-.499 2.137v.041c-.004.705.21 1.167.648 1.403.45.239.949.149 1.518-.264" class="D"/>
    <path d="M243.476 243.926c.429-.305.945-.635 1.192-1.2.557-1.283-.903-2.063-1.708-.953-.351.483-.342 1.093-.342 1.691-.004.751.272.891.858.462" class="B"/>
    <path d="M243.905 242.395c-.083.194-.256.363-.45.52.017-.26.058-.495.173-.66.099-.132.194-.19.264-.19.008 0 .025.008.033.012s.017.012.021.017c.029.054.025.153-.041.301zm.054 2.207l.116-.087c.491-.351 1.04-.738 1.353-1.464.305-.697.227-1.332-.062-1.811a1.73 1.73 0 0 0-.627-.606 1.78 1.78 0 0 0-.833-.223c-.565-.004-1.167.256-1.617.875-.495.685-.495 1.407-.499 2.133v.045c-.004.705.21 1.167.652 1.398.446.243.949.144 1.514-.26h.004" class="D"/>
    <path d="M229.809 236.645c.429-.309.941-.639 1.188-1.2.557-1.283-.903-2.067-1.708-.953-.351.483-.342 1.089-.342 1.687-.004.755.272.891.862.466" class="B"/>
    <path d="M230.238 235.11c-.087.198-.26.371-.454.524.017-.26.062-.495.177-.656.095-.136.19-.19.26-.19.012 0 .025.004.033.008s.017.012.021.021c.033.05.025.149-.037.293zm.05 2.215l.12-.091c.491-.351 1.035-.738 1.349-1.46.305-.697.231-1.341-.062-1.815-.157-.252-.371-.462-.627-.606-.248-.136-.532-.219-.829-.219-.569-.004-1.172.256-1.621.87-.495.685-.499 1.411-.499 2.133v.041c0 .714.21 1.172.652 1.403.45.243.949.144 1.518-.264v.008" class="D"/>
    <g class="B">
        <path d="M190.933 213.787c1.341-.083 2.5.936 2.582 2.277s-.936 2.5-2.277 2.586a2.44 2.44 0 0 1-2.587-2.281c-.083-1.341.941-2.496 2.281-2.582" class="E"/>
        <path d="M155.37 227.755c-.408-.21-.895-.425-1.18-.883-.648-1.035.507-1.893 1.345-1.048.367.371.437.899.516 1.415.103.648-.12.804-.681.516"/>
    </g>
    <path d="M154.801 226.485c.099.165.268.289.458.4-.05-.227-.12-.429-.239-.549-.099-.107-.186-.14-.248-.132-.008.004-.021.004-.029.017-.004.004-.012.008-.017.017-.021.045 0 .132.074.248zm.243 1.914l-.111-.058c-.47-.239-.994-.503-1.357-1.085-.355-.565-.367-1.122-.182-1.576.099-.239.26-.441.462-.598a1.45 1.45 0 0 1 .689-.301c.487-.083 1.04.07 1.51.545.516.524.611 1.147.705 1.77l.008.037c.091.611-.033 1.04-.38 1.295-.355.264-.8.248-1.345-.029" class="D"/>
    <path d="M160.811 235.081c-.413-.215-.899-.429-1.184-.883-.648-1.031.512-1.902 1.349-1.048.363.375.437.895.516 1.419.099.644-.12.8-.681.512" class="B"/>
    <path d="M160.238 233.811c.099.161.272.285.462.4-.054-.227-.12-.429-.239-.549-.103-.103-.19-.14-.248-.136-.012.008-.025.012-.033.017s-.012.017-.012.021c-.021.045-.004.132.07.248zm.243 1.914l-.111-.062c-.47-.235-.99-.499-1.357-1.085-.351-.561-.367-1.122-.177-1.572a1.43 1.43 0 0 1 .458-.598 1.45 1.45 0 0 1 .689-.301c.491-.083 1.044.062 1.51.545.52.524.611 1.155.71 1.774l.004.033c.095.611-.029 1.04-.38 1.299-.359.26-.8.248-1.345-.033" class="D"/>
    <path d="M166.248 242.404c-.413-.21-.899-.425-1.184-.879-.644-1.035.512-1.902 1.349-1.048.363.375.437.903.52 1.415.095.648-.124.8-.685.512" class="B"/>
    <path d="M165.679 241.133c.099.165.268.285.458.4-.05-.223-.116-.429-.235-.549-.103-.103-.19-.14-.252-.132-.008.004-.021.012-.029.017s-.012.012-.021.017c-.017.05 0 .136.078.248zm.243 1.914l-.111-.058c-.474-.235-.994-.503-1.361-1.085-.347-.561-.367-1.122-.177-1.572a1.48 1.48 0 0 1 1.151-.903c.487-.078 1.04.07 1.51.545.512.528.611 1.151.705 1.774l.004.033c.095.615-.029 1.044-.375 1.304-.359.256-.804.243-1.345-.037" class="D"/>
    <path d="M153.019 235.853c-.413-.21-.903-.425-1.188-.879-.648-1.035.516-1.902 1.353-1.048.363.367.437.895.512 1.415.103.648-.12.8-.677.512" class="B"/>
    <path d="M152.445 234.582c.099.157.272.285.458.396-.05-.227-.116-.425-.235-.545-.103-.103-.19-.14-.252-.132-.012.004-.021.004-.029.012s-.012.012-.012.021c-.025.05-.004.136.07.248zm.243 1.914l-.111-.058c-.47-.235-.99-.503-1.357-1.085-.355-.561-.367-1.122-.182-1.572a1.46 1.46 0 0 1 .462-.602c.194-.157.433-.26.689-.305.491-.074 1.044.07 1.51.545.516.532.611 1.155.705 1.778l.008.033c.091.615-.029 1.044-.38 1.295-.359.264-.8.248-1.345-.029" class="D"/>
    <path d="M158.394 243.163c-.408-.215-.895-.429-1.18-.883-.648-1.035.507-1.902 1.349-1.044.363.367.433.895.516 1.415.099.648-.124.8-.685.512" class="B"/>
    <path d="M157.825 241.892c.099.161.272.285.458.392-.05-.223-.116-.421-.239-.54-.099-.107-.186-.14-.248-.136-.008.008-.021.008-.029.021-.004 0-.012.004-.017.017-.017.045 0 .132.074.248zm.243 1.914l-.111-.054c-.47-.243-.994-.507-1.357-1.093-.355-.557-.367-1.122-.182-1.568a1.41 1.41 0 0 1 .462-.602c.194-.157.433-.26.689-.301.491-.078 1.044.066 1.51.545.516.524.611 1.151.705 1.774l.004.033c.095.615-.029 1.04-.375 1.295-.355.264-.8.248-1.345-.029" class="D"/>
    <g class="B">
        <g class="E">
            <path d="M296.093 230.956c1.848 1.04 3.082 2.541 3.082 4.212 0 3.156-4.08 5.425-9.36 5.466s-9.278-2.31-9.278-5.466c0-1.947 1.572-3.667 3.985-4.703 1.299-.553 2.541-1.011 3.75-1.786 1.151-.73 2.207-1.568 2.731-2.64.347-.701.177-.627.252.083.289 2.632 2.83 3.696 4.839 4.835m-9.786-11.159c1.848 1.044 3.082 2.545 3.082 4.212 0 3.156-4.08 5.429-9.36 5.47s-9.273-2.314-9.273-5.47c0-1.951 1.568-3.671 3.977-4.699 1.304-.561 2.545-1.011 3.754-1.786 1.151-.734 2.203-1.576 2.731-2.64.347-.705.177-.627.252.083.285 2.636 2.83 3.692 4.839 4.831m-148.831 1.261c-1.848 1.048-3.082 2.549-3.082 4.22 0 3.152 4.08 5.425 9.36 5.462s9.278-2.31 9.278-5.462c0-1.951-1.572-3.671-3.985-4.707-1.299-.553-2.541-1.011-3.75-1.782-1.151-.734-2.207-1.572-2.731-2.64-.347-.705-.173-.631-.252.078-.285 2.636-2.83 3.7-4.839 4.831m21.823-8.51c-2.516 1.423-4.199 3.461-4.199 5.734 0 4.298 5.553 7.384 12.743 7.438s12.623-3.139 12.623-7.438c0-2.653-2.137-4.991-5.421-6.398-1.77-.755-3.457-1.374-5.107-2.426-1.563-.998-2.999-2.141-3.713-3.597-.474-.961-.239-.854-.347.111-.388 3.585-3.849 5.029-6.58 6.576"/>
            <path d="M265.731 211.737c2.516 1.419 4.199 3.465 4.199 5.73 0 4.298-5.553 7.388-12.743 7.442s-12.623-3.143-12.623-7.442c0-2.644 2.137-4.991 5.421-6.394 1.77-.755 3.461-1.374 5.107-2.426 1.568-.998 2.999-2.145 3.717-3.601.47-.957.239-.854.342.116.388 3.581 3.849 5.029 6.58 6.576m-27.576-2.134c2.516 1.423 4.195 3.469 4.195 5.738 0 4.29-5.553 7.384-12.743 7.438s-12.623-3.148-12.623-7.438c0-2.653 2.141-4.991 5.421-6.402 1.77-.755 3.461-1.374 5.107-2.426 1.568-.998 2.999-2.145 3.717-3.593.47-.965.239-.854.342.111.392 3.581 3.853 5.024 6.584 6.571m-34.995.001c2.512 1.423 4.195 3.469 4.195 5.738 0 4.29-5.553 7.384-12.743 7.438s-12.619-3.148-12.619-7.438c0-2.653 2.137-4.991 5.421-6.402 1.766-.755 3.457-1.374 5.103-2.426 1.568-.998 2.999-2.145 3.717-3.601.47-.957.239-.846.342.12.388 3.581 3.853 5.024 6.584 6.571m-76.736 21.352c-1.848 1.04-3.086 2.541-3.086 4.212 0 3.156 4.084 5.425 9.364 5.466s9.278-2.31 9.278-5.466c0-1.947-1.572-3.667-3.985-4.703-1.299-.553-2.541-1.011-3.754-1.786-1.151-.73-2.203-1.568-2.727-2.64-.347-.701-.177-.627-.256.083-.285 2.632-2.826 3.696-4.835 4.835"/>
        </g>
        <path d="M137.619 261.842c.495 1.225 1.539 1.811 2.03 3.036 1.316-.091 2.079.454 3.395.359-1.011.842-1.431 1.646-2.446 2.496.499 1.225.4 2.492.895 3.717-1.118-.705-2.195-.817-3.313-1.522-1.011.85-2.058 1.11-3.073 1.959.326-1.283.054-2.52.375-3.799-1.122-.701-1.65-1.44-2.772-2.141 1.32-.087 2.005-.726 3.321-.817.318-1.279 1.271-2.013 1.588-3.288m21.447 13.914c1.266 1.221 2.859 1.365 4.129 2.591 1.551-.837 2.776-.594 4.327-1.427-.771 1.58-.842 2.789-1.613 4.373 1.275 1.217 1.848 2.805 3.119 4.026-1.741-.243-3.11.215-4.855-.029-.763 1.584-1.902 2.471-2.665 4.055-.309-1.728-1.316-3.09-1.625-4.822-1.745-.239-2.789-.846-4.534-1.081 1.555-.833 2.034-1.984 3.585-2.813-.314-1.737.446-3.139.132-4.872m-16.913-1.301a2.38 2.38 0 0 1 2.058 2.653c-.161 1.299-1.349 2.215-2.648 2.058-1.299-.165-2.223-1.349-2.058-2.648a2.38 2.38 0 0 1 2.648-2.063m6.914 3.041c.928.116 1.588.957 1.469 1.889a1.69 1.69 0 0 1-1.885 1.473c-.932-.116-1.588-.965-1.473-1.898.116-.92.961-1.58 1.889-1.464m22.878 1.105a1.7 1.7 0 0 1 1.469 1.893 1.694 1.694 0 1 1-3.362-.417 1.7 1.7 0 0 1 1.893-1.477m-18.039-3.022c.557.07.953.578.883 1.13-.07.561-.578.953-1.134.883a1.01 1.01 0 0 1-.883-1.13c.07-.561.578-.953 1.134-.883m27.296-.85c2.5.908 3.791 3.663 2.888 6.163s-3.659 3.791-6.159 2.884a4.79 4.79 0 0 1-2.665-2.364 4.58 4.58 0 0 0 5.288-6.868 5.24 5.24 0 0 1 .648.186m59.341-1.082c1.019.846 2.219.862 3.238 1.704 1.11-.714 2.042-.606 3.152-1.316-.487 1.229-.466 2.133-.953 3.362 1.023.837 1.543 1.992 2.566 2.83-1.32-.078-2.318.342-3.638.256-.479 1.233-1.279 1.964-1.757 3.193-.33-1.283-1.163-2.24-1.489-3.519-1.32-.074-2.137-.474-3.457-.549 1.114-.71 1.407-1.596 2.52-2.31-.334-1.275.153-2.368-.182-3.651m25.49 1.951c1.704.462 3.172-.165 4.868.297.961-1.473 2.153-1.848 3.115-3.329.083 1.761.598 2.855.681 4.616 1.7.458 2.966 1.58 4.666 2.038-1.646.627-2.628 1.679-4.278 2.302.091 1.761-.487 3.086-.396 4.843-1.101-1.378-2.636-2.087-3.737-3.461-1.646.627-2.855.594-4.496 1.217.965-1.469.833-2.71 1.799-4.183-1.106-1.37-1.114-2.97-2.219-4.34m-15.469 6.963a2.37 2.37 0 0 1 3.073 1.341c.479 1.217-.12 2.591-1.337 3.073a2.38 2.38 0 0 1-3.077-1.341 2.37 2.37 0 0 1 1.341-3.073m7.525-.647c.87-.342 1.852.087 2.195.953a1.7 1.7 0 0 1-.957 2.199 1.69 1.69 0 0 1-2.195-.957c-.342-.866.087-1.852.957-2.195m20.613-9.983a1.7 1.7 0 0 1 2.199.961 1.7 1.7 0 0 1-.957 2.195 1.7 1.7 0 0 1-2.199-.953 1.7 1.7 0 0 1 .957-2.203m-17.288 5.977c.524-.198 1.114.054 1.32.582.206.52-.05 1.11-.573 1.316s-1.114-.054-1.316-.578c-.21-.52.05-1.11.569-1.32m23.563-13.811a4.81 4.81 0 1 1 1.46 9.509c-1.271.198-2.496-.124-3.473-.8a4.58 4.58 0 0 0 3.737-5.206 4.56 4.56 0 0 0-2.384-3.35c.215-.066.433-.116.66-.153m-97.499 28.711c.71-1.114 1.844-1.502 2.558-2.611 1.275.338 2.129-.058 3.403.285-.837-1.023-1.101-1.889-1.939-2.912.714-1.11.854-2.368 1.568-3.478-1.229.479-2.306.388-3.535.866-.837-1.015-1.823-1.469-2.657-2.492.078 1.32-.417 2.487-.338 3.803-1.229.479-1.885 1.11-3.119 1.588 1.279.33 1.827 1.085 3.11 1.415.074 1.324.875 2.219.949 3.535m23.658-9.693c1.473-.965 3.065-.813 4.538-1.778 1.37 1.11 2.62 1.101 3.985 2.215-.462-1.7-.305-2.9-.767-4.6 1.473-.961 2.335-2.421 3.812-3.383-1.761-.087-3.02-.784-4.777-.87-.458-1.7-1.411-2.785-1.865-4.484-.627 1.646-1.869 2.797-2.496 4.443-1.757-.091-2.896.314-4.657.219 1.374 1.106 1.634 2.322 3.003 3.428-.631 1.646-.144 3.172-.776 4.81m-16.86-1.873c1.304.091 2.43-.903 2.516-2.211a2.38 2.38 0 0 0-2.223-2.516 2.37 2.37 0 0 0-2.512 2.219c-.083 1.304.912 2.43 2.219 2.508m7.355-1.691c.936.058 1.741-.652 1.799-1.58.058-.936-.652-1.741-1.584-1.799a1.7 1.7 0 0 0-1.799 1.584 1.69 1.69 0 0 0 1.584 1.794m22.685 3.165a1.7 1.7 0 0 0 1.799-1.584 1.71 1.71 0 0 0-1.584-1.807 1.7 1.7 0 0 0-1.799 1.592c-.054.932.652 1.733 1.584 1.799m-18.283-.379a1.02 1.02 0 0 0 1.077-.953c.033-.561-.392-1.04-.953-1.081-.557-.033-1.04.396-1.077.953s.388 1.048.953 1.081m26.661 5.907a4.82 4.82 0 0 0 3.985-5.52c-.425-2.624-2.892-4.41-5.52-3.985a4.81 4.81 0 0 0-3.053 1.832 4.58 4.58 0 0 1 5.156 3.808c.239 1.485-.264 2.917-1.242 3.919.227-.004.45-.021.672-.054" fill="#ccf"/>
        <path d="M147.095 269.576c.441.693 1.151.936 1.601 1.629.796-.21 1.328.033 2.129-.173-.524.635-.689 1.18-1.213 1.811.446.701.532 1.485.978 2.186-.767-.305-1.44-.243-2.207-.549-.524.639-1.143.92-1.662 1.559.05-.825-.264-1.555-.21-2.38-.776-.293-1.184-.693-1.951-.99.8-.206 1.143-.681 1.943-.887.045-.825.545-1.386.594-2.207m52.206 10.285c.446.693 1.155.936 1.601 1.634.796-.215 1.328.029 2.129-.182-.524.639-.689 1.18-1.213 1.819.446.697.532 1.481.978 2.182-.767-.309-1.44-.248-2.211-.545-.52.635-1.139.912-1.658 1.555.05-.825-.26-1.555-.21-2.38-.771-.297-1.18-.693-1.951-.99.8-.206 1.143-.681 1.943-.887.045-.829.549-1.39.594-2.207m56.98-4.891c.446.697 1.151.932 1.596 1.634.8-.215 1.332.033 2.129-.182-.52.635-.685 1.188-1.213 1.819.45.693.536 1.485.982 2.178-.767-.301-1.444-.239-2.211-.54-.524.635-1.139.92-1.658 1.551.05-.817-.264-1.551-.215-2.372-.767-.301-1.176-.693-1.947-.994.796-.206 1.143-.681 1.943-.887.045-.829.545-1.382.594-2.207m-41.644 9.418c.936-.058 1.737.656 1.794 1.584a1.69 1.69 0 0 1-1.584 1.799c-.932.058-1.737-.656-1.794-1.584a1.7 1.7 0 0 1 1.584-1.799m69.085-9.228a1.7 1.7 0 0 1 1.799 1.588c.058.928-.652 1.737-1.584 1.794a1.7 1.7 0 0 1-1.799-1.588 1.69 1.69 0 0 1 1.584-1.794m-107.008 2.079a.91.91 0 0 1 .974.858.92.92 0 0 1-.854.974.92.92 0 0 1-.978-.862.91.91 0 0 1 .858-.969m51.73 8.381c.557-.037 1.044.392 1.077.945a1.02 1.02 0 0 1-.953 1.081c-.561.037-1.04-.392-1.077-.953a1.02 1.02 0 0 1 .953-1.073m-48.768.809c.561-.037 1.044.392 1.077.953a1.01 1.01 0 1 1-2.026.124c-.037-.557.388-1.044.949-1.077m63.02 1.056a1.01 1.01 0 0 1 1.077.949c.033.561-.392 1.044-.953 1.081a1.01 1.01 0 1 1-.124-2.03" class="J"/>
        <path fill="#a0040c" d="M221.637 207.146c2.69-.722 3.709-1.415 6.646-.829 6.274 1.254 8.226 5.866 8.073 11.724-.586 6.402-4.864 11.757-11.769 12.413-13.407 1.291-18.44-14.096-11.328-20.82 3.234-3.057 4.934-1.98 8.378-2.487"/>
        <path fill="#d6001f" d="M208.956 209.018c1.86.598 4.121 2.112 5.276 4.723 1.444 3.263.771 7.236-1.205 10.387-2.025 3.23-5.359 5.883-8.461 6.996-1.803.648-3.614.681-5.421.318-1.217-.243-2.36-.627-3.399-.895-1.625-.429-2.529-.961-3.643-2.207-2.145-2.405-3.42-5.866-3.548-9.265-.165-4.583 1.988-8.737 5.932-11.089 2.566-1.53 5.144-1.588 7.396-1.027 1.535.38 2.483 1.2 4.01 1.572 1.023.248 2.042.157 3.061.487"/>
        <path d="M227.483 211.114c1.832-.631 3.544-.578 3.816.111s-.998 1.766-2.834 2.397-3.544.578-3.816-.116.994-1.766 2.834-2.393m-29.335.018c1.238.458 2.025 1.403 1.761 2.12s-1.481.928-2.714.474-2.025-1.407-1.761-2.12 1.481-.932 2.714-.474" class="E"/>
        <path d="M212.727 180.278c2.789 4.748 3.143 9.484 1.382 14.145-2.31 6.13-9.311 14.059-9.463 17.388-.726-.153-1.436-.462-1.988-.767 2.888-6.873 11.064-13.415 11.274-21.063.198-7.013-3.069-7.834-3.432-9.991a20.35 20.35 0 0 1-.045-.413c.846-.087 1.774.103 2.252.664.008.012.017.017.021.037" class="F"/>
        <path d="M225.8 209.109c.243.235.116.532-.095.8-1.345 1.733-3.42 2.388-5.515 1.613-1.188-.437-1.407-.837-1.275-1.143.177-.413.875-.631 1.287-.652.235-.017.4.128.157.281-.062.041-.14.074-.248.124-.813.322 3.449 1.097 5.074-.536.215-.215.454-.701-.045-.565-.297.083-.664-.124-.47-.19a1.3 1.3 0 0 1 1.13.268m-18.411 2.459c.128.326-.116.536-.421.701-1.968 1.031-4.154.767-5.759-.825-.908-.903-.945-1.365-.693-1.588.334-.301 1.068-.215 1.46-.066.223.087.314.289.025.33-.074.012-.165.012-.281.004-.887-.041 2.719 2.463 4.901 1.638.285-.111.714-.454.19-.536-.305-.05-.557-.4-.351-.38.408.05.825.441.928.722" class="L"/>
        <path d="M212.401 179.969c-1.002 5.449-.421 9.08 1.848 13.242 2.904 5.326 9.665 10.816 9.207 17.231a7.19 7.19 0 0 1-2.025.14c.433-6.609-5.804-12.289-8.939-17.903-2.133-3.824-2.582-8.976-2.162-13.085h.021c.722-.099 1.514.012 2.05.375" class="G"/>
        <path d="M212.945 179.556c.194.12.219.507-.231.697-.495-.594-1.485-.78-2.364-.66-.338-.347-.672-.825-.644-1.304.008-.14.07-.252.153-.396-.161-.05-.264-.045-.38-.177-.318-.363-.45-.771-.041-1.18.842-.825 3.469-.842 3.94.545.144.425-.054.755-.256.936.21.136.38.301.384.578.008.289-.239.52-.598.677-.087.037-.087.037-.078.14.012.111.033.091.116.144" class="L"/>
        <path fill="#d6001f" d="M247.263 222.821c4.142.417 6.291 4.298 7.182 7.743 2.983 12.413-14.5 23.53-24.318 13.201-8.502-7.264-4.026-22.21 6.349-23.522 1.749-.223 4.612.342 5.87 1.691 1.073 1.147 2.879.681 4.917.887"/>
        <path d="M236.038 224.851c1.799.025 3.152.446 3.329 1.799s-1.539 1.881-3.337 1.852-3.531-.33-3.502-1.658 1.712-2.021 3.511-1.992M246.063 244c-.66.281-1.357.111-1.551-.375s.19-1.101.85-1.378 1.357-.111 1.551.371-.19 1.106-.85 1.382" class="E"/>
        <path d="M242.284 224.748c4.674-18.893-6.456-25.683-6.67-40.584 1.081 0 2.232.375 2.76 1.155-1.584 13.3 9.735 22.511 6.184 40.27-.813-.165-1.621-.495-2.273-.842" class="G"/>
        <path d="M247.659 225.301c.14.38-.144.635-.503.821-2.335 1.196-4.901.862-6.778-1.031-1.056-1.077-1.097-1.621-.8-1.881.4-.351 1.266-.235 1.72-.058.264.103.367.342.029.388a1.5 1.5 0 0 1-.33 0c-1.044-.058 3.172 2.929 5.755 1.976.338-.124.842-.52.231-.623-.363-.066-.656-.474-.413-.446.483.05.965.52 1.089.854m-8.869-40.79c.227.186.194.677-.396.837-.524-.817-1.728-1.196-2.842-1.184-.367-.483-.714-1.13-.598-1.728.033-.173.128-.301.252-.466-.194-.087-.326-.099-.45-.276-.338-.512-.441-1.044.132-1.481 1.18-.903 4.455-.512 4.826 1.283.111.561-.182.941-.458 1.126.239.206.421.441.384.78-.037.363-.375.611-.85.755-.116.037-.116.037-.12.165-.004.144.025.116.12.19" class="L"/>
        <path d="M246.562 183.001c-5.854.59-5.957 5.491-2.644 9.513 2.376 2.879 3.292 2.298 4.195 2.83.466.248 1.365 1.287 4.426 1.794 1.778.347 1.266 2.306 4.752 3.556.342.12.71.318 1.04-.025.256-.264-.058-.664-.404-.594-.305.033-.569.153-.842-.227-.908-1.271 3.498-7.962-3.218-14.055-3.647-3.304-6.885-2.83-7.306-2.793" class="G"/>
    </g>
    <g class="F">
        <path d="M239.31 180.905c.623 1.283 1.84 2.9 4.426 4.08 1.089.606 2.541 1.134 3.981 1.778.111-.058.285-.116.549-.177 2.578-.602 3.267.144 2.879 0-.499-.186-1.485-.045-2.83.454.903.421 1.811.903 2.648 1.473 2.211 1.543 3.098 2.966 3.527 3.845.095.186.012.091-.017.021-.503-.854-1.671-2.409-4.117-3.894.206 1.295.408 2.12.784 2.434.289.235-.47.05-1.159-2.248-.062-.202-.091-.351-.099-.466l-1.167-.606-3.292-1.279.012.107c.054 1.881.375 3.148.842 3.647.355.384-.846-.054-1.394-3.354a3.42 3.42 0 0 1-.058-.631l-2.586-1.147c-2.57-1.394-3.828-2.78-3.857-3.399-.037-.425.784-1.126.928-.635"/>
        <path d="M242.375 190.067c.248.26.635.516 1.233.631 1.246.239 1.081 1.229 2.38 1.617 1.205.355 1.98-.545 3.783.054 1.547.512 3.387.268 5.383 3.3 1.526 2.318 1.04 4.377 2.24 4.455a1.08 1.08 0 0 0 .202-.004l.33-.045c.347-.07.66.33.404.594-.33.342-.697.144-1.04.025-3.486-1.25-2.974-3.209-4.752-3.556-3.061-.507-3.96-1.547-4.426-1.794-.903-.532-1.819.05-4.195-2.83-.656-.8-1.176-1.625-1.543-2.446" class="B"/>
    </g>
    <path d="M230.077 230.907a.77.77 0 0 1 .986-.458c.293.111.59.194.883.264.413.095.672.507.578.928a.77.77 0 0 1-.895.582c-.008-.004-.016-.004-.025-.004a10.32 10.32 0 0 1-1.068-.326.77.77 0 0 1-.458-.986zm-28.74-13.774a.78.78 0 0 1 1.002-.429c5.355 2.157 9.397 5.858 12.495 10.903.974-.243 2.545-.4 4.369-.054.656.128 1.332.322 2.021.602.392.165.578.619.413 1.011a.77.77 0 0 1-1.002.417c-.582-.243-1.159-.408-1.72-.516a9.42 9.42 0 0 0-3.263-.058c.734 1.324 1.415 2.735 2.038 4.228 1.675 4.022 5.619 8.036 9.764 8.811a10.24 10.24 0 0 0 1.002.128.77.77 0 0 1 .714.825c-.029.421-.396.738-.821.71-.4-.029-.796-.078-1.184-.157-4.88-.969-9.018-5.301-10.895-9.723-1.386-3.284-3.003-6.122-4.913-8.502-.008.008-.012.012-.017.025-1.155 1.188-1.555 1.617-2.322 3.193-.153.322-.503.487-.842.421-.062-.008-.124-.029-.186-.062a.76.76 0 0 1-.359-1.023c.804-1.691 1.452-2.43 2.603-3.605.045-.045.091-.083.14-.107-2.388-2.653-5.218-4.661-8.609-6.039a.77.77 0 0 1-.429-.998" class="D"/>
    <path d="M223.737 236.55c3.333.644 6.555-1.539 7.198-4.872s-1.539-6.555-4.872-7.198a6.15 6.15 0 0 0-7.194 4.872 6.15 6.15 0 0 0 4.868 7.198m-18.056 8.729c4.558.879 8.964-2.104 9.843-6.662s-2.1-8.964-6.658-9.843a8.41 8.41 0 0 0-9.843 6.662 8.41 8.41 0 0 0 6.658 9.843m27.057 3.168a5.32 5.32 0 0 0 6.233-4.216c.557-2.884-1.332-5.676-4.216-6.233a5.33 5.33 0 0 0-6.233 4.22c-.553 2.879 1.332 5.672 4.216 6.229" fill="#f06" class="B"/>
    <path d="M208.317 241.492v-.004h-.004a.68.68 0 0 1-.454-.301c-.099-.149-.144-.334-.111-.528l.004.004v-.004h-.004c.041-.194.153-.355.305-.458a.7.7 0 0 1 .532-.107.72.72 0 0 1 .454.305.71.71 0 0 1 .111.528h-.004.004c-.041.194-.153.355-.305.458a.71.71 0 0 1-.528.107zm-.268 1.386c.578.111 1.143-.021 1.592-.33a2.07 2.07 0 0 0 .891-1.353l.008.004v-.004h-.008a2.08 2.08 0 0 0-.326-1.596 2.14 2.14 0 0 0-1.353-.895h-.004c-.573-.107-1.143.025-1.592.33a2.1 2.1 0 0 0-.891 1.357h-.004.004a2.12 2.12 0 0 0 .322 1.596 2.14 2.14 0 0 0 1.357.891h.004m28.109 1.844h.004-.004c-.054-.008-.095-.041-.124-.078s-.037-.095-.029-.14h.004v-.004h-.004c.012-.054.041-.095.083-.124s.091-.037.14-.029h.004c.05.012.091.041.124.083a.21.21 0 0 1 .029.144h-.004c-.008.054-.041.091-.083.12s-.087.041-.14.029zm-.268 1.394v-.008c.437.087.866-.017 1.205-.248.342-.223.59-.582.677-1.023h.004-.004a1.59 1.59 0 0 0-.248-1.2 1.62 1.62 0 0 0-1.023-.677v-.004.004c-.437-.087-.866.016-1.209.248s-.586.59-.672 1.023h-.004.004a1.61 1.61 0 0 0 .248 1.209c.227.334.586.59 1.023.668v.008" class="C"/>
    <path fill="#f06" d="M217.743 247.705c3.96.763 7.793-1.827 8.556-5.788s-1.827-7.797-5.788-8.556-7.788 1.823-8.556 5.788a7.31 7.31 0 0 0 5.788 8.556" class="B"/>
    <path d="M220.721 243.955v-.004c-.144-.025-.26-.111-.338-.219a.53.53 0 0 1-.078-.396h.004-.004a.52.52 0 0 1 .223-.334c.111-.083.252-.107.392-.083s.26.111.334.223h.004c.074.116.107.252.083.392h-.004.004c-.029.144-.116.26-.227.342a.53.53 0 0 1-.392.078zm-.268 1.386a1.94 1.94 0 0 0 1.456-.301c.408-.276.714-.71.817-1.233h.004l-.004-.008a1.92 1.92 0 0 0-.301-1.448h.004c-.276-.413-.71-.718-1.238-.821h-.004c-.524-.099-1.044.025-1.452.297-.413.281-.718.714-.817 1.238h-.004.004c-.103.532.021 1.048.297 1.464.276.404.714.71 1.238.813" class="C"/>
    <g class="B">
        <path d="M205.487 231.138a2.33 2.33 0 0 0-2.731 1.848c-.248 1.266.586 2.487 1.848 2.739a2.34 2.34 0 0 0 2.735-1.852c.239-1.271-.586-2.496-1.852-2.735m12.075 5.21c-.912-.173-1.79.421-1.968 1.328s.421 1.79 1.332 1.968a1.68 1.68 0 0 0 1.968-1.332 1.68 1.68 0 0 0-1.332-1.964m15.329 3.873c-.569-.107-1.118.268-1.229.833-.111.573.264 1.122.833 1.229s1.118-.256 1.229-.829a1.05 1.05 0 0 0-.833-1.233" class="E"/>
        <path fill="red" d="M262.497 225.049c-4.587-.656-7.776 2.19-9.979 5.718-6.274 10.041-.875 17.858 10.705 15.672 4.084-.767 7.896-2.702 8.96-7.211 1.337-5.647-3.94-13.37-9.686-14.178"/>
        <path d="M278.47 224.781c-1.931 1.555-2.566 4.707-5.165 6.002-3.123 1.559-4.987-2.005-2.273-4.187 2.091-1.683 5.024-.817 7.438-1.815m.796 7.966c-1.91.227-3.63 2.046-5.874 1.827-2.698-.268-2.454-3.379.231-3.696 2.067-.243 3.643 1.535 5.643 1.869m-8.246-12.124c-.903 1.695-3.222 2.632-3.836 4.806-.738 2.611 2.252 3.519 3.527 1.13.978-1.84-.103-3.952.309-5.936" class="F"/>
        <path d="M265.892 233.506c.33-.05.714-.083 1.019-.326.685-.549.099-1.415-.677-1.031-.338.165-.512.512-.689.846-.223.421-.107.578.347.512"/>
    </g>
    <path d="M266.585 232.771c-.107.087-.256.132-.408.161.083-.136.177-.26.289-.318.095-.045.165-.054.202-.029.008.004.012.012.017.017s.008.012.008.021c0 .033-.029.083-.107.149zm-.623 1.254l.091-.012c.38-.054.8-.111 1.188-.421.375-.309.516-.681.495-1.04a1.08 1.08 0 0 0-.173-.516 1.02 1.02 0 0 0-.4-.371c-.318-.169-.73-.202-1.163.012-.479.239-.689.648-.903 1.052l-.012.025c-.206.392-.223.714-.05.969.186.268.491.363.928.301" class="C"/>
    <path d="M260.435 237.231c.33-.045.714-.083 1.019-.326.689-.549.099-1.419-.677-1.031-.338.165-.512.507-.689.85-.219.417-.107.578.347.507" class="B"/>
    <path d="M261.124 236.5c-.103.083-.252.128-.408.157.091-.136.186-.26.293-.318.095-.045.165-.054.202-.029.008.008.012.012.021.017s.004.012.004.021c0 .033-.033.091-.111.153zm-.619 1.25l.091-.012c.38-.05.796-.111 1.188-.421.371-.301.516-.681.495-1.035-.012-.19-.074-.367-.173-.52a1.04 1.04 0 0 0-.4-.367c-.318-.173-.73-.202-1.163.012-.479.235-.689.644-.903 1.044l-.012.021c-.206.4-.227.722-.045.986s.487.355.924.293" class="C"/>
    <path d="M254.977 240.96c.334-.05.718-.083 1.019-.326.689-.549.103-1.415-.677-1.035-.338.169-.512.516-.685.85-.223.417-.111.578.342.512" class="B"/>
    <path d="M255.67 240.23a.97.97 0 0 1-.408.153c.083-.136.177-.26.293-.314.091-.05.161-.05.198-.029.008.004.017.008.021.017.004.054-.025.107-.103.173zm-.623 1.246l.091-.012c.38-.05.8-.107 1.188-.421.375-.305.52-.681.495-1.031-.012-.19-.07-.371-.169-.528a1.11 1.11 0 0 0-.404-.363c-.314-.173-.726-.202-1.163.012-.474.235-.689.648-.903 1.052l-.012.021c-.206.392-.223.718-.05.978.186.268.491.355.928.293" class="C"/>
    <path d="M265.587 239.607c.33-.05.714-.083 1.019-.326.685-.549.099-1.419-.681-1.035-.334.169-.507.516-.685.846-.219.421-.107.586.347.516" class="B"/>
    <path d="M266.276 238.872c-.103.087-.252.132-.408.161.091-.14.186-.26.293-.318.095-.045.165-.045.202-.029.008.004.012.012.016.017.008.054-.025.111-.103.169zm-.619 1.25l.091-.008c.38-.054.796-.111 1.188-.425.371-.297.516-.681.495-1.04-.012-.182-.074-.363-.173-.512a1.05 1.05 0 0 0-.4-.371c-.318-.173-.73-.202-1.163.012-.479.235-.689.648-.903 1.052l-.012.021c-.206.396-.227.718-.045.974.177.264.487.363.924.297" class="C"/>
    <path d="M260.175 243.336c.33-.045.714-.078 1.019-.326.689-.549.099-1.415-.677-1.031-.338.169-.512.507-.689.846-.223.421-.107.578.347.512" class="B"/>
    <path d="M260.864 242.606c-.103.083-.252.128-.408.157.091-.144.182-.264.297-.318.091-.045.161-.05.198-.025.008 0 .016.004.021.008.004.058-.025.111-.107.177zm-.619 1.25l.091-.017c.38-.054.8-.107 1.188-.421.371-.301.516-.685.495-1.035-.012-.19-.074-.363-.173-.52a1.17 1.17 0 0 0-.404-.371c-.314-.165-.726-.202-1.159.021-.479.235-.693.639-.903 1.044l-.012.025c-.21.396-.223.718-.05.974.182.268.491.359.928.297v.004" class="C"/>
    <path d="M260.113 231.53c.33-.045.718-.083 1.019-.322.685-.557.099-1.423-.677-1.04-.338.169-.512.512-.689.846-.223.421-.107.578.347.516" class="B"/>
    <path d="M260.802 230.795c-.103.087-.252.132-.404.161.083-.144.177-.26.293-.318.091-.045.161-.05.198-.029.008 0 .012.008.017.012.008.058-.025.111-.103.173zm-.619 1.254l.091-.017c.38-.054.796-.111 1.188-.425.375-.297.516-.681.495-1.031-.012-.194-.074-.371-.173-.52s-.235-.281-.4-.371c-.318-.169-.73-.202-1.163.012-.479.243-.689.648-.903 1.052l-.012.025c-.206.392-.223.714-.05.974.186.264.491.359.928.297v.004" class="C"/>
    <path d="M254.655 235.255c.33-.054.714-.083 1.019-.33.689-.549.099-1.415-.677-1.027-.338.169-.512.507-.689.842-.219.425-.107.578.347.516" class="B"/>
    <path d="M255.344 234.52c-.103.087-.248.128-.408.165.091-.144.186-.26.297-.322.091-.045.161-.05.198-.029.008 0 .012.008.021.012.004.058-.025.111-.107.173zm-.615 1.25l.087-.012c.38-.054.796-.111 1.188-.421.371-.301.516-.685.495-1.035-.012-.19-.074-.363-.173-.52-.099-.149-.235-.276-.4-.367-.318-.169-.73-.206-1.163.012-.479.239-.693.644-.903 1.048l-.012.025c-.206.392-.227.714-.045.974.177.268.487.359.924.297h.004" class="C"/>
    <path d="M265.278 227.937a1.72 1.72 0 0 0-2.302.804c-.413.858-.054 1.889.804 2.302a1.73 1.73 0 0 0 2.302-.809c.413-.862.054-1.889-.804-2.298" class="B E"/>
    <path d="M169.915 217.566c.041-.458.437-.792.891-.759.33.033.66.037.982.021a.83.83 0 0 1 .866.784.83.83 0 0 1-.759.862h-.025c-.4.016-.8.012-1.196-.025-.454-.033-.792-.433-.759-.883zm-33.62-5.944a.82.82 0 0 1 .912-.726c6.142.681 11.381 3.333 16.031 7.652.936-.532 2.516-1.143 4.496-1.312a10.91 10.91 0 0 1 2.252.041.82.82 0 1 1-.194 1.634 9.77 9.77 0 0 0-1.926-.033 10.17 10.17 0 0 0-3.383.879c1.143 1.159 2.248 2.417 3.321 3.779 2.888 3.667 8.11 6.675 12.615 6.279a9.25 9.25 0 0 0 1.068-.153.83.83 0 0 1 .974.644.82.82 0 0 1-.644.969c-.421.087-.842.153-1.266.186-5.313.404-10.833-2.884-14.042-6.906-2.376-2.991-4.855-5.454-7.516-7.363-.004.012-.004.021-.012.033-.846 1.563-1.134 2.12-1.473 3.968-.07.38-.384.648-.747.677-.07.008-.14 0-.21-.008-.45-.083-.747-.512-.664-.961.342-1.968.8-2.925 1.646-4.463.033-.062.07-.111.116-.157-3.23-2.046-6.728-3.313-10.622-3.75-.454-.054-.78-.458-.73-.908" class="C"/>
    <path d="M164.998 225.214a6.59 6.59 0 0 0 6.027-7.099c-.297-3.622-3.473-6.32-7.095-6.023a6.59 6.59 0 0 0-6.031 7.091c.301 3.63 3.478 6.324 7.099 6.031m-16.121 14.199c4.954-.404 8.646-4.748 8.242-9.702a9.01 9.01 0 0 0-9.707-8.246c-4.959.405-8.646 4.756-8.238 9.707a9 9 0 0 0 9.702 8.242m28.836-4.51a5.71 5.71 0 0 0 5.218-6.151 5.7 5.7 0 0 0-6.142-5.214c-3.139.256-5.478 3.003-5.218 6.142s3.003 5.474 6.142 5.223" fill="#f06" class="B"/>
    <path d="M150.506 234.751l-.004-.004v.004c-.21.017-.404-.058-.553-.182a.75.75 0 0 1-.268-.516h.004-.004a.76.76 0 0 1 .182-.561.75.75 0 0 1 .516-.264v.004h.004v-.004c.206-.021.404.054.553.186a.75.75 0 0 1 .268.512h-.004v.004h.004c.017.21-.054.404-.182.557-.128.144-.309.248-.516.264zm.12 1.51a2.28 2.28 0 0 0 1.551-.8 2.24 2.24 0 0 0 .532-1.654h.004-.004c-.05-.631-.351-1.176-.796-1.555a2.3 2.3 0 0 0-1.654-.532 2.31 2.31 0 0 0-1.555.796c-.371.446-.582 1.027-.528 1.658h-.004.004c.05.631.351 1.172.792 1.555a2.3 2.3 0 0 0 1.658.532m29.545-6.188a.2.2 0 0 1-.153-.05c-.042-.038-.066-.083-.07-.136h.004v-.008l-.004.008a.22.22 0 0 1 .05-.153c.033-.037.083-.066.136-.074v.008h.004v-.008c.054 0 .107.021.149.054s.066.083.07.14h-.004.004c.004.058-.012.107-.05.149s-.083.062-.136.07zm.12 1.514h.004v-.008c.474-.033.887-.264 1.172-.598a1.71 1.71 0 0 0 .4-1.25v-.004a1.71 1.71 0 0 0-.602-1.167 1.75 1.75 0 0 0-1.25-.404 1.74 1.74 0 0 0-1.176.606 1.7 1.7 0 0 0-.396 1.25h-.008.008a1.7 1.7 0 0 0 .602 1.172c.33.281.776.437 1.246.396v.008" class="C"/>
    <path fill="#f06" d="M162.024 238.452c4.307-.355 7.516-4.133 7.165-8.44s-4.129-7.512-8.44-7.165a7.83 7.83 0 0 0-7.161 8.44 7.84 7.84 0 0 0 8.436 7.165" class="B"/>
    <path d="M164.016 233.716c-.153.012-.301-.037-.413-.132a.55.55 0 0 1-.194-.38c-.017-.157.041-.301.132-.408h-.004.004c.091-.111.227-.186.38-.198h.004c.153-.017.297.033.408.132v-.004l.004.004a.56.56 0 0 1 .194.38c.012.161-.041.305-.132.413s-.227.186-.384.194zm.124 1.514v-.004c.569-.045 1.073-.318 1.419-.726.338-.404.528-.936.483-1.51h.004l-.004-.004c-.045-.569-.322-1.068-.726-1.411l.004-.004c-.404-.342-.945-.532-1.514-.487h-.004c-.569.054-1.073.322-1.415.726h-.004a2.11 2.11 0 0 0-.483 1.514h-.004.004c.045.573.322 1.077.726 1.415a2.06 2.06 0 0 0 1.51.487v.004h.004" class="C"/>
    <g class="B">
        <path d="M144.607 224.88c-1.374.107-2.401 1.316-2.289 2.69a2.502 2.502 0 1 0 4.987-.404 2.5 2.5 0 0 0-2.698-2.285m13.96 1.901a1.8 1.8 0 0 0-1.646 1.939c.078.99.949 1.728 1.939 1.646a1.8 1.8 0 0 0 1.646-1.939c-.078-.994-.949-1.728-1.939-1.646m16.934-.413c-.619.054-1.081.598-1.027 1.217a1.12 1.12 0 0 0 1.213 1.023c.619-.041 1.081-.586 1.031-1.209a1.13 1.13 0 0 0-1.217-1.031" class="E"/>
        <path fill="red" d="M184.457 227.475c4.991.879 7.343 4.913 8.444 9.327 3.131 12.565-5.136 18.869-16.439 12.681-3.989-2.182-7.302-5.487-6.881-10.536.524-6.324 8.626-12.574 14.875-11.472"/>
        <path d="M167.927 221.79c1.485 2.269 1.077 5.763 3.346 7.995 2.719 2.673 5.866-.4 3.779-3.589-1.605-2.454-4.946-2.545-7.124-4.406m-3.52 8.015c1.91.887 3.082 3.358 5.495 3.89 2.892.639 3.696-2.681 1.011-3.923-2.075-.953-4.311.363-6.505.033m12.68-9.818c.367 2.071 2.459 3.836 2.364 6.303-.116 2.958-3.531 2.892-4.051-.025-.396-2.24 1.444-4.072 1.687-6.279" class="F"/>
        <path d="M178.063 235.127c-.33-.165-.718-.33-.953-.689-.528-.8.38-1.506 1.056-.842.293.289.359.705.429 1.118.087.507-.083.631-.532.413"/>
    </g>
    <path d="M177.592 234.129c.083.124.219.219.371.305-.045-.177-.103-.334-.202-.429-.078-.078-.149-.107-.198-.103-.008.008-.017.008-.021.012s-.008.012-.012.017c-.017.041 0 .107.062.198zm.219 1.514l-.087-.045c-.38-.182-.792-.384-1.093-.846-.289-.437-.309-.883-.165-1.242.074-.19.198-.359.355-.479a1.12 1.12 0 0 1 .545-.248c.384-.078.825.033 1.2.404.417.408.503.908.586 1.394l.008.033c.083.479-.012.821-.281 1.027-.281.219-.631.206-1.068 0" class="C"/>
    <path d="M182.477 240.844c-.33-.157-.718-.322-.949-.681-.528-.8.375-1.514 1.052-.842.293.289.359.697.429 1.11.091.516-.083.639-.532.413" class="B"/>
    <path d="M182.006 239.854a1.11 1.11 0 0 0 .371.305c-.045-.182-.099-.334-.198-.433-.083-.074-.153-.103-.198-.099-.008.008-.021.008-.025.012s-.008.012-.012.017c-.012.033 0 .103.062.198zm.223 1.506l-.091-.041c-.375-.186-.792-.384-1.093-.842-.285-.437-.305-.883-.165-1.242a1.23 1.23 0 0 1 .355-.487c.157-.12.338-.206.545-.248.384-.07.825.041 1.205.413.417.408.499.908.582 1.394l.008.029c.083.479-.008.825-.281 1.031-.281.219-.631.206-1.064-.008" class="C"/>
    <path d="M186.891 246.57c-.326-.161-.714-.322-.949-.681-.528-.809.375-1.514 1.056-.842.289.281.359.697.429 1.11.087.512-.087.635-.536.413" class="B"/>
    <path d="M186.42 245.58a1.11 1.11 0 0 0 .371.305c-.041-.182-.099-.338-.194-.433-.087-.083-.157-.111-.202-.099-.008 0-.017.008-.025.012-.025.05-.008.12.05.215zm.223 1.506l-.091-.041c-.375-.186-.792-.384-1.089-.842-.289-.441-.309-.883-.169-1.242a1.24 1.24 0 0 1 .359-.487 1.3 1.3 0 0 1 .54-.248c.388-.07.825.041 1.205.408.417.413.503.908.586 1.398l.004.025c.083.483-.008.825-.281 1.035-.281.21-.631.206-1.064-.008" class="C"/>
    <path d="M176.314 241.574c-.33-.161-.718-.33-.949-.681-.528-.809.375-1.514 1.052-.85.297.289.359.705.429 1.118.091.512-.083.631-.532.413" class="B"/>
    <path d="M175.843 240.576c.083.124.219.227.371.305-.041-.173-.099-.33-.198-.429-.083-.078-.153-.107-.198-.095-.008 0-.017.004-.025.012-.025.05-.008.111.05.206zm.223 1.514l-.091-.041c-.375-.186-.792-.388-1.093-.846-.285-.437-.305-.883-.165-1.246.078-.19.202-.351.355-.479a1.2 1.2 0 0 1 .545-.252c.384-.066.825.041 1.205.413.417.408.499.903.582 1.39l.008.029c.083.487-.008.825-.281 1.035-.281.215-.631.206-1.064-.004" class="C"/>
    <path d="M180.682 247.288c-.33-.161-.718-.33-.953-.689-.528-.8.38-1.506 1.056-.842.297.289.359.705.429 1.11.087.516-.083.639-.532.421" class="B"/>
    <path d="M180.212 246.29c.083.128.219.219.371.305-.045-.177-.099-.334-.198-.429-.083-.078-.153-.107-.202-.103-.004.008-.012.008-.025.012-.025.058-.008.12.054.215zm.223 1.514l-.091-.05c-.375-.182-.792-.38-1.093-.833-.289-.446-.305-.891-.165-1.25a1.15 1.15 0 0 1 .355-.479 1.18 1.18 0 0 1 .545-.252c.384-.066.825.037 1.2.408.417.408.503.903.59 1.394l.004.033c.083.479-.012.817-.281 1.027-.281.219-.631.206-1.064 0" class="C"/>
    <path d="M184.741 235.024c-.326-.161-.718-.33-.949-.681-.524-.809.375-1.514 1.056-.85.293.289.359.705.429 1.114.087.516-.087.635-.536.417" class="B"/>
    <path d="M184.275 234.025c.078.124.219.227.367.305-.041-.173-.099-.33-.198-.429-.078-.078-.149-.107-.198-.095-.008 0-.017.004-.021.008s-.012.008-.017.012c-.012.041.004.103.066.198zm.219 1.514l-.091-.05c-.375-.177-.792-.38-1.089-.837-.289-.437-.309-.883-.165-1.246.074-.19.198-.351.355-.479s.338-.215.54-.252c.388-.066.829.041 1.205.413.417.408.503.903.586 1.39l.004.029c.087.487-.008.821-.281 1.035s-.631.206-1.064-.004" class="C"/>
    <path d="M189.16 240.749c-.33-.161-.718-.33-.949-.689-.528-.804.375-1.506 1.052-.842.293.289.359.705.429 1.11.087.512-.083.639-.532.421" class="B"/>
    <path d="M188.689 239.751c.078.124.219.219.367.305-.041-.182-.099-.334-.194-.429-.083-.083-.153-.111-.202-.103-.008.008-.016.008-.021.012s-.012.008-.012.017c-.012.041 0 .103.062.198zm.219 1.514l-.087-.05c-.375-.177-.796-.38-1.093-.837-.289-.446-.309-.887-.165-1.246.074-.194.198-.359.355-.483a1.2 1.2 0 0 1 .545-.248c.384-.066.825.037 1.2.408.417.408.503.903.586 1.394l.004.029c.087.479-.004.821-.281 1.035s-.627.206-1.06-.004h-.004" class="C"/>
    <g class="B">
        <g class="E">
            <path d="M180.587 229.537c1.035-.14 1.984.582 2.124 1.617a1.89 1.89 0 0 1-1.621 2.12c-1.031.14-1.98-.582-2.12-1.621-.136-1.031.586-1.98 1.617-2.116m36.752 21.01c-3.255 1.576-5.433 3.836-5.433 6.357 0 4.765 7.186 8.184 16.497 8.246s16.34-3.482 16.34-8.246c0-2.945-2.768-5.536-7.017-7.095-2.289-.837-4.48-1.518-6.613-2.69-2.025-1.106-3.882-2.376-4.806-3.989-.615-1.064-.309-.949-.446.12-.503 3.981-4.987 5.581-8.523 7.297m68.095-9.298c2.24 1.093 3.742 2.648 3.742 4.381 0 3.275-4.95 5.635-11.361 5.672-6.406.045-11.254-2.397-11.254-5.672 0-2.021 1.906-3.808 4.831-4.88 1.58-.578 3.086-1.048 4.554-1.848 1.394-.771 2.673-1.638 3.313-2.743.421-.738.215-.656.305.078.347 2.739 3.436 3.836 5.87 5.012"/>
            <path d="M265.806 246.826c2.599 1.266 4.336 3.077 4.336 5.099 0 3.828-5.734 6.571-13.155 6.621s-13.036-2.793-13.036-6.621c0-2.355 2.207-4.439 5.598-5.689 1.823-.677 3.572-1.225 5.272-2.162 1.617-.887 3.098-1.902 3.836-3.197.487-.85.248-.759.355.099.404 3.193 3.977 4.476 6.794 5.85m-60.422 3.721c3.255 1.576 5.433 3.836 5.433 6.357 0 4.765-7.19 8.184-16.497 8.246s-16.344-3.482-16.344-8.246c0-2.945 2.772-5.536 7.021-7.095 2.285-.837 4.48-1.518 6.609-2.69 2.03-1.106 3.882-2.376 4.81-3.989.611-1.064.309-.949.446.12.503 3.981 4.983 5.581 8.523 7.297m-68.096-9.298c-2.24 1.093-3.742 2.648-3.742 4.381 0 3.275 4.95 5.635 11.361 5.672 6.406.045 11.254-2.397 11.254-5.672 0-2.021-1.906-3.808-4.835-4.88-1.576-.578-3.082-1.048-4.55-1.848-1.394-.771-2.677-1.638-3.313-2.743-.421-.738-.215-.656-.305.078-.351 2.739-3.436 3.836-5.87 5.012"/>
            <path d="M156.913 246.826c-2.595 1.266-4.331 3.077-4.331 5.099 0 3.828 5.734 6.571 13.155 6.621s13.036-2.793 13.036-6.621c0-2.355-2.207-4.439-5.598-5.689-1.823-.677-3.572-1.225-5.276-2.162-1.613-.887-3.094-1.902-3.832-3.197-.487-.85-.248-.759-.355.099-.404 3.193-3.977 4.476-6.798 5.85"/>
        </g>
        <path fill="#003d24" d="M591.519 326.912c-57.773 0-104.904-9.504-104.904-21.15s47.13-21.146 104.904-21.146 104.9 9.5 104.9 21.146-47.122 21.15-104.9 21.15"/>
        <path d="M486.632 306.072c-.083.755-.021 1.551-.021 2.426 0 11.683 46.978 21.154 104.896 21.154 57.926 0 104.904-9.471 104.904-21.154 0-1.011.107-1.753-.021-2.426-.821 11.538-47.465 20.841-104.883 20.841-57.41 0-104.058-9.302-104.875-20.841" class="E"/>
    </g>
    <path d="M519.6 358.891c.116-1.823 2.562-17.829 7.396-23.493 4.245-4.975 9.876-8.807 17.631-10.606 5.284-1.225 6.728-.041 18.827-.103 9.364-.054 16.55-.804 21.315-1.32 11.047-1.184 20.147-2.999 22.334-3.44 6.002-1.221 12.074-2.063 18.044-3.42 0 0 3.032-.648 12.479-.516.949.016 2.628.231 4.443 1.539.994.722 1.464 1.753 1.464 1.753s5.194-.99 9.1-1.951c.71-.173 8.139-1.906 11.703 1.708 1.184 1.196 2.174 3.226 1.514 4.393-.631 1.126-2.607 1.11-3.148 1.122-5.408.083-10.965 4.682-21.991 9.232-5.808 2.393-11.299 3.766-22.288 6.501-6.534 1.629-11.146 2.553-19.12 4.15l-24.174 4.946c-13.386 4.117-22.594-.276-18.106 53.735 1.295 15.569 17.788 75.372 17.091 86.068-.417 6.353-1.089 16.711-7.677 26.822-1.238 1.91-24.236 24.029-29.281 26.657-6.963 3.634-11.386 3.552-13.535 3.321 0 0-3.16-.334-6.34-1.823-4.818-2.265-16.29-10.915-21.983-29.635-11.802-38.81 21.913-118.208 24.302-155.64" class="H"/>
    <path fill="#e06a2f" d="M642.032 323.192c-1.939.012-3.878.157-5.8.367l-5.755.879c-3.803.722-7.57 1.757-11.233 3.007l-2.739.961-2.706 1.011c-1.799.693-3.597 1.423-5.367 2.203-3.535 1.563-7.005 3.271-10.321 5.289 1.877-.512 3.717-1.081 5.553-1.654l5.487-1.761 5.462-1.799 2.731-.912 2.714-.924a259.04 259.04 0 0 1 10.895-3.478l11.08-3.189"/>
    <g class="B">
        <path d="M633.336 224.834c-2.615-2.665-9.286-4.315-13.642-1.807-1.308.747-1.134.631-2.512-.124-4.913-2.702-11.658-2.219-15.973 1.543-.012.012-.012.004-.025.004-2.904-.813-6.151.289-8.638 1.77-9.298 5.54-9.773 14.405-8.762 24.178 3.181 30.733 21.711 44.255 24.281 37.032.45.458.912.899 1.378 1.312 3.742 3.3 13.98 3.556 17.52-.334.223-.248.45-.536.677-.866 2.496 1.757 5.792 2.479 8.358.644 8.993-6.448 16.163-30.609 14.199-47.159-.697-5.862-3.143-10.263-7.908-14.067-2.917-2.327-6.072-2.776-8.952-2.124" class="M"/>
        <path d="M627.73 226.002c-2.999-.14-7.198-.784-9.236-2.438-4.265 1.539-9.236 1.877-13.312 2.009a9.79 9.79 0 0 1-.153.738c.611.367 1.188.738 1.733 1.13 1.436-.206 2.991-.107 4.661.355 2.405.677 3.478 2.145 6.122 1.349 2.698-.813 5.916-1.077 8.527.004.664-.718 1.427-1.398 2.261-1.997-.219-.384-.425-.771-.602-1.151" class="F"/>
        <path d="M628.931 238.225c.771-5.119-12.219-4.179-12.058-.103.194 4.888 11.32 5.024 12.058.103m9.277-.755c-5.148 1.576-5.062-1.225-3.663-2.599 1.514-1.477 3.601-1.535 4.963-.8 1.497.813 1.935 2.409-1.299 3.399" class="E"/>
        <path d="M621.81 225.763c.99-7.673-2.36-19.487-9.088-21.587-1.629-.507-3.515-.47-5.206.788-1.654 1.221.243 3.902 1.431 4.983.639.59 1.258.417 1.642-.219.681-1.139 1.935-1.32 3.044 1.064 1.844 3.94.982 9.599-1.291 13.609-3.671 1.918 2.492 3.597 4.488 3.725 1.667.103 6.229.017 4.979-2.364" class="G"/>
        <path d="M607.042 205.5c-.705 1.349.866 3.506 1.906 4.447.433.396.854.45 1.205.243.177-.763-.062-1.84-.701-2.842-.668-1.06-1.609-1.741-2.409-1.848" class="F"/>
        <path fill="#fa0" d="M606.956 288.915c-6.613-7.652-11.357-20.119-12.252-31.822 1.514 11.612 6.6 23.497 13.362 30.337-.26.615-.54 1.118-1.11 1.485zm19.982-59.37c.961-1.048 2.067-2.091 3.205-3.007.866-.705 1.869-1.167 2.925-1.44-1.741.116-3.42.619-4.798 1.728-.842.681-1.675 1.431-2.434 2.207-2.574-.978-5.68-.701-8.304.087-2.64.796-3.709-.668-6.118-1.345-1.683-.466-3.247-.561-4.694-.355l.004-.037a26.03 26.03 0 0 0-2.219-1.489c-1.213-.726-2.611-.928-3.997-.821.866.095 1.712.342 2.487.804a24.07 24.07 0 0 1 2.578 1.782c-4.435 1.176-7.636 5.297-9.385 10.152-1.724 4.777-2.236 10.437-1.786 16.274-.173-5.053.404-9.892 1.906-14.059 2.45-6.79 7.718-12.132 15.23-10.041 2.413.668 3.482 2.137 6.122 1.345 3.61-1.085 8.135-1.2 10.919 1.584 11.282 11.27 6.914 43.302-.961 54.622a10.24 10.24 0 0 0 1.539.895c6.233-12.66 10.936-46.107-.701-57.728a7.23 7.23 0 0 0-1.518-1.159"/>
        <path d="M584.985 228.184c-3.779-1.386-6.064-.862-9.15.862-4.187-2.096-14.24-1.374-18.555 2.496-5.462-1.53-9.492.037-11.815 1.605-6.175 4.146-8.605 11.691-9.113 20.065-1.04 16.963 4.034 31.488 18.687 41.603 8.882 6.138 20.102 7.025 27.404-.058 1.53-1.485.837-1.37 2.615-.569 2.76 1.233 6.085.144 8.836-1.539 3.457-2.112 5.243-4.905 7.071-8.486 11.15-21.864 5.569-55.913-15.981-55.979" class="M"/>
        <path fill="#fa0" d="M559.574 235.816c-3.849-2.063-9.092-7.285-15.882 1.708-4.501 5.969-3.482 16.724-1.551 24.599 2.182 8.91 8.189 17.037 14.273 23.786 7.508 8.329 21.583 13.951 29.726 3.799 1.04.425 3.659.932 6.922.507 6.105-.784 9.905-7.933 11.876-16.307 2.005-8.527 2.483-18.048.223-26.595-2.001-7.557-6.159-14.426-12.73-17.4-10.462-4.744-11.584 1.188-14.026 3.614-4.179 5.895-15.036 5.346-18.832 2.289"/>
        <path d="M569.569 258.228l.045.194c.136.606.912.771 1.126 1.53.004.021.017.05.021.074-.004-.029-.004-.066-.004-.099 0-.784.701-1.155.672-1.778l-.008-.058c-.532.132-1.139.19-1.852.136zm-1.563-.305l-.004.186c-.004.359.21.635.413.941.219-.182.413-.363.483-.635l.07-.264-.961-.227zm-2.025-.792c-.012.045-.021.095-.041.144-.12.466.157.875.285 1.365.396-.243.85-.342 1.06-.726l.103-.182a11.54 11.54 0 0 1-1.407-.602zm-4.208-2.017l-.276-2.013c.4.594.846 1.147 1.328 1.662l-.235.161c-.243.177-.52.19-.817.19zm.837 3.977c.054-.421.268-.879.73-1.337.611-.602 1.444-.351 1.91-.858.037-.033.066-.074.099-.111a10.96 10.96 0 0 1-2.071-1.572c-.029.07-.066.14-.103.219-.314.598.206 1.271-.14 2.05-.173.371-.375.656-.606.858l.182.751zm18.304 30.568c-6.749-4.08-14.686-17.536-18.002-29.462.536.755 1.667 1.106 2.483.557.314 1.031 1.683 1.477 2.566.932.846.986 2.912.648 2.892-1.056.623 2.261 4.389.908 2.789-1.555-.429-.66-1.213-.59-1.53-1.126l-.033-.062c1.093-.433 1.885-1.151 2.834-1.625.054.153.099.318.144.474v.045c.004.536-.606.837-.635 1.514-.054 1.295.804 1.761 1.588 1.646l.045.165c-.021.008-.045.008-.074.012.507 2.005 1.361 4.876 2.162 7.5 1.992 6.233 3.577 12.252 4.571 16.245 1.101 4.142 1.176 4.125-1.291 6.085l-.507-.289" class="M"/>
        <path fill="#fff8ad" d="M584.172 248.109a13.92 13.92 0 0 0 .05-1.51 3.82 3.82 0 0 0 .487.083c.487.058.747.52 1.196.796-.466.215-.78.627-1.258.619l-.474.012zm-3.263 6.889l.623-.524c.19-.177.388-.388.578-.631.062.14.149.314.272.528.239.408.074.883.078 1.386-.45-.128-.903-.111-1.217-.429l-.334-.33zm-11.34 3.23c.714.054 1.32-.004 1.852-.136l.008.058c.029.623-.672.994-.672 1.778l.004.099c-.004-.025-.017-.054-.021-.074-.215-.759-.99-.924-1.126-1.53-.021-.07-.033-.136-.045-.194zm-1.563-.305l.961.227c-.025.074-.045.169-.07.264-.07.272-.264.454-.483.635-.202-.305-.417-.582-.413-.941l.004-.186zm-2.025-.792a11.54 11.54 0 0 0 1.407.602c-.033.05-.066.116-.103.182-.21.384-.664.483-1.06.726-.128-.491-.404-.899-.285-1.365.021-.05.029-.099.041-.144zm-5.784-6.477a13.19 13.19 0 0 0 .751 1.555 5.17 5.17 0 0 0-.606.186c-.52.19-1.015-.219-1.642-.161.446-.429.503-1.052.994-1.299.215-.103.384-.198.503-.281zm-1.044-5.251l.062 1.32c-.132-.012-.301-.012-.495-.008-.404.012-.701-.268-1.06-.487.289-.285.516-.602.895-.681l.598-.144zm.132-1.922a11.84 11.84 0 0 0-.128 1.526c-.14-.058-.33-.12-.565-.198-.503-.144-.685-.705-1.143-1.048.408-.165.755-.429 1.172-.355l.664.074zm23.906-2.174l.565-.103c.384-.083.71.124 1.093.268-.248.342-.404.714-.776.87l-.47.202-.413-1.238zm-.784-1.782c.124-.062.268-.153.441-.268.351-.227.776-.12 1.221-.136-.297.503-.231 1.085-.635 1.423l-.4.355-.627-1.374zm.12-2.71c-.367.718.103 1.382-.215 1.943l-.157.281-.677-1.167c-1.345-2.137-2.904-3.09-5.54-1.98-3.16 2.203-8.271 2.541-11.823 1.799-1.856-.396-3.713 1.877-4.249 3.403-.231.652-.404 1.32-.52 1.997-.103-.103-.252-.219-.437-.359-.507-.388-.347-1.184-.965-1.704-2.182-1.819-3.952 1.341-2.265 2.479-1.242.446-1.382 2.322-.301 2.991-1.13 1.176.132 3.82 2.331 2.475.685-.425.639-1.238 1.2-1.543.144-.083.264-.149.363-.215a14.29 14.29 0 0 0 .763 3.028c-.132-.012-.301-.021-.503-.025-.639-.012-.978-.751-1.782-.796-2.925-.19-2.364 3.634-.182 3.321-1.559 1.357.726 4.216 2.537 2.05.503-.606.206-1.341.627-1.794.182-.198.314-.355.4-.474a12.82 12.82 0 0 0 1.691 2.24l-.235.161c-.549.396-1.295-.029-2.005.429-2.912 1.86 1.023 5.268 2.45 2.129.347-.78-.173-1.452.14-2.05.037-.078.074-.149.103-.219a10.96 10.96 0 0 0 2.071 1.572c-.033.037-.062.078-.099.111-.466.507-1.299.256-1.91.858-2.001 1.98.557 4.006 2.054 2.999.314 1.031 1.683 1.477 2.566.932.846.986 2.912.648 2.892-1.056.623 2.261 4.389.908 2.789-1.555-.429-.66-1.213-.59-1.53-1.126l-.033-.062c1.159-.466 1.984-1.238 3.011-1.712-.021.128-.033.33-.033.606.004.536-.606.837-.635 1.514-.116 2.768 3.931 1.745 2.516-.635-.347-.586-1.027-.557-1.279-1.031-.14-.268-.256-.454-.342-.549.128-.05.252-.099.388-.136 1.196-.355 1.935-.099 2.714-.041-.041.12-.066.314-.095.561-.054.536-.701.763-.8 1.436-.421 2.747 3.725 2.182 2.582-.351-.281-.623-.965-.668-1.163-1.172-.078-.202-.149-.359-.21-.47.507-.004 1.052-.136 1.761-.606.029.12.062.248.107.408.186.623-.425 1.172-.235 1.968.615 2.512 3.374 1.551 3.436-.078 1.708.586 3.659-2.03 1.221-3.428-.751-.433-1.493.029-2.071-.338-.239-.161-.433-.276-.582-.338.38-.557.738-1.229 1.04-2.013.099.124.256.289.462.479.487.462.227 1.275.809 1.885 2.393 2.487 4.963-2.03 1.605-2.818-.825-.19-1.386.454-2.034.268-.318-.095-.553-.153-.722-.165.268-.763.47-1.609.59-2.537.099.062.215.132.351.198.557.297.524 1.089 1.196 1.493 2.331 1.378 3.539-1.757 1.918-2.681 1.827-.681 1.035-4.096-1.539-2.999-.747.318-.817 1.126-1.419 1.345-.165.066-.305.116-.413.169a15.94 15.94 0 0 0-.479-3.102 3.67 3.67 0 0 0 .441.05c.644.066.92.825 1.716.945 2.549.363 2.657-2.566 1.155-3.193.73-1.044-.144-2.714-1.456-2.624 1.093-1.72-1.782-3.919-3.065-1.378"/>
        <path d="M578.611 233.312c-1.596.128-3.515-.33-4.459-1.275-1.869 3.032-9.492 3.164-12.38 1.988.194.804-.73 1.786-2.805 1.448.206.124.408.235.606.342 3.795 3.057 14.653 3.605 18.832-2.289.07-.07.14-.136.206-.215" class="F"/>
        <path d="M576.578 220.338c1.151.017 2.838-2.64 1.889-3.395-3.399-2.727-6.959-1.002-9.319 1.926-4.414 5.47-3.733 14.24-5.19 18.506-2.475 7.231 16.414 4.109 11.546-1.019-2.76-2.908-4.414-7.26-3.927-11.369.4-3.412 3.275-6.472 4.34-5.218.223.268.219.565.66.569" class="G"/>
        <path d="M576.578 220.338c1.085.017 2.636-2.322 2.034-3.238-.536.033-1.304.681-1.885 1.65-.285.474-.479.949-.586 1.37.087.128.198.215.437.219" class="F"/>
        <path fill="#fff8ad" d="M581.94 237.602c1.073-4.327 2.228-8.283 9.707-4.637 12.132 5.911 12.792 23.394 10.255 36.9-.058.293-.074.524-.272.763-.186.223-.355.248-.545.565-.223.388.177.606-.524.994-.965.524.219 1.089-.153 1.452-1.159 1.143.512 1.423.066 2.124-.227.351-1.394-.066-1.568.722-.062.293.615.635.21.879-.516.305-.037.582-.243.78-.809.738.301 1.559-.186 2.446-.532.978-1.605.66-2.137 1.229-.305.338-.359.755-.355 1.077.008.862-.078.998-.582 1.382-.433.322-.215.586-.524.747-.487.248-1.51-.384-1.617.763-.021.198-.182 1.2-.503 1.035-.239-.107-.289.169-.433.21-.516.132-1.266-1.13-2.005-.26-.058.074-.05.078-.103.062-.408-.087-.429.417-.71.668-.107.103-.21.153-.309.165-.083-.004-.169-.021-.248-.029-.371-.12-.701-.536-1.114-.219-2.129-.602-2.438-1.25-3.473-3.222-1.972-3.762-6.155-18.473-8.077-24.409-.177.087-.38.136-.582.157.858 3.407 2.789 9.488 3.696 12.442 1.456 4.76 2.9 10.561 3.568 13.502.388 1.683.532 2.005-.796 3.275-1.188 1.134-2.727 1.823-4.43 2.166-.318-.144-.524 0-.734.124-.206.029-.421.054-.635.07l-.058-.029c-.408-.264-.705-.788-1.159-.495-.07.041-.07.05-.157-.029-.21-.19-.594-.231-.809.091-.116.182-.326.268-.569.289-.19.021-.384-.293-.619-.05-.326.338-.887-.359-.961-.606-.111-.347-.309-.487-.627-.606-.664-.248-.953.491-1.695.404-.45-.054-.305-.474-.978-.672-.792-.235-1.328.388-1.716-.668-.14-.392-.392-.887-.916-1.151-.693-.355-1.209.202-2.426-.177a2.83 2.83 0 0 1-.648-.301 10.42 10.42 0 0 1-.404-.309c-.099-.083-.194-.169-.272-.264-.751-.821.334-1.39-1.077-1.964-.347-.136.111-.701-.652-.846-.606-.107.07-.837-.144-1.163-.573-.879-1.807.161-2.24-.169-.862-.66.408-1.353-1.526-2.211-.619-.276.578-1.51-.837-1.712-1.04-.153-.648-.606-1.097-.978-.413-.33-.615-.177-.994-.4-3.927-5.883-6.864-12.875-8.382-19.636-3.284-14.653-.573-30.448 12.941-16.439 2.805 2.908 7.19-5.326 3.42-4.95-3.94.396-9.971-10.074-18.32.994-4.501 5.973-3.49 16.724-1.551 24.607 2.182 8.902 8.184 17.033 14.265 23.782 7.52 8.329 21.591 13.951 29.734 3.795 1.04.421 3.659.928 6.918.516 6.109-.788 9.913-7.937 11.881-16.311 2.001-8.523 2.483-18.052.223-26.595-2.001-7.561-6.159-14.426-12.73-17.4-12.169-5.52-11.703 3.42-15.379 4.459-4.055 1.155 2.487 6.394 4.917 3.271"/>
        <path fill="#ec1c24" d="M534.971 256.359c2.97-.314 4.781-1.984 9.496-1.085 1.988.371 2.038 1.32 4.707 1.345 2.735.029 7.141 1.246 11.658 5.024 6.926 5.788 8.18 18.25 5.52 26.24-2.628 7.908-9.038 13.766-17.049 16.988-8.329 3.358-19.566 2.657-27.985-.128-21.125-6.988-28.196-43.925-.982-49.87 7.92-1.733 11.947 1.308 14.636 1.485"/>
        <path d="M540.808 263.995c4.385-2.45 11.353-6.584 18.811-1.497 2.512 1.716 2.714 1.679 1.081.285-6.175-5.247-18.031-3.824-22.858.231-.569.474-.487.334-1.242.103a20.3 20.3 0 0 0-4.072-.792c-1.093-.091-.776-.062-1.497-.705-4.208-3.754-14.756-5.342-20.416-.817-1.497 1.192-1.403 1.101.974-.231 5.998-3.366 11.674-.879 15.581 1.233.821.446.908.639-.087.862-4.727 1.06-8.956 4.084-11.084 9.463-.78 1.959-.528 1.939.776-.73 5.965-12.244 29.565-7.351 31.896 6.588.499 2.974.549 3.119.479.986-.206-6.423-3.684-11.237-8.362-14.009-.969-.578-.99-.404.021-.969" class="N"/>
        <path fill="#00a551" d="M510.892 250.58c-.441.116-.627-.099.029-.206 3.102-.524 4.286-.301 6.221.231 1.497.408 3.09 1.217 5.111 2.529 1.885 1.225 3.358 2.566 4.921 4.187 1.11 1.155 3.935 2.116 3.902 2.075-1.811-2.1-3.803-4.435-3.659-7.446.116-2.376 2.648-6.324 1.477-8.024-.276-.392.623-.26 1.13 1.477.347 1.167.545 2.141.71 3.036.256 1.328-.446 4.377-.309 7.26-.116 1.11 2.673 4.142 4.348 4.166.334.045 3.684-2.219 4.88-3.275 3.181-2.809 6.258-5.854 5.874-10.573-.136-1.695.545-2.929 1.081-3.733.371-.54.561-.441.173.111-.627.895-.05 3.655-.029 5.503.037 2.541-.557 5.305-1.683 7.347-.932 1.683-4.616 4.637-7.116 5.858 2.03-.33 5.594-.747 7.458-1.044 1.642-.264 3.634.301 5.169.809 2.995 1.002 5.487 1.728 7.211.957.776-.351.656.074-.986.524-2.941.809-5.239-.507-6.98-.004-1.906.557-3.313 1.77-5.548 1.852-2.834.103-6.217-.338-8.902-1.176-6.13 3.044-6.914.219-13.362 7.656-.512.598-3.259 3.057-4.694 3.473-.037.012-.437.157.817-.639 1.044-.66 1.502-1.955 1.98-3.053 1.139-2.611 2.529-5.111 4.616-6.345 2.401-1.415 4.645-2.401 6.93-2.553-2.764-.47-6.472-1.357-8.453-3.065-2.071-1.778-4.265-5.19-6.794-6.885-1.662-1.118-3.473-1.568-5.524-1.031"/>
        <path d="M533.601 260.649c-.054-1.53-1.048-3.168-.751-6.18.062-.664.578-2.046.903-2.648.309-.553 1.073-.334 1.753-.289 2.508.173-.182 4.472-.441 6.196-.264 1.745.483 2.413.425 3.346-.033.495-.664.598-1.221.553-.545-.041-.743-.33-.668-.978" class="O"/>
        <path fill="#fff584" d="M536.522 252.292c-.371.132-.776.206-1.415.177s-1.081-.243-1.419-.507l.066-.14c.309-.553 1.073-.334 1.753-.289.606.041.908.326 1.015.759"/>
        <path fill="#ec1c24" d="M496.359 278.268l32.507 13.502 7.392 10.103c.334.454.305.4-.037.858-5.594 7.52-13.877 9.121-20.981 9.657-17.961 1.353-34.165-14.644-18.881-34.12"/>
        <path fill="#ee907b" d="M496.359 278.186c10.42 4.633 20.209 8.37 31.517 13.143-11.46 30.011-52.737 13.432-31.517-13.143"/>
        <path d="M499.783 286.717c-5.28 10.057 9.278 14.426 15.725 5.656 1.766-2.405 6.835.12 5.037 2.867-9.896 15.102-34.293 4.826-25.094-10.915 1.361-2.327 5.693-.202 4.331 2.393" class="N"/>
        <g fill="#fff584">
            <path d="M499.073 297.157c.648-.516 1.407-.186 1.898-.619.899-.792 1.052-.689.619.425-.235.611.334 1.217.074 2.001-1.064 3.193-5.227.289-2.591-1.807"/>
            <path d="M514.023 297.467c1.287 3.362 5.598.062 2.686-2.058-.718-.52-1.514-.124-2.063-.569-.994-.804-1.151-.681-.635.491.281.639-.301 1.312.012 2.137zm-3.065 1.543c.528 3.296 5.074 1.114 2.834-1.357-.557-.606-1.353-.413-1.77-.916-.751-.916-.92-.837-.668.326.132.635-.528 1.139-.396 1.947zm-3.193.635c.103-.817.879-1.11.924-1.761.087-1.184.272-1.213.734-.124.26.602 1.085.631 1.444 1.37 1.456 3.003-3.511 3.824-3.102.516zm-6.724-1.271c-1.959 2.368 1.774 4.241 2.727 1.992.021 2.355 4.096 2.174 3.3-.763-.215-.796-1.031-.99-1.167-1.629-.256-1.167-.441-1.172-.751-.017-.165.594-.887.763-1.192 1.427-.037-.681-.582-1.126-.483-1.712.194-1.176.021-1.254-.697-.293-.392.524-1.205.359-1.737.994zm-4.402-4.682c.792-.215 1.353.384 1.968.186 1.126-.363 1.221-.206.392.639-.462.454-.177 1.229-.718 1.836-2.219 2.471-4.847-1.799-1.642-2.661zm-.701-3.238c-3.321-.136-2.096 4.719.763 3.024.705-.413.668-1.233 1.238-1.539 1.044-.549.998-.73-.177-.722-.648.004-1.007-.734-1.823-.763zm2.19-5.746c.52.524.297 1.233.73 1.629.784.726.701.87-.33.586-.569-.149-1.048.413-1.77.256-.004-.008-.017-.008-.021-.008.619.342.705 1.06 1.258 1.266 1.056.4 1.035.578-.087.705-.623.074-.87.825-1.646.953-2.966.495-2.615-3.709-.128-3.143-1.947-1.04.066-4.216 1.992-2.244zm18.584 10.544c-.507-.722-.111-1.518-.545-2.071-.784-1.007-.66-1.159.499-.631.644.297 1.316-.281 2.141.05 3.341 1.332-.021 5.59-2.096 2.653"/>
        </g>
        <path d="M544.933 273.788c.623-4.843-11.612-3.68-11.373.161.289 4.604 10.779 4.501 11.373-.161m7.859-.845c-4.529 1.502-4.509-.982-3.3-2.215 1.312-1.341 3.16-1.44 4.381-.817 1.345.693 1.761 2.096-1.081 3.032" class="E"/>
        <path d="M502.902 281.02l26.24 9.649c2.842 3.882 4.451 6.419 7.293 10.301.429.582.454.507.037 1.089-1.456 2.063-3.647 4.406-5.577 5.742 1.568-1.559 2.735-3.275 3.935-5.103.276-.421.417-.751-.017-1.217-2.842-3.882-4.455-6.419-7.297-10.296l-24.615-10.164" class="N"/>
        <path fill="#a3cd39" d="M689.41 253.76c9.467 3.77 16.241 10.144 15.313 18.939-.305 2.908-2.129 5.404-4.901 7.545 5.128 3.775 3.362 9.311-.833 14.116-9.855 11.311-37.131 17.095-51.115 13.246-1.827-.499-3.49-1.163-4.884-1.671-.433-.153-.916-.132-1.39-.153-3.981-.124-8.213-.177-10.911-3.643-1.106-1.427-1.799-3.061-2.174-4.785-5.957-2.785-6.349-9.311-4.406-13.419.809-1.716 2.43-3.799.635-5.268-3.247-2.657-7.252-11.365.536-18.299-.041-1.32.227-2.772.903-4.389 3.321-7.953 14.847-12.219 25.028-12.734 8.824-.446 26.599 2.083 34.45 6.151 2.058 1.064 3.391 2.496 3.75 4.364"/>
        <path d="M632.837 270.348c-3.197-1.308-7.5-4.393-7.326-9.269.602 3.676 3.824 6.155 7.079 7.219.206.648.276 1.353.248 2.05zm5.883-3.861c.776 4.08 2.405 4.864 3.766 8.061.487 1.155.421 1.794.322 3.007-.371 4.513-.248 8.3 3.935 11.53 5.029 3.882 13.456 3.407 22.495 1.815 10.589-1.869 24.157-5.235 30.98-11.031-7.215 4.983-19.475 7.962-29.206 9.678-9.042 1.596-17.466 2.071-22.499-1.815-4.179-3.222-4.303-7.017-3.931-11.53.099-1.213.165-1.848-.322-3.003-1.365-3.201-2.991-3.981-3.766-8.065-.87-4.517.672-8.114 3.775-10.837-4.261 2.834-6.567 6.881-5.548 12.19zm-2.797 19.681c.602.776.858 1.361.969 1.155.347-.38.92-.734 1.646-.994-3.185 5.103-3.935 13.733 4.039 18.943-8.873-4.703-9.418-13.485-6.654-19.104zm-2.785-3.993c-2.62 1.761-5.445 7.549-4.001 13.39-.726-5.367 2.232-9.702 4.641-11.221a5.4 5.4 0 0 0-1.052-.437l.413-1.733zm56.272-28.414c.074.029-14.842-4.818-27.622-3.721 8.51-1.192 18.514-.425 27.07 2.199.264.474.45.978.553 1.522" class="O"/>
        <path d="M638.34 254.887c-4.406-.359-3.486-2.467-2.009-3.094 1.601-.668 3.214-.078 4.026.891.903 1.077.747 2.426-2.017 2.203zm9.397 1.027c-5.181 2.207 3.11 13.708 6.79 11.225 4.422-2.97-1.807-13.349-6.79-11.225" class="E"/>
        <path d="M632.577 268.265c1.992.371 4.707-.198 6.237-1.299.817 3.671 2.364 4.517 3.671 7.582.487 1.155.421 1.794.322 3.007-.26 3.152-.276 5.961 1.172 8.469l.074.223c-3.044-.912-6.126-.066-7.161 1.077-.223.421-1.048-2.438-4.166-3.416.536-2.401 1.65-4.95-1.316-9.599 1.143-1.283 1.848-3.94 1.167-6.043" class="O"/>
        <path fill="#00a550" d="M615.891 268.586c-.095-1.332-3.164-2.69-3.882-1.477-2.083 3.535-.957 6.505 1.283 8.659 5.181 4.996 14.356 5.99 21.591 6.171 1.506.033 1.807 2.005 3.671 1.522 5.313-1.357 2.265-14.665-2.582-12.425-.998.462-1.213 1.947-2.141 2.397-6.39 3.082-21.1-.05-18.535-4.014.227-.342.631-.309.594-.833"/>
        <path fill="#a3cd39" d="M615.891 268.582c-.091-1.213-2.64-2.45-3.63-1.741-.182.59.441 1.407 1.448 1.856.866.392 1.741.4 2.178.058.004-.045.012-.103.004-.173"/>
    </g>
</svg>